<!-- 06-manifold-showcase.svg - callouts placed via empty-space workflow -->
<svg xmlns="http://www.w3.org/2000/svg" viewBox="0 0 1000 680">
  <style>
    .fg-1 { fill: #1a5a6e; }  .fg-3 { fill: #236a74; }
    .card { fill: #005f7a; fill-opacity: 0.04; stroke: #005f7a; stroke-width: 1; }
    .accent-bar { fill: #005f7a; opacity: 0.6; }
    .spine-stroke { fill: none; stroke: #7a4a15; stroke-width: 3; stroke-linejoin: round; stroke-linecap: round; opacity: 0.95; }
    .dot-spine { fill: #7a4a15; stroke: none; }
    .divider { fill: none; stroke: #236a74; stroke-width: 0.6; stroke-dasharray: 3,5; opacity: 0.4; }
    .callout-line { fill: none; stroke: #7a4a15; stroke-width: 1; opacity: 0.7; stroke-linecap: round; }
    .callout-text { fill: #7a4a15; font-family: Segoe UI, Arial, sans-serif; font-size: 8.5px; font-style: italic; font-weight: 600; }
    .empty-region { fill: none; stroke: #e03020; stroke-width: 2.2; stroke-dasharray: 6,3; opacity: 0.85; }
    .empty-label { fill: #e03020; font-family: Segoe UI, Arial, sans-serif; font-size: 10px; font-style: italic; font-weight: 700; opacity: 0.95; }
    .strand-0 { fill: none; stroke: #005f7a; stroke-width: 1.8; stroke-linejoin: round; stroke-linecap: round; opacity: 0.9; }
    .arrow-0  { fill: #005f7a; stroke: none; opacity: 0.95; }
    .strand-1 { fill: none; stroke: #1a7a8f; stroke-width: 1.8; stroke-linejoin: round; stroke-linecap: round; opacity: 0.9; }
    .arrow-1  { fill: #1a7a8f; stroke: none; opacity: 0.95; }
    .strand-2 { fill: none; stroke: #0096d1; stroke-width: 1.8; stroke-linejoin: round; stroke-linecap: round; opacity: 0.9; }
    .arrow-2  { fill: #0096d1; stroke: none; opacity: 0.95; }
    .strand-3 { fill: none; stroke: #2b7680; stroke-width: 1.8; stroke-linejoin: round; stroke-linecap: round; opacity: 0.9; }
    .arrow-3  { fill: #2b7680; stroke: none; opacity: 0.95; }
    .strand-4 { fill: none; stroke: #3a91a6; stroke-width: 1.8; stroke-linejoin: round; stroke-linecap: round; opacity: 0.9; }
    .arrow-4  { fill: #3a91a6; stroke: none; opacity: 0.95; }
    .strand-5 { fill: none; stroke: #1a5a6e; stroke-width: 1.8; stroke-linejoin: round; stroke-linecap: round; opacity: 0.9; }
    .arrow-5  { fill: #1a5a6e; stroke: none; opacity: 0.95; }
    .strand-6 { fill: none; stroke: #4099b3; stroke-width: 1.8; stroke-linejoin: round; stroke-linecap: round; opacity: 0.9; }
    .arrow-6  { fill: #4099b3; stroke: none; opacity: 0.95; }
    .strand-7 { fill: none; stroke: #2d8da8; stroke-width: 1.8; stroke-linejoin: round; stroke-linecap: round; opacity: 0.9; }
    .arrow-7  { fill: #2d8da8; stroke: none; opacity: 0.95; }
    @media (prefers-color-scheme: dark) {
      .fg-1 { fill: #b8e4f0; }  .fg-3 { fill: #5aafc5; }
      .card { fill: #5cc8e0; fill-opacity: 0.06; stroke: #5cc8e0; }
      .accent-bar { fill: #5cc8e0; }
      .spine-stroke { stroke: #d4a04a; }
      .dot-spine { fill: #d4a04a; }
      .divider { stroke: #5aafc5; }
      .callout-line { stroke: #d4a04a; }
      .callout-text { fill: #d4a04a; }
      .empty-region { stroke: #ff8060; }
      .empty-label { fill: #ff8060; }
      .strand-0 { stroke: #5cc8e0; }
      .arrow-0  { fill: #5cc8e0; }
      .strand-1 { stroke: #8fd4e6; }
      .arrow-1  { fill: #8fd4e6; }
      .strand-2 { stroke: #0096d1; }
      .arrow-2  { fill: #0096d1; }
      .strand-3 { stroke: #b8e4f0; }
      .arrow-3  { fill: #b8e4f0; }
      .strand-4 { stroke: #5aafc5; }
      .arrow-4  { fill: #5aafc5; }
      .strand-5 { stroke: #8fd4e6; }
      .arrow-5  { fill: #8fd4e6; }
      .strand-6 { stroke: #5cc8e0; }
      .arrow-6  { fill: #5cc8e0; }
      .strand-7 { stroke: #a3dde8; }
      .arrow-7  { fill: #a3dde8; }
    }
  </style>
  <text x="500" y="30" text-anchor="middle" font-family="Segoe UI, Arial, sans-serif" font-size="15" font-weight="600" class="fg-1">Canonical manifold: cubic Bezier with tension-driven tangents</text>
  <text x="500" y="48" text-anchor="middle" font-family="Segoe UI, Arial, sans-serif" font-size="10" class="fg-3">Manifold standoff 5px; direct + L-chamfer standoff 10px; edge-to-edge routing</text>
  <g id="src_0"><path d="M60,70 H220 V119 Q220,122 217,122 H63 Q60,122 60,119 Z" class="card"/>
    <rect x="60" y="70" width="160" height="4" class="accent-bar"/>
    <text x="70" y="90" font-family="Segoe UI, Arial, sans-serif" font-size="11" font-weight="600" class="fg-1">API Gateway</text>
    <text x="70" y="106" font-family="Segoe UI, Arial, sans-serif" font-size="9" class="fg-3">REST + GraphQL</text></g>
  <g id="src_1"><path d="M60,140 H220 V189 Q220,192 217,192 H63 Q60,192 60,189 Z" class="card"/>
    <rect x="60" y="140" width="160" height="4" class="accent-bar"/>
    <text x="70" y="160" font-family="Segoe UI, Arial, sans-serif" font-size="11" font-weight="600" class="fg-1">Event Bus</text>
    <text x="70" y="176" font-family="Segoe UI, Arial, sans-serif" font-size="9" class="fg-3">Kafka</text></g>
  <g id="src_2"><path d="M60,210 H220 V259 Q220,262 217,262 H63 Q60,262 60,259 Z" class="card"/>
    <rect x="60" y="210" width="160" height="4" class="accent-bar"/>
    <text x="70" y="230" font-family="Segoe UI, Arial, sans-serif" font-size="11" font-weight="600" class="fg-1">Scheduler</text>
    <text x="70" y="246" font-family="Segoe UI, Arial, sans-serif" font-size="9" class="fg-3">Cron</text></g>
  <g id="src_3"><path d="M60,280 H220 V329 Q220,332 217,332 H63 Q60,332 60,329 Z" class="card"/>
    <rect x="60" y="280" width="160" height="4" class="accent-bar"/>
    <text x="70" y="300" font-family="Segoe UI, Arial, sans-serif" font-size="11" font-weight="600" class="fg-1">Batch Job</text>
    <text x="70" y="316" font-family="Segoe UI, Arial, sans-serif" font-size="9" class="fg-3">nightly ETL</text></g>
  <g id="src_4"><path d="M60,350 H220 V399 Q220,402 217,402 H63 Q60,402 60,399 Z" class="card"/>
    <rect x="60" y="350" width="160" height="4" class="accent-bar"/>
    <text x="70" y="370" font-family="Segoe UI, Arial, sans-serif" font-size="11" font-weight="600" class="fg-1">Legacy DB</text>
    <text x="70" y="386" font-family="Segoe UI, Arial, sans-serif" font-size="9" class="fg-3">Oracle CDC</text></g>
  <g id="sink_0"><path d="M810,90 H970 V139 Q970,142 967,142 H813 Q810,142 810,139 Z" class="card"/>
    <rect x="810" y="90" width="160" height="4" class="accent-bar"/>
    <text x="960" y="110" text-anchor="end" font-family="Segoe UI, Arial, sans-serif" font-size="11" font-weight="600" class="fg-1">OLAP</text>
    <text x="960" y="126" text-anchor="end" font-family="Segoe UI, Arial, sans-serif" font-size="9" class="fg-3">Snowflake</text></g>
  <g id="sink_1"><path d="M810,200 H970 V249 Q970,252 967,252 H813 Q810,252 810,249 Z" class="card"/>
    <rect x="810" y="200" width="160" height="4" class="accent-bar"/>
    <text x="960" y="220" text-anchor="end" font-family="Segoe UI, Arial, sans-serif" font-size="11" font-weight="600" class="fg-1">Graph</text>
    <text x="960" y="236" text-anchor="end" font-family="Segoe UI, Arial, sans-serif" font-size="9" class="fg-3">Neo4j</text></g>
  <g id="sink_2"><path d="M810,310 H970 V359 Q970,362 967,362 H813 Q810,362 810,359 Z" class="card"/>
    <rect x="810" y="310" width="160" height="4" class="accent-bar"/>
    <text x="960" y="330" text-anchor="end" font-family="Segoe UI, Arial, sans-serif" font-size="11" font-weight="600" class="fg-1">Stream</text>
    <text x="960" y="346" text-anchor="end" font-family="Segoe UI, Arial, sans-serif" font-size="9" class="fg-3">Pulsar</text></g>
  <g id="spine" class="spine-stroke"><path d="M415.00,230.00 L416.08,230.00 L419.11,230.00 L422.15,230.00 L425.19,230.00 L428.23,230.00 L431.27,230.00 L434.30,230.00 L437.34,230.00 L440.38,230.00 L443.42,230.00 L446.46,230.00 L449.49,230.00 L452.53,230.00 L455.57,230.00 L458.61,230.00 L461.65,230.00 L464.68,230.00 L467.72,230.00 L470.76,230.00 L473.80,230.00 L476.84,230.00 L479.87,230.00 L482.91,230.00 L485.95,230.00 L488.99,230.00 L492.03,230.00 L495.06,230.00 L498.10,230.00 L501.14,230.00 L504.18,230.00 L507.22,230.00 L510.25,230.00 L513.29,230.00 L516.33,230.00 L519.37,230.00 L522.41,230.00 L525.44,230.00 L528.48,230.00 L531.52,230.00 L534.56,230.00 L537.59,230.00 L540.63,230.00 L543.67,230.00 L546.71,230.00 L549.75,230.00 L552.78,230.00 L555.82,230.00 L558.86,230.00 L561.90,230.00 L564.94,230.00 L567.97,230.00 L571.01,230.00 L574.05,230.00 L577.09,230.00 L580.13,230.00 L583.16,230.00 L586.20,230.00 L589.24,230.00 L592.28,230.00 L595.32,230.00 L598.35,230.00 L601.39,230.00 L604.43,230.00 L607.47,230.00 L610.51,230.00 L613.54,230.00 L616.58,230.00 L619.62,230.00 L622.66,230.00 L625.70,230.00 L628.73,230.00 L631.77,230.00 L634.81,230.00 L637.85,230.00 L640.89,230.00 L643.92,230.00 L645.00,230.00"/></g>
  <path class="strand-0" d="M225.00,96.07 L229.35,96.25 L233.75,96.57 L237.99,97.00 L242.05,97.54 L245.96,98.20 L249.70,98.97 L253.29,99.84 L256.74,100.82 L260.04,101.90 L263.20,103.07 L266.23,104.34 L269.12,105.69 L271.90,107.13 L274.55,108.66 L277.09,110.26 L279.51,111.94 L281.83,113.70 L284.05,115.52 L286.17,117.42 L288.20,119.37 L290.15,121.39 L292.01,123.46 L293.79,125.59 L295.50,127.76 L297.14,129.99 L298.72,132.26 L300.24,134.57 L301.71,136.91 L303.12,139.30 L304.49,141.71 L305.82,144.15 L307.12,146.61 L308.38,149.10 L309.62,151.60 L310.84,154.12 L312.04,156.65 L313.23,159.19 L314.41,161.73 L315.59,164.27 L316.77,166.81 L317.96,169.35 L319.16,171.88 L320.38,174.40 L321.62,176.90 L322.88,179.39 L324.18,181.85 L325.51,184.29 L326.88,186.70 L328.29,189.09 L329.76,191.43 L331.28,193.74 L332.86,196.01 L334.50,198.24 L336.21,200.41 L337.99,202.54 L339.85,204.61 L341.80,206.63 L343.83,208.58 L345.95,210.48 L348.17,212.30 L350.49,214.06 L352.91,215.74 L355.45,217.34 L358.10,218.87 L360.88,220.31 L363.77,221.66 L366.80,222.93 L369.96,224.10 L373.26,225.18 L376.71,226.16 L380.30,227.03 L384.04,227.80 L387.95,228.46 L392.01,229.00 L396.25,229.43 L400.65,229.75 L405.00,229.93"/>
  <path class="strand-1" d="M225.00,166.05 L228.11,166.12 L231.97,166.27 L235.70,166.48 L239.32,166.74 L242.81,167.05 L246.19,167.42 L249.46,167.84 L252.62,168.30 L255.68,168.82 L258.63,169.38 L261.49,169.98 L264.25,170.63 L266.93,171.32 L269.51,172.05 L272.01,172.81 L274.43,173.62 L276.78,174.45 L279.04,175.33 L281.24,176.23 L283.38,177.16 L285.45,178.13 L287.46,179.12 L289.41,180.13 L291.31,181.17 L293.16,182.23 L294.96,183.32 L296.72,184.42 L298.44,185.54 L300.13,186.68 L301.78,187.83 L303.40,189.00 L305.00,190.17 L306.58,191.36 L308.14,192.56 L309.68,193.76 L311.21,194.97 L312.73,196.18 L314.24,197.39 L315.76,198.61 L317.27,199.82 L318.79,201.03 L320.32,202.24 L321.86,203.44 L323.42,204.64 L325.00,205.83 L326.60,207.00 L328.22,208.17 L329.87,209.32 L331.56,210.46 L333.28,211.58 L335.04,212.68 L336.84,213.77 L338.69,214.83 L340.59,215.87 L342.54,216.88 L344.55,217.87 L346.62,218.84 L348.76,219.77 L350.96,220.67 L353.22,221.55 L355.57,222.38 L357.99,223.19 L360.49,223.95 L363.07,224.68 L365.75,225.37 L368.51,226.02 L371.37,226.62 L374.32,227.18 L377.38,227.70 L380.54,228.16 L383.81,228.58 L387.19,228.95 L390.68,229.26 L394.30,229.52 L398.03,229.73 L401.89,229.88 L405.00,229.95"/>
  <path class="strand-2" d="M225.00,235.99 L227.71,235.99 L231.39,235.97 L234.96,235.96 L238.43,235.93 L241.79,235.90 L245.05,235.87 L248.22,235.83 L251.28,235.78 L254.26,235.74 L257.15,235.68 L259.95,235.63 L262.67,235.57 L265.31,235.50 L267.87,235.43 L270.36,235.36 L272.78,235.29 L275.13,235.21 L277.42,235.13 L279.64,235.04 L281.81,234.95 L283.92,234.86 L285.98,234.77 L287.98,234.68 L289.95,234.58 L291.86,234.48 L293.74,234.38 L295.58,234.27 L297.38,234.17 L299.16,234.06 L300.90,233.95 L302.62,233.84 L304.32,233.73 L305.99,233.62 L307.65,233.51 L309.30,233.40 L310.94,233.28 L312.56,233.17 L314.19,233.06 L315.81,232.94 L317.44,232.83 L319.06,232.72 L320.70,232.60 L322.35,232.49 L324.01,232.38 L325.68,232.27 L327.38,232.16 L329.10,232.05 L330.84,231.94 L332.62,231.83 L334.42,231.73 L336.26,231.62 L338.14,231.52 L340.05,231.42 L342.02,231.32 L344.02,231.23 L346.08,231.14 L348.19,231.05 L350.36,230.96 L352.58,230.87 L354.87,230.79 L357.22,230.71 L359.64,230.64 L362.13,230.57 L364.69,230.50 L367.33,230.43 L370.05,230.37 L372.85,230.32 L375.74,230.26 L378.72,230.22 L381.78,230.17 L384.95,230.13 L388.21,230.10 L391.57,230.07 L395.04,230.04 L398.61,230.03 L402.29,230.01 L405.00,230.01"/>
  <path class="strand-3" d="M225.00,305.94 L228.27,305.86 L232.20,305.68 L236.00,305.44 L239.67,305.13 L243.22,304.75 L246.65,304.32 L249.96,303.82 L253.15,303.27 L256.24,302.66 L259.22,301.99 L262.10,301.27 L264.88,300.50 L267.57,299.69 L270.16,298.82 L272.67,297.91 L275.09,296.96 L277.43,295.96 L279.69,294.93 L281.88,293.85 L284.00,292.74 L286.06,291.60 L288.05,290.43 L289.98,289.22 L291.85,287.98 L293.67,286.72 L295.45,285.44 L297.18,284.13 L298.87,282.80 L300.52,281.44 L302.13,280.08 L303.72,278.69 L305.28,277.30 L306.81,275.89 L308.33,274.47 L309.83,273.04 L311.31,271.60 L312.79,270.16 L314.26,268.72 L315.74,267.28 L317.21,265.84 L318.69,264.40 L320.17,262.96 L321.67,261.53 L323.19,260.11 L324.72,258.70 L326.28,257.31 L327.87,255.92 L329.48,254.56 L331.13,253.20 L332.82,251.87 L334.55,250.56 L336.33,249.28 L338.15,248.02 L340.02,246.78 L341.95,245.57 L343.94,244.40 L346.00,243.26 L348.12,242.15 L350.31,241.07 L352.57,240.04 L354.91,239.04 L357.33,238.09 L359.84,237.18 L362.43,236.31 L365.12,235.50 L367.90,234.73 L370.78,234.01 L373.76,233.34 L376.85,232.73 L380.04,232.18 L383.35,231.68 L386.78,231.25 L390.33,230.87 L394.00,230.56 L397.80,230.32 L401.73,230.14 L405.00,230.06"/>
  <path class="strand-4" d="M225.00,375.93 L229.62,375.72 L234.15,375.38 L238.49,374.92 L242.66,374.32 L246.65,373.60 L250.48,372.76 L254.15,371.81 L257.65,370.75 L261.01,369.57 L264.21,368.30 L267.28,366.92 L270.21,365.44 L273.00,363.87 L275.67,362.21 L278.21,360.46 L280.64,358.63 L282.96,356.72 L285.16,354.73 L287.27,352.67 L289.28,350.53 L291.19,348.34 L293.02,346.08 L294.77,343.76 L296.43,341.39 L298.03,338.97 L299.56,336.50 L301.02,333.98 L302.43,331.42 L303.79,328.83 L305.09,326.20 L306.36,323.54 L307.59,320.86 L308.78,318.15 L309.95,315.42 L311.10,312.68 L312.22,309.92 L313.34,307.16 L314.45,304.39 L315.55,301.61 L316.66,298.84 L317.78,296.08 L318.90,293.32 L320.05,290.58 L321.22,287.85 L322.41,285.14 L323.64,282.46 L324.91,279.80 L326.21,277.17 L327.57,274.58 L328.98,272.02 L330.44,269.50 L331.97,267.03 L333.57,264.61 L335.23,262.24 L336.98,259.92 L338.81,257.66 L340.72,255.47 L342.73,253.33 L344.84,251.27 L347.04,249.28 L349.36,247.37 L351.79,245.54 L354.33,243.79 L357.00,242.13 L359.79,240.56 L362.72,239.08 L365.79,237.70 L368.99,236.43 L372.35,235.25 L375.85,234.19 L379.52,233.24 L383.35,232.40 L387.34,231.68 L391.51,231.08 L395.85,230.62 L400.38,230.28 L405.00,230.07"/>
  <path class="strand-5" d="M655.00,229.91 L657.90,229.78 L661.62,229.52 L665.19,229.15 L668.63,228.69 L671.92,228.13 L675.08,227.47 L678.12,226.73 L681.02,225.90 L683.81,224.98 L686.47,223.98 L689.03,222.91 L691.47,221.75 L693.81,220.53 L696.04,219.23 L698.18,217.87 L700.22,216.44 L702.18,214.94 L704.04,213.39 L705.83,211.78 L707.54,210.12 L709.17,208.40 L710.73,206.64 L712.23,204.83 L713.67,202.98 L715.05,201.08 L716.37,199.15 L717.64,197.19 L718.87,195.19 L720.06,193.17 L721.21,191.11 L722.32,189.04 L723.41,186.94 L724.46,184.83 L725.50,182.70 L726.52,180.56 L727.52,178.40 L728.52,176.25 L729.51,174.08 L730.49,171.92 L731.48,169.75 L732.48,167.60 L733.48,165.44 L734.50,163.30 L735.54,161.17 L736.59,159.06 L737.68,156.96 L738.79,154.89 L739.94,152.83 L741.13,150.81 L742.36,148.81 L743.63,146.85 L744.95,144.92 L746.33,143.02 L747.77,141.17 L749.27,139.36 L750.83,137.60 L752.46,135.88 L754.17,134.22 L755.96,132.61 L757.82,131.06 L759.78,129.56 L761.82,128.13 L763.96,126.77 L766.19,125.47 L768.53,124.25 L770.97,123.09 L773.53,122.02 L776.19,121.02 L778.98,120.10 L781.88,119.27 L784.92,118.53 L788.08,117.87 L791.37,117.31 L793.05,117.09"/>
  <path class="strand-6" d="M655.00,230.00 L656.49,229.99 L659.59,229.98 L662.60,229.97 L665.52,229.95 L668.35,229.93 L671.09,229.91 L673.76,229.89 L676.34,229.86 L678.85,229.82 L681.28,229.79 L683.64,229.75 L685.93,229.71 L688.15,229.67 L690.31,229.62 L692.41,229.57 L694.44,229.52 L696.42,229.47 L698.35,229.42 L700.22,229.36 L702.05,229.30 L703.82,229.24 L705.56,229.18 L707.25,229.12 L708.90,229.05 L710.51,228.99 L712.09,228.92 L713.64,228.85 L715.16,228.78 L716.66,228.71 L718.12,228.64 L719.57,228.56 L721.00,228.49 L722.41,228.42 L723.81,228.34 L725.20,228.27 L726.58,228.19 L727.95,228.11 L729.32,228.04 L730.68,227.96 L732.05,227.89 L733.42,227.81 L734.80,227.73 L736.19,227.66 L737.59,227.58 L739.00,227.51 L740.43,227.44 L741.88,227.36 L743.34,227.29 L744.84,227.22 L746.36,227.15 L747.91,227.08 L749.49,227.01 L751.10,226.95 L752.75,226.88 L754.44,226.82 L756.18,226.76 L757.95,226.70 L759.78,226.64 L761.65,226.58 L763.58,226.53 L765.56,226.48 L767.59,226.43 L769.69,226.38 L771.85,226.33 L774.07,226.29 L776.36,226.25 L778.72,226.21 L781.15,226.18 L783.66,226.14 L786.24,226.11 L788.91,226.09 L791.65,226.07 L793.00,226.06"/>
  <path class="strand-7" d="M655.00,230.09 L657.72,230.20 L661.37,230.45 L664.87,230.79 L668.24,231.22 L671.48,231.74 L674.59,232.35 L677.57,233.04 L680.44,233.81 L683.19,234.67 L685.83,235.59 L688.36,236.59 L690.78,237.67 L693.10,238.81 L695.33,240.01 L697.46,241.28 L699.50,242.61 L701.46,244.00 L703.33,245.44 L705.13,246.94 L706.85,248.49 L708.50,250.08 L710.09,251.72 L711.61,253.41 L713.07,255.13 L714.48,256.89 L715.84,258.68 L717.15,260.51 L718.41,262.36 L719.64,264.25 L720.82,266.16 L721.98,268.09 L723.11,270.04 L724.21,272.00 L725.29,273.98 L726.35,275.97 L727.41,277.98 L728.45,279.98 L729.48,281.99 L730.52,284.01 L731.55,286.02 L732.59,288.02 L733.65,290.03 L734.71,292.02 L735.79,294.00 L736.89,295.96 L738.02,297.91 L739.18,299.84 L740.36,301.75 L741.59,303.64 L742.85,305.49 L744.16,307.32 L745.52,309.11 L746.93,310.87 L748.39,312.59 L749.91,314.28 L751.50,315.92 L753.15,317.51 L754.87,319.06 L756.67,320.56 L758.54,322.00 L760.50,323.39 L762.54,324.72 L764.67,325.99 L766.90,327.19 L769.22,328.33 L771.64,329.41 L774.17,330.41 L776.81,331.33 L779.56,332.19 L782.43,332.96 L785.41,333.65 L788.52,334.26 L791.76,334.78 L793.05,334.94"/>
  <polygon class="arrow-5" points="805.00,116.09 792.76,110.60 793.26,122.59"/>
  <polygon class="arrow-6" points="805.00,226.00 792.99,220.03 793.01,232.03"/>
  <polygon class="arrow-7" points="805.00,335.91 793.25,329.44 792.77,341.43"/>
  <g id="spine-anchors" class="dot-spine">
    <circle cx="410.0" cy="230.0" r="5"/>
    <circle cx="650.0" cy="230.0" r="5"/>
  </g>
  <g id="callout-merge">
    <text x="442" y="160" class="callout-text">merge point</text>
    <text x="442" y="172" class="callout-text">(single convergence)</text>
    <line x1="410" y1="230" x2="451" y2="193" class="callout-line"/>
  </g>
  <g id="callout-fork">
    <text x="542" y="300" class="callout-text">fork point</text>
    <text x="542" y="312" class="callout-text">(single divergence)</text>
    <line x1="650" y1="230" x2="612" y2="270" class="callout-line"/>
  </g>
  <g id="callout-standoff">
    <text x="732" y="36" class="callout-text">5px standoff</text>
    <text x="732" y="46" class="callout-text">(arrow tip gap)</text>
    <line x1="808" y1="116" x2="781" y2="68" class="callout-line"/>
  </g>
  <g id="callout-auto">
    <text x="262" y="568" class="callout-text">auto-edge routing</text>
    <line x1="412" y1="530" x2="359" y2="547" class="callout-line"/>
  </g>
  <g id="callout-chamfer">
    <text x="862" y="454" class="callout-text">L-chamfer corner</text>
    <line x1="786" y1="482" x2="840" y2="466" class="callout-line"/>
  </g>
  <line x1="30" y1="415" x2="970" y2="415" class="divider"/>
  <text x="500" y="435" text-anchor="middle" font-family="Segoe UI, Arial, sans-serif" font-size="11" font-weight="600" class="fg-1">Point-to-point modes on the same canvas</text>
<g><path d="M60,460 H200 V497 Q200,500 197,500 H63 Q60,500 60,497 Z" class="card"/><rect x="60" y="460" width="140" height="4" class="accent-bar"/><text x="130.0" y="484.0" text-anchor="middle" font-family="Segoe UI, Arial, sans-serif" font-size="10" font-weight="600" class="fg-1">Shape A</text></g>
<g><path d="M420,460 H560 V497 Q560,500 557,500 H423 Q420,500 420,497 Z" class="card"/><rect x="420" y="460" width="140" height="4" class="accent-bar"/><text x="490.0" y="484.0" text-anchor="middle" font-family="Segoe UI, Arial, sans-serif" font-size="10" font-weight="600" class="fg-1">Shape C</text></g>
<g><path d="M420,520 H560 V557 Q560,560 557,560 H423 Q420,560 420,557 Z" class="card"/><rect x="420" y="520" width="140" height="4" class="accent-bar"/><text x="490.0" y="544.0" text-anchor="middle" font-family="Segoe UI, Arial, sans-serif" font-size="10" font-weight="600" class="fg-1">Shape B</text></g>
<g><path d="M720,520 H860 V557 Q860,560 857,560 H723 Q720,560 720,557 Z" class="card"/><rect x="720" y="520" width="140" height="4" class="accent-bar"/><text x="790.0" y="544.0" text-anchor="middle" font-family="Segoe UI, Arial, sans-serif" font-size="10" font-weight="600" class="fg-1">Shape D</text></g>
  <path class="strand-2" d="M209.86,493.31 L400.27,525.05"/>
  <polygon class="arrow-2" points="410.14,526.69 401.09,520.11 399.45,529.98"/>
  <path class="strand-4" d="M570.00,480.00 L784.00,480.00 L790.00,486.00 L790.00,500.00"/>
  <polygon class="arrow-4" points="790.00,510.00 795.00,500.00 785.00,500.00"/>
  <text x="310" y="605" text-anchor="middle" font-family="Segoe UI, Arial, sans-serif" font-size="9" class="fg-3">calc_connector: auto-edge + 10px standoff</text>
  <text x="780" y="605" text-anchor="middle" font-family="Segoe UI, Arial, sans-serif" font-size="9" class="fg-3">calc_l_chamfer: top-edge incident + 10px standoff</text>
  <line x1="30" y1="625" x2="970" y2="625" class="divider"/>
  <g id="legend" transform="translate(40, 655)">
    <text x="0" y="0" font-family="Segoe UI, Arial, sans-serif" font-size="10" font-weight="600" class="fg-1">Legend</text>
    <line x1="55" y1="-3" x2="90" y2="-3" class="spine-stroke"/>
    <text x="95" y="0" font-family="Segoe UI, Arial, sans-serif" font-size="9" class="fg-3">Spine (stiff trunk)</text>
    <circle cx="230" cy="-3" r="4" class="dot-spine"/>
    <text x="240" y="0" font-family="Segoe UI, Arial, sans-serif" font-size="9" class="fg-3">Merge / fork point</text>
    <path d="M380,-3 L415,-3" class="strand-0"/>
    <text x="420" y="0" font-family="Segoe UI, Arial, sans-serif" font-size="9" class="fg-3">Manifold strand</text>
    <path d="M540,-3 L575,-3" class="strand-2"/>
    <text x="580" y="0" font-family="Segoe UI, Arial, sans-serif" font-size="9" class="fg-3">Direct straight</text>
    <path d="M690,-8 L705,-8 L707,-6 L707,2 L709,4 L725,4" class="strand-4" fill="none"/>
    <text x="730" y="0" font-family="Segoe UI, Arial, sans-serif" font-size="9" class="fg-3">L-chamfer</text>
    <line x1="815" y1="-5" x2="840" y2="-5" class="callout-line"/>
    <text x="845" y="0" font-family="Segoe UI, Arial, sans-serif" font-size="9" class="fg-3">Callout leader</text>
    <line x1="0" y1="15" x2="35" y2="15" class="empty-region"/>
    <text x="40" y="18" class="empty-label">Empty region (find_empty_regions)</text>
  </g>
  <!-- === EMPTY-SPACE DEBUG OVERLAY (SVG-native, transforms honoured) === -->
  <g id="empty-space-debug">
  <polygon class="empty-region" points="20,20 277,20 277,29 278,30 278,35 279,36 279,37 280,38 280,39 281,40 281,41 286,46 287,46 288,47 289,47 290,48 291,48 292,49 297,49 298,50 301,50 301,53 302,54 302,55 303,56 303,57 304,58 304,59 309,64 310,64 311,65 312,65 313,66 314,66 315,67 320,67 321,68 678,68 679,67 684,67 685,66 686,66 687,65 688,65 689,64 690,64 695,59 695,58 696,57 696,56 697,55 697,54 698,53 698,50 701,50 702,49 707,49 708,48 709,48 710,47 711,47 712,46 713,46 718,41 718,40 719,39 719,38 720,37 720,36 721,35 721,30 722,29 722,20 979,20 979,72 978,71 977,71 976,70 971,70 970,69 810,69 809,70 804,70 803,71 802,71 801,72 800,72 799,73 798,73 793,78 793,79 792,80 792,81 791,82 791,83 790,84 790,89 789,90 789,91 786,91 785,92 784,92 783,93 782,93 781,94 780,94 775,99 774,99 773,100 771,100 770,101 768,101 767,102 766,102 765,103 764,103 763,104 762,104 761,105 760,105 759,106 758,106 757,107 756,107 755,108 754,108 753,109 752,109 751,110 750,110 747,113 746,113 729,130 729,131 727,133 727,134 725,136 725,137 723,139 723,140 722,141 722,142 721,143 721,144 720,145 720,146 719,147 719,148 718,149 718,150 717,151 717,152 716,153 716,154 715,155 715,156 714,157 714,158 713,159 713,160 712,161 712,162 711,163 711,164 710,165 710,167 709,168 709,169 708,170 708,171 707,172 707,173 706,174 706,175 705,176 705,177 704,178 704,179 703,180 703,181 701,183 701,184 700,185 700,186 697,189 697,190 694,193 694,194 691,197 690,197 687,200 686,200 684,202 683,202 682,203 681,203 680,204 678,204 677,205 675,205 674,206 672,206 671,207 667,207 666,208 663,208 662,207 661,207 660,206 659,206 658,205 653,205 652,204 647,204 646,205 641,205 640,206 639,206 638,207 637,207 636,208 423,208 422,207 421,207 420,206 419,206 418,205 413,205 412,204 407,204 406,205 401,205 400,206 399,206 398,207 397,207 396,208 392,208 391,207 386,207 385,206 382,206 381,205 379,205 378,204 376,204 375,203 373,203 372,202 371,202 370,201 369,201 367,199 366,199 365,198 364,198 360,194 359,194 354,189 354,188 350,184 350,183 348,181 348,180 346,178 346,177 345,176 345,175 343,173 343,172 342,171 342,170 341,169 341,168 340,167 340,166 339,165 339,164 338,163 338,162 337,161 337,160 336,159 336,158 335,157 335,155 334,154 334,153 333,152 333,151 332,150 332,149 331,148 331,147 330,146 330,145 329,144 329,143 328,142 328,141 327,140 327,139 326,138 326,137 325,136 325,135 324,134 324,133 323,132 323,131 322,130 322,129 320,127 320,126 319,125 319,124 317,122 317,121 315,119 315,118 313,116 313,115 308,110 308,109 299,100 298,100 293,95 292,95 290,93 289,93 287,91 286,91 285,90 284,90 283,89 282,89 281,88 280,88 279,87 278,87 277,86 276,86 275,85 274,85 273,84 272,84 271,83 269,83 268,82 267,82 266,81 264,81 263,80 260,80 259,79 256,79 255,78 251,78 250,77 245,77 244,76 241,76 241,70 240,69 240,64 239,63 239,62 238,61 238,60 237,59 237,58 232,53 231,53 230,52 229,52 228,51 227,51 226,50 221,50 220,49 60,49 59,50 54,50 53,51 52,51 51,52 50,52 49,53 48,53 43,58 43,59 42,60 42,61 41,62 41,63 40,64 40,69 39,70 39,121 40,122 40,127 41,128 41,129 42,130 42,131 41,132 41,133 40,134 40,139 39,140 39,191 40,192 40,197 41,198 41,199 42,200 42,201 41,202 41,203 40,204 40,209 39,210 39,261 40,262 40,267 41,268 41,269 42,270 42,271 41,272 41,273 40,274 40,279 39,280 39,331 40,332 40,337 41,338 41,339 42,340 42,341 41,342 41,343 40,344 40,349 39,350 39,394 30,394 29,395 24,395 23,396 22,396 21,397 20,397 20,21 20,20"/>
  <polygon class="empty-region" points="392,252 398,252 399,253 400,253 401,254 406,254 407,255 412,255 413,254 418,254 419,253 420,253 421,252 638,252 639,253 640,253 641,254 646,254 647,255 652,255 653,254 658,254 659,253 660,253 661,252 667,252 668,253 671,253 672,254 675,254 676,255 678,255 679,256 680,256 681,257 683,257 685,259 686,259 688,261 689,261 693,265 694,265 694,266 698,270 698,271 701,274 701,275 703,277 703,278 704,279 704,280 706,282 706,283 707,284 707,285 708,286 708,287 709,288 709,289 710,290 710,291 711,292 711,293 712,294 712,295 714,297 714,298 715,299 715,300 716,301 716,302 717,303 717,304 718,305 718,306 719,307 719,308 721,310 721,311 722,312 722,313 724,315 724,316 726,318 726,319 729,322 729,323 744,338 745,338 748,341 749,341 751,343 752,343 753,344 754,344 755,345 756,345 757,346 758,346 759,347 760,347 761,348 762,348 763,349 764,349 765,350 767,350 768,351 769,351 770,352 773,352 774,353 776,353 780,357 781,357 782,358 783,358 784,359 785,359 786,360 789,360 789,361 790,362 790,367 791,368 791,369 792,370 792,371 793,372 793,373 799,379 800,379 801,380 802,380 803,381 804,381 805,382 810,382 811,383 969,383 970,382 975,382 976,381 977,381 978,380 979,380 979,397 978,396 977,396 976,395 971,395 970,394 250,394 255,394 256,393 259,393 260,392 262,392 263,391 265,391 266,390 268,390 269,389 270,389 271,388 273,388 274,387 275,387 276,386 277,386 278,385 279,385 280,384 281,384 282,383 283,383 285,381 286,381 287,380 288,380 291,377 292,377 296,373 297,373 307,363 307,362 311,358 311,357 314,354 314,353 316,351 316,350 317,349 317,348 319,346 319,345 320,344 320,343 321,342 321,341 322,340 322,339 323,338 323,337 324,336 324,335 325,334 325,333 326,332 326,331 327,330 327,329 328,328 328,326 329,325 329,324 330,323 330,322 331,321 331,319 332,318 332,317 333,316 333,314 334,313 334,312 335,311 335,309 336,308 336,307 337,306 337,304 338,303 338,302 339,301 339,300 340,299 340,297 341,296 341,295 342,294 342,293 343,292 343,290 344,289 344,288 345,287 345,286 347,284 347,283 348,282 348,281 350,279 350,278 352,276 352,275 355,272 355,271 361,265 362,265 365,262 366,262 368,260 369,260 370,259 371,259 372,258 373,258 374,257 376,257 377,256 378,256 379,255 382,255 383,254 386,254 387,253 391,253 392,252"/>
  <polygon class="empty-region" points="20,433 21,433 22,434 23,434 24,435 29,435 30,436 372,436 372,440 373,441 373,442 374,443 374,444 375,445 375,446 380,451 381,451 382,452 383,452 384,453 385,453 386,454 391,454 392,455 400,455 400,459 399,460 399,499 400,500 395,500 394,501 393,501 392,502 388,502 387,501 382,501 381,500 376,500 375,499 370,499 369,498 364,498 363,497 358,497 357,496 352,496 351,495 346,495 345,494 340,494 339,493 334,493 333,492 328,492 327,491 322,491 321,490 316,490 315,489 310,489 309,488 304,488 303,487 298,487 297,486 292,486 291,485 286,485 285,484 280,484 279,483 274,483 273,482 268,482 267,481 262,481 261,480 256,480 255,479 250,479 249,478 244,478 243,477 238,477 237,476 232,476 231,475 226,475 225,474 221,474 221,460 220,459 220,454 219,453 219,452 218,451 218,450 217,449 217,448 212,443 211,443 210,442 209,442 208,441 207,441 206,440 201,440 200,439 60,439 59,440 54,440 53,441 52,441 51,442 50,442 49,443 48,443 43,448 43,449 42,450 42,451 41,452 41,453 40,454 40,459 39,460 39,499 40,500 40,505 41,506 41,507 42,508 42,509 43,510 43,511 49,517 50,517 51,518 52,518 53,519 54,519 55,520 60,520 61,521 199,521 200,520 205,520 206,519 207,519 208,518 209,518 210,517 211,517 213,515 214,515 215,516 220,516 221,517 226,517 227,518 232,518 233,519 238,519 239,520 244,520 245,521 250,521 251,522 256,522 257,523 262,523 263,524 268,524 269,525 274,525 275,526 280,526 281,527 286,527 287,528 292,528 293,529 298,529 299,530 304,530 305,531 310,531 311,532 316,532 317,533 322,533 323,534 328,534 329,535 334,535 335,536 340,536 341,537 346,537 347,538 352,538 353,539 358,539 359,540 364,540 365,541 370,541 371,542 376,542 377,543 382,543 383,544 385,544 387,546 388,546 389,547 390,547 391,548 392,548 393,549 398,549 399,550 399,559 400,560 400,565 401,566 401,567 402,568 402,569 403,570 403,571 406,574 402,574 401,573 218,573 217,574 212,574 211,575 210,575 209,576 208,576 207,577 206,577 201,582 201,583 200,584 200,585 199,586 199,587 198,588 198,593 197,594 197,604 30,604 29,605 24,605 23,606 22,606 21,607 20,607 20,434 20,433"/>
  <polygon class="empty-region" points="979,433 979,607 978,606 977,606 976,605 971,605 970,604 909,604 909,594 908,593 908,588 907,587 907,586 906,585 906,584 905,583 905,582 900,577 899,577 898,576 897,576 896,575 895,575 894,574 889,574 888,573 875,573 877,571 877,570 878,569 878,568 879,567 879,566 880,565 880,560 881,559 881,520 880,519 880,514 879,513 879,512 878,511 878,510 877,509 877,508 872,503 871,503 870,502 869,502 868,501 867,501 866,500 861,500 860,499 814,499 814,494 813,493 813,492 812,491 812,490 811,489 811,485 810,484 810,479 809,478 809,477 808,476 808,475 807,474 807,473 797,463 796,463 795,462 794,462 793,461 792,461 791,460 786,460 785,459 580,459 580,455 607,455 608,454 613,454 614,453 615,453 616,452 617,452 618,451 619,451 624,446 624,445 625,444 625,443 626,442 626,441 627,440 627,436 970,436 971,435 976,435 977,434 978,434 979,433"/>
  <polygon class="empty-region" points="580,501 713,501 712,501 711,502 710,502 709,503 708,503 703,508 703,509 702,510 702,511 701,512 701,513 700,514 700,519 699,520 699,559 700,560 700,565 701,566 701,567 702,568 702,569 703,570 703,571 705,573 671,573 670,574 665,574 664,575 663,575 662,576 661,576 660,577 659,577 654,582 654,583 653,584 653,585 652,586 652,587 651,588 651,593 650,594 650,604 422,604 422,594 421,593 421,588 420,587 420,586 419,585 419,584 418,583 418,582 416,580 420,580 421,581 559,581 560,580 565,580 566,579 567,579 568,578 569,578 570,577 571,577 577,571 577,570 578,569 578,568 579,567 579,566 580,565 580,560 581,559 581,520 580,519 580,514 579,513 579,512 578,511 578,508 579,507 579,506 580,505 580,502 580,501"/>
  <polygon class="empty-region" points="748,248 782,248 783,249 784,249 785,250 786,250 787,251 789,251 790,252 790,257 791,258 791,259 792,260 792,261 793,262 793,263 799,269 800,269 801,270 802,270 803,271 804,271 805,272 810,272 811,273 969,273 970,272 975,272 976,271 977,271 978,270 979,270 979,292 978,291 977,291 976,290 971,290 970,289 810,289 809,290 804,290 803,291 802,291 801,292 800,292 799,293 798,293 793,298 793,299 792,300 792,301 791,302 791,303 790,304 790,309 787,309 786,310 785,310 784,311 782,311 781,310 780,310 779,309 777,309 775,307 774,307 772,305 771,305 767,301 766,301 766,300 762,296 762,295 759,292 759,291 757,289 757,288 756,287 756,286 754,284 754,283 753,282 753,281 752,280 752,279 751,278 751,277 750,276 750,275 749,274 749,273 748,272 748,271 746,269 746,268 745,267 745,266 744,265 744,264 743,263 743,262 742,261 742,260 741,259 741,258 739,256 739,255 738,254 738,253 736,251 736,250 735,249 747,249 748,248"/>
  <polygon class="empty-region" points="783,141 786,141 787,142 790,142 790,147 791,148 791,149 792,150 792,151 793,152 793,153 799,159 800,159 801,160 802,160 803,161 804,161 805,162 810,162 811,163 969,163 970,162 975,162 976,161 977,161 978,160 979,160 979,182 978,181 977,181 976,180 971,180 970,179 810,179 809,180 804,180 803,181 802,181 801,182 800,182 799,183 798,183 793,188 793,189 792,190 792,191 791,192 791,193 790,194 790,199 789,200 786,200 785,201 784,201 783,202 782,202 781,203 780,203 778,205 753,205 752,206 737,206 738,205 738,204 739,203 739,202 740,201 740,200 741,199 741,198 742,197 742,196 743,195 743,194 744,193 744,192 745,191 745,190 746,189 746,188 747,187 747,186 748,185 748,184 749,183 749,182 750,181 750,179 751,178 751,177 752,176 752,175 753,174 753,173 754,172 754,171 755,170 755,169 756,168 756,167 757,166 757,165 759,163 759,162 760,161 760,160 763,157 763,156 766,153 766,152 769,149 770,149 773,146 774,146 776,144 777,144 778,143 779,143 780,142 782,142 783,141"/>
  <polygon class="empty-region" points="241,188 243,188 244,189 251,189 252,190 255,190 256,191 259,191 260,192 263,192 264,193 266,193 267,194 269,194 270,195 272,195 273,196 274,196 275,197 277,197 279,199 280,199 281,200 282,200 284,202 285,202 287,204 288,204 290,206 291,206 294,209 295,209 298,212 299,212 300,213 283,213 282,214 242,214 241,215 241,210 240,209 240,204 239,203 239,202 238,201 238,200 239,199 239,198 240,197 240,192 241,191 241,189 241,188"/>
  <polygon class="empty-region" points="279,256 297,256 291,262 290,262 285,267 284,267 281,270 280,270 278,272 277,272 275,274 274,274 273,275 272,275 271,276 270,276 269,277 267,277 266,278 264,278 263,279 261,279 260,280 258,280 257,281 254,281 253,282 249,282 248,283 242,283 241,284 241,280 240,279 240,274 239,273 239,272 238,271 238,270 239,269 239,268 240,267 240,262 241,261 241,257 278,257 279,256"/>
  <polygon class="empty-region" points="241,119 244,119 245,120 248,120 249,121 251,121 252,122 254,122 255,123 257,123 258,124 259,124 260,125 261,125 263,127 264,127 265,128 266,128 270,132 271,132 276,137 276,138 280,142 280,143 282,145 282,146 284,148 284,149 285,150 285,151 287,153 287,154 288,155 288,156 287,156 286,155 285,155 284,154 282,154 281,153 279,153 278,152 276,152 275,151 272,151 271,150 268,150 267,149 263,149 262,148 257,148 256,147 250,147 249,146 242,146 241,145 241,140 240,139 240,134 239,133 239,132 238,131 238,130 239,129 239,128 240,127 240,122 241,121 241,120 241,119"/>
  <polygon class="empty-region" points="286,315 287,315 287,316 286,317 286,318 285,319 285,320 283,322 283,323 282,324 282,325 280,327 280,328 278,330 278,331 275,334 275,335 269,341 268,341 265,344 264,344 262,346 261,346 260,347 259,347 258,348 257,348 256,349 254,349 253,350 252,350 251,351 248,351 247,352 244,352 243,353 241,353 241,350 240,349 240,344 239,343 239,342 238,341 238,340 239,339 239,338 240,337 240,332 241,331 241,326 248,326 249,325 254,325 255,324 260,324 261,323 264,323 265,322 268,322 269,321 272,321 273,320 275,320 276,319 278,319 279,318 280,318 281,317 283,317 284,316 285,316 286,315"/>
  <!-- Region labels - each fully contained inside its polygon AND clear of existing callouts -->
  <text x="22" y="32" class="empty-label">empty 1: top band</text>
  <text x="380" y="268" class="empty-label">empty 2: below spine</text>
  <text x="220" y="449" class="empty-label">empty 3: lower-left</text>
  <text x="630" y="449" class="empty-label">empty 4: lower-right</text>
  <text x="582" y="513" class="empty-label">empty 5: middle</text>
  <text x="759" y="286" class="empty-label">empty 6: sink gap</text>
  <text x="761" y="175" class="empty-label">empty 7: sink gap</text>
  <text x="244" y="201" class="empty-label" font-size="9">8</text>
  <text x="244" y="269" class="empty-label" font-size="9">9</text>
  <text x="242" y="134" class="empty-label" font-size="9">10</text>
  <text x="252" y="336" class="empty-label" font-size="9">11</text>
</g>
</svg>
