<!--
  09-callouts-showcase+.svg - add-life medium pass over 09-callouts-showcase.svg
  Originals (canvas frames, target shapes, callout text, leader lines, legend violations) UNCHANGED.
  All add-life layers sit before nodes (bg) or after original content (decorations).

  add-life: medium
    colour: moderate (in-family hue drift - canvas-1 teal, canvas-2 cyan-teal; 3 legend cells in cyan -> teal -> deep-teal)
    shapes: moderate (corner brackets on both canvases and each legend cell, tech tick marks at canvas edges)
    icons: per-item Lucide icons (pin on LEADER, target on LEADERLESS, three constraint icons on legend cells)
    embroidery: moderate (scan-line under each accent bar, canvas edge tick marks, bracket chamfers)
    abstract: moderate (14 particles in whitespace, 2 background arcs at top and bottom margins)
    bg_texture: engineering grid (faint horizontal + vertical lines at opacity 0.07, HARD CAP 0.10)
    glow: connectors+titles (cyan stdDev=2 on main title + accent bars, warm ochre stdDev=1.7 on legend title + constraint icons)
    dark-mode: overrides for every add-life class
-->
<svg xmlns="http://www.w3.org/2000/svg" viewBox="0 0 1000 440">
  <style>
    .fg-1 { fill: #1a5a6e; }
    .fg-2 { fill: #24697e; }
    .fg-3 { fill: #236a74; }
    .accent-1 { fill: #005f7a; }
    .accent-2 { fill: #7a4a15; }
    .accent-bar { fill: #005f7a; opacity: 0.6; }
    .target-fill { fill: #005f7a; fill-opacity: 0.14; stroke: #005f7a; stroke-width: 1.2; }
    .callout-text { fill: #7a4a15; font-family: Segoe UI, Arial, sans-serif; font-size: 8.5px; font-style: italic; font-weight: 600; }
    .callout-line { fill: none; stroke: #7a4a15; stroke-width: 1; opacity: 0.75; stroke-linecap: round; }
    .canvas-frame { fill: none; stroke: #236a74; stroke-width: 0.6; stroke-dasharray: 4,3; opacity: 0.3; }
    .violation { stroke: #c04020; stroke-width: 1.5; fill: none; stroke-linecap: round; }
    .legend-box { fill: #005f7a; fill-opacity: 0.03; stroke: #005f7a; stroke-width: 0.8; opacity: 0.55; }
    .legend-mini { fill: #005f7a; fill-opacity: 0.18; stroke: #005f7a; stroke-width: 0.8; }
    .mini-leader { fill: none; stroke: #7a4a15; stroke-width: 0.9; opacity: 0.8; stroke-linecap: round; }

    /* add-life decoration classes (medium) */
    .al-bg-line { stroke: #0096d1; stroke-width: 0.4; fill: none; opacity: 0.07; }
    .al-bg-arc  { stroke: #0096d1; stroke-width: 0.6; fill: none; opacity: 0.14; }

    /* per-canvas hue plates (two canvases -> two in-family hues) */
    .canvas-plate-1 { fill: #0096d1; fill-opacity: 0.03; }
    .canvas-plate-2 { fill: #1d9fc2; fill-opacity: 0.03; }
    .canvas-stroke-1 { fill: none; stroke: #0096d1; stroke-width: 0.9; opacity: 0.55; }
    .canvas-stroke-2 { fill: none; stroke: #1d9fc2; stroke-width: 0.9; opacity: 0.55; }
    .canvas-bar-1 { fill: #0096d1; opacity: 0.75; }
    .canvas-bar-2 { fill: #1d9fc2; opacity: 0.75; }

    /* per-constraint-cell hue variants (3 legend cells, wide in-family drift) */
    .con-plate-1 { fill: #00a8d9; fill-opacity: 0.05; }
    .con-plate-2 { fill: #0096d1; fill-opacity: 0.05; }
    .con-plate-3 { fill: #00728f; fill-opacity: 0.06; }
    .con-stroke-1 { fill: none; stroke: #00a8d9; stroke-width: 1; opacity: 0.70; }
    .con-stroke-2 { fill: none; stroke: #0096d1; stroke-width: 1; opacity: 0.70; }
    .con-stroke-3 { fill: none; stroke: #00728f; stroke-width: 1; opacity: 0.70; }
    .con-bar-1 { fill: #00a8d9; opacity: 0.70; }
    .con-bar-2 { fill: #0096d1; opacity: 0.70; }
    .con-bar-3 { fill: #00728f; opacity: 0.70; }

    .al-bracket-cool { fill: none; stroke: #0096d1; stroke-width: 0.9; opacity: 0.55; stroke-linecap: round; }
    .al-bracket-warm { fill: none; stroke: #da8230; stroke-width: 0.9; opacity: 0.55; stroke-linecap: round; }
    .al-scan { fill: none; stroke: #0096d1; stroke-width: 0.5; opacity: 0.35; stroke-dasharray: 2 2; }
    .al-tick-cool { fill: #0096d1; opacity: 0.5; }
    .al-particle-cool { fill: #0096d1; opacity: 0.45; }
    .al-particle-warm { fill: #da8230; opacity: 0.45; }

    .al-icon-cool { fill: none; stroke: #0096d1; stroke-width: 1.2; stroke-linecap: round; stroke-linejoin: round; opacity: 0.85; }
    .al-icon-cool-fill { fill: #0096d1; opacity: 0.85; }
    .al-icon-warm { fill: none; stroke: #da8230; stroke-width: 1.2; stroke-linecap: round; stroke-linejoin: round; opacity: 0.90; }
    .al-icon-warm-fill { fill: #da8230; opacity: 0.90; }

    .al-ring-cool { fill: none; stroke: #0096d1; stroke-width: 0.9; opacity: 0.25; }

    @media (prefers-color-scheme: dark) {
      .fg-1 { fill: #b8e4f0; }
      .fg-2 { fill: #8fd4e6; }
      .fg-3 { fill: #5aafc5; }
      .accent-1 { fill: #5cc8e0; }
      .accent-2 { fill: #d4a04a; }
      .accent-bar { fill: #5cc8e0; }
      .target-fill { fill: #5cc8e0; fill-opacity: 0.18; stroke: #5cc8e0; }
      .callout-text { fill: #d4a04a; }
      .callout-line { stroke: #d4a04a; }
      .canvas-frame { stroke: #5aafc5; }
      .violation { stroke: #e06040; }
      .legend-box { fill: #5cc8e0; stroke: #5cc8e0; }
      .legend-mini { fill: #5cc8e0; stroke: #5cc8e0; }
      .mini-leader { stroke: #d4a04a; }

      .al-bg-line { stroke: #5cc8e0; opacity: 0.08; }
      .al-bg-arc  { stroke: #5cc8e0; opacity: 0.18; }
      .canvas-plate-1 { fill: #5cc8e0; fill-opacity: 0.05; }
      .canvas-plate-2 { fill: #8fd4e6; fill-opacity: 0.05; }
      .canvas-stroke-1 { stroke: #5cc8e0; }
      .canvas-stroke-2 { stroke: #8fd4e6; }
      .canvas-bar-1 { fill: #5cc8e0; }
      .canvas-bar-2 { fill: #8fd4e6; }
      .con-plate-1 { fill: #6fd5ec; fill-opacity: 0.07; }
      .con-plate-2 { fill: #5cc8e0; fill-opacity: 0.07; }
      .con-plate-3 { fill: #3e7e94; fill-opacity: 0.10; }
      .con-stroke-1 { stroke: #6fd5ec; }
      .con-stroke-2 { stroke: #5cc8e0; }
      .con-stroke-3 { stroke: #3e7e94; }
      .con-bar-1 { fill: #6fd5ec; }
      .con-bar-2 { fill: #5cc8e0; }
      .con-bar-3 { fill: #3e7e94; }
      .al-bracket-cool { stroke: #5cc8e0; }
      .al-bracket-warm { stroke: #d4a04a; }
      .al-scan { stroke: #5cc8e0; opacity: 0.40; }
      .al-tick-cool { fill: #5cc8e0; }
      .al-particle-cool { fill: #5cc8e0; opacity: 0.55; }
      .al-particle-warm { fill: #d4a04a; opacity: 0.55; }
      .al-icon-cool { stroke: #5cc8e0; }
      .al-icon-cool-fill { fill: #5cc8e0; }
      .al-icon-warm { stroke: #d4a04a; }
      .al-icon-warm-fill { fill: #d4a04a; }
      .al-ring-cool { stroke: #5cc8e0; opacity: 0.30; }
    }
  </style>

  <defs>
    <filter id="al-glow-cool" x="-20%" y="-20%" width="140%" height="140%" filterUnits="userSpaceOnUse">
      <feGaussianBlur stdDeviation="2" result="blur"/>
      <feMerge><feMergeNode in="blur"/><feMergeNode in="SourceGraphic"/></feMerge>
    </filter>
    <filter id="al-glow-warm" x="-25%" y="-25%" width="150%" height="150%" filterUnits="userSpaceOnUse">
      <feGaussianBlur stdDeviation="1.7" result="blur"/>
      <feMerge><feMergeNode in="blur"/><feMergeNode in="SourceGraphic"/></feMerge>
    </filter>
  </defs>

  <!-- === GRID REFERENCE ===
    viewBox: 1000 x 440
    Margins: left/right 20, top 14, bottom 16
    Title band: y=14..50, Canvases: y=56..260 (h=204), Legend: y=280..424 (h=144)
    Canvas x: left 20..490, right 510..980
    Legend cells (add-life): 3 x 300w cells centred under legend titles at x=180/500/820
      Cell 1: x=50..310,  Cell 2: x=370..630, Cell 3: x=690..950 (all y=368..420 h=52)
  === -->

  <g id="add-life-background">
    <rect x="0" y="0" width="1000" height="440" fill="transparent"/>

    <!-- Engineering grid texture (faint, opacity 0.07) -->
    <g id="al-bg-grid">
      <!-- major horizontals -->
      <line class="al-bg-line" x1="10" y1="56" x2="990" y2="56"/>
      <line class="al-bg-line" x1="10" y1="260" x2="990" y2="260"/>
      <line class="al-bg-line" x1="10" y1="280" x2="990" y2="280"/>
      <line class="al-bg-line" x1="10" y1="424" x2="990" y2="424"/>
      <!-- minor horizontals -->
      <line class="al-bg-line" x1="10" y1="100" x2="990" y2="100"/>
      <line class="al-bg-line" x1="10" y1="160" x2="990" y2="160"/>
      <line class="al-bg-line" x1="10" y1="220" x2="990" y2="220"/>
      <line class="al-bg-line" x1="10" y1="340" x2="990" y2="340"/>
      <line class="al-bg-line" x1="10" y1="380" x2="990" y2="380"/>
      <!-- major verticals at canvas frames -->
      <line class="al-bg-line" x1="20" y1="10" x2="20" y2="430"/>
      <line class="al-bg-line" x1="500" y1="10" x2="500" y2="430"/>
      <line class="al-bg-line" x1="980" y1="10" x2="980" y2="430"/>
      <!-- minor verticals -->
      <line class="al-bg-line" x1="120" y1="56" x2="120" y2="260"/>
      <line class="al-bg-line" x1="260" y1="56" x2="260" y2="260"/>
      <line class="al-bg-line" x1="400" y1="56" x2="400" y2="260"/>
      <line class="al-bg-line" x1="630" y1="56" x2="630" y2="260"/>
      <line class="al-bg-line" x1="770" y1="56" x2="770" y2="260"/>
      <line class="al-bg-line" x1="910" y1="56" x2="910" y2="260"/>
    </g>

    <!-- Background arcs -->
    <g id="al-bg-arcs">
      <path class="al-bg-arc" d="M-20,12 Q500,-14 1020,14"/>
      <path class="al-bg-arc" d="M-20,432 Q500,458 1020,430"/>
    </g>

    <!-- Per-canvas faint hue plates (under canvas frames, over grid) -->
    <rect class="canvas-plate-1" x="20" y="56" width="470" height="204"/>
    <rect class="canvas-plate-2" x="510" y="56" width="470" height="204"/>
  </g>

  <g id="background">
    <rect x="20" y="56" width="470" height="204" class="canvas-frame"/>
    <rect x="510" y="56" width="470" height="204" class="canvas-frame"/>
    <rect x="20" y="56" width="470" height="4" class="accent-bar"/>
    <rect x="510" y="56" width="470" height="4" class="accent-bar"/>
    <rect x="20" y="280" width="960" height="144" class="legend-box"/>
    <rect x="20" y="280" width="960" height="4" class="accent-bar"/>
  </g>

  <g id="nodes">
    <!-- LEFT CANVAS target shapes -->
    <g id="left-targets">
      <circle cx="120" cy="180" r="20" class="target-fill"/>
      <rect x="200" y="155" width="60" height="46" class="target-fill"/>
      <polygon points="380,187 400,205 380,223 360,205" class="target-fill"/>
    </g>
    <!-- RIGHT CANVAS target shapes (mirror) -->
    <g id="right-targets">
      <circle cx="630" cy="180" r="20" class="target-fill"/>
      <rect x="710" y="155" width="60" height="46" class="target-fill"/>
      <polygon points="890,187 910,205 890,223 870,205" class="target-fill"/>
    </g>
    <!-- LEGEND mini-scene shapes -->
    <g id="legend-shapes">
      <rect x="110" y="332" width="62" height="20" class="legend-mini"/>
      <rect x="158" y="342" width="62" height="20" class="legend-mini"/>
      <rect x="388" y="328" width="52" height="20" class="legend-mini"/>
      <rect x="520" y="350" width="72" height="20" class="legend-mini"/>
      <circle cx="728" cy="340" r="10" class="legend-mini"/>
      <circle cx="898" cy="360" r="10" class="legend-mini"/>
    </g>
  </g>

  <g id="connectors">
    <rect x="452" y="336" width="60" height="20" class="legend-mini"/>
    <line x1="440" y1="335" x2="520" y2="360" class="mini-leader"/>
    <line x1="738" y1="340" x2="888" y2="360" class="mini-leader"/>
    <line x1="738" y1="360" x2="888" y2="340" class="mini-leader"/>
  </g>

  <g id="content">
    <text x="500" y="30" text-anchor="middle" font-family="Segoe UI, Arial, sans-serif" font-size="15" font-weight="700" class="fg-1" filter="url(#al-glow-cool)">svg-infographics callouts: joint placement solver</text>
    <text x="500" y="46" text-anchor="middle" font-family="Segoe UI, Arial, sans-serif" font-size="10" class="fg-3">two modes share one greedy solver with random-ordering restarts and top-K alternatives</text>

    <text x="32" y="74" font-family="Segoe UI, Arial, sans-serif" font-size="11" font-weight="700" class="fg-1">LEADER MODE</text>
    <text x="32" y="86" font-family="Segoe UI, Arial, sans-serif" font-size="8.5" class="fg-3">text floats in empty space; leader line connects to target</text>
    <text x="522" y="74" font-family="Segoe UI, Arial, sans-serif" font-size="11" font-weight="700" class="fg-1">LEADERLESS MODE</text>
    <text x="522" y="86" font-family="Segoe UI, Arial, sans-serif" font-size="8.5" class="fg-3">text sits just above target; no leader; text IS the pointer</text>

    <text x="32" y="252" font-family="Segoe UI, Arial, sans-serif" font-size="8.5" font-weight="600" class="fg-2">standoff 20  leader sweet spot 55px, diagonal angle preferred</text>
    <text x="522" y="252" font-family="Segoe UI, Arial, sans-serif" font-size="8.5" font-weight="600" class="fg-2">standoff 5  bbox centre pulled to target, text lands above shape</text>

    <text x="500" y="300" text-anchor="middle" font-family="Segoe UI, Arial, sans-serif" font-size="10" font-weight="700" class="fg-1" filter="url(#al-glow-warm)">HARD CONSTRAINTS — solver rejects any candidate that violates these</text>

    <text x="180" y="390" text-anchor="middle" font-family="Segoe UI, Arial, sans-serif" font-size="9" font-weight="700" class="fg-1">text vs text overlap</text>
    <text x="180" y="404" text-anchor="middle" font-family="Segoe UI, Arial, sans-serif" font-size="7.5" class="fg-3">two label bboxes share area</text>
    <text x="180" y="415" text-anchor="middle" font-family="Segoe UI, Arial, sans-serif" font-size="7.5" class="fg-3">candidate discarded</text>

    <text x="500" y="390" text-anchor="middle" font-family="Segoe UI, Arial, sans-serif" font-size="9" font-weight="700" class="fg-1">leader crosses text</text>
    <text x="500" y="404" text-anchor="middle" font-family="Segoe UI, Arial, sans-serif" font-size="7.5" class="fg-3">leader line cuts through</text>
    <text x="500" y="415" text-anchor="middle" font-family="Segoe UI, Arial, sans-serif" font-size="7.5" class="fg-3">a different callout's label</text>

    <text x="820" y="390" text-anchor="middle" font-family="Segoe UI, Arial, sans-serif" font-size="9" font-weight="700" class="fg-1">leader crosses leader</text>
    <text x="820" y="404" text-anchor="middle" font-family="Segoe UI, Arial, sans-serif" font-size="7.5" class="fg-3">two leaders intersect</text>
    <text x="820" y="415" text-anchor="middle" font-family="Segoe UI, Arial, sans-serif" font-size="7.5" class="fg-3">in the free-space region</text>

    <g id="legend-violations">
      <line x1="168" y1="336" x2="188" y2="356" class="violation"/>
      <line x1="188" y1="336" x2="168" y2="356" class="violation"/>
      <line x1="470" y1="338" x2="490" y2="358" class="violation"/>
      <line x1="490" y1="338" x2="470" y2="358" class="violation"/>
      <line x1="803" y1="340" x2="823" y2="360" class="violation"/>
      <line x1="823" y1="340" x2="803" y2="360" class="violation"/>
    </g>
  </g>

  <g id="callouts">
    <!-- LEFT CANVAS: leader callouts -->
    <g id="callout-conv">
      <text x="54" y="108" class="callout-text">convergence</text>
      <text x="54" y="120" class="callout-text">point</text>
      <line x1="120" y1="160" x2="88" y2="124" class="callout-line"/>
    </g>
    <g id="callout-stage">
      <text x="276" y="108" class="callout-text">pipeline</text>
      <text x="276" y="120" class="callout-text">stage</text>
      <line x1="230" y1="155" x2="288" y2="124" class="callout-line"/>
    </g>
    <g id="callout-decision">
      <text x="400" y="128" class="callout-text">decision</text>
      <text x="400" y="140" class="callout-text">node</text>
      <line x1="380" y1="187" x2="414" y2="146" class="callout-line"/>
    </g>
    <g id="callout-l-conv">
      <text x="630" y="152" text-anchor="middle" class="callout-text">convergence point</text>
    </g>
    <g id="callout-l-stage">
      <text x="740" y="146" text-anchor="middle" class="callout-text">pipeline stage</text>
    </g>
    <g id="callout-l-decision">
      <text x="890" y="178" text-anchor="middle" class="callout-text">decision node</text>
    </g>
  </g>

  <!-- === ADD-LIFE DECORATION LAYER (drawn last, above content) === -->
  <g id="add-life-decorations">

    <!-- Canvas corner brackets (LEFT canvas, 8px arms) -->
    <g id="al-canvas-brackets-left">
      <path class="al-bracket-cool" d="M22,64 L22,58 L28,58"/>
      <path class="al-bracket-cool" d="M482,58 L488,58 L488,64"/>
      <path class="al-bracket-cool" d="M22,252 L22,258 L28,258"/>
      <path class="al-bracket-cool" d="M482,258 L488,258 L488,252"/>
    </g>
    <!-- Canvas corner brackets (RIGHT canvas) -->
    <g id="al-canvas-brackets-right">
      <path class="al-bracket-cool" d="M512,64 L512,58 L518,58"/>
      <path class="al-bracket-cool" d="M972,58 L978,58 L978,64"/>
      <path class="al-bracket-cool" d="M512,252 L512,258 L518,258"/>
      <path class="al-bracket-cool" d="M972,258 L978,258 L978,252"/>
    </g>

    <!-- Scan-lines below each accent bar -->
    <line class="al-scan" x1="24" y1="62" x2="486" y2="62"/>
    <line class="al-scan" x1="514" y1="62" x2="976" y2="62"/>
    <line class="al-scan" x1="24" y1="286" x2="976" y2="286"/>

    <!-- Canvas edge tick marks -->
    <g id="al-canvas-ticks">
      <rect class="al-tick-cool" x="119" y="258" width="1" height="4"/>
      <rect class="al-tick-cool" x="229" y="258" width="1" height="4"/>
      <rect class="al-tick-cool" x="379" y="258" width="1" height="4"/>
      <rect class="al-tick-cool" x="629" y="258" width="1" height="4"/>
      <rect class="al-tick-cool" x="739" y="258" width="1" height="4"/>
      <rect class="al-tick-cool" x="889" y="258" width="1" height="4"/>
    </g>

    <!-- Canvas role icons (Lucide: pin for leader, target for leaderless) -->
    <!-- Lucide pin icon (simplified) at top-right of LEFT canvas header row, y~72 -->
    <g id="al-icon-leader" transform="translate(462, 68)" filter="url(#al-glow-cool)">
      <!-- Lucide "pin": pin shape with head + stem -->
      <path class="al-icon-cool" d="M6,2 L14,2 L12,6 L14,10 L6,10 L8,6 Z"/>
      <line class="al-icon-cool" x1="10" y1="10" x2="10" y2="14"/>
    </g>
    <!-- Lucide "target" icon at top-right of RIGHT canvas header row -->
    <g id="al-icon-leaderless" transform="translate(952, 66)" filter="url(#al-glow-cool)">
      <circle class="al-icon-cool" cx="8" cy="8" r="7"/>
      <circle class="al-icon-cool" cx="8" cy="8" r="4"/>
      <circle class="al-icon-cool-fill" cx="8" cy="8" r="1.5"/>
    </g>

    <!-- === LEGEND constraint cells (per-cell hue variants) ===
         Hue-varied plates behind each constraint block, with corner brackets.
         Cells are positioned behind the existing constraint text clusters at x=180/500/820 (centres) -->
    <g id="al-constraint-cells">
      <!-- Cell 1 - text vs text (hue: cyan-teal) -->
      <rect class="con-plate-1" x="50" y="370" width="260" height="52" rx="3"/>
      <path class="con-stroke-1" d="M50,370 H310 V422 H50 Z" fill="none"/>
      <rect class="con-bar-1" x="50" y="370" width="260" height="2"/>
      <path class="al-bracket-cool" d="M52,376 L52,372 L56,372"/>
      <path class="al-bracket-cool" d="M304,372 L308,372 L308,376"/>
      <path class="al-bracket-cool" d="M52,418 L52,420 L56,420"/>
      <path class="al-bracket-cool" d="M304,420 L308,420 L308,418"/>

      <!-- Cell 2 - leader crosses text (hue: primary teal) -->
      <rect class="con-plate-2" x="370" y="370" width="260" height="52" rx="3"/>
      <path class="con-stroke-2" d="M370,370 H630 V422 H370 Z" fill="none"/>
      <rect class="con-bar-2" x="370" y="370" width="260" height="2"/>
      <path class="al-bracket-cool" d="M372,376 L372,372 L376,372"/>
      <path class="al-bracket-cool" d="M624,372 L628,372 L628,376"/>
      <path class="al-bracket-cool" d="M372,418 L372,420 L376,420"/>
      <path class="al-bracket-cool" d="M624,420 L628,420 L628,418"/>

      <!-- Cell 3 - leader crosses leader (hue: deep teal) -->
      <rect class="con-plate-3" x="690" y="370" width="260" height="52" rx="3"/>
      <path class="con-stroke-3" d="M690,370 H950 V422 H690 Z" fill="none"/>
      <rect class="con-bar-3" x="690" y="370" width="260" height="2"/>
      <path class="al-bracket-cool" d="M692,376 L692,372 L696,372"/>
      <path class="al-bracket-cool" d="M944,372 L948,372 L948,376"/>
      <path class="al-bracket-cool" d="M692,418 L692,420 L696,420"/>
      <path class="al-bracket-cool" d="M944,420 L948,420 L948,418"/>
    </g>

    <!-- Constraint icons (Lucide glyphs, warm/ochre + glow).
         Placed at the left edge of each cell, y centred around y=384. -->
    <!-- Icon 1: type/text-cursor (two stacked bars) -->
    <g id="al-icon-con-1" transform="translate(60, 378)" filter="url(#al-glow-warm)">
      <rect class="al-icon-warm" x="0" y="0" width="12" height="4" rx="0.5"/>
      <rect class="al-icon-warm" x="4" y="8" width="12" height="4" rx="0.5"/>
    </g>
    <!-- Icon 2: move-diagonal / slash through rectangle -->
    <g id="al-icon-con-2" transform="translate(380, 378)" filter="url(#al-glow-warm)">
      <rect class="al-icon-warm" x="0" y="2" width="14" height="8" rx="0.5"/>
      <line class="al-icon-warm" x1="-1" y1="-1" x2="15" y2="13" stroke-width="1.4"/>
    </g>
    <!-- Icon 3: x / crossing diagonals -->
    <g id="al-icon-con-3" transform="translate(700, 378)" filter="url(#al-glow-warm)">
      <line class="al-icon-warm" x1="0" y1="0" x2="14" y2="14" stroke-width="1.4"/>
      <line class="al-icon-warm" x1="14" y1="0" x2="0" y2="14" stroke-width="1.4"/>
    </g>

    <!-- Whitespace particles (14 scattered) -->
    <g id="al-particles">
      <circle class="al-particle-cool" cx="45" cy="24" r="1.2"/>
      <circle class="al-particle-cool" cx="960" cy="24" r="1.2"/>
      <circle class="al-particle-cool" cx="500" cy="268" r="1.2"/>
      <circle class="al-particle-cool" cx="160" cy="268" r="1"/>
      <circle class="al-particle-cool" cx="840" cy="268" r="1"/>
      <circle class="al-particle-warm" cx="340" cy="274" r="1"/>
      <circle class="al-particle-warm" cx="660" cy="274" r="1"/>
      <circle class="al-particle-cool" cx="28" cy="160" r="0.9"/>
      <circle class="al-particle-cool" cx="972" cy="160" r="0.9"/>
      <circle class="al-particle-cool" cx="500" cy="54" r="0.9"/>
      <circle class="al-particle-warm" cx="180" cy="430" r="1"/>
      <circle class="al-particle-warm" cx="500" cy="434" r="1"/>
      <circle class="al-particle-warm" cx="820" cy="430" r="1"/>
      <circle class="al-particle-cool" cx="80" cy="436" r="0.9"/>
    </g>

    <!-- Soft ring fragments in outer corners -->
    <g id="al-rings">
      <path class="al-ring-cool" d="M-10,8 A30,30 0 0 1 20,38"/>
      <path class="al-ring-cool" d="M980,38 A30,30 0 0 1 1010,8"/>
    </g>
  </g>
</svg>
