<!--
  13-constellation.svg - Decorative node-graph constellation
  Shows: 6 hub nodes (with haloes + rings) and 15 small dots scattered
         across a widescreen cloud, connected by 18 spline connectors of
         varied opacity and weight. Most nodes and lines are teal, a few ochre for
         accent punctuation. Line opacities layer to create depth.
  Intent: decorative article closer - visual echo of "primitives + connectors woven
          into one fabric" without being a literal diagram.
  Theme: stellars-tech teal + ochre accent, full prefers-color-scheme dark overrides.
-->
<svg xmlns="http://www.w3.org/2000/svg" viewBox="0 0 1000 360">
  <style>

    .conn-teal        { fill: none; stroke: #005f7a; stroke-width: 0.8; opacity: 0.42; stroke-linecap: round; stroke-linejoin: round; }
    .conn-teal-bold   { fill: none; stroke: #005f7a; stroke-width: 1.1; opacity: 0.68; stroke-linecap: round; stroke-linejoin: round; }
    .conn-ochre       { fill: none; stroke: #7a4a15; stroke-width: 1.0; opacity: 0.55; stroke-linecap: round; stroke-linejoin: round; }
    .node-teal        { fill: #1a5a6e; }
    .node-ochre       { fill: #7a4a15; }
    .node-hub-teal    { fill: #005f7a; }
    .node-hub-ochre   { fill: #7a4a15; }
    .node-hub-teal-halo   { fill: #005f7a; fill-opacity: 0.06; stroke: #005f7a; stroke-width: 0.6; stroke-opacity: 0.35; }
    .node-hub-teal-ring   { fill: none; stroke: #005f7a; stroke-width: 0.8; stroke-opacity: 0.55; }
    .node-hub-ochre-halo  { fill: #7a4a15; fill-opacity: 0.08; stroke: #7a4a15; stroke-width: 0.6; stroke-opacity: 0.40; }
    .node-hub-ochre-ring  { fill: none; stroke: #7a4a15; stroke-width: 0.8; stroke-opacity: 0.60; }
    @media (prefers-color-scheme: dark) {

      .conn-teal        { stroke: #5cc8e0; opacity: 0.50; }
      .conn-teal-bold   { stroke: #5cc8e0; opacity: 0.75; }
      .conn-ochre       { stroke: #d4a04a; opacity: 0.62; }
      .node-teal        { fill: #b8e4f0; }
      .node-ochre       { fill: #d4a04a; }
      .node-hub-teal    { fill: #5cc8e0; }
      .node-hub-ochre   { fill: #d4a04a; }
      .node-hub-teal-halo { fill: #5cc8e0; fill-opacity: 0.08; stroke: #5cc8e0; stroke-opacity: 0.45; }
      .node-hub-teal-ring { stroke: #5cc8e0; stroke-opacity: 0.65; }
      .node-hub-ochre-halo { fill: #d4a04a; fill-opacity: 0.10; stroke: #d4a04a; stroke-opacity: 0.50; }
      .node-hub-ochre-ring { stroke: #d4a04a; stroke-opacity: 0.70; }
    }
  </style>

  <!-- === GRID REFERENCE ===
    viewBox: 1000x360
    Safe node area: x=[80,920], y=[60,300]
    Hub nodes: 6 at min pairwise distance 140px
    Small nodes: 15 at min pairwise distance 45px
    Hub ring radius: 11px outer halo radius: 16px main dot radius: 6px
    Small dot radius: 2-3px
    Connectors: 18 splines built via svg-infographics connector spline mode
    Each spline: 4 waypoints with small perpendicular sag for organic curvature
  === -->

  <!-- === LAYOUT TOPOLOGY ===
    scatter: all nodes non-gridded, rejection sampled with min-distance constraint
    contain: nodes layer holds halo+ring+dots; connectors layer holds spline paths
    orbit:   halo rings around hub nodes (concentric circles)
  === -->

  <rect x="0" y="0" width="1000" height="360" fill="transparent"/>

  <g id="background"></g>

  <g id="nodes">
    <circle cx="297.6" cy="224.5" r="16" class="node-hub-teal-halo"/>
    <circle cx="297.6" cy="224.5" r="11" class="node-hub-teal-ring"/>
    <circle cx="654.6" cy="263.8" r="16" class="node-hub-ochre-halo"/>
    <circle cx="654.6" cy="263.8" r="11" class="node-hub-ochre-ring"/>
    <circle cx="203.6" cy="114.0" r="16" class="node-hub-teal-halo"/>
    <circle cx="203.6" cy="114.0" r="11" class="node-hub-teal-ring"/>
    <circle cx="696.6" cy="91.3" r="16" class="node-hub-teal-halo"/>
    <circle cx="696.6" cy="91.3" r="11" class="node-hub-teal-ring"/>
    <circle cx="526.3" cy="111.3" r="16" class="node-hub-ochre-halo"/>
    <circle cx="526.3" cy="111.3" r="11" class="node-hub-ochre-ring"/>
    <circle cx="783.6" cy="206.0" r="16" class="node-hub-teal-halo"/>
    <circle cx="783.6" cy="206.0" r="11" class="node-hub-teal-ring"/>
  </g>

  <g id="connectors">
    <path d="M784.60,206.02 L785.02,206.03 L785.72,206.05 L786.43,206.07 L787.13,206.10 L787.83,206.14 L788.54,206.17 L789.24,206.21 L789.94,206.26 L790.64,206.31 L791.34,206.36 L792.04,206.41 L792.74,206.47 L793.43,206.53 L794.13,206.60 L794.82,206.67 L795.52,206.74 L796.21,206.82 L796.90,206.90 L797.59,206.98 L798.28,207.06 L798.97,207.15 L799.66,207.24 L800.35,207.33 L801.04,207.43 L801.72,207.53 L802.41,207.63 L803.09,207.73 L803.77,207.84 L804.46,207.95 L805.14,208.06 L805.82,208.18 L806.50,208.29 L807.18,208.41 L807.85,208.53 L808.53,208.65 L809.21,208.78 L809.88,208.91 L810.56,209.03 L811.23,209.16 L811.90,209.30 L812.57,209.43 L813.24,209.57 L813.91,209.70 L814.58,209.84 L815.25,209.98 L815.92,210.12 L816.58,210.27 L817.25,210.41 L817.91,210.56 L818.57,210.70 L819.24,210.85 L819.90,211.00 L820.56,211.15 L821.22,211.30 L821.88,211.45 L822.53,211.61 L823.19,211.76 L823.84,211.91 L824.50,212.07 L825.15,212.22 L825.81,212.38 L826.46,212.53 L827.11,212.69 L827.76,212.85 L828.41,213.00 L829.06,213.16 L829.70,213.33 L830.35,213.50 L831.00,213.67 L831.65,213.85 L832.29,214.04 L832.94,214.24 L833.58,214.44 L834.23,214.65 L834.88,214.86 L835.52,215.08 L836.17,215.30 L836.81,215.53 L837.45,215.77 L838.10,216.01 L838.74,216.25 L839.38,216.51 L840.02,216.76 L840.66,217.02 L841.30,217.29 L841.94,217.56 L842.58,217.83 L843.21,218.11 L843.85,218.39 L844.48,218.68 L845.12,218.97 L845.75,219.26 L846.38,219.56 L847.01,219.86 L847.64,220.17 L848.27,220.47 L848.90,220.79 L849.52,221.10 L850.15,221.42 L850.77,221.74 L851.40,222.06 L852.02,222.39 L852.64,222.72 L853.25,223.05 L853.87,223.38 L854.49,223.72 L855.10,224.06 L855.71,224.40 L856.32,224.74 L856.93,225.08 L857.54,225.43 L858.15,225.77 L858.75,226.12 L859.35,226.47 L859.95,226.82 L860.55,227.17 L861.15,227.53 L861.74,227.88 L862.34,228.23 L862.93,228.59 L863.52,228.94 L864.10,229.30 L864.69,229.65 L865.27,230.01 L865.85,230.36 L866.43,230.72 L867.00,231.07 L867.58,231.43 L868.15,231.78 L868.72,232.14 L869.29,232.49 L869.86,232.85 L870.42,233.21 L870.99,233.58 L871.55,233.95 L872.11,234.32 L872.67,234.69 L873.23,235.07 L873.79,235.45 L874.35,235.83 L874.90,236.22 L875.46,236.60 L876.01,237.00 L876.57,237.39 L877.12,237.79 L877.67,238.18 L878.22,238.59 L878.76,238.99 L879.31,239.40 L879.86,239.81 L880.40,240.22 L880.94,240.64 L881.48,241.05 L882.02,241.47 L882.56,241.90 L883.10,242.32 L883.64,242.75 L884.17,243.18 L884.70,243.62 L885.24,244.05 L885.77,244.49 L886.30,244.93 L886.82,245.37 L887.35,245.82 L887.88,246.27 L888.40,246.72 L888.92,247.17 L889.44,247.63 L889.96,248.08 L890.48,248.54 L891.00,249.01 L891.51,249.47 L892.03,249.94 L892.54,250.41 L893.05,250.88 L893.56,251.35 L894.07,251.83 L894.58,252.30 L895.08,252.78 L895.59,253.27 L896.09,253.75 L896.59,254.24 L897.09,254.73 L897.59,255.22 L898.08,255.71 L898.58,256.21 L899.07,256.70 L899.56,257.20 L900.05,257.70 L900.54,258.21 L901.03,258.71 L901.52,259.22 L902.00,259.73 L902.48,260.24 L902.97,260.75 L903.45,261.26 L903.72,261.56" class="conn-teal-bold"/>
    <path d="M204.51,114.40 L206.08,115.10 L208.57,116.18 L211.05,117.24 L213.53,118.28 L216.02,119.30 L218.50,120.31 L220.98,121.29 L223.46,122.26 L225.94,123.21 L228.42,124.13 L230.90,125.05 L233.38,125.94 L235.86,126.81 L238.34,127.67 L240.82,128.51 L243.30,129.33 L245.77,130.13 L248.25,130.91 L250.73,131.68 L253.20,132.42 L255.68,133.16 L258.16,133.87 L260.63,134.56 L263.11,135.24 L265.58,135.90 L268.06,136.55 L270.53,137.17 L273.00,137.78 L275.48,138.37 L277.95,138.95 L280.42,139.51 L282.89,140.05 L285.36,140.57 L287.84,141.08 L290.31,141.57 L292.78,142.05 L295.25,142.50 L297.72,142.95 L300.19,143.37 L302.65,143.78 L305.12,144.17 L307.59,144.55 L310.06,144.91 L312.53,145.26 L314.99,145.59 L317.46,145.90 L319.93,146.20 L322.39,146.48 L324.86,146.75 L327.32,147.00 L329.79,147.24 L332.25,147.46 L334.71,147.67 L337.18,147.86 L339.64,148.03 L342.10,148.19 L344.57,148.34 L347.03,148.47 L349.49,148.59 L351.95,148.69 L354.41,148.78 L356.87,148.85 L359.33,148.91 L361.79,148.95 L364.25,148.98 L366.71,149.00 L369.17,149.00 L371.62,148.95 L374.08,148.87 L376.53,148.74 L378.98,148.56 L381.43,148.35 L383.88,148.09 L386.33,147.80 L388.78,147.46 L391.22,147.09 L393.66,146.69 L396.11,146.25 L398.55,145.78 L400.99,145.28 L403.43,144.75 L405.87,144.18 L408.30,143.59 L410.74,142.98 L413.18,142.34 L415.61,141.67 L418.05,140.99 L420.48,140.28 L422.92,139.55 L425.35,138.80 L427.78,138.04 L430.22,137.26 L432.65,136.46 L435.08,135.66 L437.52,134.83 L439.95,134.00 L442.38,133.16 L444.82,132.31 L447.25,131.45 L449.68,130.59 L452.12,129.72 L454.55,128.85 L456.99,127.97 L459.42,127.10 L461.86,126.22 L464.30,125.35 L466.73,124.48 L469.17,123.61 L471.61,122.75 L474.05,121.90 L476.49,121.05 L478.93,120.22 L481.38,119.39 L483.82,118.57 L486.27,117.77 L488.72,116.99 L491.17,116.22 L493.62,115.46 L496.07,114.72 L498.52,114.01 L500.97,113.31 L503.43,112.64 L505.89,111.99 L508.35,111.36 L510.81,110.76 L513.28,110.19 L515.74,109.64 L518.21,109.13 L520.68,108.64 L523.15,108.19 L525.63,107.77 L528.11,107.39 L530.59,107.03 L533.07,106.69 L535.55,106.34 L538.03,106.00 L540.52,105.65 L543.00,105.31 L545.49,104.97 L547.97,104.62 L550.46,104.29 L552.95,103.95 L555.44,103.61 L557.93,103.28 L560.43,102.95 L562.92,102.62 L565.42,102.29 L567.91,101.96 L570.41,101.64 L572.91,101.32 L575.40,101.00 L577.91,100.69 L580.41,100.37 L582.91,100.06 L585.41,99.76 L587.92,99.46 L590.42,99.16 L592.93,98.86 L595.44,98.57 L597.94,98.28 L600.45,98.00 L602.96,97.72 L605.48,97.44 L607.99,97.17 L610.50,96.90 L613.02,96.64 L615.53,96.38 L618.05,96.13 L620.57,95.88 L623.09,95.64 L625.61,95.40 L628.13,95.16 L630.65,94.94 L633.18,94.71 L635.70,94.50 L638.23,94.29 L640.75,94.08 L643.28,93.88 L645.81,93.69 L648.34,93.50 L650.87,93.32 L653.40,93.15 L655.93,92.98 L658.47,92.82 L661.00,92.67 L663.54,92.52 L666.07,92.38 L668.61,92.25 L671.15,92.12 L673.69,92.00 L676.23,91.89 L678.78,91.79 L681.32,91.70 L683.86,91.61 L686.41,91.53 L688.95,91.46 L691.50,91.40 L694.05,91.35 L695.60,91.32" class="conn-teal"/>
    <path d="M655.38,263.17 L655.56,263.03 L656.50,262.26 L657.44,261.49 L658.37,260.71 L659.28,259.94 L660.19,259.16 L661.09,258.38 L661.98,257.60 L662.85,256.82 L663.72,256.04 L664.58,255.25 L665.42,254.46 L666.25,253.67 L667.07,252.88 L667.88,252.09 L668.68,251.30 L669.47,250.51 L670.24,249.71 L671.00,248.91 L671.75,248.11 L672.49,247.31 L673.21,246.51 L673.92,245.70 L674.62,244.90 L675.30,244.09 L675.97,243.28 L676.62,242.47 L677.26,241.66 L677.89,240.85 L678.50,240.03 L679.09,239.22 L679.68,238.40 L680.24,237.58 L680.79,236.76 L681.33,235.93 L681.85,235.11 L682.35,234.28 L682.84,233.46 L683.31,232.63 L683.76,231.80 L684.20,230.96 L684.62,230.13 L685.03,229.30 L685.41,228.46 L685.78,227.62 L686.13,226.78 L686.46,225.94 L686.78,225.10 L687.08,224.25 L687.35,223.41 L687.61,222.56 L687.85,221.71 L688.08,220.86 L688.28,220.01 L688.46,219.16 L688.62,218.30 L688.77,217.45 L688.89,216.59 L688.99,215.73 L689.08,214.87 L689.14,214.01 L689.18,213.14 L689.20,212.28 L689.20,211.41 L689.17,210.54 L689.11,209.66 L689.03,208.78 L688.92,207.90 L688.79,207.01 L688.63,206.12 L688.45,205.23 L688.25,204.33 L688.02,203.43 L687.78,202.53 L687.51,201.62 L687.23,200.71 L686.93,199.80 L686.61,198.88 L686.27,197.96 L685.92,197.04 L685.56,196.12 L685.17,195.19 L684.78,194.26 L684.37,193.33 L683.95,192.40 L683.52,191.47 L683.08,190.53 L682.63,189.60 L682.17,188.66 L681.70,187.72 L681.22,186.78 L680.74,185.84 L680.26,184.89 L679.76,183.95 L679.27,183.00 L678.77,182.06 L678.26,181.11 L677.76,180.16 L677.26,179.22 L676.75,178.27 L676.25,177.32 L675.74,176.37 L675.24,175.42 L674.74,174.48 L674.25,173.53 L673.76,172.58 L673.28,171.63 L672.80,170.69 L672.33,169.74 L671.86,168.80 L671.41,167.86 L670.96,166.91 L670.53,165.97 L670.10,165.03 L669.69,164.09 L669.29,163.16 L668.90,162.22 L668.53,161.29 L668.17,160.35 L667.83,159.42 L667.50,158.50 L667.19,157.57 L666.90,156.65 L666.63,155.73 L666.38,154.81 L666.14,153.89 L665.93,152.98 L665.74,152.07 L665.58,151.16 L665.43,150.26 L665.32,149.36 L665.22,148.46 L665.15,147.56 L665.11,146.67 L665.10,145.79 L665.11,144.90 L665.14,144.02 L665.18,143.13 L665.25,142.25 L665.33,141.37 L665.43,140.49 L665.55,139.61 L665.68,138.74 L665.83,137.86 L666.00,136.98 L666.19,136.11 L666.39,135.24 L666.61,134.36 L666.85,133.49 L667.10,132.62 L667.37,131.75 L667.66,130.89 L667.96,130.02 L668.28,129.15 L668.61,128.29 L668.96,127.43 L669.33,126.56 L669.71,125.70 L670.10,124.84 L670.51,123.98 L670.93,123.12 L671.37,122.27 L671.83,121.41 L672.30,120.56 L672.78,119.70 L673.27,118.85 L673.78,118.00 L674.31,117.15 L674.85,116.30 L675.40,115.45 L675.96,114.60 L676.54,113.75 L677.13,112.91 L677.74,112.06 L678.35,111.22 L678.98,110.38 L679.62,109.54 L680.28,108.70 L680.94,107.86 L681.62,107.02 L682.31,106.18 L683.01,105.35 L683.73,104.51 L684.45,103.68 L685.19,102.84 L685.94,102.01 L686.69,101.18 L687.46,100.35 L688.24,99.52 L689.03,98.70 L689.84,97.87 L690.65,97.05 L691.47,96.22 L692.30,95.40 L693.14,94.58 L693.99,93.76 L694.85,92.94 L695.72,92.12 L695.87,91.98" class="conn-teal"/>
    <path d="M653.60,263.80 L653.50,263.80 L652.96,263.79 L652.41,263.79 L651.86,263.78 L651.32,263.77 L650.77,263.76 L650.22,263.75 L649.68,263.74 L649.13,263.73 L648.59,263.71 L648.04,263.69 L647.50,263.68 L646.95,263.66 L646.41,263.64 L645.86,263.61 L645.32,263.59 L644.78,263.57 L644.24,263.54 L643.69,263.51 L643.15,263.49 L642.61,263.46 L642.07,263.43 L641.53,263.40 L640.99,263.36 L640.45,263.33 L639.90,263.30 L639.36,263.26 L638.83,263.23 L638.29,263.19 L637.75,263.15 L637.21,263.11 L636.67,263.07 L636.13,263.03 L635.59,262.99 L635.06,262.94 L634.52,262.90 L633.98,262.86 L633.45,262.81 L632.91,262.77 L632.37,262.72 L631.84,262.67 L631.30,262.62 L630.77,262.57 L630.23,262.52 L629.70,262.47 L629.17,262.42 L628.63,262.37 L628.10,262.32 L627.57,262.27 L627.03,262.21 L626.50,262.16 L625.97,262.11 L625.44,262.05 L624.91,262.00 L624.38,261.94 L623.84,261.89 L623.31,261.83 L622.78,261.77 L622.25,261.71 L621.72,261.66 L621.20,261.60 L620.67,261.54 L620.14,261.48 L619.61,261.42 L619.08,261.36 L618.56,261.29 L618.03,261.22 L617.50,261.13 L616.98,261.04 L616.46,260.94 L615.93,260.83 L615.41,260.72 L614.89,260.60 L614.37,260.47 L613.85,260.33 L613.33,260.19 L612.81,260.05 L612.29,259.90 L611.78,259.74 L611.26,259.58 L610.74,259.42 L610.23,259.25 L609.71,259.07 L609.19,258.89 L608.68,258.71 L608.17,258.53 L607.65,258.34 L607.14,258.15 L606.62,257.96 L606.11,257.77 L605.60,257.57 L605.08,257.37 L604.57,257.17 L604.06,256.98 L603.54,256.77 L603.03,256.57 L602.52,256.37 L602.01,256.17 L601.49,255.97 L600.98,255.77 L600.47,255.57 L599.95,255.37 L599.44,255.18 L598.93,254.98 L598.41,254.79 L597.90,254.60 L597.39,254.41 L596.87,254.23 L596.36,254.05 L595.84,253.87 L595.33,253.69 L594.81,253.52 L594.30,253.35 L593.78,253.19 L593.26,253.03 L592.75,252.88 L592.23,252.73 L591.71,252.59 L591.19,252.46 L590.67,252.33 L590.15,252.20 L589.63,252.09 L589.11,251.98 L588.59,251.87 L588.06,251.78 L587.54,251.69 L587.01,251.61 L586.49,251.54 L585.96,251.48 L585.44,251.42 L584.91,251.37 L584.38,251.33 L583.85,251.29 L583.32,251.24 L582.79,251.20 L582.26,251.15 L581.73,251.11 L581.20,251.07 L580.67,251.02 L580.14,250.98 L579.61,250.94 L579.08,250.90 L578.55,250.86 L578.01,250.82 L577.48,250.78 L576.95,250.74 L576.41,250.70 L575.88,250.66 L575.35,250.62 L574.81,250.59 L574.28,250.55 L573.74,250.51 L573.21,250.48 L572.67,250.44 L572.14,250.41 L571.60,250.37 L571.06,250.34 L570.53,250.31 L569.99,250.27 L569.45,250.24 L568.92,250.21 L568.38,250.18 L567.84,250.15 L567.30,250.12 L566.76,250.09 L566.22,250.07 L565.68,250.04 L565.14,250.01 L564.60,249.99 L564.06,249.96 L563.52,249.94 L562.98,249.91 L562.44,249.89 L561.90,249.87 L561.36,249.85 L560.81,249.83 L560.27,249.81 L559.73,249.79 L559.18,249.77 L558.64,249.76 L558.10,249.74 L557.55,249.72 L557.01,249.71 L556.46,249.70 L555.92,249.68 L555.37,249.67 L554.83,249.66 L554.28,249.65 L553.73,249.64 L553.19,249.63 L552.64,249.62 L552.09,249.62 L551.54,249.61 L551.00,249.61 L550.45,249.60 L549.90,249.60 L549.80,249.60" class="conn-ochre"/>
    <path d="M782.80,205.40 L782.61,205.25 L781.62,204.50 L780.62,203.76 L779.63,203.02 L778.63,202.28 L777.63,201.54 L776.63,200.81 L775.63,200.09 L774.62,199.36 L773.61,198.64 L772.60,197.93 L771.59,197.22 L770.58,196.51 L769.56,195.81 L768.55,195.11 L767.53,194.42 L766.51,193.73 L765.48,193.05 L764.46,192.37 L763.43,191.70 L762.40,191.04 L761.37,190.38 L760.34,189.73 L759.31,189.09 L758.27,188.45 L757.23,187.82 L756.19,187.19 L755.15,186.58 L754.11,185.97 L753.06,185.37 L752.02,184.77 L750.97,184.19 L749.92,183.61 L748.86,183.04 L747.81,182.48 L746.75,181.92 L745.70,181.38 L744.64,180.85 L743.57,180.32 L742.51,179.80 L741.45,179.30 L740.38,178.80 L739.31,178.32 L738.24,177.84 L737.17,177.37 L736.09,176.92 L735.02,176.47 L733.94,176.04 L732.86,175.61 L731.78,175.20 L730.70,174.80 L729.61,174.41 L728.53,174.03 L727.44,173.67 L726.35,173.31 L725.26,172.97 L724.17,172.64 L723.07,172.33 L721.98,172.02 L720.88,171.73 L719.78,171.45 L718.68,171.19 L717.57,170.94 L716.47,170.70 L715.36,170.48 L714.26,170.27 L713.15,170.07 L712.03,169.89 L710.92,169.70 L709.80,169.52 L708.67,169.34 L707.55,169.16 L706.42,168.98 L705.28,168.81 L704.14,168.64 L703.00,168.47 L701.86,168.31 L700.71,168.14 L699.56,167.98 L698.41,167.83 L697.25,167.67 L696.10,167.52 L694.94,167.37 L693.77,167.22 L692.61,167.07 L691.44,166.93 L690.27,166.79 L689.10,166.65 L687.92,166.51 L686.75,166.38 L685.57,166.25 L684.39,166.12 L683.21,165.99 L682.03,165.86 L680.84,165.74 L679.66,165.62 L678.47,165.50 L677.28,165.38 L676.09,165.27 L674.90,165.16 L673.71,165.05 L672.51,164.94 L671.32,164.83 L670.13,164.73 L668.93,164.63 L667.74,164.53 L666.54,164.43 L665.35,164.33 L664.15,164.24 L662.95,164.15 L661.76,164.06 L660.56,163.97 L659.36,163.88 L658.17,163.80 L656.97,163.71 L655.78,163.63 L654.58,163.55 L653.39,163.48 L652.19,163.40 L651.00,163.33 L649.81,163.26 L648.61,163.19 L647.42,163.12 L646.23,163.05 L645.05,162.99 L643.86,162.92 L642.67,162.86 L641.49,162.80 L640.31,162.74 L639.12,162.69 L637.95,162.63 L636.77,162.58 L635.59,162.53 L634.41,162.48 L633.23,162.42 L632.06,162.37 L630.88,162.32 L629.70,162.27 L628.52,162.21 L627.35,162.16 L626.17,162.11 L624.99,162.06 L623.81,162.01 L622.63,161.96 L621.45,161.91 L620.27,161.86 L619.10,161.81 L617.92,161.76 L616.74,161.71 L615.56,161.67 L614.38,161.62 L613.20,161.57 L612.02,161.53 L610.84,161.48 L609.66,161.43 L608.49,161.39 L607.31,161.35 L606.13,161.30 L604.95,161.26 L603.77,161.22 L602.59,161.18 L601.41,161.13 L600.23,161.09 L599.05,161.06 L597.87,161.02 L596.69,160.98 L595.51,160.94 L594.33,160.91 L593.15,160.87 L591.97,160.84 L590.79,160.80 L589.61,160.77 L588.42,160.74 L587.24,160.71 L586.06,160.68 L584.88,160.65 L583.70,160.62 L582.52,160.59 L581.34,160.57 L580.16,160.54 L578.98,160.52 L577.80,160.50 L576.61,160.47 L575.43,160.45 L574.25,160.43 L573.07,160.42 L571.89,160.40 L570.71,160.38 L569.52,160.37 L568.34,160.36 L567.16,160.35 L565.98,160.33 L564.80,160.33 L563.61,160.32 L562.43,160.31 L561.25,160.31 L560.07,160.30 L558.88,160.30 L558.70,160.30" class="conn-teal-bold"/>
    <path d="M696.60,92.30 L696.60,92.39 L696.60,93.49 L696.61,94.58 L696.61,95.66 L696.61,96.75 L696.62,97.83 L696.63,98.91 L696.64,99.99 L696.65,101.07 L696.66,102.14 L696.67,103.21 L696.68,104.28 L696.70,105.35 L696.71,106.41 L696.73,107.47 L696.75,108.53 L696.77,109.59 L696.79,110.64 L696.81,111.70 L696.83,112.75 L696.85,113.79 L696.88,114.84 L696.90,115.88 L696.93,116.92 L696.96,117.96 L696.98,118.99 L697.01,120.03 L697.05,121.06 L697.08,122.08 L697.11,123.11 L697.14,124.13 L697.18,125.15 L697.21,126.17 L697.25,127.19 L697.29,128.20 L697.33,129.21 L697.37,130.22 L697.41,131.22 L697.45,132.22 L697.49,133.22 L697.54,134.22 L697.58,135.22 L697.63,136.21 L697.67,137.20 L697.72,138.19 L697.77,139.17 L697.82,140.15 L697.87,141.13 L697.92,142.11 L697.97,143.08 L698.03,144.06 L698.08,145.03 L698.14,145.99 L698.19,146.96 L698.25,147.92 L698.31,148.88 L698.37,149.83 L698.43,150.79 L698.49,151.74 L698.55,152.68 L698.61,153.63 L698.68,154.57 L698.74,155.51 L698.81,156.45 L698.87,157.38 L698.94,158.32 L699.01,159.24 L699.08,160.17 L699.15,161.09 L699.25,162.02 L699.38,162.93 L699.54,163.85 L699.72,164.76 L699.93,165.67 L700.16,166.57 L700.42,167.48 L700.70,168.38 L701.00,169.27 L701.33,170.17 L701.68,171.06 L702.05,171.95 L702.44,172.84 L702.85,173.72 L703.28,174.60 L703.72,175.48 L704.19,176.36 L704.67,177.23 L705.17,178.11 L705.69,178.98 L706.22,179.84 L706.77,180.71 L707.33,181.57 L707.90,182.43 L708.49,183.29 L709.09,184.15 L709.70,185.00 L710.32,185.85 L710.95,186.70 L711.59,187.55 L712.24,188.40 L712.90,189.24 L713.57,190.09 L714.24,190.93 L714.92,191.77 L715.61,192.60 L716.30,193.44 L716.99,194.27 L717.69,195.11 L718.40,195.94 L719.10,196.77 L719.81,197.59 L720.52,198.42 L721.23,199.24 L721.94,200.07 L722.65,200.89 L723.36,201.71 L724.07,202.53 L724.77,203.35 L725.47,204.16 L726.17,204.98 L726.86,205.80 L727.55,206.61 L728.23,207.42 L728.91,208.23 L729.58,209.04 L730.24,209.85 L730.89,210.66 L731.54,211.47 L732.17,212.28 L732.80,213.08 L733.41,213.89 L734.02,214.69 L734.62,215.50 L735.23,216.30 L735.84,217.10 L736.45,217.90 L737.06,218.70 L737.67,219.50 L738.29,220.29 L738.91,221.09 L739.53,221.88 L740.15,222.67 L740.77,223.47 L741.40,224.26 L742.03,225.05 L742.66,225.83 L743.29,226.62 L743.92,227.41 L744.56,228.19 L745.20,228.97 L745.84,229.75 L746.48,230.53 L747.12,231.31 L747.77,232.09 L748.42,232.87 L749.07,233.64 L749.72,234.42 L750.38,235.19 L751.03,235.96 L751.69,236.73 L752.35,237.50 L753.01,238.27 L753.68,239.03 L754.34,239.80 L755.01,240.56 L755.68,241.32 L756.35,242.08 L757.02,242.84 L757.70,243.60 L758.38,244.36 L759.05,245.11 L759.74,245.87 L760.42,246.62 L761.10,247.37 L761.79,248.12 L762.48,248.87 L763.17,249.62 L763.86,250.36 L764.55,251.11 L765.25,251.85 L765.95,252.59 L766.64,253.33 L767.35,254.07 L768.05,254.81 L768.75,255.55 L769.46,256.28 L770.17,257.01 L770.88,257.75 L771.59,258.48 L772.30,259.21 L773.02,259.93 L773.73,260.66 L774.45,261.38 L775.17,262.11 L775.89,262.83 L776.62,263.55 L777.34,264.27 L778.07,264.98 L778.09,265.00" class="conn-teal"/>
    <path d="M526.62,112.25 L526.69,112.43 L526.79,112.72 L526.89,113.00 L526.99,113.28 L527.09,113.56 L527.20,113.84 L527.30,114.12 L527.41,114.40 L527.52,114.68 L527.62,114.95 L527.73,115.23 L527.84,115.51 L527.95,115.78 L528.07,116.06 L528.18,116.33 L528.29,116.61 L528.41,116.88 L528.52,117.16 L528.64,117.43 L528.76,117.70 L528.87,117.97 L528.99,118.25 L529.11,118.52 L529.23,118.79 L529.36,119.06 L529.48,119.32 L529.60,119.59 L529.73,119.86 L529.85,120.13 L529.98,120.39 L530.10,120.66 L530.23,120.93 L530.36,121.19 L530.49,121.46 L530.62,121.72 L530.75,121.98 L530.88,122.25 L531.01,122.51 L531.14,122.77 L531.28,123.03 L531.41,123.29 L531.55,123.55 L531.68,123.81 L531.82,124.07 L531.96,124.32 L532.09,124.58 L532.23,124.84 L532.37,125.09 L532.51,125.35 L532.65,125.60 L532.79,125.86 L532.93,126.11 L533.08,126.36 L533.22,126.62 L533.36,126.87 L533.51,127.12 L533.65,127.37 L533.80,127.62 L533.94,127.87 L534.09,128.12 L534.24,128.36 L534.39,128.61 L534.54,128.86 L534.69,129.10 L534.84,129.35 L534.99,129.59 L535.15,129.83 L535.31,130.07 L535.47,130.31 L535.63,130.55 L535.80,130.79 L535.97,131.03 L536.14,131.26 L536.31,131.50 L536.48,131.73 L536.66,131.96 L536.83,132.20 L537.01,132.43 L537.19,132.66 L537.37,132.89 L537.55,133.12 L537.74,133.35 L537.92,133.58 L538.11,133.80 L538.29,134.03 L538.48,134.26 L538.67,134.48 L538.86,134.71 L539.05,134.94 L539.24,135.16 L539.43,135.38 L539.63,135.61 L539.82,135.83 L540.01,136.06 L540.21,136.28 L540.40,136.50 L540.60,136.73 L540.79,136.95 L540.99,137.17 L541.19,137.40 L541.38,137.62 L541.58,137.84 L541.78,138.07 L541.97,138.29 L542.17,138.51 L542.36,138.74 L542.56,138.96 L542.75,139.18 L542.95,139.41 L543.14,139.63 L543.34,139.86 L543.53,140.08 L543.72,140.31 L543.91,140.53 L544.11,140.76 L544.30,140.99 L544.49,141.21 L544.67,141.44 L544.86,141.67 L545.05,141.90 L545.23,142.13 L545.42,142.36 L545.60,142.59 L545.78,142.82 L545.96,143.05 L546.14,143.29 L546.32,143.52 L546.49,143.76 L546.67,143.99 L546.84,144.23 L547.01,144.46 L547.19,144.70 L547.36,144.94 L547.53,145.18 L547.70,145.41 L547.88,145.65 L548.05,145.89 L548.22,146.13 L548.39,146.36 L548.56,146.60 L548.73,146.84 L548.90,147.08 L549.07,147.32 L549.24,147.56 L549.41,147.80 L549.58,148.04 L549.75,148.28 L549.92,148.52 L550.09,148.76 L550.26,149.00 L550.43,149.24 L550.59,149.48 L550.76,149.72 L550.93,149.96 L551.10,150.21 L551.26,150.45 L551.43,150.69 L551.59,150.93 L551.76,151.18 L551.93,151.42 L552.09,151.66 L552.26,151.90 L552.42,152.15 L552.59,152.39 L552.75,152.64 L552.91,152.88 L553.08,153.12 L553.24,153.37 L553.40,153.61 L553.57,153.86 L553.73,154.10 L553.89,154.35 L554.05,154.59 L554.22,154.84 L554.38,155.09 L554.54,155.33 L554.70,155.58 L554.86,155.83 L555.02,156.07 L555.18,156.32 L555.34,156.57 L555.50,156.81 L555.66,157.06 L555.82,157.31 L555.98,157.56 L556.13,157.81 L556.29,158.05 L556.45,158.30 L556.61,158.55 L556.76,158.80 L556.92,159.05 L557.08,159.30 L557.17,159.45" class="conn-teal"/>
    <path d="M696.40,92.28 L696.35,92.49 L696.10,93.68 L695.84,94.86 L695.57,96.04 L695.29,97.21 L695.00,98.38 L694.71,99.55 L694.41,100.71 L694.09,101.86 L693.78,103.01 L693.45,104.16 L693.12,105.30 L692.78,106.44 L692.43,107.57 L692.07,108.70 L691.71,109.82 L691.34,110.94 L690.96,112.06 L690.58,113.16 L690.19,114.27 L689.79,115.37 L689.39,116.46 L688.98,117.55 L688.56,118.63 L688.14,119.71 L687.71,120.78 L687.27,121.85 L686.83,122.91 L686.38,123.97 L685.93,125.02 L685.47,126.06 L685.00,127.10 L684.53,128.14 L684.06,129.17 L683.58,130.19 L683.09,131.21 L682.60,132.22 L682.10,133.23 L681.60,134.23 L681.09,135.22 L680.58,136.21 L680.06,137.19 L679.54,138.17 L679.01,139.14 L678.48,140.11 L677.95,141.07 L677.41,142.02 L676.87,142.97 L676.32,143.91 L675.77,144.84 L675.21,145.77 L674.65,146.69 L674.09,147.61 L673.53,148.51 L672.96,149.42 L672.38,150.31 L671.81,151.20 L671.23,152.08 L670.64,152.96 L670.06,153.83 L669.47,154.69 L668.88,155.55 L668.28,156.40 L667.68,157.24 L667.09,158.08 L666.48,158.90 L665.88,159.73 L665.27,160.54 L664.64,161.35 L664.00,162.14 L663.34,162.94 L662.67,163.72 L661.98,164.49 L661.28,165.26 L660.56,166.02 L659.82,166.78 L659.08,167.52 L658.32,168.27 L657.54,169.00 L656.75,169.73 L655.96,170.45 L655.14,171.17 L654.32,171.88 L653.49,172.59 L652.64,173.29 L651.79,173.98 L650.92,174.67 L650.05,175.36 L649.17,176.04 L648.28,176.72 L647.37,177.40 L646.47,178.07 L645.55,178.73 L644.63,179.40 L643.70,180.06 L642.76,180.71 L641.82,181.37 L640.87,182.02 L639.92,182.67 L638.97,183.32 L638.00,183.96 L637.04,184.60 L636.07,185.25 L635.10,185.89 L634.12,186.52 L633.15,187.16 L632.17,187.80 L631.19,188.43 L630.21,189.07 L629.23,189.71 L628.25,190.34 L627.26,190.98 L626.28,191.61 L625.30,192.25 L624.32,192.88 L623.35,193.52 L622.37,194.16 L621.40,194.80 L620.43,195.44 L619.46,196.08 L618.50,196.73 L617.54,197.37 L616.59,198.02 L615.64,198.67 L614.70,199.33 L613.76,199.98 L612.83,200.64 L611.90,201.31 L610.98,201.97 L610.07,202.64 L609.17,203.31 L608.27,203.99 L607.39,204.67 L606.50,205.35 L605.61,206.03 L604.72,206.71 L603.83,207.39 L602.95,208.07 L602.06,208.75 L601.17,209.43 L600.28,210.11 L599.39,210.79 L598.51,211.48 L597.62,212.16 L596.73,212.84 L595.84,213.52 L594.96,214.20 L594.07,214.88 L593.18,215.56 L592.29,216.24 L591.40,216.92 L590.52,217.60 L589.63,218.28 L588.74,218.96 L587.85,219.64 L586.97,220.32 L586.08,221.00 L585.19,221.68 L584.30,222.36 L583.41,223.05 L582.53,223.73 L581.64,224.41 L580.75,225.09 L579.86,225.77 L578.98,226.45 L578.09,227.13 L577.20,227.81 L576.31,228.49 L575.43,229.17 L574.54,229.85 L573.65,230.53 L572.76,231.21 L571.87,231.90 L570.99,232.58 L570.10,233.26 L569.21,233.94 L568.32,234.62 L567.44,235.30 L566.55,235.98 L565.66,236.66 L564.77,237.34 L563.89,238.02 L563.00,238.70 L562.11,239.38 L561.22,240.07 L560.34,240.75 L559.45,241.43 L558.56,242.11 L557.67,242.79 L556.79,243.47 L555.90,244.15 L555.01,244.83 L554.12,245.51 L553.24,246.19 L552.35,246.88 L551.46,247.56 L550.57,248.24 L549.69,248.92 L549.59,248.99" class="conn-teal"/>
    <path d="M204.23,114.78 L204.44,115.05 L204.72,115.40 L205.00,115.75 L205.28,116.11 L205.55,116.46 L205.83,116.81 L206.10,117.17 L206.37,117.52 L206.64,117.88 L206.91,118.24 L207.18,118.60 L207.44,118.95 L207.70,119.31 L207.96,119.67 L208.22,120.03 L208.48,120.39 L208.73,120.75 L208.98,121.12 L209.22,121.48 L209.47,121.84 L209.71,122.21 L209.94,122.57 L210.18,122.94 L210.41,123.30 L210.63,123.67 L210.85,124.04 L211.07,124.40 L211.28,124.77 L211.49,125.14 L211.70,125.51 L211.90,125.88 L212.09,126.25 L212.28,126.63 L212.47,127.00 L212.65,127.37 L212.82,127.75 L212.99,128.12 L213.16,128.49 L213.32,128.87 L213.47,129.25 L213.62,129.62 L213.76,130.00 L213.89,130.38 L214.02,130.76 L214.14,131.14 L214.26,131.52 L214.36,131.90 L214.47,132.28 L214.56,132.66 L214.65,133.04 L214.73,133.43 L214.80,133.81 L214.87,134.20 L214.92,134.58 L214.97,134.97 L215.01,135.35 L215.05,135.74 L215.07,136.13 L215.09,136.52 L215.10,136.91 L215.10,137.30 L215.10,137.69 L215.09,138.08 L215.09,138.48 L215.08,138.88 L215.08,139.29 L215.07,139.69 L215.06,140.10 L215.04,140.51 L215.03,140.92 L215.02,141.34 L215.00,141.76 L214.99,142.17 L214.97,142.59 L214.95,143.02 L214.93,143.44 L214.91,143.87 L214.89,144.29 L214.87,144.72 L214.84,145.15 L214.82,145.58 L214.80,146.01 L214.77,146.44 L214.74,146.87 L214.72,147.30 L214.69,147.74 L214.67,148.17 L214.64,148.61 L214.61,149.04 L214.58,149.47 L214.55,149.91 L214.53,150.34 L214.50,150.78 L214.47,151.21 L214.44,151.64 L214.41,152.07 L214.38,152.51 L214.36,152.94 L214.33,153.37 L214.30,153.80 L214.27,154.22 L214.24,154.65 L214.22,155.08 L214.19,155.50 L214.16,155.92 L214.14,156.34 L214.11,156.76 L214.09,157.18 L214.07,157.60 L214.04,158.01 L214.02,158.42 L214.00,158.83 L213.98,159.24 L213.96,159.64 L213.94,160.04 L213.92,160.44 L213.90,160.84 L213.89,161.23 L213.87,161.62 L213.86,162.01 L213.85,162.40 L213.84,162.78 L213.83,163.16 L213.82,163.53 L213.81,163.90 L213.81,164.27 L213.80,164.63 L213.80,164.99 L213.80,165.34 L213.81,165.70 L213.83,166.05 L213.86,166.40 L213.90,166.75 L213.95,167.10 L214.01,167.45 L214.09,167.79 L214.17,168.14 L214.27,168.48 L214.37,168.83 L214.49,169.17 L214.62,169.51 L214.75,169.85 L214.90,170.19 L215.05,170.52 L215.21,170.86 L215.39,171.19 L215.57,171.53 L215.76,171.86 L215.96,172.19 L216.16,172.52 L216.38,172.85 L216.60,173.17 L216.84,173.50 L217.07,173.82 L217.32,174.15 L217.58,174.47 L217.84,174.79 L218.11,175.11 L218.38,175.42 L218.67,175.74 L218.96,176.06 L219.25,176.37 L219.55,176.68 L219.86,176.99 L220.18,177.30 L220.50,177.61 L220.82,177.92 L221.15,178.22 L221.49,178.52 L221.83,178.83 L222.18,179.13 L222.53,179.43 L222.88,179.72 L223.25,180.02 L223.61,180.32 L223.98,180.61 L224.35,180.90 L224.73,181.19 L225.11,181.48 L225.49,181.77 L225.88,182.05 L226.27,182.34 L226.67,182.62 L227.06,182.90 L227.46,183.18 L227.86,183.46 L228.27,183.73 L228.67,184.01 L229.08,184.28 L229.49,184.55 L229.90,184.82 L230.32,185.09 L230.73,185.35 L231.15,185.62 L231.55,185.87" class="conn-teal-bold"/>
    <path d="M298.56,224.21 L299.64,223.88 L301.69,223.27 L303.73,222.65 L305.77,222.04 L307.82,221.43 L309.86,220.82 L311.91,220.21 L313.95,219.60 L316.00,219.00 L318.05,218.40 L320.10,217.80 L322.14,217.20 L324.19,216.60 L326.24,216.00 L328.29,215.41 L330.34,214.82 L332.39,214.23 L334.44,213.64 L336.49,213.06 L338.54,212.48 L340.60,211.89 L342.65,211.31 L344.70,210.74 L346.75,210.16 L348.81,209.59 L350.86,209.02 L352.92,208.45 L354.97,207.88 L357.03,207.31 L359.09,206.75 L361.14,206.19 L363.20,205.63 L365.26,205.07 L367.31,204.52 L369.37,203.96 L371.43,203.41 L373.49,202.87 L375.55,202.32 L377.61,201.77 L379.67,201.23 L381.74,200.69 L383.80,200.16 L385.86,199.62 L387.92,199.09 L389.99,198.56 L392.05,198.03 L394.11,197.50 L396.18,196.98 L398.24,196.45 L400.31,195.94 L402.37,195.42 L404.44,194.90 L406.51,194.39 L408.58,193.88 L410.64,193.37 L412.71,192.87 L414.78,192.36 L416.85,191.86 L418.92,191.37 L420.99,190.87 L423.06,190.38 L425.13,189.89 L427.20,189.40 L429.28,188.91 L431.35,188.43 L433.42,187.95 L435.50,187.48 L437.58,187.02 L439.67,186.56 L441.76,186.11 L443.85,185.67 L445.95,185.24 L448.05,184.81 L450.15,184.39 L452.26,183.98 L454.36,183.57 L456.47,183.16 L458.59,182.76 L460.70,182.37 L462.82,181.98 L464.94,181.59 L467.06,181.21 L469.18,180.83 L471.30,180.45 L473.43,180.08 L475.55,179.71 L477.68,179.34 L479.80,178.97 L481.93,178.61 L484.05,178.24 L486.18,177.88 L488.31,177.52 L490.43,177.15 L492.56,176.79 L494.68,176.43 L496.81,176.06 L498.93,175.70 L501.05,175.33 L503.17,174.96 L505.29,174.59 L507.40,174.22 L509.52,173.84 L511.63,173.46 L513.74,173.08 L515.84,172.69 L517.95,172.30 L520.05,171.91 L522.15,171.51 L524.24,171.10 L526.34,170.69 L528.42,170.28 L530.51,169.86 L532.59,169.43 L534.66,169.00 L536.74,168.56 L538.80,168.11 L540.87,167.66 L542.92,167.19 L544.98,166.72 L547.03,166.24 L549.07,165.76 L551.10,165.26 L553.14,164.75 L555.16,164.24 L557.18,163.71 L559.19,163.17 L561.20,162.62 L563.20,162.07 L565.19,161.50 L567.18,160.92 L569.16,160.32 L571.13,159.71 L573.10,159.09 L575.07,158.45 L577.04,157.80 L579.00,157.13 L580.96,156.45 L582.92,155.75 L584.87,155.04 L586.83,154.31 L588.78,153.57 L590.72,152.81 L592.66,152.04 L594.60,151.26 L596.54,150.46 L598.48,149.65 L600.41,148.83 L602.34,147.99 L604.26,147.14 L606.19,146.28 L608.11,145.40 L610.02,144.51 L611.94,143.61 L613.85,142.70 L615.76,141.77 L617.66,140.84 L619.56,139.89 L621.46,138.93 L623.36,137.95 L625.25,136.97 L627.14,135.97 L629.03,134.97 L630.91,133.95 L632.79,132.92 L634.67,131.88 L636.54,130.84 L638.41,129.78 L640.28,128.71 L642.15,127.63 L644.01,126.54 L645.87,125.44 L647.72,124.33 L649.58,123.21 L651.42,122.08 L653.27,120.94 L655.11,119.80 L656.95,118.64 L658.79,117.48 L660.62,116.31 L662.45,115.13 L664.28,113.94 L666.10,112.74 L667.92,111.54 L669.74,110.32 L671.56,109.10 L673.37,107.88 L675.17,106.64 L676.98,105.40 L678.78,104.15 L680.57,102.89 L682.37,101.63 L684.16,100.36 L685.95,99.08 L687.73,97.80 L689.51,96.51 L691.29,95.22 L693.06,93.92 L694.83,92.61 L695.80,91.90" class="conn-teal"/>
    <path d="M297.23,223.57 L297.07,223.20 L296.89,222.77 L296.71,222.34 L296.52,221.91 L296.34,221.48 L296.15,221.06 L295.95,220.64 L295.76,220.22 L295.56,219.80 L295.36,219.39 L295.15,218.97 L294.95,218.56 L294.74,218.16 L294.53,217.75 L294.32,217.35 L294.10,216.96 L293.89,216.56 L293.67,216.17 L293.44,215.78 L293.22,215.40 L292.99,215.02 L292.77,214.64 L292.54,214.27 L292.30,213.90 L292.07,213.53 L291.83,213.17 L291.59,212.82 L291.35,212.46 L291.11,212.12 L290.86,211.77 L290.62,211.43 L290.37,211.10 L290.12,210.77 L289.86,210.45 L289.61,210.13 L289.35,209.81 L289.10,209.50 L288.84,209.20 L288.57,208.90 L288.31,208.61 L288.04,208.33 L287.78,208.05 L287.51,207.77 L287.24,207.50 L286.97,207.24 L286.69,206.98 L286.42,206.73 L286.14,206.49 L285.86,206.25 L285.58,206.02 L285.30,205.80 L285.02,205.58 L284.73,205.37 L284.45,205.17 L284.16,204.98 L283.87,204.79 L283.58,204.61 L283.29,204.43 L283.00,204.27 L282.70,204.11 L282.41,203.96 L282.11,203.82 L281.81,203.69 L281.51,203.56 L281.21,203.44 L280.91,203.33 L280.60,203.22 L280.29,203.12 L279.97,203.02 L279.64,202.93 L279.31,202.83 L278.97,202.74 L278.63,202.65 L278.29,202.57 L277.94,202.49 L277.58,202.41 L277.22,202.33 L276.86,202.26 L276.49,202.18 L276.12,202.11 L275.74,202.05 L275.36,201.98 L274.98,201.91 L274.59,201.85 L274.20,201.79 L273.81,201.73 L273.41,201.67 L273.01,201.62 L272.61,201.56 L272.20,201.51 L271.80,201.46 L271.39,201.40 L270.98,201.35 L270.56,201.30 L270.15,201.25 L269.73,201.20 L269.32,201.16 L268.90,201.11 L268.48,201.06 L268.06,201.01 L267.63,200.96 L267.21,200.91 L266.79,200.87 L266.37,200.82 L265.94,200.77 L265.52,200.72 L265.09,200.67 L264.67,200.62 L264.25,200.57 L263.83,200.52 L263.40,200.46 L262.98,200.41 L262.56,200.36 L262.14,200.30 L261.73,200.24 L261.31,200.18 L260.90,200.12 L260.48,200.06 L260.07,199.99 L259.66,199.93 L259.26,199.86 L258.85,199.79 L258.45,199.72 L258.05,199.64 L257.66,199.56 L257.26,199.48 L256.87,199.40 L256.49,199.32 L256.11,199.23 L255.73,199.14 L255.35,199.04 L254.98,198.95 L254.61,198.85 L254.24,198.74 L253.87,198.64 L253.51,198.52 L253.14,198.41 L252.78,198.29 L252.41,198.17 L252.05,198.04 L251.69,197.91 L251.32,197.78 L250.96,197.64 L250.60,197.50 L250.24,197.36 L249.88,197.21 L249.52,197.06 L249.16,196.91 L248.81,196.75 L248.45,196.59 L248.09,196.43 L247.74,196.26 L247.38,196.10 L247.02,195.92 L246.67,195.75 L246.32,195.57 L245.96,195.39 L245.61,195.21 L245.26,195.02 L244.91,194.84 L244.56,194.64 L244.21,194.45 L243.86,194.25 L243.51,194.06 L243.16,193.85 L242.82,193.65 L242.47,193.45 L242.13,193.24 L241.78,193.03 L241.44,192.81 L241.09,192.60 L240.75,192.38 L240.41,192.16 L240.07,191.94 L239.73,191.72 L239.39,191.49 L239.05,191.27 L238.71,191.04 L238.37,190.81 L238.03,190.58 L237.69,190.34 L237.36,190.11 L237.02,189.87 L236.69,189.63 L236.35,189.39 L236.02,189.15 L235.69,188.90 L235.36,188.66 L235.02,188.41 L234.69,188.17 L234.36,187.92 L234.04,187.67 L233.71,187.42 L233.38,187.16 L233.19,187.02" class="conn-ochre"/>
    <path d="M655.41,264.38 L656.02,264.80 L656.72,265.29 L657.43,265.76 L658.13,266.22 L658.83,266.67 L659.53,267.11 L660.23,267.54 L660.93,267.96 L661.63,268.37 L662.32,268.76 L663.01,269.15 L663.71,269.53 L664.40,269.89 L665.09,270.25 L665.78,270.59 L666.47,270.93 L667.15,271.26 L667.84,271.57 L668.52,271.88 L669.20,272.18 L669.88,272.46 L670.56,272.74 L671.24,273.01 L671.91,273.27 L672.59,273.52 L673.26,273.77 L673.93,274.00 L674.60,274.23 L675.27,274.44 L675.94,274.65 L676.60,274.85 L677.27,275.04 L677.93,275.23 L678.59,275.40 L679.25,275.57 L679.91,275.73 L680.56,275.88 L681.22,276.03 L681.87,276.16 L682.52,276.29 L683.17,276.42 L683.82,276.53 L684.47,276.64 L685.11,276.74 L685.76,276.83 L686.40,276.92 L687.04,277.00 L687.68,277.08 L688.31,277.15 L688.95,277.21 L689.58,277.26 L690.21,277.31 L690.84,277.36 L691.47,277.39 L692.09,277.42 L692.72,277.45 L693.34,277.47 L693.96,277.49 L694.58,277.50 L695.20,277.50 L695.81,277.49 L696.42,277.45 L697.03,277.38 L697.63,277.28 L698.24,277.15 L698.84,276.99 L699.43,276.79 L700.02,276.58 L700.61,276.33 L701.20,276.06 L701.79,275.76 L702.37,275.45 L702.95,275.10 L703.53,274.74 L704.10,274.35 L704.67,273.95 L705.24,273.52 L705.81,273.08 L706.38,272.62 L706.95,272.14 L707.51,271.65 L708.07,271.14 L708.63,270.62 L709.19,270.09 L709.75,269.54 L710.31,268.99 L710.87,268.42 L711.42,267.85 L711.97,267.27 L712.53,266.68 L713.08,266.08 L713.63,265.48 L714.18,264.87 L714.73,264.26 L715.28,263.65 L715.83,263.04 L716.38,262.43 L716.93,261.81 L717.48,261.20 L718.03,260.59 L718.58,259.99 L719.13,259.38 L719.68,258.78 L720.24,258.19 L720.79,257.61 L721.34,257.03 L721.89,256.46 L722.45,255.90 L723.00,255.36 L723.56,254.82 L724.11,254.30 L724.67,253.79 L725.23,253.29 L725.79,252.81 L726.36,252.34 L726.92,251.90 L727.49,251.47 L728.05,251.05 L728.62,250.66 L729.19,250.29 L729.77,249.95 L730.34,249.62 L730.92,249.32 L731.50,249.04 L732.08,248.79 L732.67,248.56 L733.25,248.36 L733.84,248.19 L734.44,248.05 L735.03,247.94 L735.63,247.86 L736.23,247.81 L736.84,247.80 L737.44,247.80 L738.05,247.81 L738.66,247.83 L739.27,247.86 L739.88,247.89 L740.50,247.93 L741.11,247.98 L741.73,248.03 L742.35,248.09 L742.96,248.16 L743.58,248.24 L744.21,248.33 L744.83,248.42 L745.45,248.52 L746.08,248.63 L746.70,248.75 L747.33,248.87 L747.96,249.00 L748.59,249.15 L749.22,249.30 L749.85,249.45 L750.49,249.62 L751.12,249.79 L751.76,249.98 L752.39,250.17 L753.03,250.37 L753.67,250.58 L754.31,250.80 L754.95,251.03 L755.60,251.26 L756.24,251.51 L756.89,251.76 L757.53,252.02 L758.18,252.30 L758.83,252.58 L759.48,252.87 L760.13,253.17 L760.78,253.48 L761.44,253.80 L762.09,254.13 L762.75,254.47 L763.40,254.82 L764.06,255.18 L764.72,255.55 L765.38,255.92 L766.04,256.31 L766.70,256.71 L767.37,257.12 L768.03,257.54 L768.70,257.97 L769.36,258.41 L770.03,258.86 L770.70,259.32 L771.37,259.79 L772.04,260.28 L772.71,260.77 L773.38,261.27 L774.06,261.79 L774.73,262.31 L775.41,262.85 L776.08,263.40 L776.76,263.96 L777.44,264.53 L778.05,265.04" class="conn-teal"/>
    <path d="M204.58,113.82 L205.23,113.71 L206.87,113.42 L208.50,113.12 L210.14,112.83 L211.77,112.54 L213.40,112.25 L215.04,111.96 L216.67,111.67 L218.31,111.38 L219.94,111.09 L221.58,110.80 L223.21,110.52 L224.85,110.23 L226.48,109.94 L228.12,109.65 L229.75,109.37 L231.39,109.08 L233.02,108.79 L234.66,108.51 L236.29,108.22 L237.93,107.93 L239.56,107.65 L241.20,107.36 L242.83,107.08 L244.47,106.79 L246.10,106.51 L247.74,106.23 L249.37,105.94 L251.01,105.66 L252.64,105.38 L254.28,105.10 L255.91,104.81 L257.55,104.53 L259.19,104.25 L260.82,103.97 L262.46,103.69 L264.09,103.41 L265.73,103.13 L267.37,102.85 L269.00,102.57 L270.64,102.29 L272.27,102.01 L273.91,101.73 L275.55,101.45 L277.18,101.18 L278.82,100.90 L280.46,100.62 L282.09,100.35 L283.73,100.07 L285.37,99.79 L287.00,99.52 L288.64,99.24 L290.28,98.97 L291.91,98.69 L293.55,98.42 L295.19,98.15 L296.82,97.87 L298.46,97.60 L300.10,97.33 L301.74,97.05 L303.37,96.78 L305.01,96.51 L306.65,96.24 L308.28,95.97 L309.92,95.70 L311.56,95.42 L313.20,95.14 L314.84,94.85 L316.48,94.56 L318.12,94.26 L319.76,93.95 L321.40,93.64 L323.05,93.32 L324.69,93.00 L326.33,92.68 L327.98,92.35 L329.62,92.02 L331.27,91.68 L332.91,91.35 L334.56,91.01 L336.21,90.66 L337.85,90.32 L339.50,89.97 L341.15,89.63 L342.79,89.28 L344.44,88.93 L346.09,88.59 L347.73,88.24 L349.38,87.89 L351.03,87.55 L352.68,87.21 L354.32,86.86 L355.97,86.52 L357.62,86.19 L359.26,85.85 L360.91,85.52 L362.55,85.20 L364.20,84.87 L365.85,84.56 L367.49,84.24 L369.13,83.93 L370.78,83.63 L372.42,83.33 L374.06,83.04 L375.71,82.76 L377.35,82.48 L378.99,82.21 L380.63,81.95 L382.27,81.69 L383.91,81.45 L385.55,81.21 L387.18,80.98 L388.82,80.76 L390.46,80.55 L392.09,80.35 L393.72,80.16 L395.36,79.98 L396.99,79.81 L398.62,79.66 L400.25,79.51 L401.88,79.38 L403.50,79.26 L405.13,79.15 L406.75,79.06 L408.38,78.98 L410.00,78.92 L411.62,78.86 L413.24,78.83 L414.85,78.81 L416.47,78.80 L418.09,78.81 L419.70,78.84 L421.31,78.88 L422.93,78.94 L424.54,79.01 L426.15,79.10 L427.76,79.20 L429.37,79.33 L430.98,79.46 L432.59,79.61 L434.20,79.78 L435.81,79.96 L437.41,80.16 L439.02,80.37 L440.63,80.59 L442.23,80.83 L443.83,81.09 L445.44,81.36 L447.04,81.64 L448.64,81.94 L450.25,82.25 L451.85,82.58 L453.45,82.91 L455.05,83.27 L456.64,83.63 L458.24,84.01 L459.84,84.40 L461.44,84.81 L463.03,85.23 L464.63,85.66 L466.22,86.10 L467.82,86.56 L469.41,87.03 L471.00,87.51 L472.60,88.01 L474.19,88.51 L475.78,89.03 L477.37,89.56 L478.96,90.11 L480.54,90.66 L482.13,91.23 L483.72,91.80 L485.31,92.39 L486.89,92.99 L488.48,93.60 L490.06,94.22 L491.64,94.86 L493.23,95.50 L494.81,96.15 L496.39,96.82 L497.97,97.49 L499.55,98.18 L501.13,98.88 L502.71,99.58 L504.29,100.30 L505.86,101.02 L507.44,101.76 L509.02,102.50 L510.59,103.26 L512.16,104.02 L513.74,104.80 L515.31,105.58 L516.88,106.37 L518.45,107.17 L520.02,107.98 L521.59,108.80 L523.16,109.62 L524.73,110.46 L525.42,110.83" class="conn-teal-bold"/>
    <path d="M526.37,112.30 L526.40,112.71 L526.44,113.41 L526.49,114.12 L526.55,114.82 L526.60,115.53 L526.65,116.23 L526.71,116.93 L526.76,117.64 L526.82,118.34 L526.88,119.05 L526.93,119.75 L526.99,120.45 L527.05,121.16 L527.11,121.86 L527.18,122.56 L527.24,123.26 L527.30,123.97 L527.37,124.67 L527.43,125.37 L527.50,126.07 L527.57,126.78 L527.64,127.48 L527.71,128.18 L527.78,128.88 L527.85,129.58 L527.92,130.28 L527.99,130.99 L528.06,131.69 L528.14,132.39 L528.21,133.09 L528.29,133.79 L528.37,134.49 L528.44,135.19 L528.52,135.89 L528.60,136.59 L528.68,137.29 L528.76,137.99 L528.84,138.69 L528.92,139.39 L529.00,140.09 L529.08,140.79 L529.17,141.49 L529.25,142.19 L529.34,142.89 L529.42,143.59 L529.51,144.29 L529.59,144.99 L529.68,145.68 L529.77,146.38 L529.85,147.08 L529.94,147.78 L530.03,148.48 L530.12,149.18 L530.21,149.87 L530.30,150.57 L530.39,151.27 L530.48,151.97 L530.58,152.66 L530.67,153.36 L530.76,154.06 L530.86,154.76 L530.95,155.45 L531.04,156.15 L531.14,156.85 L531.23,157.54 L531.33,158.24 L531.43,158.94 L531.53,159.63 L531.63,160.33 L531.74,161.02 L531.84,161.72 L531.95,162.41 L532.06,163.11 L532.18,163.80 L532.29,164.50 L532.41,165.19 L532.52,165.88 L532.64,166.58 L532.76,167.27 L532.88,167.97 L533.01,168.66 L533.13,169.35 L533.26,170.04 L533.38,170.74 L533.51,171.43 L533.64,172.12 L533.77,172.82 L533.90,173.51 L534.03,174.20 L534.17,174.89 L534.30,175.58 L534.44,176.28 L534.57,176.97 L534.71,177.66 L534.85,178.35 L534.99,179.04 L535.13,179.73 L535.27,180.43 L535.41,181.12 L535.55,181.81 L535.69,182.50 L535.83,183.19 L535.97,183.88 L536.11,184.57 L536.25,185.26 L536.40,185.95 L536.54,186.65 L536.68,187.34 L536.83,188.03 L536.97,188.72 L537.11,189.41 L537.25,190.10 L537.40,190.79 L537.54,191.48 L537.68,192.17 L537.82,192.87 L537.96,193.56 L538.11,194.25 L538.25,194.94 L538.39,195.63 L538.53,196.32 L538.66,197.01 L538.80,197.70 L538.94,198.40 L539.08,199.09 L539.21,199.78 L539.35,200.47 L539.49,201.16 L539.62,201.85 L539.75,202.55 L539.88,203.24 L540.02,203.93 L540.15,204.62 L540.28,205.32 L540.41,206.01 L540.54,206.70 L540.68,207.39 L540.81,208.08 L540.94,208.78 L541.07,209.47 L541.21,210.16 L541.34,210.85 L541.47,211.54 L541.60,212.24 L541.73,212.93 L541.87,213.62 L542.00,214.31 L542.13,215.00 L542.26,215.70 L542.40,216.39 L542.53,217.08 L542.66,217.77 L542.80,218.46 L542.93,219.16 L543.06,219.85 L543.19,220.54 L543.33,221.23 L543.46,221.93 L543.59,222.62 L543.72,223.31 L543.86,224.00 L543.99,224.69 L544.12,225.38 L544.26,226.08 L544.39,226.77 L544.52,227.46 L544.66,228.15 L544.79,228.84 L544.92,229.54 L545.06,230.23 L545.19,230.92 L545.32,231.61 L545.46,232.30 L545.59,233.00 L545.72,233.69 L545.86,234.38 L545.99,235.07 L546.12,235.76 L546.26,236.46 L546.39,237.15 L546.52,237.84 L546.66,238.53 L546.79,239.22 L546.92,239.91 L547.06,240.61 L547.19,241.30 L547.33,241.99 L547.46,242.68 L547.59,243.37 L547.73,244.07 L547.86,244.76 L548.00,245.45 L548.13,246.14 L548.26,246.83 L548.40,247.52 L548.53,248.22 L548.61,248.62" class="conn-teal"/>
    <path d="M298.60,224.50 L299.22,224.49 L300.83,224.48 L302.44,224.46 L304.04,224.42 L305.63,224.38 L307.22,224.32 L308.80,224.26 L310.38,224.19 L311.95,224.11 L313.51,224.02 L315.06,223.92 L316.61,223.81 L318.15,223.70 L319.68,223.57 L321.20,223.44 L322.72,223.30 L324.23,223.15 L325.73,222.99 L327.22,222.83 L328.71,222.66 L330.19,222.48 L331.65,222.29 L333.11,222.10 L334.56,221.89 L336.01,221.69 L337.44,221.47 L338.86,221.25 L340.28,221.02 L341.69,220.78 L343.08,220.54 L344.47,220.29 L345.85,220.04 L347.21,219.78 L348.57,219.51 L349.92,219.24 L351.26,218.96 L352.59,218.68 L353.90,218.39 L355.21,218.10 L356.51,217.80 L357.79,217.49 L359.07,217.18 L360.33,216.87 L361.58,216.55 L362.82,216.23 L364.05,215.90 L365.27,215.57 L366.48,215.23 L367.67,214.89 L368.86,214.55 L370.03,214.20 L371.19,213.85 L372.33,213.49 L373.47,213.14 L374.59,212.77 L375.70,212.41 L376.80,212.04 L377.88,211.67 L378.96,211.30 L380.01,210.92 L381.06,210.54 L382.09,210.16 L383.11,209.78 L384.12,209.39 L385.10,208.98 L386.08,208.50 L387.03,207.97 L387.97,207.38 L388.89,206.73 L389.80,206.03 L390.69,205.29 L391.57,204.49 L392.43,203.65 L393.28,202.76 L394.12,201.83 L394.94,200.85 L395.76,199.84 L396.56,198.78 L397.35,197.69 L398.13,196.56 L398.90,195.40 L399.66,194.21 L400.41,192.99 L401.16,191.74 L401.89,190.46 L402.62,189.16 L403.35,187.84 L404.06,186.49 L404.77,185.12 L405.48,183.74 L406.18,182.34 L406.88,180.92 L407.57,179.49 L408.26,178.05 L408.95,176.60 L409.63,175.14 L410.32,173.68 L411.00,172.21 L411.68,170.74 L412.36,169.26 L413.04,167.79 L413.73,166.32 L414.41,164.85 L415.10,163.39 L415.79,161.94 L416.48,160.50 L417.18,159.07 L417.88,157.65 L418.58,156.24 L419.29,154.85 L420.01,153.48 L420.73,152.13 L421.46,150.79 L422.20,149.49 L422.94,148.20 L423.69,146.94 L424.45,145.71 L425.22,144.51 L426.00,143.35 L426.79,142.21 L427.59,141.11 L428.40,140.05 L429.23,139.02 L430.06,138.03 L430.91,137.09 L431.77,136.19 L432.65,135.33 L433.54,134.52 L434.44,133.76 L435.36,133.05 L436.30,132.39 L437.25,131.79 L438.22,131.24 L439.21,130.75 L440.21,130.28 L441.23,129.81 L442.26,129.35 L443.30,128.88 L444.35,128.42 L445.41,127.96 L446.49,127.50 L447.58,127.05 L448.68,126.60 L449.80,126.15 L450.93,125.70 L452.06,125.26 L453.21,124.82 L454.37,124.38 L455.55,123.95 L456.73,123.52 L457.92,123.10 L459.13,122.68 L460.35,122.27 L461.58,121.86 L462.81,121.45 L464.06,121.05 L465.32,120.66 L466.59,120.27 L467.88,119.88 L469.17,119.51 L470.47,119.14 L471.78,118.77 L473.10,118.41 L474.43,118.06 L475.77,117.71 L477.12,117.37 L478.48,117.04 L479.85,116.72 L481.23,116.40 L482.61,116.09 L484.01,115.79 L485.42,115.50 L486.83,115.22 L488.25,114.94 L489.68,114.67 L491.12,114.41 L492.57,114.16 L494.02,113.92 L495.49,113.69 L496.96,113.47 L498.44,113.26 L499.93,113.05 L501.42,112.86 L502.93,112.68 L504.44,112.51 L505.95,112.35 L507.48,112.20 L509.01,112.06 L510.55,111.93 L512.10,111.81 L513.65,111.71 L515.21,111.61 L516.77,111.53 L518.35,111.46 L519.92,111.40 L521.51,111.36 L523.10,111.33 L524.70,111.31 L525.30,111.30" class="conn-teal"/>
    <path d="M695.81,91.91 L695.74,91.96 L694.89,92.61 L694.03,93.25 L693.18,93.87 L692.32,94.49 L691.47,95.10 L690.61,95.70 L689.76,96.29 L688.90,96.87 L688.05,97.44 L687.19,98.00 L686.34,98.55 L685.48,99.09 L684.63,99.62 L683.77,100.15 L682.91,100.66 L682.06,101.16 L681.20,101.65 L680.35,102.13 L679.49,102.60 L678.64,103.06 L677.78,103.51 L676.93,103.95 L676.07,104.38 L675.22,104.79 L674.36,105.20 L673.51,105.60 L672.65,105.99 L671.79,106.37 L670.94,106.74 L670.08,107.09 L669.23,107.44 L668.37,107.78 L667.52,108.10 L666.66,108.42 L665.81,108.72 L664.95,109.02 L664.10,109.30 L663.24,109.57 L662.39,109.84 L661.53,110.09 L660.67,110.33 L659.82,110.56 L658.96,110.78 L658.11,110.99 L657.25,111.19 L656.40,111.38 L655.54,111.55 L654.69,111.72 L653.83,111.88 L652.98,112.02 L652.12,112.15 L651.26,112.28 L650.41,112.39 L649.55,112.49 L648.70,112.58 L647.84,112.66 L646.99,112.73 L646.13,112.78 L645.28,112.83 L644.42,112.86 L643.57,112.89 L642.71,112.90 L641.85,112.90 L641.00,112.87 L640.14,112.82 L639.29,112.74 L638.43,112.63 L637.58,112.50 L636.72,112.34 L635.87,112.16 L635.01,111.95 L634.15,111.73 L633.30,111.48 L632.44,111.21 L631.59,110.93 L630.73,110.62 L629.88,110.29 L629.02,109.95 L628.17,109.60 L627.31,109.22 L626.46,108.84 L625.60,108.43 L624.74,108.02 L623.89,107.59 L623.03,107.16 L622.18,106.71 L621.32,106.25 L620.47,105.78 L619.61,105.31 L618.76,104.83 L617.90,104.34 L617.04,103.84 L616.19,103.35 L615.33,102.85 L614.48,102.34 L613.62,101.83 L612.77,101.33 L611.91,100.82 L611.06,100.31 L610.20,99.80 L609.34,99.30 L608.49,98.79 L607.63,98.30 L606.78,97.80 L605.92,97.31 L605.07,96.83 L604.21,96.36 L603.36,95.89 L602.50,95.43 L601.64,94.98 L600.79,94.54 L599.93,94.12 L599.08,93.70 L598.22,93.30 L597.37,92.91 L596.51,92.53 L595.65,92.18 L594.80,91.83 L593.94,91.51 L593.09,91.20 L592.23,90.91 L591.38,90.64 L590.52,90.39 L589.66,90.16 L588.81,89.96 L587.95,89.77 L587.10,89.62 L586.24,89.48 L585.38,89.37 L584.53,89.29 L583.67,89.23 L582.82,89.20 L581.96,89.20 L581.10,89.21 L580.25,89.23 L579.39,89.27 L578.54,89.31 L577.68,89.36 L576.82,89.42 L575.97,89.50 L575.11,89.58 L574.26,89.68 L573.40,89.78 L572.54,89.90 L571.69,90.03 L570.83,90.16 L569.98,90.31 L569.12,90.47 L568.26,90.64 L567.41,90.81 L566.55,91.00 L565.70,91.20 L564.84,91.41 L563.98,91.63 L563.13,91.86 L562.27,92.10 L561.41,92.35 L560.56,92.61 L559.70,92.88 L558.85,93.17 L557.99,93.46 L557.13,93.76 L556.28,94.07 L555.42,94.39 L554.56,94.72 L553.71,95.07 L552.85,95.42 L552.00,95.78 L551.14,96.16 L550.28,96.54 L549.43,96.93 L548.57,97.33 L547.71,97.75 L546.86,98.17 L546.00,98.60 L545.14,99.05 L544.29,99.50 L543.43,99.96 L542.57,100.44 L541.72,100.92 L540.86,101.41 L540.01,101.92 L539.15,102.43 L538.29,102.95 L537.44,103.48 L536.58,104.03 L535.72,104.58 L534.87,105.14 L534.01,105.71 L533.15,106.29 L532.30,106.89 L531.44,107.49 L530.58,108.10 L529.73,108.72 L528.87,109.35 L528.01,109.99 L527.16,110.64 L527.09,110.69" class="conn-teal"/>
    <path d="M653.74,263.30 L653.27,263.02 L652.61,262.63 L651.95,262.24 L651.29,261.84 L650.64,261.43 L649.98,261.03 L649.34,260.62 L648.69,260.21 L648.05,259.80 L647.41,259.38 L646.77,258.96 L646.14,258.54 L645.51,258.11 L644.88,257.68 L644.26,257.25 L643.64,256.82 L643.02,256.38 L642.41,255.94 L641.80,255.50 L641.19,255.05 L640.59,254.60 L639.99,254.15 L639.39,253.70 L638.80,253.24 L638.21,252.78 L637.62,252.32 L637.04,251.86 L636.47,251.39 L635.89,250.92 L635.32,250.45 L634.76,249.97 L634.20,249.49 L633.64,249.01 L633.08,248.53 L632.54,248.05 L631.99,247.56 L631.45,247.07 L630.91,246.58 L630.38,246.08 L629.85,245.58 L629.33,245.09 L628.81,244.58 L628.30,244.08 L627.79,243.57 L627.28,243.06 L626.78,242.55 L626.29,242.04 L625.80,241.52 L625.31,241.01 L624.83,240.49 L624.36,239.96 L623.89,239.44 L623.42,238.91 L622.96,238.38 L622.50,237.85 L622.05,237.32 L621.61,236.79 L621.17,236.25 L620.73,235.71 L620.30,235.17 L619.88,234.63 L619.46,234.08 L619.05,233.53 L618.64,232.98 L618.24,232.43 L617.85,231.86 L617.46,231.28 L617.09,230.69 L616.72,230.10 L616.35,229.49 L615.99,228.88 L615.64,228.26 L615.30,227.63 L614.96,227.00 L614.62,226.35 L614.29,225.70 L613.97,225.05 L613.65,224.39 L613.33,223.72 L613.02,223.05 L612.72,222.37 L612.41,221.69 L612.11,221.00 L611.82,220.31 L611.52,219.62 L611.23,218.92 L610.95,218.22 L610.66,217.51 L610.38,216.81 L610.09,216.10 L609.81,215.39 L609.54,214.67 L609.26,213.96 L608.98,213.25 L608.71,212.53 L608.43,211.82 L608.16,211.10 L607.88,210.39 L607.60,209.67 L607.33,208.96 L607.05,208.25 L606.77,207.54 L606.49,206.83 L606.21,206.12 L605.93,205.42 L605.64,204.72 L605.36,204.03 L605.07,203.33 L604.77,202.64 L604.48,201.96 L604.18,201.28 L603.88,200.60 L603.57,199.93 L603.26,199.27 L602.95,198.61 L602.63,197.96 L602.31,197.31 L601.98,196.67 L601.65,196.04 L601.31,195.41 L600.96,194.80 L600.61,194.19 L600.26,193.59 L599.90,193.00 L599.53,192.41 L599.15,191.84 L598.77,191.28 L598.38,190.72 L597.98,190.18 L597.57,189.65 L597.16,189.13 L596.74,188.61 L596.31,188.09 L595.88,187.58 L595.44,187.07 L595.00,186.56 L594.55,186.05 L594.09,185.54 L593.63,185.04 L593.16,184.54 L592.68,184.04 L592.20,183.54 L591.72,183.05 L591.23,182.56 L590.73,182.07 L590.23,181.58 L589.72,181.09 L589.21,180.61 L588.69,180.13 L588.16,179.66 L587.63,179.18 L587.10,178.71 L586.56,178.24 L586.01,177.77 L585.46,177.31 L584.90,176.84 L584.34,176.39 L583.78,175.93 L583.21,175.48 L582.63,175.03 L582.05,174.58 L581.47,174.13 L580.88,173.69 L580.28,173.25 L579.69,172.82 L579.08,172.38 L578.48,171.95 L577.86,171.53 L577.25,171.10 L576.63,170.68 L576.00,170.26 L575.37,169.85 L574.74,169.44 L574.10,169.03 L573.46,168.63 L572.81,168.23 L572.16,167.83 L571.51,167.43 L570.85,167.04 L570.19,166.65 L569.53,166.27 L568.86,165.89 L568.19,165.51 L567.51,165.14 L566.83,164.77 L566.15,164.40 L565.46,164.04 L564.77,163.68 L564.08,163.33 L563.38,162.97 L562.68,162.63 L561.98,162.28 L561.27,161.94 L560.57,161.61 L559.85,161.27 L559.14,160.94 L558.61,160.71" class="conn-teal-bold"/>
    <path d="M181.41,283.19 L181.30,283.04 L181.13,282.80 L180.95,282.56 L180.78,282.32 L180.61,282.07 L180.44,281.83 L180.28,281.59 L180.11,281.34 L179.94,281.10 L179.78,280.85 L179.61,280.61 L179.45,280.36 L179.28,280.12 L179.12,279.87 L178.96,279.62 L178.80,279.38 L178.65,279.13 L178.49,278.88 L178.33,278.63 L178.18,278.38 L178.03,278.13 L177.87,277.88 L177.72,277.63 L177.57,277.38 L177.42,277.13 L177.28,276.88 L177.13,276.63 L176.99,276.38 L176.85,276.12 L176.70,275.87 L176.56,275.62 L176.43,275.36 L176.29,275.11 L176.15,274.85 L176.02,274.60 L175.89,274.34 L175.75,274.08 L175.63,273.83 L175.50,273.57 L175.37,273.31 L175.25,273.05 L175.12,272.80 L175.00,272.54 L174.88,272.28 L174.76,272.02 L174.65,271.76 L174.53,271.50 L174.42,271.24 L174.31,270.98 L174.20,270.71 L174.09,270.45 L173.99,270.19 L173.88,269.93 L173.78,269.66 L173.68,269.40 L173.58,269.14 L173.49,268.87 L173.39,268.61 L173.30,268.34 L173.21,268.08 L173.12,267.81 L173.04,267.54 L172.95,267.28 L172.87,267.01 L172.79,266.74 L172.71,266.47 L172.63,266.20 L172.54,265.93 L172.46,265.66 L172.38,265.39 L172.30,265.12 L172.21,264.85 L172.13,264.57 L172.05,264.30 L171.97,264.02 L171.88,263.75 L171.80,263.47 L171.72,263.19 L171.64,262.91 L171.56,262.64 L171.48,262.36 L171.40,262.08 L171.32,261.80 L171.24,261.52 L171.16,261.23 L171.08,260.95 L171.01,260.67 L170.93,260.39 L170.86,260.11 L170.78,259.82 L170.71,259.54 L170.64,259.25 L170.57,258.97 L170.50,258.69 L170.43,258.40 L170.36,258.12 L170.30,257.83 L170.23,257.54 L170.17,257.26 L170.11,256.97 L170.05,256.69 L169.99,256.40 L169.94,256.11 L169.88,255.83 L169.83,255.54 L169.78,255.25 L169.73,254.97 L169.68,254.68 L169.63,254.39 L169.59,254.11 L169.55,253.82 L169.51,253.53 L169.47,253.24 L169.43,252.96 L169.40,252.67 L169.37,252.38 L169.34,252.10 L169.32,251.81 L169.29,251.52 L169.27,251.24 L169.25,250.95 L169.24,250.67 L169.22,250.38 L169.21,250.10 L169.21,249.81 L169.20,249.53 L169.20,249.24 L169.20,248.96 L169.20,248.67 L169.20,248.39 L169.20,248.11 L169.21,247.82 L169.21,247.54 L169.21,247.25 L169.22,246.97 L169.22,246.68 L169.23,246.40 L169.23,246.12 L169.24,245.83 L169.25,245.55 L169.26,245.26 L169.26,244.98 L169.27,244.69 L169.29,244.41 L169.30,244.12 L169.31,243.84 L169.32,243.55 L169.34,243.27 L169.35,242.98 L169.37,242.70 L169.38,242.41 L169.40,242.12 L169.42,241.84 L169.44,241.55 L169.46,241.27 L169.48,240.98 L169.50,240.70 L169.53,240.41 L169.55,240.12 L169.58,239.84 L169.60,239.55 L169.63,239.27 L169.66,238.98 L169.69,238.69 L169.72,238.41 L169.76,238.12 L169.79,237.83 L169.83,237.55 L169.86,237.26 L169.90,236.97 L169.94,236.69 L169.98,236.40 L170.02,236.11 L170.07,235.83 L170.11,235.54 L170.16,235.25 L170.20,234.97 L170.25,234.68 L170.30,234.39 L170.35,234.10 L170.41,233.82 L170.46,233.53 L170.52,233.24 L170.58,232.96 L170.64,232.67 L170.70,232.38 L170.76,232.09 L170.82,231.80 L170.89,231.52 L170.96,231.23 L171.03,230.94 L171.10,230.65 L171.15,230.47" class="conn-ochre"/>
  </g>

  <g id="content">
    <circle cx="297.6" cy="224.5" r="6" class="node-hub-teal"/>
    <circle cx="654.6" cy="263.8" r="6" class="node-hub-ochre"/>
    <circle cx="203.6" cy="114.0" r="6" class="node-hub-teal"/>
    <circle cx="696.6" cy="91.3" r="6" class="node-hub-teal"/>
    <circle cx="526.3" cy="111.3" r="6" class="node-hub-ochre"/>
    <circle cx="783.6" cy="206.0" r="6" class="node-hub-teal"/>
    <circle cx="63.0" cy="117.2" r="3" class="node-teal"/>
    <circle cx="182.0" cy="284.0" r="2.5" class="node-teal"/>
    <circle cx="778.8" cy="265.7" r="2" class="node-ochre"/>
    <circle cx="904.4" cy="262.3" r="3" class="node-teal"/>
    <circle cx="281.0" cy="278.0" r="2.5" class="node-teal"/>
    <circle cx="488.1" cy="251.4" r="2" class="node-teal"/>
    <circle cx="557.7" cy="160.3" r="3" class="node-teal"/>
    <circle cx="377.8" cy="160.4" r="2.5" class="node-ochre"/>
    <circle cx="332.4" cy="72.9" r="2" class="node-teal"/>
    <circle cx="548.8" cy="249.6" r="3" class="node-teal"/>
    <circle cx="171.4" cy="229.5" r="2.5" class="node-teal"/>
    <circle cx="449.1" cy="89.5" r="2" class="node-teal"/>
    <circle cx="232.4" cy="186.4" r="3" class="node-ochre"/>
    <circle cx="278.0" cy="168.6" r="2.5" class="node-teal"/>
    <circle cx="167.7" cy="177.4" r="2" class="node-teal"/>
  </g>

  <g id="callouts"></g>
</svg>
