<!--
  17-self-documenting.svg - Self-documenting SVG files that carry their own intent
  Shows: a stylised SVG file icon on the left with three dashed-line callout connectors
         pointing to three zoom-in cards on the right. Each card highlights a different
         self-documenting feature: XML comment block, CSS class references, named elements.
         A horizontal timeline arrow below shows Created Apr, Updated Jul, Re-themed Oct
         to reinforce the reworkability message.
  Intent: reader understands that plugin SVGs are not throwaway graphics, they carry
         structured metadata for future reworking by agents or humans.
  Theme: Stellars-Tech. fg-1 titles, fg-3 labels, accent-1 file icon and callout cards,
         accent-2 for timeline highlights. Inter sans-serif throughout.
-->
<!-- add-life: medium
  colour: per-callout in-family hue drift (deep-teal card-1, cyan-teal card-2, sky-teal card-3 focal) on body, stroke, and accent bar
  shapes: tech corner brackets on file icon and three callout cards, scan-line under each card title
  icons: lucide per callout (file-code for XML comment, palette for CSS classes, tag for named elements) upper-right of each card
  embroidery: grid/technical background (coordinate ticks, faint rule lines) matching structured-output domain
  abstract: 12 scattered accent particles, 2 background arcs top/bottom
  bg texture: grid at 0.07 to 0.10 opacity (HARD CAP)
  glow: cyan stdDev=2 on main title, stdDev=1.5 on card titles and focal card-3 stroke
-->
<svg xmlns="http://www.w3.org/2000/svg" viewBox="0 0 1000 420">
  <style>
    text { font-family: 'Inter', 'Segoe UI', Helvetica, Arial, sans-serif; }
    .fg-1 { fill: #1a5a6e; }
    .fg-3 { fill: #236a74; }
    .accent-1 { fill: #005f7a; }
    .accent-2 { fill: #7a4a15; }

    .file-body    { fill: #005f7a; fill-opacity: 0.06; }
    .file-stroke  { fill: none; stroke: #005f7a; stroke-width: 1.4; }
    .file-fold    { fill: #005f7a; fill-opacity: 0.12; stroke: #005f7a; stroke-width: 1.4; }
    .file-line    { fill: none; stroke: #005f7a; stroke-width: 0.8; opacity: 0.3; }

    .callout-fill   { fill: #005f7a; fill-opacity: 0.05; }
    .callout-stroke { fill: none; stroke: #005f7a; stroke-width: 1; }
    .callout-bar    { fill: #005f7a; opacity: 0.6; }

    .manifold-strand { fill: none; stroke: #005f7a; stroke-width: 1.4; stroke-linejoin: round; stroke-linecap: round; opacity: 0.85; }
    .manifold-arrow  { fill: #005f7a; stroke: none; opacity: 0.9; }

    .code-text { font-family: 'Consolas', 'Menlo', monospace; font-size: 9px; }
    .card-title { font-size: 12px; font-weight: 700; }
    .card-desc  { font-size: 9px; }

    .timeline-line { fill: none; stroke: #7a4a15; stroke-width: 1.4; stroke-linecap: round; }
    .timeline-dot  { fill: #7a4a15; }
    .timeline-head { fill: #7a4a15; }
    .timeline-label { font-size: 10px; font-weight: 600; }
    .timeline-date  { font-size: 9px; }

    /* add-life add-ons */
    .corner-bracket { fill: none; stroke: #0096d1; stroke-width: 1; opacity: 0.55; stroke-linecap: round; }
    .scan-line      { fill: none; stroke: #0096d1; stroke-width: 0.4; opacity: 0.28; stroke-dasharray: 3 2; }
    .bg-grid        { fill: none; stroke: #0096d1; stroke-width: 0.35; opacity: 0.08; }
    .bg-tick        { fill: #0096d1; opacity: 0.10; }
    .bg-arc         { fill: none; stroke: #0096d1; stroke-width: 0.5; opacity: 0.12; }
    .particle       { fill: #0096d1; opacity: 0.32; }
    .particle-warm  { fill: #da8230; opacity: 0.3; }
    .callout-icon   { fill: none; stroke: #0096d1; stroke-linecap: round; stroke-linejoin: round; stroke-width: 1.6; opacity: 0.65; }
    .callout-icon-focal { fill: none; stroke: #00c8f0; stroke-linecap: round; stroke-linejoin: round; stroke-width: 1.8; opacity: 0.9; }
    .timeline-dot-warm { fill: #c66520; opacity: 0.9; }

    /* per-callout card body + stroke + bar hue variants (in-family teal drift) */
    .card-body-1   { fill: #006e8e; fill-opacity: 0.06; }
    .card-stroke-1 { fill: none; stroke: #006e8e; stroke-width: 1; }
    .card-bar-1    { fill: #006e8e; opacity: 0.65; }

    .card-body-2   { fill: #0086a8; fill-opacity: 0.07; }
    .card-stroke-2 { fill: none; stroke: #0086a8; stroke-width: 1; }
    .card-bar-2    { fill: #0086a8; opacity: 0.7; }

    .card-body-3   { fill: #00a2c4; fill-opacity: 0.09; }
    .card-stroke-3 { fill: none; stroke: #00a2c4; stroke-width: 1.2; }
    .card-bar-3    { fill: #00a2c4; opacity: 0.8; }

    @media (prefers-color-scheme: dark) {
      .fg-1 { fill: #b8e4f0; }
      .fg-3 { fill: #5aafc5; }
      .accent-1 { fill: #5cc8e0; }
      .accent-2 { fill: #d4a04a; }

      .file-body   { fill: #5cc8e0; fill-opacity: 0.08; }
      .file-stroke { stroke: #5cc8e0; }
      .file-fold   { fill: #5cc8e0; fill-opacity: 0.15; stroke: #5cc8e0; }
      .file-line   { stroke: #5cc8e0; }

      .callout-fill   { fill: #5cc8e0; fill-opacity: 0.06; }
      .callout-stroke { stroke: #5cc8e0; }
      .callout-bar    { fill: #5cc8e0; }

      .manifold-strand { stroke: #5cc8e0; }
      .manifold-arrow  { fill: #5cc8e0; }

      .timeline-line  { stroke: #d4a04a; }
      .timeline-dot   { fill: #d4a04a; }
      .timeline-head  { fill: #d4a04a; }

      .corner-bracket { stroke: #5cc8e0; }
      .scan-line      { stroke: #5cc8e0; }
      .bg-grid        { stroke: #5cc8e0; opacity: 0.10; }
      .bg-tick        { fill: #5cc8e0; opacity: 0.14; }
      .bg-arc         { stroke: #5cc8e0; opacity: 0.15; }
      .particle       { fill: #5cc8e0; opacity: 0.35; }
      .particle-warm  { fill: #d4a04a; opacity: 0.35; }
      .callout-icon   { stroke: #5cc8e0; }
      .callout-icon-focal { stroke: #8ee4f4; }
      .timeline-dot-warm { fill: #e49648; }

      .card-body-1   { fill: #3a94ad; fill-opacity: 0.08; }
      .card-stroke-1 { stroke: #3a94ad; }
      .card-bar-1    { fill: #3a94ad; }

      .card-body-2   { fill: #4aa8bf; fill-opacity: 0.09; }
      .card-stroke-2 { stroke: #4aa8bf; }
      .card-bar-2    { fill: #4aa8bf; }

      .card-body-3   { fill: #5cc8dc; fill-opacity: 0.10; }
      .card-stroke-3 { stroke: #5cc8dc; }
      .card-bar-3    { fill: #5cc8dc; }
    }
  </style>

  <defs>
    <filter id="glow-cyan" x="-20%" y="-20%" width="140%" height="140%" filterUnits="userSpaceOnUse">
      <feGaussianBlur stdDeviation="2" result="blur"/>
      <feMerge><feMergeNode in="blur"/><feMergeNode in="SourceGraphic"/></feMerge>
    </filter>
    <filter id="glow-label" x="-20%" y="-20%" width="140%" height="140%" filterUnits="userSpaceOnUse">
      <feGaussianBlur stdDeviation="1.5" result="blur"/>
      <feMerge><feMergeNode in="blur"/><feMergeNode in="SourceGraphic"/></feMerge>
    </filter>
  </defs>

  <!-- === GRID REFERENCE ===
    viewBox: 1000 x 420
    Margins: left=30, right=30, top=0, bottom=10
    Title band: y=26 (17px 700 fg-1 centred x=500), y=46 (11px fg-3 centred)

    File icon: centred at x=170, y=190 (vertical centre of callout zone)
      Icon body: x=100, y=80, w=140, h=190
      Fold triangle: top-right corner 30x30 (from x=210,y=80 to x=240,y=80 to x=240,y=110)
      Code lines: 8 horizontal lines spaced 18px starting y=120
      Label diagram.svg: centred at x=170, y=290 (below icon)

    Callout cards (3 cards, right side):
      Each card: w=450, h=70, rx=4
      Card x=480 (left edge)
      Card 1 (XML Comment):    y=72,  centre_y=107
      Card 2 (CSS Classes):    y=152, centre_y=187
      Card 3 (Named Elements): y=232, centre_y=267
      Card gap: 10px

    Manifold connector (file icon right edge to 3 cards left edge):
      Starts (x=240): y=126, y=174, y=222
      Ends   (x=480): y=107, y=187, y=267

    Timeline arrow (below main content):
      y=350 horizontal line
      x range: 150 to 850
      3 milestone dots: x=250, x=500, x=750
  === -->

  <!-- === LAYOUT TOPOLOGY ===
    h-split: file-icon-zone (30..340) | connector-gap (340..480) | callout-zone (480..960)
    v-stack: title-band (0..60) | main-content (60..310) | timeline-zone (320..420)
    connect: file-icon to dashed-line to callout-card (3 connectors)
    contain: file-icon to body, fold, code-lines, label
    contain: each callout to accent-bar, title, code-snippet, description
    h-align: all callout cards share x=480
    flow: timeline left-to-right showing temporal reworkability
  === -->

  <!-- Background -->
  <rect x="0" y="0" width="1000" height="420" fill="transparent"/>

  <!-- add-life: background grid + arcs (render behind content) -->
  <g id="add-life-bg">
    <g id="add-life-bg-grid">
      <!-- vertical rule lines every 100px across the viewBox, faint -->
      <line x1="100" y1="12" x2="100" y2="60" class="bg-grid"/>
      <line x1="200" y1="12" x2="200" y2="60" class="bg-grid"/>
      <line x1="300" y1="12" x2="300" y2="60" class="bg-grid"/>
      <line x1="400" y1="12" x2="400" y2="60" class="bg-grid"/>
      <line x1="600" y1="12" x2="600" y2="60" class="bg-grid"/>
      <line x1="700" y1="12" x2="700" y2="60" class="bg-grid"/>
      <line x1="800" y1="12" x2="800" y2="60" class="bg-grid"/>
      <line x1="900" y1="12" x2="900" y2="60" class="bg-grid"/>
      <!-- bottom strip grid -->
      <line x1="100" y1="400" x2="100" y2="414" class="bg-grid"/>
      <line x1="300" y1="400" x2="300" y2="414" class="bg-grid"/>
      <line x1="500" y1="400" x2="500" y2="414" class="bg-grid"/>
      <line x1="700" y1="400" x2="700" y2="414" class="bg-grid"/>
      <line x1="900" y1="400" x2="900" y2="414" class="bg-grid"/>
      <!-- left edge ticks, coordinate markers -->
      <line x1="6" y1="80"  x2="18" y2="80"  class="bg-grid"/>
      <line x1="6" y1="160" x2="18" y2="160" class="bg-grid"/>
      <line x1="6" y1="240" x2="18" y2="240" class="bg-grid"/>
      <line x1="6" y1="320" x2="18" y2="320" class="bg-grid"/>
      <!-- right edge ticks -->
      <line x1="982" y1="80"  x2="994" y2="80"  class="bg-grid"/>
      <line x1="982" y1="160" x2="994" y2="160" class="bg-grid"/>
      <line x1="982" y1="240" x2="994" y2="240" class="bg-grid"/>
      <line x1="982" y1="320" x2="994" y2="320" class="bg-grid"/>
      <!-- tiny intersection tick dots -->
      <circle cx="100" cy="36" r="0.9" class="bg-tick"/>
      <circle cx="300" cy="36" r="0.9" class="bg-tick"/>
      <circle cx="700" cy="36" r="0.9" class="bg-tick"/>
      <circle cx="900" cy="36" r="0.9" class="bg-tick"/>
      <circle cx="12" cy="160" r="0.9" class="bg-tick"/>
      <circle cx="988" cy="160" r="0.9" class="bg-tick"/>
    </g>
    <g id="add-life-bg-arcs">
      <path d="M-40,8 Q500,-18 1040,10" class="bg-arc"/>
      <path d="M-40,410 Q500,434 1040,408" class="bg-arc"/>
    </g>
  </g>

  <!-- Title -->
  <text class="fg-1" x="500" y="26" text-anchor="middle" font-size="17" font-weight="700" filter="url(#glow-cyan)">self-documenting SVG files</text>
  <text class="fg-3" x="500" y="46" text-anchor="middle" font-size="11">every file carries its own intent, theme, and structure for future reworking</text>

  <!-- ============================================================ -->
  <!-- FILE ICON: x=100 y=80 w=140 h=190                            -->
  <!-- ============================================================ -->
  <g id="file-icon">
    <!-- Main body with fold -->
    <path class="file-body" d="M100,80 H210 L240,110 V267 Q240,270 237,270 H103 Q100,270 100,267 Z"/>
    <path class="file-stroke" d="M100,80 H210 L240,110 V267 Q240,270 237,270 H103 Q100,270 100,267 Z"/>
    <!-- Corner fold -->
    <path class="file-fold" d="M210,80 L240,110 H210 Z"/>

    <!-- Simulated code lines inside file -->
    <line class="file-line" x1="114" y1="126" x2="200" y2="126"/>
    <line class="file-line" x1="114" y1="142" x2="226" y2="142"/>
    <line class="file-line" x1="114" y1="158" x2="190" y2="158"/>
    <line class="file-line" x1="114" y1="174" x2="216" y2="174"/>
    <line class="file-line" x1="114" y1="190" x2="180" y2="190"/>
    <line class="file-line" x1="114" y1="206" x2="226" y2="206"/>
    <line class="file-line" x1="114" y1="222" x2="196" y2="222"/>
    <line class="file-line" x1="114" y1="238" x2="210" y2="238"/>

    <!-- File label -->
    <text class="fg-1" x="170" y="292" text-anchor="middle" font-size="11" font-weight="600">diagram.svg</text>
  </g>

  <!-- ============================================================ -->
  <!-- MANIFOLD: file icon to 3 callout cards (1-to-3)               -->
  <!-- Spine aligned to middle card y=187 so middle strand flows     -->
  <!-- straight through without a kink.                              -->
  <!--   start=(241,187)  spine=(310,187) to (400,187)               -->
  <!--   ends=(465,107), (465,187), (465,267)                        -->
  <!-- Strands route vertical-first so arrows enter cards from LEFT. -->
  <!-- Generated via svg-infographics connector, mode=manifold,      -->
  <!--   shape=L-chamfer, chamfer=8, snap-grid=1                     -->
  <!-- ============================================================ -->
  <g id="connectors">
    <!-- start strand: file icon right edge to merge anchor (11px symmetric gap) -->
    <path class="manifold-strand" d="M252,187 L310,187"/>
    <!-- spine: merge to fork (same class, no separate styling) -->
    <path class="manifold-strand" d="M310,187 L400,187"/>
    <!-- end 0: fork to top card (vertical first, chamfer in) -->
    <path class="manifold-strand" d="M400,187 L400,115 L408,107 L454,107"/>
    <polygon class="manifold-arrow" points="464,107 454,102 454,112"/>
    <!-- end 1: fork to middle card (straight through, no chamfer) -->
    <path class="manifold-strand" d="M400,187 L454,187"/>
    <polygon class="manifold-arrow" points="464,187 454,182 454,192"/>
    <!-- end 2: fork to bottom card (vertical down, chamfer in) -->
    <path class="manifold-strand" d="M400,187 L400,259 L408,267 L454,267"/>
    <polygon class="manifold-arrow" points="464,267 454,262 454,272"/>
  </g>

  <!-- ============================================================ -->
  <!-- CALLOUT CARD 1: XML Comment Block - y=72 h=70                 -->
  <!-- ============================================================ -->
  <g id="callout-1">
    <rect class="callout-fill" x="480" y="72" width="450" height="70" rx="4"/>
    <rect class="callout-stroke" x="480" y="72" width="450" height="70" rx="4"/>
    <rect class="callout-bar" x="480" y="72" width="450" height="4" rx="4"/>
    <text class="fg-1 card-title" x="496" y="96">XML Comment Block</text>
    <text class="fg-3 code-text" x="496" y="114">&lt;!-- filename, intent, theme --&gt;</text>
    <text class="fg-3 card-desc" x="496" y="130" font-size="9">structured metadata at top of every file</text>
  </g>

  <!-- ============================================================ -->
  <!-- CALLOUT CARD 2: CSS Class References - y=152 h=70             -->
  <!-- ============================================================ -->
  <g id="callout-2">
    <rect class="callout-fill" x="480" y="152" width="450" height="70" rx="4"/>
    <rect class="callout-stroke" x="480" y="152" width="450" height="70" rx="4"/>
    <rect class="callout-bar" x="480" y="152" width="450" height="4" rx="4"/>
    <text class="fg-1 card-title" x="496" y="176">CSS Class References</text>
    <text class="fg-3 code-text" x="496" y="194">class="fg-1"  not  fill="#1a5a6e"</text>
    <text class="fg-3 card-desc" x="496" y="210" font-size="9">theme changes propagate via CSS, not search-and-replace</text>
  </g>

  <!-- ============================================================ -->
  <!-- CALLOUT CARD 3: Named Elements - y=232 h=70                   -->
  <!-- ============================================================ -->
  <g id="callout-3">
    <rect class="callout-fill" x="480" y="232" width="450" height="70" rx="4"/>
    <rect class="callout-stroke" x="480" y="232" width="450" height="70" rx="4"/>
    <rect class="callout-bar" x="480" y="232" width="450" height="4" rx="4"/>
    <text class="fg-1 card-title" x="496" y="256">Named Elements</text>
    <text class="fg-3 code-text" x="496" y="274">id="callout-spine"  id="card-A"</text>
    <text class="fg-3 card-desc" x="496" y="290" font-size="9">every group and connector is addressable by name</text>
  </g>

  <!-- ============================================================ -->
  <!-- TIMELINE: Created, Updated, Re-themed                         -->
  <!-- ============================================================ -->
  <g id="timeline">
    <text class="fg-3" x="500" y="335" text-anchor="middle" font-size="9" font-style="italic">reworkable across time</text>

    <!-- Timeline line -->
    <line class="timeline-line" x1="150" y1="358" x2="840" y2="358"/>
    <polygon class="timeline-head" points="840,354 850,358 840,362"/>

    <!-- Milestone 1: Created Apr -->
    <circle class="timeline-dot" cx="250" cy="358" r="4"/>
    <text class="accent-2 timeline-label" x="250" y="348" text-anchor="middle">Created</text>
    <text class="fg-3 timeline-date" x="250" y="376" text-anchor="middle">Apr</text>

    <!-- Milestone 2: Updated Jul -->
    <circle class="timeline-dot" cx="500" cy="358" r="4"/>
    <text class="accent-2 timeline-label" x="500" y="348" text-anchor="middle">Updated</text>
    <text class="fg-3 timeline-date" x="500" y="376" text-anchor="middle">Jul</text>

    <!-- Milestone 3: Re-themed Oct -->
    <circle class="timeline-dot" cx="750" cy="358" r="4"/>
    <text class="accent-2 timeline-label" x="750" y="348" text-anchor="middle">Re-themed</text>
    <text class="fg-3 timeline-date" x="750" y="376" text-anchor="middle">Oct</text>
  </g>

  <!-- ============================================================ -->
  <!-- add-life decorations (additive, do not modify originals)      -->
  <!-- ============================================================ -->
  <g id="add-life-decorations">
    <!-- Per-callout card body tints overlay on each original callout card -->
    <g id="add-life-card-tints">
      <!-- callout 1 (deep-teal) -->
      <rect class="card-body-1" x="480" y="72" width="450" height="70" rx="4"/>
      <rect class="card-stroke-1" x="480" y="72" width="450" height="70" rx="4"/>
      <rect class="card-bar-1" x="480" y="72" width="450" height="4" rx="4"/>
      <!-- callout 2 (cyan-teal) -->
      <rect class="card-body-2" x="480" y="152" width="450" height="70" rx="4"/>
      <rect class="card-stroke-2" x="480" y="152" width="450" height="70" rx="4"/>
      <rect class="card-bar-2" x="480" y="152" width="450" height="4" rx="4"/>
      <!-- callout 3 (focal, sky-teal, glow) -->
      <rect class="card-body-3" x="480" y="232" width="450" height="70" rx="4"/>
      <rect class="card-stroke-3" x="480" y="232" width="450" height="70" rx="4" filter="url(#glow-label)"/>
      <rect class="card-bar-3" x="480" y="232" width="450" height="4" rx="4"/>
    </g>

    <!-- Corner brackets on file icon (4 corners) and each callout card -->
    <g id="add-life-brackets">
      <!-- file icon, approximating rectangle 100,80 to 240,270 (using inner offsets) -->
      <path d="M106,86 L106,82 L110,82" class="corner-bracket"/>
      <path d="M234,86 L234,82 L230,82" class="corner-bracket"/>
      <path d="M106,264 L106,268 L110,268" class="corner-bracket"/>
      <path d="M234,264 L234,268 L230,268" class="corner-bracket"/>
      <!-- callout 1 -->
      <path d="M484,78 L484,74 L488,74" class="corner-bracket"/>
      <path d="M926,78 L926,74 L922,74" class="corner-bracket"/>
      <path d="M484,136 L484,140 L488,140" class="corner-bracket"/>
      <path d="M926,136 L926,140 L922,140" class="corner-bracket"/>
      <!-- callout 2 -->
      <path d="M484,158 L484,154 L488,154" class="corner-bracket"/>
      <path d="M926,158 L926,154 L922,154" class="corner-bracket"/>
      <path d="M484,216 L484,220 L488,220" class="corner-bracket"/>
      <path d="M926,216 L926,220 L922,220" class="corner-bracket"/>
      <!-- callout 3 (focal) -->
      <path d="M484,238 L484,234 L488,234" class="corner-bracket"/>
      <path d="M926,238 L926,234 L922,234" class="corner-bracket"/>
      <path d="M484,296 L484,300 L488,300" class="corner-bracket"/>
      <path d="M926,296 L926,300 L922,300" class="corner-bracket"/>
    </g>

    <!-- Scan-line accents under each card title -->
    <g id="add-life-scanlines">
      <line x1="496" y1="100" x2="616" y2="100" class="scan-line"/>
      <line x1="496" y1="180" x2="616" y2="180" class="scan-line"/>
      <line x1="496" y1="260" x2="616" y2="260" class="scan-line"/>
    </g>

    <!-- Decorative particles in whitespace -->
    <g id="add-life-particles">
      <circle cx="14" cy="70"  r="1"   class="particle"/>
      <circle cx="14" cy="200" r="0.9" class="particle"/>
      <circle cx="14" cy="330" r="1"   class="particle"/>
      <circle cx="986" cy="70"  r="1"   class="particle"/>
      <circle cx="986" cy="200" r="0.9" class="particle"/>
      <circle cx="986" cy="330" r="1"   class="particle"/>
      <circle cx="60"  cy="390" r="0.9" class="particle"/>
      <circle cx="940" cy="390" r="0.9" class="particle"/>
      <circle cx="360" cy="56"  r="0.9" class="particle"/>
      <circle cx="640" cy="56"  r="0.9" class="particle"/>
      <circle cx="340" cy="400" r="0.9" class="particle-warm"/>
      <circle cx="660" cy="400" r="0.9" class="particle-warm"/>
    </g>

    <!-- Timeline milestone warm overlay dots (slightly brighter than original) -->
    <g id="add-life-timeline-glow">
      <circle cx="250" cy="358" r="2" class="timeline-dot-warm"/>
      <circle cx="500" cy="358" r="2" class="timeline-dot-warm"/>
      <circle cx="750" cy="358" r="2" class="timeline-dot-warm"/>
    </g>
  </g>

  <!-- ============================================================ -->
  <!-- add-life icons (lucide, ISC license; per-callout domain cues) -->
  <!-- Placed upper-right of each callout card, 14x14, viewBox 24    -->
  <!-- scale 0.583                                                   -->
  <!-- ============================================================ -->
  <g id="add-life-icons">
    <!-- Callout 1 XML Comment: file-code (file with angle brackets) -->
    <g transform="translate(902,80) scale(0.583)" class="callout-icon">
      <path d="M14 2H6a2 2 0 0 0-2 2v16a2 2 0 0 0 2 2h12a2 2 0 0 0 2-2V8z"/>
      <polyline points="14 2 14 8 20 8"/>
      <path d="M10 13l-2 2 2 2"/>
      <path d="M14 17l2-2-2-2"/>
    </g>
    <!-- Callout 2 CSS Classes: palette -->
    <g transform="translate(902,160) scale(0.583)" class="callout-icon">
      <circle cx="13.5" cy="6.5" r="1.5"/>
      <circle cx="17.5" cy="10.5" r="1.5"/>
      <circle cx="8.5" cy="7.5" r="1.5"/>
      <circle cx="6.5" cy="12.5" r="1.5"/>
      <path d="M12 2C6.5 2 2 6.5 2 12s4.5 10 10 10c.9 0 1.6-.7 1.6-1.6 0-.4-.2-.8-.4-1.1-.3-.3-.5-.7-.5-1.1 0-.9.7-1.6 1.6-1.6H16c3.3 0 6-2.7 6-6 0-4.9-4.5-8.6-10-8.6z"/>
    </g>
    <!-- Callout 3 Named Elements (FOCAL): tag -->
    <g transform="translate(902,240) scale(0.583)" class="callout-icon-focal">
      <path d="M20.59 13.41l-7.17 7.17a2 2 0 0 1-2.83 0L2 12V2h10l8.59 8.59a2 2 0 0 1 0 2.82z"/>
      <line x1="7" y1="7" x2="7.01" y2="7"/>
    </g>
  </g>

</svg>
