<svg xmlns="http://www.w3.org/2000/svg" viewBox="0 0 1560 300"><rect width="1560" height="300" fill="#0a1a24"/><g transform="translate(8,8)"><rect width="380" height="250" fill="none" stroke="#1a5a6e" stroke-width="0.5"/><g fill="none" stroke="#5cc8e0" stroke-opacity="0.6"><path d="M244,0 L244,68" stroke-width="3.6"/><path d="M256,0 L256,108" stroke-width="0.8"/><path d="M60,0 L60,108 L24,108 L8,112 L8,68 L8,8" stroke-width="0.6"/><path d="M72,0 L68,140 L72,228" stroke-width="0.7"/><path d="M244,0 L244,120" stroke-width="0.8"/><path d="M256,0 L260,116 L280,116 L324,116" stroke-width="0.7"/><path d="M268,0 L268,56 L300,56 L372,56" stroke-width="2.3"/><path d="M280,0 L276,144 L328,144 L372,144" stroke-width="2.1"/><path d="M148,0 L148,92 L156,172 L172,240 L196,240 L260,236 L260,204 L260,164 L248,164 L208,168" stroke-width="0.4"/><path d="M160,0 L160,136 L212,136 L268,136 L332,124" stroke-width="0.5"/><path d="M172,0 L164,148 L176,212" stroke-width="2.4"/><path d="M184,0 L184,108" stroke-width="1.7"/><path d="M84,0 L84,144" stroke-width="2.4"/><path d="M96,0 L96,108" stroke-width="0.9"/><path d="M80,0 L80,60 L80,160 L80,236 L120,236 L188,232 L224,232 L268,232 L268,220" stroke-width="1.5"/><path d="M92,0 L92,112 L60,112 L8,112 L8,52 L8,12" stroke-width="1.7"/><path d="M104,0 L104,88" stroke-width="0.9"/><path d="M116,0 L120,108 L96,108 L28,104" stroke-width="0.8"/><path d="M156,248 L156,192" stroke-width="4.1"/><path d="M168,248 L168,180 L124,180 L60,180 L8,160 L8,184 L8,232" stroke-width="1.7"/><path d="M248,248 L252,100" stroke-width="1.1"/><path d="M260,248 L260,156 L252,108" stroke-width="3.8"/><path d="M244,68 L184,68 L60,60 L20,60 L20,80 L24,152 L52,152 L100,156" stroke-width="1.3"/><path d="M244,68 L176,100 L96,156" stroke-width="1.0"/><path d="M256,108 L328,108 L372,108" stroke-width="1.4"/><path d="M256,108 L208,116" stroke-width="0.6"/><path d="M244,120 L196,120 L92,120" stroke-width="3.0"/><path d="M244,120 L360,136" stroke-width="3.7"/><path d="M184,108 L228,108 L340,108 L340,140 L344,228 L372,228" stroke-width="3.4"/><path d="M184,108 L76,88" stroke-width="0.7"/><path d="M84,144 L28,144 L8,144 L8,180 L8,240 L56,240 L112,240 L168,240 L196,240" stroke-width="1.5"/><path d="M84,144 L148,124" stroke-width="0.8"/><path d="M96,108 L172,108 L304,108 L304,160 L304,224 L292,240 L328,240 L372,240 L372,224 L372,180" stroke-width="1.5"/><path d="M96,108 L168,128 L168,112 L164,36 L168,8" stroke-width="1.2"/><path d="M104,88 L100,176 L144,176 L224,176 L280,180" stroke-width="1.6"/><path d="M104,88 L152,116 L216,152 L216,180 L220,240 L188,240 L144,240 L144,216 L144,192 L156,192" stroke-width="0.4"/><path d="M156,192 L184,192 L288,192 L288,240" stroke-width="0.9"/><path d="M156,192 L260,188" stroke-width="3.1"/><path d="M252,100 L184,100 L64,96 L64,152 L60,228" stroke-width="3.0"/><path d="M252,100 L168,104 L168,156 L168,240 L216,240 L268,240 L304,240 L336,240 L336,224" stroke-width="0.9"/><path d="M372,108 L372,132 L372,216" stroke-width="2.6"/><path d="M372,108 L372,20" stroke-width="0.9"/><path d="M208,116 L160,140 L160,188 L160,240 L200,240 L224,240 L224,216 L224,196" stroke-width="1.2"/><path d="M208,116 L204,168" stroke-width="0.5"/><path d="M72,228 L100,228 L184,228 L184,184 L184,104" stroke-width="1.8"/><path d="M72,228 L12,220 L12,240" stroke-width="0.8"/><path d="M92,120 L52,120 L52,76 L52,16" stroke-width="0.4"/><path d="M92,120 L80,84 L40,84 L8,84" stroke-width="1.3"/><path d="M324,116 L324,56 L320,8" stroke-width="3.2"/><path d="M324,116 L296,56 L268,8 L252,8 L276,8 L320,8 L320,24" stroke-width="1.3"/><path d="M372,56 L372,84 L372,152 L324,152 L264,152" stroke-width="1.0"/><path d="M372,56 L348,8" stroke-width="1.1"/><path d="M176,212 L180,240 L212,240 L284,240 L284,200 L284,164 L284,128" stroke-width="0.4"/><path d="M176,212 L220,180 L220,160 L220,124 L220,88 L220,60 L232,60" stroke-width="1.1"/><path d="M76,88 L76,144 L80,192 L124,192 L160,192" stroke-width="0.7"/><path d="M76,88 L124,20 L140,8 L124,8 L92,8 L60,8" stroke-width="0.4"/><path d="M148,124 L200,100 L200,48 L200,8 L176,8 L116,12 L116,32 L116,72 L132,72" stroke-width="0.5"/><path d="M148,124 L120,96" stroke-width="1.0"/><path d="M28,104 L28,76 L28,32 L8,32" stroke-width="1.2"/><path d="M28,104 L8,52 L60,52 L136,52" stroke-width="1.1"/><path d="M260,188 L308,188" stroke-width="2.3"/><path d="M260,188 L236,240 L188,240 L128,240" stroke-width="1.0"/><path d="M252,108 L208,108 L136,112 L136,64 L132,8" stroke-width="1.2"/><path d="M252,108 L192,112 L192,144 L192,188 L164,188 L132,188 L132,160 L132,136 L112,136" stroke-width="0.4"/><path d="M96,156 L96,188 L96,240" stroke-width="1.1"/><path d="M96,156 L52,104 L24,60" stroke-width="1.7"/><path d="M372,216 L372,240" stroke-width="0.4"/><path d="M372,216 L324,224 L284,232 L284,204 L284,184 L272,184" stroke-width="1.2"/><path d="M372,20 L324,20 L252,20" stroke-width="1.3"/><path d="M372,20 L372,36 L372,56 L372,104 L348,104 L308,104" stroke-width="0.7"/><path d="M204,168 L256,168 L296,168 L296,144 L296,120 L280,120 L260,120" stroke-width="1.1"/><path d="M204,168 L240,192 L284,220 L308,232" stroke-width="0.5"/><path d="M348,8 L308,8 L340,8 L372,8" stroke-width="0.4"/><path d="M348,8 L372,8 L372,36" stroke-width="0.6"/><path d="M332,124 L332,148 L328,220 L296,220 L256,220 L212,220" stroke-width="1.1"/><path d="M332,124 L332,200" stroke-width="1.9"/><path d="M120,96 L148,96 L180,96 L180,116 L180,140 L164,140 L132,140 L132,120" stroke-width="0.6"/><path d="M120,96 L140,60 L164,28 L180,28 L216,28" stroke-width="0.4"/><path d="M308,188 L308,148 L308,92 L328,92 L372,92" stroke-width="0.4"/><path d="M308,188 L304,156 L336,156 L372,156 L372,184 L372,216" stroke-width="0.6"/><path d="M60,228 L12,228" stroke-width="2.6"/><path d="M60,228 L28,216" stroke-width="2.2"/><path d="M96,240 L72,240 L28,240 L8,240" stroke-width="0.9"/><path d="M96,240 L52,228 L24,224 L24,208" stroke-width="0.8"/><path d="M252,20 L252,8" stroke-width="1.6"/><path d="M252,20 L236,8 L248,8 L268,8 L268,20" stroke-width="0.6"/><path d="M184,104 L184,68" stroke-width="0.6"/><path d="M184,104 L132,120 L112,124 L112,148" stroke-width="1.5"/><path d="M52,16 L20,16" stroke-width="1.9"/><path d="M52,16 L100,32 L100,16" stroke-width="1.7"/><path d="M264,152 L264,180 L260,216" stroke-width="0.7"/><path d="M264,152 L260,176 L284,176 L304,176" stroke-width="1.7"/><path d="M332,200 L372,200" stroke-width="0.5"/><path d="M332,200 L372,212 L372,188" stroke-width="1.1"/><path d="M160,192 L160,160 L160,108 L140,108 L104,108" stroke-width="1.6"/><path d="M160,192 L168,132" stroke-width="1.9"/><path d="M168,8 L128,8 L84,8 L84,32 L84,80" stroke-width="0.4"/><path d="M168,8 L188,8 L220,8" stroke-width="0.8"/><path d="M280,180 L304,184" stroke-width="0.4"/><path d="M280,180 L292,128 L320,128 L340,128" stroke-width="0.4"/><path d="M136,52 L136,20" stroke-width="0.9"/><path d="M136,52 L132,32" stroke-width="1.2"/><path d="M128,240 L128,220 L128,168 L100,168 L64,168 L64,152" stroke-width="0.6"/><path d="M128,240 L140,184 L120,184 L76,188 L76,168" stroke-width="1.4"/><path d="M28,216 L28,240" stroke-width="1.2"/><path d="M28,216 L36,240 L64,240 L104,240" stroke-width="1.1"/><path d="M132,8 L108,8 L68,8 L68,24 L68,64" stroke-width="1.1"/><path d="M132,8 L76,16" stroke-width="0.4"/><path d="M100,156 L100,144 L100,108" stroke-width="0.4"/><path d="M100,156 L108,132" stroke-width="0.8"/><path d="M24,60 L8,60" stroke-width="0.9"/><path d="M24,60 L12,76" stroke-width="1.5"/><path d="M184,68 L196,68 L216,68 L216,84" stroke-width="0.5"/><path d="M184,68 L148,88" stroke-width="0.4"/><path d="M260,216 L260,240 L272,240" stroke-width="0.4"/><path d="M260,216 L240,212 L240,200" stroke-width="0.9"/><path d="M372,36 L360,36 L340,36 L340,52" stroke-width="0.4"/><path d="M372,36 L372,8 L356,8" stroke-width="1.1"/><path d="M168,132 L192,132 L228,132" stroke-width="1.2"/><path d="M168,132 L148,124 L148,148" stroke-width="0.9"/><path d="M304,184 L304,204 L304,240 L288,240" stroke-width="0.5"/><path d="M304,184 L324,152 L312,152" stroke-width="1.3"/><path d="M132,32 L124,8" stroke-width="1.1"/><path d="M132,32 L152,24 L152,44" stroke-width="1.3"/><path d="M76,16 L76,32 L76,64" stroke-width="0.7"/><path d="M76,16 L76,44 L96,44" stroke-width="1.1"/></g><g fill="#5cc8e0" stroke="none" fill-opacity="0.8"><circle cx="244" cy="68" r="3.4"/><circle cx="256" cy="108" r="5.5"/><circle cx="244" cy="120" r="1.8"/><circle cx="184" cy="108" r="6.4"/><circle cx="84" cy="144" r="7.5"/><circle cx="96" cy="108" r="3.8"/><circle cx="104" cy="88" r="2.3"/><circle cx="156" cy="192" r="6.4"/><circle cx="252" cy="100" r="4.9"/><circle cx="372" cy="108" r="3.0"/><circle cx="208" cy="116" r="5.4"/><circle cx="72" cy="228" r="2.7"/><circle cx="92" cy="120" r="1.8"/><circle cx="360" cy="136" r="5.1"/><circle cx="324" cy="116" r="5.3"/><circle cx="372" cy="56" r="3.4"/><circle cx="372" cy="144" r="2.6"/><circle cx="176" cy="212" r="4.7"/><circle cx="76" cy="88" r="3.5"/><circle cx="148" cy="124" r="2.6"/><circle cx="28" cy="104" r="2.9"/><circle cx="288" cy="240" r="3.2"/><circle cx="260" cy="188" r="1.8"/><circle cx="252" cy="108" r="6.4"/><circle cx="96" cy="156" r="3.5"/><circle cx="372" cy="216" r="1.8"/><circle cx="372" cy="20" r="1.8"/><circle cx="204" cy="168" r="2.5"/><circle cx="8" cy="8" r="3.4"/><circle cx="12" cy="240" r="2.8"/><circle cx="320" cy="8" r="3.8"/><circle cx="348" cy="8" r="1.8"/><circle cx="332" cy="124" r="1.8"/><circle cx="372" cy="228" r="5.6"/><circle cx="120" cy="96" r="4.2"/><circle cx="8" cy="12" r="2.5"/><circle cx="8" cy="32" r="1.8"/><circle cx="308" cy="188" r="4.2"/><circle cx="60" cy="228" r="2.1"/><circle cx="12" cy="228" r="2.7"/><circle cx="96" cy="240" r="1.8"/><circle cx="372" cy="240" r="1.8"/><circle cx="252" cy="20" r="1.8"/><circle cx="252" cy="8" r="4.6"/><circle cx="184" cy="104" r="3.1"/><circle cx="52" cy="16" r="2.5"/><circle cx="20" cy="16" r="3.1"/><circle cx="8" cy="84" r="6.2"/><circle cx="264" cy="152" r="3.0"/><circle cx="372" cy="8" r="2.0"/><circle cx="332" cy="200" r="1.8"/><circle cx="372" cy="200" r="3.8"/><circle cx="160" cy="192" r="1.8"/><circle cx="168" cy="8" r="1.8"/><circle cx="280" cy="180" r="5.4"/><circle cx="136" cy="52" r="1.8"/><circle cx="136" cy="20" r="4.7"/><circle cx="128" cy="240" r="4.2"/><circle cx="8" cy="232" r="4.8"/><circle cx="28" cy="216" r="3.2"/><circle cx="28" cy="240" r="4.6"/><circle cx="268" cy="240" r="2.7"/><circle cx="132" cy="8" r="2.8"/><circle cx="100" cy="156" r="5.0"/><circle cx="24" cy="60" r="1.8"/><circle cx="8" cy="60" r="2.2"/><circle cx="184" cy="68" r="4.7"/><circle cx="100" cy="16" r="3.6"/><circle cx="260" cy="216" r="2.1"/><circle cx="372" cy="8" r="3.2"/><circle cx="372" cy="36" r="3.5"/><circle cx="372" cy="212" r="1.8"/><circle cx="168" cy="132" r="1.8"/><circle cx="304" cy="184" r="1.8"/><circle cx="132" cy="32" r="2.9"/><circle cx="372" cy="92" r="1.8"/><circle cx="76" cy="16" r="4.0"/><circle cx="100" cy="108" r="2.9"/><circle cx="108" cy="132" r="3.1"/><circle cx="8" cy="240" r="1.8"/><circle cx="24" cy="208" r="2.7"/><circle cx="12" cy="76" r="1.8"/><circle cx="272" cy="184" r="4.1"/><circle cx="268" cy="20" r="3.4"/><circle cx="308" cy="104" r="2.9"/><circle cx="224" cy="196" r="3.9"/><circle cx="260" cy="120" r="1.9"/><circle cx="308" cy="232" r="2.4"/><circle cx="216" cy="84" r="1.8"/><circle cx="148" cy="88" r="3.6"/><circle cx="112" cy="148" r="3.5"/><circle cx="320" cy="24" r="3.7"/><circle cx="272" cy="240" r="1.8"/><circle cx="240" cy="200" r="1.8"/><circle cx="304" cy="176" r="3.7"/><circle cx="340" cy="52" r="4.3"/><circle cx="356" cy="8" r="3.7"/><circle cx="208" cy="168" r="4.3"/><circle cx="212" cy="220" r="1.8"/><circle cx="372" cy="188" r="2.8"/><circle cx="284" cy="128" r="3.0"/><circle cx="232" cy="60" r="3.1"/><circle cx="104" cy="108" r="3.1"/><circle cx="228" cy="132" r="1.8"/><circle cx="148" cy="148" r="1.8"/><circle cx="60" cy="8" r="2.3"/><circle cx="196" cy="240" r="2.0"/><circle cx="132" cy="72" r="1.8"/><circle cx="132" cy="120" r="3.6"/><circle cx="216" cy="28" r="1.8"/><circle cx="372" cy="180" r="1.8"/><circle cx="84" cy="80" r="1.8"/><circle cx="220" cy="8" r="1.8"/><circle cx="268" cy="232" r="4.1"/><circle cx="268" cy="220" r="2.6"/><circle cx="304" cy="240" r="2.2"/><circle cx="288" cy="240" r="2.6"/><circle cx="312" cy="152" r="1.8"/><circle cx="340" cy="128" r="3.4"/><circle cx="144" cy="192" r="1.8"/><circle cx="156" cy="192" r="1.8"/><circle cx="124" cy="8" r="1.8"/><circle cx="152" cy="44" r="2.9"/><circle cx="372" cy="216" r="3.6"/><circle cx="64" cy="168" r="1.8"/><circle cx="64" cy="152" r="2.3"/><circle cx="76" cy="168" r="2.9"/><circle cx="104" cy="240" r="1.8"/><circle cx="336" cy="224" r="3.8"/><circle cx="68" cy="64" r="2.4"/><circle cx="76" cy="64" r="1.8"/><circle cx="96" cy="44" r="3.5"/><circle cx="112" cy="136" r="3.4"/></g><g fill="#0a1a24" stroke="none"><circle cx="244" cy="68" r="1.4"/><circle cx="256" cy="108" r="2.2"/><circle cx="244" cy="120" r="0.7"/><circle cx="184" cy="108" r="2.5"/><circle cx="84" cy="144" r="3.0"/><circle cx="96" cy="108" r="1.5"/><circle cx="104" cy="88" r="0.9"/><circle cx="156" cy="192" r="2.5"/><circle cx="252" cy="100" r="2.0"/><circle cx="372" cy="108" r="1.2"/><circle cx="208" cy="116" r="2.1"/><circle cx="72" cy="228" r="1.1"/><circle cx="92" cy="120" r="0.7"/><circle cx="360" cy="136" r="2.0"/><circle cx="324" cy="116" r="2.1"/><circle cx="372" cy="56" r="1.4"/><circle cx="372" cy="144" r="1.0"/><circle cx="176" cy="212" r="1.9"/><circle cx="76" cy="88" r="1.4"/><circle cx="148" cy="124" r="1.1"/><circle cx="28" cy="104" r="1.1"/><circle cx="288" cy="240" r="1.3"/><circle cx="260" cy="188" r="0.7"/><circle cx="252" cy="108" r="2.5"/><circle cx="96" cy="156" r="1.4"/><circle cx="372" cy="216" r="0.7"/><circle cx="372" cy="20" r="0.7"/><circle cx="204" cy="168" r="1.0"/><circle cx="8" cy="8" r="1.4"/><circle cx="12" cy="240" r="1.1"/><circle cx="320" cy="8" r="1.5"/><circle cx="348" cy="8" r="0.7"/><circle cx="332" cy="124" r="0.7"/><circle cx="372" cy="228" r="2.2"/><circle cx="120" cy="96" r="1.7"/><circle cx="8" cy="12" r="1.0"/><circle cx="8" cy="32" r="0.7"/><circle cx="308" cy="188" r="1.7"/><circle cx="60" cy="228" r="0.9"/><circle cx="12" cy="228" r="1.1"/><circle cx="96" cy="240" r="0.7"/><circle cx="372" cy="240" r="0.7"/><circle cx="252" cy="20" r="0.7"/><circle cx="252" cy="8" r="1.8"/><circle cx="184" cy="104" r="1.2"/><circle cx="52" cy="16" r="1.0"/><circle cx="20" cy="16" r="1.2"/><circle cx="8" cy="84" r="2.5"/><circle cx="264" cy="152" r="1.2"/><circle cx="372" cy="8" r="0.8"/><circle cx="332" cy="200" r="0.7"/><circle cx="372" cy="200" r="1.5"/><circle cx="160" cy="192" r="0.7"/><circle cx="168" cy="8" r="0.7"/><circle cx="280" cy="180" r="2.2"/><circle cx="136" cy="52" r="0.7"/><circle cx="136" cy="20" r="1.9"/><circle cx="128" cy="240" r="1.7"/><circle cx="8" cy="232" r="1.9"/><circle cx="28" cy="216" r="1.3"/><circle cx="28" cy="240" r="1.8"/><circle cx="268" cy="240" r="1.1"/><circle cx="132" cy="8" r="1.1"/><circle cx="100" cy="156" r="2.0"/><circle cx="24" cy="60" r="0.7"/><circle cx="8" cy="60" r="0.9"/><circle cx="184" cy="68" r="1.9"/><circle cx="100" cy="16" r="1.4"/><circle cx="260" cy="216" r="0.9"/><circle cx="372" cy="8" r="1.3"/><circle cx="372" cy="36" r="1.4"/><circle cx="372" cy="212" r="0.7"/><circle cx="168" cy="132" r="0.7"/><circle cx="304" cy="184" r="0.7"/><circle cx="132" cy="32" r="1.1"/><circle cx="372" cy="92" r="0.7"/><circle cx="76" cy="16" r="1.6"/><circle cx="100" cy="108" r="1.2"/><circle cx="108" cy="132" r="1.2"/><circle cx="8" cy="240" r="0.7"/><circle cx="24" cy="208" r="1.1"/><circle cx="12" cy="76" r="0.7"/><circle cx="272" cy="184" r="1.6"/><circle cx="268" cy="20" r="1.4"/><circle cx="308" cy="104" r="1.2"/><circle cx="224" cy="196" r="1.6"/><circle cx="260" cy="120" r="0.8"/><circle cx="308" cy="232" r="1.0"/><circle cx="216" cy="84" r="0.7"/><circle cx="148" cy="88" r="1.4"/><circle cx="112" cy="148" r="1.4"/><circle cx="320" cy="24" r="1.5"/><circle cx="272" cy="240" r="0.7"/><circle cx="240" cy="200" r="0.7"/><circle cx="304" cy="176" r="1.5"/><circle cx="340" cy="52" r="1.7"/><circle cx="356" cy="8" r="1.5"/><circle cx="208" cy="168" r="1.7"/><circle cx="212" cy="220" r="0.7"/><circle cx="372" cy="188" r="1.1"/><circle cx="284" cy="128" r="1.2"/><circle cx="232" cy="60" r="1.3"/><circle cx="104" cy="108" r="1.2"/><circle cx="228" cy="132" r="0.7"/><circle cx="148" cy="148" r="0.7"/><circle cx="60" cy="8" r="0.9"/><circle cx="196" cy="240" r="0.8"/><circle cx="132" cy="72" r="0.7"/><circle cx="132" cy="120" r="1.5"/><circle cx="216" cy="28" r="0.7"/><circle cx="372" cy="180" r="0.7"/><circle cx="84" cy="80" r="0.7"/><circle cx="220" cy="8" r="0.7"/><circle cx="268" cy="232" r="1.6"/><circle cx="268" cy="220" r="1.0"/><circle cx="304" cy="240" r="0.9"/><circle cx="288" cy="240" r="1.0"/><circle cx="312" cy="152" r="0.7"/><circle cx="340" cy="128" r="1.4"/><circle cx="144" cy="192" r="0.7"/><circle cx="156" cy="192" r="0.7"/><circle cx="124" cy="8" r="0.7"/><circle cx="152" cy="44" r="1.2"/><circle cx="372" cy="216" r="1.4"/><circle cx="64" cy="168" r="0.7"/><circle cx="64" cy="152" r="0.9"/><circle cx="76" cy="168" r="1.2"/><circle cx="104" cy="240" r="0.7"/><circle cx="336" cy="224" r="1.5"/><circle cx="68" cy="64" r="0.9"/><circle cx="76" cy="64" r="0.7"/><circle cx="96" cy="44" r="1.4"/><circle cx="112" cy="136" r="1.4"/></g></g><text x="198.0" y="280" text-anchor="middle" fill="#5cc8e0" font-size="11" font-family="monospace">circ med (392)</text><g transform="translate(396,8)"><rect width="380" height="250" fill="none" stroke="#1a5a6e" stroke-width="0.5"/><g fill="none" stroke="#5cc8e0" stroke-opacity="0.6"><path d="M244,0 L240,76" stroke-width="0.9"/><path d="M256,0 L260,144" stroke-width="0.9"/><path d="M60,0 L60,120" stroke-width="0.8"/><path d="M72,0 L76,116" stroke-width="3.9"/><path d="M84,0 L80,72" stroke-width="2.1"/><path d="M244,0 L240,128 L164,128 L68,128 L68,164 L68,240" stroke-width="1.3"/><path d="M256,0 L256,60 L320,60 L372,60 L372,84 L372,60 L372,16" stroke-width="0.7"/><path d="M268,0 L264,88 L212,88 L132,88 L44,84" stroke-width="0.5"/><path d="M280,0 L280,60" stroke-width="0.9"/><path d="M292,0 L292,144" stroke-width="1.5"/><path d="M304,0 L304,108" stroke-width="1.9"/><path d="M316,0 L316,60 L316,128 L292,128 L240,128 L240,176 L240,228" stroke-width="0.5"/><path d="M148,0 L148,112 L116,112 L16,116 L16,172 L16,240" stroke-width="0.8"/><path d="M160,0 L160,88" stroke-width="2.9"/><path d="M172,0 L176,108 L152,108 L56,104 L56,164 L52,240" stroke-width="1.5"/><path d="M184,0 L184,60" stroke-width="4.2"/><path d="M196,0 L196,72 L152,72 L68,68 L12,64 L44,16 L8,16" stroke-width="0.4"/><path d="M208,0 L212,152" stroke-width="3.6"/><path d="M84,0 L84,92 L68,184 L12,184" stroke-width="1.7"/><path d="M96,0 L100,56" stroke-width="2.3"/><path d="M80,0 L80,136" stroke-width="1.3"/><path d="M92,0 L92,68" stroke-width="1.2"/><path d="M104,0 L100,56" stroke-width="1.8"/><path d="M116,0 L116,108 L168,108 L232,112 L324,112" stroke-width="2.5"/><path d="M128,0 L128,68 L184,68 L272,68 L272,44 L272,8 L320,8 L372,8" stroke-width="0.7"/><path d="M140,0 L140,144" stroke-width="0.7"/><path d="M156,248 L156,184 L192,184 L268,184" stroke-width="3.2"/><path d="M168,248 L160,120 L180,120 L280,116" stroke-width="3.5"/><path d="M180,248 L180,188" stroke-width="0.9"/><path d="M248,248 L248,176" stroke-width="0.7"/><path d="M260,248 L260,196 L268,128 L300,128 L372,124 L372,108 L372,52" stroke-width="0.4"/><path d="M148,0 L152,112 L124,112 L48,112" stroke-width="2.8"/><path d="M160,0 L160,108 L92,108 L8,104 L8,32 L44,32 L128,32 L128,64" stroke-width="0.9"/><path d="M172,0 L172,72 L176,172" stroke-width="2.3"/><path d="M184,0 L188,64" stroke-width="4.2"/><path d="M196,0 L192,132 L160,132 L112,132 L112,180 L112,216 L68,216 L12,220" stroke-width="2.0"/><path d="M208,0 L212,60" stroke-width="2.9"/><path d="M220,0 L220,72" stroke-width="1.3"/><path d="M84,248 L92,112" stroke-width="0.9"/><path d="M96,248 L96,128" stroke-width="2.0"/><path d="M108,248 L108,144" stroke-width="2.0"/><path d="M48,248 L48,136" stroke-width="1.4"/><path d="M60,248 L60,176" stroke-width="2.2"/><path d="M276,0 L272,80 L316,80 L368,76" stroke-width="2.1"/><path d="M288,0 L288,96 L344,96 L372,96 L372,144 L372,184 L372,240" stroke-width="0.9"/><path d="M300,0 L296,116" stroke-width="2.8"/><path d="M312,0 L308,144 L240,144 L112,144" stroke-width="1.7"/><path d="M240,248 L240,160 L172,160 L108,160 L108,108 L112,32" stroke-width="2.7"/><path d="M252,248 L252,172 L200,172 L100,172" stroke-width="0.6"/><path d="M44,0 L40,120 L112,120 L220,120" stroke-width="0.6"/><path d="M56,0 L52,120 L120,120 L212,120" stroke-width="2.4"/><path d="M68,0 L68,124" stroke-width="2.4"/><path d="M80,0 L80,80 L48,80 L8,80 L8,40 L8,8" stroke-width="1.1"/><path d="M92,0 L92,56" stroke-width="1.3"/><path d="M240,76 L208,76 L100,76 L100,128 L104,228" stroke-width="1.9"/><path d="M240,76 L136,104" stroke-width="0.6"/><path d="M260,144 L304,144 L372,140" stroke-width="2.3"/><path d="M260,144 L196,156 L196,216 L196,240 L172,240 L92,240 L72,240 L72,228" stroke-width="1.0"/><path d="M60,120 L12,120" stroke-width="1.4"/><path d="M60,120 L184,140 L248,140 L320,144 L364,148 L364,136" stroke-width="0.7"/><path d="M76,116 L96,116 L140,116 L140,72 L140,8 L188,8 L252,8" stroke-width="0.5"/><path d="M76,116 L8,144 L8,92 L12,12 L56,32" stroke-width="1.0"/><path d="M80,72 L52,72 L8,72 L16,112" stroke-width="2.8"/><path d="M80,72 L8,64" stroke-width="3.3"/><path d="M280,60 L276,140 L220,140 L180,140 L148,136" stroke-width="0.5"/><path d="M280,60 L224,96" stroke-width="1.6"/><path d="M292,144 L236,144 L128,140" stroke-width="0.7"/><path d="M292,144 L372,120" stroke-width="0.9"/><path d="M304,108 L372,108" stroke-width="0.9"/><path d="M304,108 L372,140 L372,192 L372,240 L340,240" stroke-width="1.7"/><path d="M160,88 L160,148 L216,148 L296,148 L328,144 L328,168 L328,220 L308,220" stroke-width="1.7"/><path d="M160,88 L252,140 L340,188 L340,232" stroke-width="1.3"/><path d="M184,60 L212,60 L280,60 L280,8" stroke-width="0.9"/><path d="M184,60 L136,64" stroke-width="2.3"/><path d="M212,152 L144,152 L52,148" stroke-width="1.4"/><path d="M212,152 L292,152" stroke-width="2.1"/><path d="M100,56 L116,120" stroke-width="0.6"/><path d="M100,56 L180,60 L180,84 L180,132" stroke-width="0.6"/><path d="M80,136 L120,136 L244,132" stroke-width="1.2"/><path d="M80,136 L8,120 L8,172 L8,240" stroke-width="1.4"/><path d="M92,68 L140,68 L232,68 L232,44 L232,8" stroke-width="1.3"/><path d="M92,68 L136,64 L232,68 L232,120 L232,156 L208,156" stroke-width="0.9"/><path d="M100,56 L76,56 L8,60" stroke-width="0.6"/><path d="M100,56 L184,12" stroke-width="2.5"/><path d="M140,144 L88,144 L8,144 L8,200 L8,240" stroke-width="1.1"/><path d="M140,144 L52,180 L52,240" stroke-width="2.3"/><path d="M180,188 L180,144" stroke-width="3.0"/><path d="M180,188 L276,156" stroke-width="0.9"/><path d="M248,176 L180,176 L132,176" stroke-width="1.7"/><path d="M248,176 L292,172 L292,196 L292,240 L324,240 L364,240 L364,220" stroke-width="2.0"/><path d="M188,64 L192,116 L216,116 L268,116" stroke-width="2.5"/><path d="M188,64 L80,40 L80,96 L80,168" stroke-width="0.8"/><path d="M212,60 L276,60 L348,60 L348,100 L352,200 L348,240 L308,240" stroke-width="2.0"/><path d="M212,60 L328,20 L328,80 L328,180" stroke-width="0.5"/><path d="M220,72 L244,72 L292,68" stroke-width="1.6"/><path d="M220,72 L156,72 L156,132 L156,172" stroke-width="1.0"/><path d="M92,112 L164,112 L280,108" stroke-width="1.9"/><path d="M92,112 L152,120" stroke-width="1.5"/><path d="M96,128 L56,128 L8,128 L8,64 L8,8" stroke-width="2.9"/><path d="M96,128 L44,140 L8,168 L8,200 L8,232" stroke-width="0.7"/><path d="M108,144 L108,88" stroke-width="0.8"/><path d="M108,144 L172,176 L172,148 L172,80 L168,28 L204,28" stroke-width="0.4"/><path d="M48,136 L28,32 L8,32" stroke-width="1.2"/><path d="M48,136 L8,156 L8,92 L8,8 L28,8 L104,8 L104,24" stroke-width="0.9"/><path d="M60,176 L88,176 L168,176 L168,236" stroke-width="2.2"/><path d="M60,176 L120,196 L120,240" stroke-width="1.7"/><path d="M296,116 L292,200 L344,200 L372,200" stroke-width="0.5"/><path d="M296,116 L372,160 L372,192 L372,240 L336,240 L308,240" stroke-width="0.4"/><path d="M68,124 L64,204 L88,204 L168,204 L208,204 L208,172" stroke-width="2.1"/><path d="M68,124 L128,112 L128,52 L128,8 L80,8 L12,8" stroke-width="1.3"/><path d="M92,56 L124,56 L240,60 L240,44 L240,8" stroke-width="1.1"/><path d="M92,56 L180,28" stroke-width="1.5"/><path d="M136,104 L136,144 L140,236" stroke-width="0.5"/><path d="M136,104 L132,60 L128,32 L120,8" stroke-width="0.4"/><path d="M372,140 L372,80 L372,8" stroke-width="2.6"/><path d="M372,140 L372,220 L372,240" stroke-width="0.9"/><path d="M8,64 L8,8" stroke-width="0.7"/><path d="M8,64 L8,8" stroke-width="1.8"/><path d="M224,96 L180,116 L156,132 L156,160 L156,188 L184,188" stroke-width="0.8"/><path d="M224,96 L160,32 L160,12" stroke-width="0.5"/><path d="M128,140 L128,84 L128,28" stroke-width="1.4"/><path d="M128,140 L120,208 L120,240 L100,240 L64,240" stroke-width="0.6"/><path d="M372,120 L372,172 L372,236" stroke-width="1.7"/><path d="M372,120 L372,196 L328,196 L280,196" stroke-width="0.6"/><path d="M136,64 L136,100 L136,140 L116,140 L80,140 L80,108 L80,56 L108,56" stroke-width="1.4"/><path d="M136,64 L116,12" stroke-width="2.5"/><path d="M52,148 L8,148 L8,180 L8,236 L40,236" stroke-width="0.5"/><path d="M52,148 L72,76" stroke-width="1.2"/><path d="M292,152 L292,196 L288,240" stroke-width="0.6"/><path d="M292,152 L336,228" stroke-width="1.7"/><path d="M116,120 L164,120 L224,120 L224,148 L220,200" stroke-width="0.5"/><path d="M116,120 L72,124 L72,160 L72,232" stroke-width="1.6"/><path d="M244,132 L244,164 L252,240 L292,240 L340,240" stroke-width="0.4"/><path d="M244,132 L224,48" stroke-width="2.1"/><path d="M8,60 L8,100 L8,192" stroke-width="1.1"/><path d="M8,60 L8,8" stroke-width="0.6"/><path d="M184,12 L184,64 L188,168 L152,168 L116,168 L116,208" stroke-width="1.9"/><path d="M184,12 L188,48 L232,48 L304,48 L304,12" stroke-width="1.1"/><path d="M268,184 L268,148 L268,56 L240,56 L176,60 L176,36" stroke-width="0.4"/><path d="M268,184 L248,240" stroke-width="1.4"/><path d="M280,116 L360,108" stroke-width="0.5"/><path d="M280,116 L264,176" stroke-width="2.9"/><path d="M180,144 L192,64 L220,64 L256,64 L256,32" stroke-width="1.2"/><path d="M180,144 L136,124 L136,140 L136,200 L108,200" stroke-width="1.5"/><path d="M276,156 L320,144 L352,140 L352,172" stroke-width="1.3"/><path d="M276,156 L248,84 L284,84 L340,84 L340,56" stroke-width="0.9"/><path d="M132,176 L132,116 L136,32" stroke-width="3.1"/><path d="M132,176 L144,104 L96,104 L52,104 L52,72" stroke-width="1.8"/><path d="M48,112 L48,132 L44,236" stroke-width="1.5"/><path d="M48,112 L52,204" stroke-width="0.5"/><path d="M176,172 L116,172 L56,172" stroke-width="1.7"/><path d="M176,172 L128,180 L128,156 L132,84 L160,84" stroke-width="0.8"/><path d="M292,68 L292,32 L292,8" stroke-width="1.0"/><path d="M292,68 L308,100 L328,100 L372,100 L372,80" stroke-width="0.7"/><path d="M280,108 L280,168 L280,240" stroke-width="0.6"/><path d="M280,108 L296,188 L304,240 L288,240" stroke-width="1.1"/><path d="M152,120 L152,180 L152,232" stroke-width="1.0"/><path d="M152,120 L184,32 L148,32 L116,32 L116,64" stroke-width="0.9"/><path d="M108,88 L108,16" stroke-width="1.7"/><path d="M108,88 L72,76 L12,56" stroke-width="1.0"/><path d="M368,76 L368,24 L368,8" stroke-width="0.5"/><path d="M368,76 L332,156" stroke-width="1.5"/><path d="M112,144 L112,172 L116,240 L160,240 L232,240 L232,208" stroke-width="1.9"/><path d="M112,144 L92,96 L68,96 L24,96 L24,64" stroke-width="1.2"/><path d="M100,172 L60,168 L60,128 L60,76 L96,76" stroke-width="1.0"/><path d="M100,172 L68,88" stroke-width="1.3"/><path d="M220,120 L220,156 L228,240" stroke-width="0.7"/><path d="M220,120 L228,180 L260,180 L300,180 L300,152" stroke-width="0.6"/><path d="M212,120 L212,76 L212,8 L184,8 L108,8" stroke-width="1.1"/><path d="M212,120 L204,168" stroke-width="1.6"/><path d="M180,28 L180,44 L180,120 L224,120 L260,120" stroke-width="0.5"/><path d="M180,28 L172,72" stroke-width="0.7"/><path d="M104,228 L68,228 L16,232 L16,196 L16,136" stroke-width="1.4"/><path d="M104,228 L36,240 L36,228 L36,180 L16,180" stroke-width="0.8"/><path d="M140,236 L160,236 L232,236 L272,236" stroke-width="0.4"/><path d="M140,236 L208,200 L208,240" stroke-width="0.9"/><path d="M16,112 L32,180 L8,180" stroke-width="0.5"/><path d="M16,112 L64,100" stroke-width="1.4"/><path d="M68,240 L100,240 L152,240 L200,240" stroke-width="0.4"/><path d="M68,240 L112,240 L160,240" stroke-width="1.0"/><path d="M44,84 L8,80 L8,40 L8,20" stroke-width="0.5"/><path d="M44,84 L16,144 L48,144 L80,144 L80,120" stroke-width="0.4"/><path d="M128,28 L112,28 L80,28 L80,8" stroke-width="0.5"/><path d="M128,28 L192,44" stroke-width="0.6"/><path d="M52,240 L24,240 L8,240" stroke-width="1.6"/><path d="M52,240 L116,240 L116,220 L116,192 L140,192" stroke-width="0.8"/><path d="M116,12 L100,12 L64,12 L44,12" stroke-width="0.4"/><path d="M116,12 L76,44 L76,68 L76,96 L96,96" stroke-width="1.1"/><path d="M72,76 L96,76 L176,76 L224,88" stroke-width="1.2"/><path d="M72,76 L140,88 L140,56 L140,20 L116,20" stroke-width="1.0"/><path d="M288,240 L236,240 L164,236 L164,208 L164,180" stroke-width="0.6"/><path d="M288,240 L204,228" stroke-width="0.4"/><path d="M336,228 L352,240 L372,240" stroke-width="0.7"/><path d="M336,228 L304,240 L268,240" stroke-width="1.5"/><path d="M180,132 L180,188 L196,188" stroke-width="1.6"/><path d="M180,132 L156,140 L156,156" stroke-width="0.6"/><path d="M224,48 L208,8 L196,8" stroke-width="0.5"/><path d="M224,48 L244,32" stroke-width="1.0"/><path d="M8,192 L8,240" stroke-width="0.4"/><path d="M8,192 L8,160 L8,132" stroke-width="0.4"/><path d="M324,112 L324,136 L324,212 L356,212" stroke-width="0.9"/><path d="M324,112 L344,72" stroke-width="1.0"/><path d="M8,240 L36,240 L96,240 L96,228" stroke-width="1.3"/><path d="M8,240 L84,240 L84,224" stroke-width="1.6"/><path d="M248,240 L224,240 L208,240" stroke-width="1.2"/><path d="M248,240 L280,240" stroke-width="1.3"/><path d="M360,108 L360,92 L356,16 L372,16" stroke-width="1.7"/><path d="M360,108 L348,140" stroke-width="1.2"/><path d="M264,176 L228,176 L196,176" stroke-width="1.0"/><path d="M264,176 L220,172" stroke-width="0.4"/><path d="M136,32 L136,8" stroke-width="0.6"/><path d="M136,32 L76,32 L76,56" stroke-width="2.4"/><path d="M52,204 L20,204" stroke-width="2.1"/><path d="M52,204 L8,228" stroke-width="1.2"/><path d="M56,172 L56,120 L56,44 L28,44" stroke-width="1.0"/><path d="M56,172 L52,96 L28,96" stroke-width="0.4"/><path d="M268,116 L268,132 L268,168" stroke-width="0.7"/><path d="M268,116 L276,48 L308,48" stroke-width="0.5"/><path d="M80,168 L88,232 L128,232" stroke-width="2.2"/><path d="M80,168 L28,136" stroke-width="0.6"/><path d="M328,180 L348,180 L372,180 L372,164" stroke-width="2.1"/><path d="M328,180 L264,144" stroke-width="0.7"/><path d="M156,172 L128,172 L64,172 L64,132" stroke-width="0.5"/><path d="M156,172 L124,176 L124,196" stroke-width="2.2"/><path d="M280,240 L240,240 L176,240 L176,224" stroke-width="1.9"/><path d="M280,240 L232,240" stroke-width="1.7"/><path d="M152,232 L204,232 L232,232 L232,196" stroke-width="1.0"/><path d="M152,232 L76,228 L76,204" stroke-width="0.8"/><path d="M108,16 L64,16 L12,16 L12,56" stroke-width="1.6"/><path d="M108,16 L60,32 L60,52" stroke-width="0.6"/><path d="M332,156 L316,156 L232,152 L232,112" stroke-width="0.8"/><path d="M332,156 L372,168 L372,196" stroke-width="0.4"/><path d="M112,32 L88,32 L20,28 L20,44" stroke-width="0.4"/><path d="M112,32 L172,8" stroke-width="1.1"/><path d="M68,88 L116,88 L144,88 L144,124" stroke-width="0.4"/><path d="M68,88 L24,136 L8,136" stroke-width="1.2"/><path d="M228,240 L204,240 L140,240 L140,204" stroke-width="0.4"/><path d="M228,240 L192,240" stroke-width="0.4"/><path d="M204,168 L172,168 L128,168 L128,208" stroke-width="1.4"/><path d="M204,168 L268,196 L268,164" stroke-width="2.1"/><path d="M240,8 L272,8 L324,8" stroke-width="0.8"/><path d="M240,8 L300,8" stroke-width="0.7"/><path d="M172,72 L208,72 L260,72 L260,84" stroke-width="2.1"/><path d="M172,72 L104,68 L104,92" stroke-width="0.7"/><path d="M252,8 L284,8" stroke-width="0.4"/><path d="M252,8 L268,8" stroke-width="0.4"/><path d="M56,32 L56,56 L56,104 L32,104" stroke-width="0.4"/><path d="M56,32 L84,8" stroke-width="0.5"/><path d="M64,100 L64,112 L64,168 L80,168" stroke-width="0.4"/><path d="M64,100 L60,52 L76,52" stroke-width="0.9"/><path d="M148,136 L148,152 L148,200" stroke-width="0.9"/><path d="M148,136 L156,100" stroke-width="0.4"/><path d="M192,44 L232,56 L232,68" stroke-width="0.6"/><path d="M192,44 L192,24 L212,24" stroke-width="1.6"/><path d="M280,196 L280,176 L280,152" stroke-width="1.6"/><path d="M280,196 L284,160 L296,160" stroke-width="1.6"/><path d="M340,240 L340,216 L340,176 L320,176" stroke-width="1.5"/><path d="M340,240 L328,196" stroke-width="0.9"/><path d="M240,228 L228,228 L180,228" stroke-width="0.4"/><path d="M240,228 L276,232" stroke-width="0.6"/></g><g fill="#5cc8e0" stroke="none" fill-opacity="0.8"><circle cx="240" cy="76" r="3.4"/><circle cx="260" cy="144" r="1.9"/><circle cx="60" cy="120" r="7.8"/><circle cx="12" cy="120" r="4.9"/><circle cx="76" cy="116" r="1.8"/><circle cx="80" cy="72" r="2.8"/><circle cx="280" cy="60" r="4.5"/><circle cx="292" cy="144" r="2.3"/><circle cx="304" cy="108" r="3.3"/><circle cx="372" cy="108" r="3.5"/><circle cx="160" cy="88" r="1.8"/><circle cx="184" cy="60" r="6.4"/><circle cx="212" cy="152" r="2.3"/><circle cx="100" cy="56" r="4.3"/><circle cx="80" cy="136" r="2.1"/><circle cx="92" cy="68" r="2.1"/><circle cx="100" cy="56" r="3.1"/><circle cx="140" cy="144" r="7.8"/><circle cx="180" cy="188" r="1.8"/><circle cx="248" cy="176" r="3.5"/><circle cx="188" cy="64" r="8.2"/><circle cx="212" cy="60" r="5.2"/><circle cx="220" cy="72" r="5.9"/><circle cx="92" cy="112" r="4.5"/><circle cx="96" cy="128" r="2.9"/><circle cx="108" cy="144" r="6.2"/><circle cx="48" cy="136" r="3.3"/><circle cx="60" cy="176" r="2.4"/><circle cx="296" cy="116" r="2.2"/><circle cx="68" cy="124" r="1.9"/><circle cx="92" cy="56" r="1.8"/><circle cx="136" cy="104" r="7.2"/><circle cx="372" cy="140" r="1.8"/><circle cx="8" cy="72" r="1.8"/><circle cx="8" cy="64" r="5.1"/><circle cx="8" cy="8" r="3.4"/><circle cx="224" cy="96" r="5.1"/><circle cx="128" cy="140" r="1.9"/><circle cx="372" cy="120" r="4.2"/><circle cx="280" cy="8" r="5.6"/><circle cx="136" cy="64" r="2.1"/><circle cx="52" cy="148" r="5.6"/><circle cx="292" cy="152" r="1.8"/><circle cx="12" cy="184" r="2.3"/><circle cx="116" cy="120" r="2.0"/><circle cx="244" cy="132" r="2.3"/><circle cx="8" cy="60" r="3.0"/><circle cx="184" cy="12" r="3.7"/><circle cx="52" cy="240" r="6.8"/><circle cx="268" cy="184" r="1.8"/><circle cx="280" cy="116" r="4.6"/><circle cx="180" cy="144" r="4.2"/><circle cx="276" cy="156" r="1.8"/><circle cx="132" cy="176" r="1.8"/><circle cx="48" cy="112" r="6.1"/><circle cx="8" cy="104" r="2.6"/><circle cx="176" cy="172" r="5.3"/><circle cx="292" cy="68" r="1.8"/><circle cx="280" cy="108" r="4.5"/><circle cx="152" cy="120" r="1.8"/><circle cx="108" cy="88" r="1.9"/><circle cx="8" cy="32" r="5.7"/><circle cx="168" cy="236" r="1.8"/><circle cx="120" cy="240" r="1.8"/><circle cx="368" cy="76" r="3.4"/><circle cx="112" cy="144" r="1.9"/><circle cx="100" cy="172" r="3.3"/><circle cx="220" cy="120" r="1.8"/><circle cx="212" cy="120" r="3.7"/><circle cx="180" cy="28" r="3.4"/><circle cx="104" cy="228" r="2.8"/><circle cx="140" cy="236" r="1.9"/><circle cx="372" cy="8" r="3.2"/><circle cx="12" cy="12" r="1.9"/><circle cx="16" cy="112" r="1.8"/><circle cx="8" cy="8" r="4.9"/><circle cx="68" cy="240" r="5.0"/><circle cx="44" cy="84" r="1.8"/><circle cx="160" cy="12" r="5.9"/><circle cx="128" cy="28" r="1.8"/><circle cx="372" cy="236" r="2.4"/><circle cx="372" cy="240" r="1.8"/><circle cx="16" cy="240" r="1.9"/><circle cx="340" cy="232" r="2.4"/><circle cx="52" cy="240" r="1.8"/><circle cx="116" cy="12" r="2.0"/><circle cx="12" cy="64" r="1.8"/><circle cx="72" cy="76" r="4.6"/><circle cx="288" cy="240" r="5.7"/><circle cx="336" cy="228" r="1.8"/><circle cx="180" cy="132" r="4.5"/><circle cx="224" cy="48" r="4.9"/><circle cx="8" cy="240" r="1.8"/><circle cx="232" cy="8" r="3.9"/><circle cx="8" cy="192" r="1.8"/><circle cx="8" cy="8" r="1.8"/><circle cx="324" cy="112" r="1.8"/><circle cx="8" cy="240" r="1.8"/><circle cx="248" cy="240" r="1.8"/><circle cx="360" cy="108" r="1.8"/><circle cx="264" cy="176" r="1.8"/><circle cx="136" cy="32" r="1.9"/><circle cx="44" cy="236" r="5.0"/><circle cx="52" cy="204" r="4.7"/><circle cx="20" cy="204" r="2.3"/><circle cx="56" cy="172" r="1.8"/><circle cx="268" cy="116" r="4.8"/><circle cx="80" cy="168" r="1.8"/><circle cx="328" cy="180" r="5.3"/><circle cx="292" cy="8" r="1.8"/><circle cx="156" cy="172" r="4.6"/><circle cx="280" cy="240" r="2.9"/><circle cx="152" cy="232" r="4.6"/><circle cx="8" cy="8" r="4.6"/><circle cx="108" cy="16" r="3.2"/><circle cx="368" cy="8" r="3.9"/><circle cx="332" cy="156" r="1.8"/><circle cx="372" cy="200" r="1.8"/><circle cx="112" cy="32" r="5.6"/><circle cx="68" cy="88" r="3.7"/><circle cx="228" cy="240" r="1.8"/><circle cx="204" cy="168" r="1.8"/><circle cx="8" cy="8" r="1.8"/><circle cx="240" cy="8" r="1.8"/><circle cx="172" cy="72" r="2.0"/><circle cx="208" cy="240" r="1.8"/><circle cx="372" cy="240" r="1.8"/><circle cx="252" cy="8" r="2.7"/><circle cx="56" cy="32" r="2.0"/><circle cx="8" cy="180" r="1.8"/><circle cx="64" cy="100" r="3.8"/><circle cx="372" cy="16" r="2.7"/><circle cx="148" cy="136" r="1.8"/><circle cx="80" cy="8" r="3.7"/><circle cx="192" cy="44" r="1.8"/><circle cx="280" cy="196" r="4.7"/><circle cx="340" cy="240" r="3.9"/><circle cx="240" cy="228" r="1.8"/><circle cx="8" cy="240" r="3.4"/><circle cx="8" cy="16" r="4.8"/><circle cx="8" cy="236" r="2.2"/><circle cx="16" cy="136" r="3.0"/><circle cx="36" cy="180" r="1.8"/><circle cx="16" cy="180" r="3.3"/><circle cx="272" cy="236" r="1.8"/><circle cx="120" cy="8" r="1.8"/><circle cx="72" cy="240" r="1.8"/><circle cx="72" cy="228" r="1.8"/><circle cx="364" cy="136" r="1.9"/><circle cx="284" cy="8" r="1.8"/><circle cx="268" cy="8" r="1.8"/><circle cx="32" cy="104" r="3.3"/><circle cx="84" cy="8" r="1.8"/><circle cx="80" cy="168" r="1.8"/><circle cx="60" cy="52" r="1.8"/><circle cx="76" cy="52" r="2.2"/><circle cx="200" cy="240" r="2.4"/><circle cx="160" cy="240" r="1.8"/><circle cx="8" cy="20" r="2.5"/><circle cx="80" cy="120" r="1.8"/><circle cx="148" cy="200" r="3.9"/><circle cx="156" cy="100" r="1.8"/><circle cx="156" cy="188" r="2.5"/><circle cx="184" cy="188" r="1.8"/><circle cx="232" cy="68" r="2.9"/><circle cx="212" cy="24" r="2.7"/><circle cx="64" cy="240" r="1.8"/><circle cx="280" cy="152" r="1.9"/><circle cx="284" cy="160" r="4.3"/><circle cx="296" cy="160" r="1.8"/><circle cx="320" cy="176" r="2.5"/><circle cx="328" cy="196" r="1.8"/><circle cx="180" cy="228" r="3.0"/><circle cx="276" cy="232" r="1.8"/><circle cx="328" cy="220" r="1.8"/><circle cx="308" cy="220" r="4.8"/><circle cx="140" cy="192" r="1.8"/><circle cx="108" cy="56" r="1.8"/><circle cx="44" cy="12" r="2.1"/><circle cx="96" cy="96" r="1.8"/><circle cx="40" cy="236" r="3.1"/><circle cx="224" cy="88" r="2.7"/><circle cx="140" cy="20" r="1.8"/><circle cx="116" cy="20" r="3.9"/><circle cx="164" cy="180" r="1.8"/></g><g fill="#0a1a24" stroke="none"><circle cx="240" cy="76" r="1.4"/><circle cx="260" cy="144" r="0.8"/><circle cx="60" cy="120" r="3.1"/><circle cx="12" cy="120" r="2.0"/><circle cx="76" cy="116" r="0.7"/><circle cx="80" cy="72" r="1.1"/><circle cx="280" cy="60" r="1.8"/><circle cx="292" cy="144" r="0.9"/><circle cx="304" cy="108" r="1.3"/><circle cx="372" cy="108" r="1.4"/><circle cx="160" cy="88" r="0.7"/><circle cx="184" cy="60" r="2.6"/><circle cx="212" cy="152" r="0.9"/><circle cx="100" cy="56" r="1.7"/><circle cx="80" cy="136" r="0.8"/><circle cx="92" cy="68" r="0.8"/><circle cx="100" cy="56" r="1.2"/><circle cx="140" cy="144" r="3.1"/><circle cx="180" cy="188" r="0.7"/><circle cx="248" cy="176" r="1.4"/><circle cx="188" cy="64" r="3.3"/><circle cx="212" cy="60" r="2.1"/><circle cx="220" cy="72" r="2.4"/><circle cx="92" cy="112" r="1.8"/><circle cx="96" cy="128" r="1.2"/><circle cx="108" cy="144" r="2.5"/><circle cx="48" cy="136" r="1.3"/><circle cx="60" cy="176" r="0.9"/><circle cx="296" cy="116" r="0.9"/><circle cx="68" cy="124" r="0.8"/><circle cx="92" cy="56" r="0.7"/><circle cx="136" cy="104" r="2.9"/><circle cx="372" cy="140" r="0.7"/><circle cx="8" cy="72" r="0.7"/><circle cx="8" cy="64" r="2.0"/><circle cx="8" cy="8" r="1.4"/><circle cx="224" cy="96" r="2.1"/><circle cx="128" cy="140" r="0.7"/><circle cx="372" cy="120" r="1.7"/><circle cx="280" cy="8" r="2.3"/><circle cx="136" cy="64" r="0.8"/><circle cx="52" cy="148" r="2.3"/><circle cx="292" cy="152" r="0.7"/><circle cx="12" cy="184" r="0.9"/><circle cx="116" cy="120" r="0.8"/><circle cx="244" cy="132" r="0.9"/><circle cx="8" cy="60" r="1.2"/><circle cx="184" cy="12" r="1.5"/><circle cx="52" cy="240" r="2.7"/><circle cx="268" cy="184" r="0.7"/><circle cx="280" cy="116" r="1.8"/><circle cx="180" cy="144" r="1.7"/><circle cx="276" cy="156" r="0.7"/><circle cx="132" cy="176" r="0.7"/><circle cx="48" cy="112" r="2.4"/><circle cx="8" cy="104" r="1.0"/><circle cx="176" cy="172" r="2.1"/><circle cx="292" cy="68" r="0.7"/><circle cx="280" cy="108" r="1.8"/><circle cx="152" cy="120" r="0.7"/><circle cx="108" cy="88" r="0.8"/><circle cx="8" cy="32" r="2.3"/><circle cx="168" cy="236" r="0.7"/><circle cx="120" cy="240" r="0.7"/><circle cx="368" cy="76" r="1.4"/><circle cx="112" cy="144" r="0.8"/><circle cx="100" cy="172" r="1.3"/><circle cx="220" cy="120" r="0.7"/><circle cx="212" cy="120" r="1.5"/><circle cx="180" cy="28" r="1.4"/><circle cx="104" cy="228" r="1.1"/><circle cx="140" cy="236" r="0.8"/><circle cx="372" cy="8" r="1.3"/><circle cx="12" cy="12" r="0.8"/><circle cx="16" cy="112" r="0.7"/><circle cx="8" cy="8" r="2.0"/><circle cx="68" cy="240" r="2.0"/><circle cx="44" cy="84" r="0.7"/><circle cx="160" cy="12" r="2.4"/><circle cx="128" cy="28" r="0.7"/><circle cx="372" cy="236" r="1.0"/><circle cx="372" cy="240" r="0.7"/><circle cx="16" cy="240" r="0.8"/><circle cx="340" cy="232" r="1.0"/><circle cx="52" cy="240" r="0.7"/><circle cx="116" cy="12" r="0.8"/><circle cx="12" cy="64" r="0.7"/><circle cx="72" cy="76" r="1.8"/><circle cx="288" cy="240" r="2.3"/><circle cx="336" cy="228" r="0.7"/><circle cx="180" cy="132" r="1.8"/><circle cx="224" cy="48" r="2.0"/><circle cx="8" cy="240" r="0.7"/><circle cx="232" cy="8" r="1.6"/><circle cx="8" cy="192" r="0.7"/><circle cx="8" cy="8" r="0.7"/><circle cx="324" cy="112" r="0.7"/><circle cx="8" cy="240" r="0.7"/><circle cx="248" cy="240" r="0.7"/><circle cx="360" cy="108" r="0.7"/><circle cx="264" cy="176" r="0.7"/><circle cx="136" cy="32" r="0.8"/><circle cx="44" cy="236" r="2.0"/><circle cx="52" cy="204" r="1.9"/><circle cx="20" cy="204" r="0.9"/><circle cx="56" cy="172" r="0.7"/><circle cx="268" cy="116" r="1.9"/><circle cx="80" cy="168" r="0.7"/><circle cx="328" cy="180" r="2.1"/><circle cx="292" cy="8" r="0.7"/><circle cx="156" cy="172" r="1.8"/><circle cx="280" cy="240" r="1.2"/><circle cx="152" cy="232" r="1.8"/><circle cx="8" cy="8" r="1.9"/><circle cx="108" cy="16" r="1.3"/><circle cx="368" cy="8" r="1.6"/><circle cx="332" cy="156" r="0.7"/><circle cx="372" cy="200" r="0.7"/><circle cx="112" cy="32" r="2.2"/><circle cx="68" cy="88" r="1.5"/><circle cx="228" cy="240" r="0.7"/><circle cx="204" cy="168" r="0.7"/><circle cx="8" cy="8" r="0.7"/><circle cx="240" cy="8" r="0.7"/><circle cx="172" cy="72" r="0.8"/><circle cx="208" cy="240" r="0.7"/><circle cx="372" cy="240" r="0.7"/><circle cx="252" cy="8" r="1.1"/><circle cx="56" cy="32" r="0.8"/><circle cx="8" cy="180" r="0.7"/><circle cx="64" cy="100" r="1.5"/><circle cx="372" cy="16" r="1.1"/><circle cx="148" cy="136" r="0.7"/><circle cx="80" cy="8" r="1.5"/><circle cx="192" cy="44" r="0.7"/><circle cx="280" cy="196" r="1.9"/><circle cx="340" cy="240" r="1.6"/><circle cx="240" cy="228" r="0.7"/><circle cx="8" cy="240" r="1.3"/><circle cx="8" cy="16" r="1.9"/><circle cx="8" cy="236" r="0.9"/><circle cx="16" cy="136" r="1.2"/><circle cx="36" cy="180" r="0.7"/><circle cx="16" cy="180" r="1.3"/><circle cx="272" cy="236" r="0.7"/><circle cx="120" cy="8" r="0.7"/><circle cx="72" cy="240" r="0.7"/><circle cx="72" cy="228" r="0.7"/><circle cx="364" cy="136" r="0.7"/><circle cx="284" cy="8" r="0.7"/><circle cx="268" cy="8" r="0.7"/><circle cx="32" cy="104" r="1.3"/><circle cx="84" cy="8" r="0.7"/><circle cx="80" cy="168" r="0.7"/><circle cx="60" cy="52" r="0.7"/><circle cx="76" cy="52" r="0.9"/><circle cx="200" cy="240" r="0.9"/><circle cx="160" cy="240" r="0.7"/><circle cx="8" cy="20" r="1.0"/><circle cx="80" cy="120" r="0.7"/><circle cx="148" cy="200" r="1.6"/><circle cx="156" cy="100" r="0.7"/><circle cx="156" cy="188" r="1.0"/><circle cx="184" cy="188" r="0.7"/><circle cx="232" cy="68" r="1.2"/><circle cx="212" cy="24" r="1.1"/><circle cx="64" cy="240" r="0.7"/><circle cx="280" cy="152" r="0.8"/><circle cx="284" cy="160" r="1.7"/><circle cx="296" cy="160" r="0.7"/><circle cx="320" cy="176" r="1.0"/><circle cx="328" cy="196" r="0.7"/><circle cx="180" cy="228" r="1.2"/><circle cx="276" cy="232" r="0.7"/><circle cx="328" cy="220" r="0.7"/><circle cx="308" cy="220" r="1.9"/><circle cx="140" cy="192" r="0.7"/><circle cx="108" cy="56" r="0.7"/><circle cx="44" cy="12" r="0.9"/><circle cx="96" cy="96" r="0.7"/><circle cx="40" cy="236" r="1.2"/><circle cx="224" cy="88" r="1.1"/><circle cx="140" cy="20" r="0.7"/><circle cx="116" cy="20" r="1.6"/><circle cx="164" cy="180" r="0.7"/></g></g><text x="586.0" y="280" text-anchor="middle" fill="#5cc8e0" font-size="11" font-family="monospace">circ high (630)</text><g transform="translate(784,8)"><rect width="380" height="250" fill="none" stroke="#1a5a6e" stroke-width="0.5"/><g fill="none" stroke="#5cc8e0" stroke-opacity="0.6"><path d="M232.4,0.0 Q229.8,61.4 223.7,106.1" stroke-width="4.27"/><path d="M45.6,0.0 L42.6,95.0 L88.1,93.0 L197.5,100.9 L277.8,88.2 L279.7,58.3 L275.2,22.7" stroke-width="3.03"/><path d="M121.6,0.0 Q122.7,10.0 123.6,45.1" stroke-width="3.97"/><path d="M105.9,0.0 Q98.0,69.9 91.3,123.6" stroke-width="4.35"/><path d="M223.7,106.1 L179.6,106.3 L82.6,108.6 L83.9,84.0 L96.1,8.4 L130.2,8.7 L169.5,7.7" stroke-width="3.08"/><path d="M223.7,106.1 L303.3,124.8 L302.4,77.4 L303.3,19.6 L261.1,21.1 L225.6,21.5" stroke-width="3.36"/><path d="M123.6,45.1 L152.7,44.1 L261.6,47.2 L260.3,19.6" stroke-width="4.11"/><path d="M123.6,45.1 Q67.7,53.5 23.0,67.0" stroke-width="3.90"/><path d="M91.3,123.6 L141.3,123.0 L214.1,121.1 L314.8,118.2" stroke-width="3.59"/><path d="M91.3,123.6 L39.7,141.6 L40.9,176.1 L43.6,216.5" stroke-width="3.67"/><path d="M23.0,67.0 Q20.0,66.2 8.0,65.2" stroke-width="3.40"/><path d="M23.0,67.0 L35.9,7.8 L64.0,9.2" stroke-width="3.17"/><path d="M8.0,65.2 L7.3,47.8 L15.4,8.7" stroke-width="3.11"/><path d="M8.0,65.2 L14.9,116.2 L12.8,175.9 L15.0,205.3 L34.7,204.7 L56.8,203.4 L56.8,222.3 L56.1,242.6" stroke-width="1.80"/><path d="M314.9,117.6 L313.4,147.4 L313.4,176.7" stroke-width="3.07"/><path d="M314.9,117.6 Q318.7,96.5 322.1,81.6" stroke-width="3.73"/><path d="M44.2,215.8 L29.9,214.8 L7.5,214.3 L7.9,242.3" stroke-width="2.96"/><path d="M44.2,215.8 L6.7,184.7 L7.0,169.9 L6.9,128.6 L20.8,128.5 L57.4,126.8 L55.9,107.9 L59.5,70.9 L74.1,71.1 L116.8,67.6" stroke-width="1.75"/><path d="M169.0,8.0 L167.6,46.5 L170.6,83.3 L190.4,82.4 L223.2,84.2 L220.7,96.4 L217.5,118.9" stroke-width="2.40"/><path d="M169.0,8.0 Q171.9,25.8 176.7,54.5" stroke-width="2.77"/><path d="M226.7,22.9 Q226.7,13.5 226.7,8.0" stroke-width="3.39"/><path d="M226.7,22.9 Q228.0,42.3 229.0,52.9" stroke-width="2.67"/><path d="M275.5,20.9 L256.4,21.1 L226.1,18.3 L185.7,16.5 L157.0,12.1 L158.2,22.4 L155.6,57.8 L175.1,54.4 L195.8,52.6" stroke-width="1.61"/><path d="M275.5,20.9 Q265.3,24.7 253.1,30.9" stroke-width="2.96"/><path d="M62.8,8.0 L78.9,8.6 L141.3,8.2 L160.3,11.4 L182.8,7.7" stroke-width="1.84"/><path d="M62.8,8.0 L44.3,8.8 L23.3,6.8 L23.8,25.9 L23.8,46.2" stroke-width="2.68"/><path d="M312.5,176.2 L315.9,225.9 L339.9,221.8 L362.9,227.9" stroke-width="2.52"/><path d="M312.5,176.2 L359.8,192.4 L358.6,164.2 L359.1,136.5 L372.9,135.7" stroke-width="2.26"/><path d="M322.1,81.6 L293.7,80.9 L270.6,80.5" stroke-width="2.98"/><path d="M322.1,81.6 Q345.5,86.5 372.0,89.0" stroke-width="2.78"/><path d="M176.7,54.5 L152.8,54.4 L127.0,55.9 L127.2,36.3 L128.0,7.8 L109.9,9.2 L90.4,9.7 L50.5,14.6 L50.6,32.9 L50.0,55.6" stroke-width="1.29"/><path d="M176.7,54.5 L207.8,39.2 L222.0,33.6 L223.2,14.5" stroke-width="1.94"/><path d="M229.0,52.9 L238.1,71.6 L241.2,92.7 L242.4,126.9 L221.5,127.7 L204.3,126.9 L204.4,142.1 L203.7,175.6" stroke-width="1.29"/><path d="M229.0,52.9 L252.5,60.3 L252.4,40.1 L253.3,14.7" stroke-width="1.88"/><path d="M253.1,30.9 Q253.1,23.9 253.1,13.4" stroke-width="2.99"/><path d="M253.1,30.9 L278.4,58.9 L280.2,75.5 L279.0,96.1" stroke-width="2.27"/><path d="M270.4,80.8 Q240.9,82.2 231.9,84.0" stroke-width="2.17"/><path d="M270.4,80.8 L279.9,103.6 L297.7,103.0 L318.3,101.8 L340.3,105.0" stroke-width="1.73"/><path d="M372.0,89.0 L371.3,65.6 L373.0,41.9" stroke-width="2.19"/><path d="M372.0,89.0 L372.3,132.3 L371.1,149.0 L372.9,175.0 L371.7,194.7" stroke-width="1.56"/><path d="M231.9,84.0 Q217.8,83.6 210.5,83.3" stroke-width="1.47"/><path d="M231.9,84.0 L231.3,63.4 L218.9,24.1" stroke-width="1.83"/><path d="M372.0,42.8 Q370.7,29.8 370.2,20.8" stroke-width="1.95"/><path d="M372.0,42.8 Q362.5,40.2 353.5,35.8" stroke-width="1.81"/><path d="M217.2,118.1 L237.9,117.4 L259.5,122.2 L257.1,109.3 L252.9,67.5" stroke-width="1.62"/><path d="M217.2,118.1 L241.0,113.7 L243.0,129.7 L241.4,152.3 L246.9,192.5" stroke-width="1.14"/><path d="M254.3,15.1 L268.9,15.3 L293.2,16.1 L292.9,31.2 L292.4,55.6 L305.9,56.0 L340.3,55.6 L340.6,68.6" stroke-width="0.93"/><path d="M254.3,15.1 L225.9,9.6 L185.9,7.6 L185.3,29.0 L184.3,49.7 L173.9,48.2" stroke-width="1.34"/><path d="M279.6,96.5 L280.5,127.7 L280.1,149.4 L299.8,147.5 L337.5,149.3" stroke-width="1.67"/><path d="M279.6,96.5 L298.2,88.7 L332.9,71.6" stroke-width="1.62"/><path d="M181.3,8.9 L179.3,24.9 L181.8,52.7" stroke-width="1.77"/><path d="M181.3,8.9 L174.8,33.8 L168.3,54.4 L157.6,57.4 L119.6,54.1" stroke-width="1.32"/><path d="M23.0,45.4 L20.7,74.5 L14.3,113.8 L16.6,135.8" stroke-width="1.29"/><path d="M23.0,45.4 L8.4,42.8 L7.2,62.5 L10.7,97.6 L10.3,119.1" stroke-width="0.93"/><path d="M210.5,83.3 L179.7,88.9 L180.6,111.0 L181.8,140.1 L202.3,140.3 L232.1,141.1 L232.4,129.6" stroke-width="1.12"/><path d="M210.5,83.3 Q208.1,70.2 207.4,54.8" stroke-width="2.12"/><path d="M370.2,20.8 L371.0,7.3 L330.1,7.4 L331.0,23.3" stroke-width="1.66"/><path d="M370.2,20.8 Q360.0,21.3 351.8,21.8" stroke-width="1.73"/><path d="M353.5,35.8 L335.6,24.8 L317.9,14.2" stroke-width="1.35"/><path d="M353.5,35.8 Q359.2,20.0 364.5,12.7" stroke-width="1.60"/><path d="M56.3,242.0 L68.4,241.5 L89.8,243.1" stroke-width="1.15"/><path d="M56.3,242.0 L15.5,241.8 L17.2,220.1 L21.4,193.3" stroke-width="1.06"/><path d="M181.3,54.4 L198.2,54.5 L218.0,52.7 L249.4,52.1 L250.2,31.4" stroke-width="1.25"/><path d="M181.3,54.4 Q175.0,52.2 162.2,48.4" stroke-width="1.81"/><path d="M207.4,54.8 L194.2,54.2 L169.8,53.8 L169.1,74.9 L170.9,112.4" stroke-width="1.24"/><path d="M207.4,54.8 Q215.9,56.0 225.8,57.2" stroke-width="1.49"/><path d="M220.1,24.4 L216.4,6.8 L232.1,7.6 L250.7,8.8 L251.6,21.8" stroke-width="1.27"/><path d="M220.1,24.4 L251.0,26.2 L249.7,42.9 L254.4,69.9" stroke-width="1.13"/><path d="M339.9,105.7 L370.3,107.5 L371.0,120.4 L369.2,148.1" stroke-width="1.35"/><path d="M339.9,105.7 Q346.2,92.9 359.4,65.7" stroke-width="0.95"/><path d="M351.8,21.8 Q351.8,14.4 351.8,8.0" stroke-width="1.37"/><path d="M351.8,21.8 L353.9,7.5 L368.0,9.5" stroke-width="1.52"/><path d="M115.9,66.7 L145.6,70.7 L143.8,60.8" stroke-width="1.93"/><path d="M115.9,66.7 Q125.0,73.4 133.7,106.4" stroke-width="1.41"/><path d="M254.4,68.7 L233.9,67.8 L201.1,66.4" stroke-width="0.81"/><path d="M254.4,68.7 L302.5,69.8 L303.4,52.3" stroke-width="1.35"/><path d="M196.2,52.8 L196.5,38.3 L191.0,10.5" stroke-width="1.42"/><path d="M196.2,52.8 L211.5,79.9 L229.7,79.8" stroke-width="1.03"/><path d="M333.3,72.2 L332.8,94.8 L330.9,115.3" stroke-width="1.23"/><path d="M333.3,72.2 Q339.2,79.7 344.8,89.5" stroke-width="1.04"/><path d="M89.3,242.0 L117.7,242.5 L117.0,224.1" stroke-width="1.27"/><path d="M89.3,242.0 L99.8,203.4 L116.3,202.0" stroke-width="0.96"/><path d="M162.2,48.4 Q151.7,44.5 141.8,40.9" stroke-width="0.92"/><path d="M162.2,48.4 L138.8,75.6 L162.8,77.8" stroke-width="1.38"/><path d="M225.8,57.2 L225.7,37.7 L226.6,16.0" stroke-width="1.07"/><path d="M225.8,57.2 L210.6,75.3 L229.8,76.8" stroke-width="1.29"/><path d="M359.4,65.7 L371.8,30.4 L358.9,30.8" stroke-width="0.98"/><path d="M359.4,65.7 L373.0,71.3 L370.9,89.4" stroke-width="1.30"/></g><g fill="#5cc8e0" stroke="none" fill-opacity="0.8"><circle cx="260.9" cy="17.7" r="2.2"/><circle cx="226.7" cy="8.0" r="2.0"/><circle cx="16.4" cy="8.0" r="2.0"/><circle cx="8.0" cy="242.0" r="2.0"/><circle cx="253.1" cy="13.4" r="1.9"/><circle cx="140.4" cy="9.0" r="1.9"/><circle cx="160.1" cy="10.2" r="1.8"/><circle cx="361.7" cy="226.4" r="1.8"/><circle cx="372.0" cy="136.5" r="1.8"/><circle cx="224.1" cy="14.9" r="1.6"/><circle cx="370.9" cy="8.0" r="1.5"/><circle cx="351.8" cy="8.0" r="1.5"/><circle cx="364.5" cy="12.7" r="1.5"/><circle cx="372.0" cy="176.3" r="1.5"/><circle cx="200.7" cy="66.2" r="1.2"/><circle cx="302.2" cy="69.3" r="1.2"/><circle cx="302.2" cy="53.6" r="1.2"/><circle cx="246.1" cy="193.1" r="1.2"/><circle cx="50.5" cy="56.6" r="1.2"/><circle cx="202.8" cy="177.1" r="1.2"/><circle cx="341.0" cy="67.4" r="1.2"/><circle cx="174.1" cy="48.7" r="1.2"/><circle cx="192.6" cy="9.9" r="1.2"/><circle cx="231.1" cy="79.3" r="1.2"/><circle cx="338.9" cy="149.5" r="1.2"/><circle cx="330.6" cy="117.0" r="1.2"/><circle cx="344.8" cy="89.5" r="1.2"/><circle cx="117.7" cy="241.4" r="1.2"/><circle cx="117.7" cy="225.6" r="1.2"/><circle cx="114.2" cy="204.1" r="1.2"/><circle cx="19.9" cy="194.2" r="1.2"/><circle cx="250.4" cy="32.9" r="1.2"/><circle cx="141.8" cy="40.9" r="1.2"/><circle cx="162.1" cy="76.4" r="1.2"/><circle cx="119.0" cy="54.7" r="1.2"/><circle cx="15.7" cy="136.5" r="1.2"/><circle cx="10.5" cy="120.6" r="1.2"/><circle cx="231.5" cy="141.6" r="1.2"/><circle cx="231.5" cy="127.3" r="1.2"/><circle cx="172.4" cy="114.5" r="1.2"/><circle cx="225.4" cy="16.9" r="1.2"/><circle cx="210.9" cy="76.2" r="1.2"/><circle cx="230.0" cy="76.2" r="1.2"/><circle cx="251.5" cy="8.0" r="1.2"/><circle cx="251.5" cy="21.1" r="1.2"/><circle cx="252.4" cy="69.2" r="1.2"/><circle cx="368.1" cy="148.5" r="1.2"/><circle cx="357.0" cy="30.1" r="1.2"/><circle cx="372.0" cy="88.8" r="1.2"/></g><g fill="#0a1a24" stroke="none"></g></g><text x="974.0" y="280" text-anchor="middle" fill="#5cc8e0" font-size="11" font-family="monospace">neur med (137)</text><g transform="translate(1172,8)"><rect width="380" height="250" fill="none" stroke="#1a5a6e" stroke-width="0.5"/><g fill="none" stroke="#5cc8e0" stroke-opacity="0.6"><path d="M232.4,0.0 Q231.8,36.0 231.4,59.2" stroke-width="5.08"/><path d="M45.6,0.0 Q41.5,25.6 37.3,66.8" stroke-width="5.37"/><path d="M121.6,0.0 L117.7,63.9 L86.7,60.9 L18.0,64.0" stroke-width="4.70"/><path d="M105.9,0.0 Q109.5,54.8 113.3,102.3" stroke-width="5.33"/><path d="M261.9,0.0 Q264.6,25.7 265.5,91.1" stroke-width="5.42"/><path d="M243.7,0.0 Q244.1,50.7 245.0,92.0" stroke-width="5.66"/><path d="M309.2,0.0 L306.6,111.9 L338.5,112.2 L371.8,110.8" stroke-width="4.43"/><path d="M231.4,59.2 L183.1,61.1 L126.5,59.6" stroke-width="4.59"/><path d="M231.4,59.2 Q199.9,49.1 178.3,41.9" stroke-width="4.83"/><path d="M37.3,66.8 L102.1,66.6 L153.6,66.9" stroke-width="4.77"/><path d="M37.3,66.8 L8.7,109.7 L8.5,157.6 L9.3,204.3" stroke-width="4.30"/><path d="M113.3,102.3 L179.2,102.0 L266.9,107.5" stroke-width="4.80"/><path d="M113.3,102.3 Q153.9,88.2 231.5,70.9" stroke-width="4.61"/><path d="M265.5,91.1 Q273.5,152.7 278.5,185.5" stroke-width="5.23"/><path d="M265.5,91.1 Q298.5,78.6 334.7,60.0" stroke-width="4.98"/><path d="M245.0,92.0 Q243.0,110.1 240.8,133.8" stroke-width="4.78"/><path d="M245.0,92.0 Q269.5,82.5 302.0,77.2" stroke-width="5.22"/><path d="M125.6,60.0 L126.0,87.1 L122.2,135.9" stroke-width="3.95"/><path d="M125.6,60.0 L136.9,8.1 L205.2,6.8" stroke-width="3.86"/><path d="M178.3,41.9 L178.7,78.8 L179.8,124.4 L175.7,199.9" stroke-width="3.67"/><path d="M178.3,41.9 Q192.9,83.1 200.3,121.3" stroke-width="4.20"/><path d="M153.6,67.3 L154.6,119.9 L144.1,198.7 L93.6,197.8 L38.0,193.4 L38.5,174.0 L37.7,154.4" stroke-width="2.68"/><path d="M153.6,67.3 Q156.6,83.5 160.3,104.5" stroke-width="4.25"/><path d="M16.7,63.5 Q16.7,32.6 16.7,12.8" stroke-width="4.77"/><path d="M16.7,63.5 Q11.4,41.4 8.0,8.0" stroke-width="3.88"/><path d="M266.6,108.2 L267.4,47.2 L264.7,8.7" stroke-width="3.86"/><path d="M266.6,108.2 Q268.1,94.1 270.3,67.7" stroke-width="4.13"/><path d="M231.5,70.9 Q231.5,42.7 231.5,12.8" stroke-width="4.70"/><path d="M231.5,70.9 L218.0,8.2 L166.5,7.2 L126.8,8.0 L127.3,43.6 L123.2,87.0" stroke-width="2.72"/><path d="M278.5,185.5 Q283.8,206.6 288.2,242.0" stroke-width="3.87"/><path d="M278.5,185.5 L320.1,163.7 L368.3,123.4 L368.5,101.5 L362.5,76.6" stroke-width="2.56"/><path d="M334.7,60.0 L373.2,45.6 L332.5,7.9" stroke-width="2.97"/><path d="M334.7,60.0 L348.5,8.3 L372.7,7.3" stroke-width="4.84"/><path d="M240.8,133.8 L258.4,134.9 L349.4,145.0" stroke-width="4.47"/><path d="M240.8,133.8 L153.0,148.9 L152.7,177.4 L144.9,241.4" stroke-width="3.29"/><path d="M302.0,77.2 L302.4,130.9 L299.3,182.0" stroke-width="4.03"/><path d="M302.0,77.2 Q338.1,105.5 372.0,161.6" stroke-width="3.83"/><path d="M372.0,111.1 L371.7,64.4 L372.7,14.7 L327.5,16.8 L236.8,13.0" stroke-width="3.11"/><path d="M372.0,111.1 Q372.0,73.4 372.0,40.0" stroke-width="4.32"/><path d="M122.0,136.4 L98.0,135.0 L27.8,141.4" stroke-width="3.51"/><path d="M122.0,136.4 L186.5,107.2 L183.0,138.1 L180.7,170.3 L180.5,193.9" stroke-width="1.82"/><path d="M200.3,121.3 L177.2,120.7 L109.5,113.3" stroke-width="3.21"/><path d="M200.3,121.3 Q172.1,123.1 123.0,125.2" stroke-width="3.11"/><path d="M160.3,104.5 Q159.1,140.0 156.5,175.1" stroke-width="3.59"/><path d="M160.3,104.5 Q138.7,113.3 124.6,121.4" stroke-width="2.96"/><path d="M8.0,205.4 L48.2,206.2 L119.2,203.7 L151.2,198.4" stroke-width="2.44"/><path d="M8.0,205.4 Q32.9,195.0 57.5,179.7" stroke-width="3.19"/><path d="M8.0,8.0 L30.8,9.3 L77.7,7.6 L98.6,7.5" stroke-width="2.90"/><path d="M8.0,8.0 Q44.1,8.0 78.1,8.0" stroke-width="3.41"/><path d="M270.3,67.7 L306.5,69.1 L371.9,69.7" stroke-width="3.83"/><path d="M270.3,67.7 Q313.6,75.2 349.5,81.0" stroke-width="3.17"/><path d="M349.7,145.9 L350.4,192.8 L343.8,243.3 L326.4,240.7 L273.5,238.0" stroke-width="3.03"/><path d="M349.7,145.9 Q339.1,186.8 325.2,224.1" stroke-width="2.97"/><path d="M299.4,182.2 Q293.1,208.1 286.9,228.8" stroke-width="3.44"/><path d="M299.4,182.2 Q332.8,169.2 346.4,155.0" stroke-width="3.12"/><path d="M372.0,161.6 Q372.0,172.3 372.0,189.7" stroke-width="3.52"/><path d="M372.0,161.6 Q357.9,192.9 302.4,210.0" stroke-width="3.02"/><path d="M372.0,40.0 Q372.0,26.4 372.0,8.0" stroke-width="3.17"/><path d="M372.0,40.0 Q348.1,33.5 330.8,23.5" stroke-width="3.20"/><path d="M28.6,141.9 L29.6,169.9 L22.1,210.7" stroke-width="2.87"/><path d="M28.6,141.9 L12.5,120.6 L8.4,94.4 L24.6,95.0 L50.6,92.8 L50.6,113.8" stroke-width="1.12"/><path d="M204.5,8.0 Q220.5,8.0 240.3,8.0" stroke-width="2.45"/><path d="M204.5,8.0 Q221.9,27.3 230.6,38.4" stroke-width="2.89"/><path d="M172.6,198.3 L206.7,199.5 L249.8,199.1 L251.7,173.2 L250.0,127.2" stroke-width="2.10"/><path d="M172.6,198.3 Q191.2,203.6 206.2,206.9" stroke-width="2.66"/><path d="M110.4,114.9 L110.2,152.1 L107.7,190.2 L119.6,190.0 L151.2,190.2" stroke-width="2.22"/><path d="M110.4,114.9 Q105.3,140.6 97.5,165.6" stroke-width="2.40"/><path d="M123.0,125.2 L122.1,165.7 L122.8,207.3 L147.2,207.1 L175.7,212.7 L174.0,194.3 L182.0,157.0" stroke-width="1.59"/><path d="M123.0,125.2 L125.1,82.3 L114.5,82.8 L96.1,83.6" stroke-width="1.79"/><path d="M156.5,175.1 L124.1,175.8 L96.7,169.6" stroke-width="2.73"/><path d="M156.5,175.1 Q169.8,177.0 187.6,178.6" stroke-width="2.71"/><path d="M124.6,121.4 L123.8,144.2 L121.8,181.0 L119.0,223.8 L95.6,222.5 L72.1,223.8 L75.9,234.8" stroke-width="1.36"/><path d="M124.6,121.4 L97.9,105.6 L99.2,118.9 L99.1,141.0" stroke-width="1.74"/><path d="M57.5,179.7 L58.9,147.6 L54.9,106.4" stroke-width="2.76"/><path d="M57.5,179.7 Q66.2,194.8 83.7,210.9" stroke-width="3.19"/><path d="M78.1,8.0 L77.0,31.5 L79.4,80.0" stroke-width="3.18"/><path d="M78.1,8.0 Q81.4,16.1 86.9,28.3" stroke-width="2.49"/><path d="M372.0,70.0 L373.1,96.3 L373.1,114.9 L369.5,140.7" stroke-width="2.30"/><path d="M372.0,70.0 L373.5,39.7 L373.8,21.7" stroke-width="1.89"/><path d="M349.5,81.0 L350.2,66.0 L347.5,34.2" stroke-width="2.47"/><path d="M349.5,81.0 Q353.9,101.2 360.6,123.3" stroke-width="2.82"/><path d="M331.5,8.0 L332.4,32.7 L335.3,60.3 L335.5,88.6 L358.1,88.7 L372.1,86.7 L371.7,103.3" stroke-width="1.14"/><path d="M331.5,8.0 Q320.9,30.6 315.0,60.3" stroke-width="2.85"/><path d="M325.2,224.1 L303.2,223.6 L277.9,225.8" stroke-width="2.72"/><path d="M325.2,224.1 Q314.0,223.5 301.1,222.7" stroke-width="3.03"/><path d="M147.3,242.0 L127.0,242.2 L68.9,235.0" stroke-width="3.03"/><path d="M147.3,242.0 L184.0,239.6 L183.7,224.0 L181.5,194.6" stroke-width="2.16"/><path d="M286.9,228.8 L260.9,230.6 L210.6,230.4 L212.2,201.5 L212.1,176.3" stroke-width="2.57"/><path d="M286.9,228.8 L308.5,241.5 L326.6,240.0" stroke-width="2.18"/><path d="M346.4,155.0 L347.9,188.2 L346.0,214.4" stroke-width="2.74"/><path d="M346.4,155.0 L366.5,181.3 L352.4,182.5 L329.0,179.3" stroke-width="2.37"/><path d="M372.0,189.7 L339.5,188.5 L281.0,190.8 L281.3,181.4 L278.9,152.2 L297.9,153.3" stroke-width="1.93"/><path d="M372.0,189.7 L327.7,205.5 L327.6,177.3 L330.3,157.5 L345.8,158.2" stroke-width="2.65"/><path d="M302.4,210.0 L302.2,194.5 L307.2,158.4" stroke-width="3.02"/><path d="M302.4,210.0 Q313.8,226.1 320.3,242.0" stroke-width="2.91"/><path d="M237.0,13.5 L238.1,49.4 L229.6,110.9" stroke-width="2.88"/><path d="M237.0,13.5 L212.4,7.2 L229.8,8.8 L255.6,9.0" stroke-width="2.18"/><path d="M372.0,8.0 L343.8,7.9 L294.9,9.3 L295.2,22.5 L296.6,71.8" stroke-width="1.79"/><path d="M372.0,8.0 Q372.0,22.9 372.0,33.4" stroke-width="2.64"/><path d="M330.8,23.5 L330.0,53.0 L329.6,87.1" stroke-width="3.13"/><path d="M330.8,23.5 Q334.4,19.6 341.0,8.0" stroke-width="2.73"/><path d="M24.3,211.4 Q27.0,223.6 28.5,242.0" stroke-width="1.80"/><path d="M24.3,211.4 Q35.2,215.3 43.0,218.0" stroke-width="2.18"/><path d="M240.3,8.0 L270.8,7.4 L310.8,7.4" stroke-width="1.30"/><path d="M240.3,8.0 L238.4,37.7 L239.2,65.3 L221.4,66.3" stroke-width="1.57"/><path d="M230.6,38.4 L250.0,37.3 L287.4,40.7" stroke-width="2.27"/><path d="M230.6,38.4 Q229.0,45.9 222.3,63.0" stroke-width="2.63"/><path d="M206.2,206.9 L208.5,227.4 L202.7,243.6 L163.4,239.3" stroke-width="2.17"/><path d="M206.2,206.9 Q204.2,222.7 195.6,239.5" stroke-width="1.75"/><path d="M97.5,165.6 L111.8,165.8 L156.2,163.4" stroke-width="2.23"/><path d="M97.5,165.6 Q127.1,161.7 141.2,157.6" stroke-width="2.40"/><path d="M38.6,154.0 Q40.0,142.3 42.3,128.0" stroke-width="2.00"/><path d="M38.6,154.0 Q58.1,148.3 73.4,137.7" stroke-width="1.87"/><path d="M96.3,169.5 L96.0,187.2 L99.4,209.4" stroke-width="2.15"/><path d="M96.3,169.5 L97.5,209.4 L103.8,242.3" stroke-width="1.45"/><path d="M187.6,178.6 Q199.3,178.9 212.0,179.2" stroke-width="2.69"/><path d="M187.6,178.6 Q187.4,188.7 187.2,197.6" stroke-width="1.91"/><path d="M151.5,198.7 Q176.6,198.3 191.6,197.9" stroke-width="2.18"/><path d="M151.5,198.7 L146.5,161.9 L127.6,165.5 L91.1,162.5 L88.7,184.8" stroke-width="1.17"/><path d="M54.4,108.4 L37.5,108.2 L8.5,110.9 L8.1,65.1 L28.7,64.9" stroke-width="2.01"/><path d="M54.4,108.4 Q60.2,110.1 74.1,113.0" stroke-width="2.03"/><path d="M83.7,210.9 Q93.3,216.6 102.1,227.8" stroke-width="2.42"/><path d="M83.7,210.9 Q68.0,216.5 53.5,219.2" stroke-width="2.07"/><path d="M99.4,8.9 L136.5,9.7 L163.8,9.8" stroke-width="1.82"/><path d="M99.4,8.9 Q110.4,8.5 115.4,8.0" stroke-width="2.14"/><path d="M79.0,79.1 Q78.5,92.4 77.7,105.3" stroke-width="2.54"/><path d="M79.0,79.1 Q94.3,79.3 105.2,79.5" stroke-width="2.41"/><path d="M86.9,28.3 L56.9,29.3 L31.8,26.7" stroke-width="1.85"/><path d="M86.9,28.3 Q80.9,29.0 66.5,30.6" stroke-width="2.05"/><path d="M348.1,32.6 L350.8,6.1 L312.3,11.2" stroke-width="1.51"/><path d="M348.1,32.6 L329.1,33.6 L297.4,44.2" stroke-width="1.37"/><path d="M360.6,123.3 Q361.3,136.0 362.1,147.8" stroke-width="1.86"/><path d="M360.6,123.3 L334.2,138.2 L333.4,158.6 L334.2,186.8" stroke-width="1.61"/><path d="M123.3,86.7 L96.7,85.9 L59.9,85.8" stroke-width="2.34"/><path d="M123.3,86.7 Q107.4,89.8 88.9,91.8" stroke-width="2.14"/><path d="M362.8,76.7 L335.3,76.0 L296.7,74.8 L264.4,77.8 L263.1,65.7" stroke-width="0.99"/><path d="M362.8,76.7 Q368.6,80.3 372.0,86.2" stroke-width="2.39"/><path d="M315.0,60.3 L290.4,60.1 L254.2,59.0" stroke-width="2.65"/><path d="M315.0,60.3 Q296.7,57.7 274.3,56.1" stroke-width="2.07"/><path d="M273.5,238.7 L232.8,240.7 L194.3,242.1" stroke-width="1.67"/><path d="M273.5,238.7 Q279.7,227.0 287.1,207.0" stroke-width="2.27"/><path d="M277.6,225.7 Q267.6,224.6 240.7,223.7" stroke-width="2.46"/><path d="M277.6,225.7 L292.2,199.5 L313.2,159.9 L324.2,161.5" stroke-width="1.97"/><path d="M301.1,222.7 Q301.1,227.8 301.1,238.9" stroke-width="2.42"/><path d="M301.1,222.7 Q303.4,210.9 310.3,204.2" stroke-width="2.06"/><path d="M67.6,235.7 L68.4,211.8 L71.0,188.2" stroke-width="2.18"/><path d="M67.6,235.7 Q72.4,222.4 76.8,216.6" stroke-width="2.68"/><path d="M346.6,214.3 Q345.5,225.8 344.6,242.0" stroke-width="2.07"/><path d="M346.6,214.3 L371.4,224.5 L371.8,203.3" stroke-width="2.67"/><path d="M305.9,158.8 L333.5,157.6 L370.9,154.6" stroke-width="1.95"/><path d="M305.9,158.8 Q323.7,154.2 332.1,146.4" stroke-width="2.44"/><path d="M320.3,242.0 L337.1,242.2 L360.9,240.6 L361.4,228.9" stroke-width="1.91"/><path d="M320.3,242.0 L341.8,226.8 L343.3,240.7" stroke-width="2.14"/><path d="M230.3,110.4 L253.0,111.6 L286.7,110.1 L285.4,122.3" stroke-width="2.13"/><path d="M230.3,110.4 Q209.8,109.3 189.3,106.8" stroke-width="1.91"/><path d="M372.0,33.4 L373.0,46.2 L373.2,88.9" stroke-width="2.09"/><path d="M372.0,33.4 Q370.0,46.7 369.1,53.3" stroke-width="2.36"/><path d="M331.2,86.8 L307.3,86.0 L262.5,83.9 L262.1,106.5" stroke-width="2.05"/><path d="M331.2,86.8 L309.2,81.9 L312.5,70.1" stroke-width="2.35"/><path d="M341.0,8.0 L328.3,8.8 L284.9,13.8" stroke-width="1.89"/><path d="M341.0,8.0 Q327.3,8.0 313.6,8.0" stroke-width="2.40"/><path d="M28.5,242.0 Q20.2,242.0 15.0,242.0" stroke-width="1.78"/><path d="M28.5,242.0 Q54.6,236.7 68.1,234.7" stroke-width="1.95"/><path d="M43.0,218.0 Q43.0,223.0 43.0,231.3" stroke-width="2.17"/><path d="M43.0,218.0 L31.3,243.4 L12.3,242.4" stroke-width="1.50"/><path d="M179.1,195.8 L168.0,196.6 L128.0,192.6" stroke-width="1.99"/><path d="M179.1,195.8 L201.0,198.3 L203.6,184.8" stroke-width="1.23"/><path d="M289.1,39.7 L286.6,26.4 L285.6,8.0 L270.7,7.7" stroke-width="1.60"/><path d="M289.1,39.7 L284.2,8.4 L267.1,7.8" stroke-width="0.97"/><path d="M222.3,63.0 L208.0,62.5 L173.3,60.4 L173.2,50.2" stroke-width="1.34"/><path d="M222.3,63.0 Q214.4,63.0 203.4,63.1" stroke-width="1.18"/><path d="M250.7,126.5 L239.8,127.1 L221.4,124.9 L222.7,137.0" stroke-width="1.31"/><path d="M250.7,126.5 Q231.5,131.0 218.4,134.2" stroke-width="1.74"/><path d="M195.6,239.5 L205.9,241.0 L232.6,240.3 L233.7,227.2" stroke-width="1.22"/><path d="M195.6,239.5 Q200.2,241.1 213.9,242.0" stroke-width="1.26"/><path d="M152.1,191.8 L152.8,171.4 L160.4,136.0 L151.3,134.7" stroke-width="1.81"/><path d="M152.1,191.8 L149.6,219.3 L164.0,216.9" stroke-width="1.17"/><path d="M156.0,164.7 L179.1,165.1 L180.9,145.3" stroke-width="0.99"/><path d="M156.0,164.7 L156.8,146.2 L171.4,145.6" stroke-width="1.71"/><path d="M141.2,157.6 L142.7,140.8 L140.5,105.5" stroke-width="1.97"/><path d="M141.2,157.6 Q142.6,170.2 144.5,189.8" stroke-width="1.54"/><path d="M96.4,83.0 L95.1,65.4 L93.1,40.3 L72.4,42.8" stroke-width="1.43"/><path d="M96.4,83.0 Q98.1,102.8 99.3,118.8" stroke-width="1.25"/><path d="M42.3,128.0 L24.4,127.7 L7.2,133.2" stroke-width="1.10"/><path d="M42.3,128.0 L81.3,134.0 L82.7,122.2" stroke-width="1.60"/><path d="M73.4,137.7 L74.8,151.0 L74.8,173.1 L64.0,171.7" stroke-width="1.32"/><path d="M73.4,137.7 Q87.7,147.1 96.5,156.8" stroke-width="1.26"/><path d="M98.0,210.5 Q97.0,220.2 95.9,233.6" stroke-width="1.32"/><path d="M98.0,210.5 Q125.8,207.8 143.6,198.5" stroke-width="0.77"/><path d="M212.0,179.2 L211.9,197.1 L212.1,232.2 L192.1,232.6" stroke-width="1.81"/><path d="M212.0,179.2 L213.3,201.5 L225.9,206.0" stroke-width="1.52"/><path d="M187.2,197.6 L204.5,196.6 L235.7,196.5" stroke-width="1.65"/><path d="M187.2,197.6 L216.9,195.7 L215.1,173.3" stroke-width="1.35"/><path d="M99.6,140.6 L115.2,140.3 L147.0,140.1" stroke-width="1.18"/><path d="M99.6,140.6 L69.5,123.2 L71.5,104.5" stroke-width="1.24"/><path d="M191.6,197.9 L190.9,187.9 L189.7,165.2 L172.5,165.3" stroke-width="1.29"/><path d="M191.6,197.9 L212.7,169.0 L195.1,168.0" stroke-width="1.42"/><path d="M74.1,113.0 L74.2,133.1 L69.4,167.9 L78.9,168.1" stroke-width="1.03"/><path d="M74.1,113.0 Q86.7,106.5 92.3,94.8" stroke-width="1.48"/><path d="M102.1,227.8 Q110.1,232.8 117.5,242.0" stroke-width="1.55"/><path d="M102.1,227.8 L126.0,209.9 L127.5,196.7" stroke-width="1.19"/><path d="M53.5,219.2 Q48.8,228.3 33.5,232.5" stroke-width="1.60"/><path d="M53.5,219.2 L65.6,236.1 L53.2,236.1" stroke-width="1.55"/><path d="M115.4,8.0 L132.5,6.3 L156.4,11.3 L157.1,30.3" stroke-width="1.36"/><path d="M115.4,8.0 Q101.4,8.0 81.3,8.0" stroke-width="1.04"/><path d="M77.7,105.3 Q77.2,115.2 76.0,124.0" stroke-width="1.68"/><path d="M77.7,105.3 Q93.0,110.0 107.7,114.1" stroke-width="1.60"/><path d="M105.2,79.5 L125.6,76.7 L124.8,88.1" stroke-width="1.69"/><path d="M105.2,79.5 Q98.8,91.7 91.4,106.5" stroke-width="1.24"/><path d="M33.2,26.8 L33.3,39.9 L35.1,61.2" stroke-width="1.75"/><path d="M33.2,26.8 L40.7,8.5 L62.8,7.2" stroke-width="1.50"/><path d="M66.5,30.6 L65.9,42.3 L66.4,88.2" stroke-width="1.50"/><path d="M66.5,30.6 Q62.5,24.0 55.0,15.4" stroke-width="1.13"/><path d="M369.6,139.8 Q369.4,166.3 369.1,178.0" stroke-width="1.53"/><path d="M369.6,139.8 Q370.3,131.5 372.0,124.6" stroke-width="1.65"/><path d="M372.0,20.7 Q372.0,17.4 372.0,8.0" stroke-width="1.87"/><path d="M372.0,20.7 Q350.2,17.5 332.6,16.0" stroke-width="2.03"/><path d="M362.1,147.8 Q364.9,157.9 365.9,167.3" stroke-width="0.96"/><path d="M362.1,147.8 Q351.5,144.4 339.8,142.1" stroke-width="1.55"/><path d="M62.6,85.0 Q42.6,84.9 26.2,84.7" stroke-width="1.38"/><path d="M62.6,85.0 Q59.0,67.4 50.8,50.6" stroke-width="1.61"/><path d="M88.9,91.8 L90.5,74.6 L88.7,57.1 L108.9,56.1" stroke-width="1.32"/><path d="M88.9,91.8 L86.5,69.8 L107.3,70.1" stroke-width="1.80"/><path d="M372.0,86.2 L370.6,107.7 L371.2,132.6 L359.0,132.6" stroke-width="0.68"/><path d="M372.0,86.2 Q370.8,73.1 370.1,64.8" stroke-width="0.92"/><path d="M254.3,59.9 L254.4,45.9 L256.0,25.9" stroke-width="1.81"/><path d="M254.3,59.9 Q254.7,70.0 255.0,85.0" stroke-width="1.26"/><path d="M274.3,56.1 L275.0,37.5 L272.6,5.6" stroke-width="1.15"/><path d="M274.3,56.1 L286.0,39.7 L299.7,38.8" stroke-width="1.61"/><path d="M287.1,207.0 L299.4,208.1 L343.1,208.9" stroke-width="1.33"/><path d="M287.1,207.0 L259.5,190.6 L259.0,175.3" stroke-width="1.06"/><path d="M240.7,223.7 Q230.7,226.5 222.4,227.5" stroke-width="1.41"/><path d="M240.7,223.7 Q237.9,212.1 235.7,201.4" stroke-width="1.64"/><path d="M310.3,204.2 L318.6,176.9 L331.8,177.8" stroke-width="1.12"/><path d="M310.3,204.2 Q285.5,195.9 271.9,187.3" stroke-width="1.64"/></g><g fill="#5cc8e0" stroke="none" fill-opacity="0.8"><circle cx="16.7" cy="12.8" r="2.1"/><circle cx="231.5" cy="12.8" r="2.1"/><circle cx="136.2" cy="8.0" r="2.0"/><circle cx="266.0" cy="8.0" r="2.0"/><circle cx="288.2" cy="242.0" r="2.0"/><circle cx="372.0" cy="46.0" r="2.0"/><circle cx="372.0" cy="8.0" r="2.0"/><circle cx="372.0" cy="16.6" r="2.0"/><circle cx="127.1" cy="8.0" r="1.8"/><circle cx="301.1" cy="238.9" r="1.6"/><circle cx="15.0" cy="242.0" r="1.4"/><circle cx="43.0" cy="231.3" r="1.4"/><circle cx="8.0" cy="95.4" r="1.4"/><circle cx="270.1" cy="8.0" r="1.4"/><circle cx="201.4" cy="242.0" r="1.4"/><circle cx="8.0" cy="108.1" r="1.4"/><circle cx="350.5" cy="8.0" r="1.4"/><circle cx="232.0" cy="242.0" r="1.4"/><circle cx="68.1" cy="234.7" r="1.2"/><circle cx="30.6" cy="242.0" r="1.2"/><circle cx="11.0" cy="242.0" r="1.2"/><circle cx="50.6" cy="113.2" r="1.2"/><circle cx="127.9" cy="192.9" r="1.2"/><circle cx="202.2" cy="186.1" r="1.2"/><circle cx="311.8" cy="8.0" r="1.2"/><circle cx="222.2" cy="66.1" r="1.2"/><circle cx="284.0" cy="8.0" r="1.2"/><circle cx="271.7" cy="8.0" r="1.2"/><circle cx="285.4" cy="8.0" r="1.2"/><circle cx="269.2" cy="8.0" r="1.2"/><circle cx="174.1" cy="48.3" r="1.2"/><circle cx="203.4" cy="63.1" r="1.2"/><circle cx="221.9" cy="123.2" r="1.2"/><circle cx="221.9" cy="136.0" r="1.2"/><circle cx="218.4" cy="134.2" r="1.2"/><circle cx="163.2" cy="238.9" r="1.2"/><circle cx="233.3" cy="240.5" r="1.2"/><circle cx="233.3" cy="225.7" r="1.2"/><circle cx="213.9" cy="242.0" r="1.2"/><circle cx="161.7" cy="136.4" r="1.2"/><circle cx="151.7" cy="136.4" r="1.2"/><circle cx="150.1" cy="217.8" r="1.2"/><circle cx="164.6" cy="217.8" r="1.2"/><circle cx="181.1" cy="165.5" r="1.2"/><circle cx="181.1" cy="145.2" r="1.2"/><circle cx="156.2" cy="145.8" r="1.2"/><circle cx="171.3" cy="145.8" r="1.2"/><circle cx="140.3" cy="105.2" r="1.2"/><circle cx="144.5" cy="189.8" r="1.2"/><circle cx="180.8" cy="156.7" r="1.2"/><circle cx="93.7" cy="41.4" r="1.2"/><circle cx="72.2" cy="41.4" r="1.2"/><circle cx="99.3" cy="118.8" r="1.2"/><circle cx="8.0" cy="132.5" r="1.2"/><circle cx="82.7" cy="122.2" r="1.2"/><circle cx="65.0" cy="172.9" r="1.2"/><circle cx="96.5" cy="156.8" r="1.2"/><circle cx="95.9" cy="233.6" r="1.2"/><circle cx="143.6" cy="198.5" r="1.2"/><circle cx="103.7" cy="242.0" r="1.2"/><circle cx="211.4" cy="232.0" r="1.2"/><circle cx="192.2" cy="232.0" r="1.2"/><circle cx="213.4" cy="203.8" r="1.2"/><circle cx="225.4" cy="203.8" r="1.2"/><circle cx="237.1" cy="197.9" r="1.2"/><circle cx="215.2" cy="196.0" r="1.2"/><circle cx="215.2" cy="173.6" r="1.2"/><circle cx="74.3" cy="224.1" r="1.2"/><circle cx="74.3" cy="234.7" r="1.2"/><circle cx="146.9" cy="140.7" r="1.2"/><circle cx="69.8" cy="124.5" r="1.2"/><circle cx="69.8" cy="105.0" r="1.2"/><circle cx="190.5" cy="166.0" r="1.2"/><circle cx="174.1" cy="166.0" r="1.2"/><circle cx="194.5" cy="169.4" r="1.2"/><circle cx="88.6" cy="164.1" r="1.2"/><circle cx="88.6" cy="183.6" r="1.2"/><circle cx="8.0" cy="64.9" r="1.2"/><circle cx="29.2" cy="64.9" r="1.2"/><circle cx="68.7" cy="168.6" r="1.2"/><circle cx="78.8" cy="168.6" r="1.2"/><circle cx="92.3" cy="94.8" r="1.2"/><circle cx="117.5" cy="242.0" r="1.2"/><circle cx="126.1" cy="210.3" r="1.2"/><circle cx="126.1" cy="196.9" r="1.2"/><circle cx="33.5" cy="232.5" r="1.2"/><circle cx="53.7" cy="236.5" r="1.2"/><circle cx="164.3" cy="9.6" r="1.2"/><circle cx="155.9" cy="9.5" r="1.2"/><circle cx="155.9" cy="31.5" r="1.2"/><circle cx="81.3" cy="8.0" r="1.2"/><circle cx="76.0" cy="124.0" r="1.2"/><circle cx="107.7" cy="114.1" r="1.2"/><circle cx="123.9" cy="75.9" r="1.2"/><circle cx="123.9" cy="88.6" r="1.2"/><circle cx="91.4" cy="106.5" r="1.2"/><circle cx="35.2" cy="61.5" r="1.2"/><circle cx="41.0" cy="8.0" r="1.2"/><circle cx="63.5" cy="8.0" r="1.2"/><circle cx="66.9" cy="86.0" r="1.2"/><circle cx="55.0" cy="15.4" r="1.2"/><circle cx="369.1" cy="178.0" r="1.2"/><circle cx="372.0" cy="124.6" r="1.2"/><circle cx="372.0" cy="8.0" r="1.2"/><circle cx="332.6" cy="16.0" r="1.2"/><circle cx="311.3" cy="11.4" r="1.2"/><circle cx="298.0" cy="44.6" r="1.2"/><circle cx="365.9" cy="167.3" r="1.2"/><circle cx="339.8" cy="142.1" r="1.2"/><circle cx="334.7" cy="185.3" r="1.2"/><circle cx="26.2" cy="84.7" r="1.2"/><circle cx="50.8" cy="50.6" r="1.2"/><circle cx="109.4" cy="56.6" r="1.2"/><circle cx="107.4" cy="70.1" r="1.2"/><circle cx="263.0" cy="65.8" r="1.2"/><circle cx="359.0" cy="131.9" r="1.2"/><circle cx="370.1" cy="64.8" r="1.2"/><circle cx="372.0" cy="104.3" r="1.2"/><circle cx="255.4" cy="25.6" r="1.2"/><circle cx="255.0" cy="85.0" r="1.2"/><circle cx="271.7" cy="8.0" r="1.2"/><circle cx="285.2" cy="39.3" r="1.2"/><circle cx="301.3" cy="39.3" r="1.2"/><circle cx="195.3" cy="242.0" r="1.2"/><circle cx="343.6" cy="207.9" r="1.2"/><circle cx="258.9" cy="191.1" r="1.2"/><circle cx="258.9" cy="175.6" r="1.2"/><circle cx="222.4" cy="227.5" r="1.2"/><circle cx="235.7" cy="201.4" r="1.2"/><circle cx="313.0" cy="161.2" r="1.2"/><circle cx="323.7" cy="161.2" r="1.2"/><circle cx="331.0" cy="179.0" r="1.2"/><circle cx="271.9" cy="187.3" r="1.2"/></g><g fill="#0a1a24" stroke="none"></g></g><text x="1362.0" y="280" text-anchor="middle" fill="#5cc8e0" font-size="11" font-family="monospace">neur high (368)</text></svg>