<svg xmlns="http://www.w3.org/2000/svg" viewBox="0 0 1570 360"><rect width="1570" height="360" fill="#0a1a24"/><g transform="translate(10,10)"><rect width="380" height="300" fill="none" stroke="#1a5a6e" stroke-width="0.5"/><g fill="none" stroke="#5cc8e0" stroke-opacity="0.7"><path d="M20,300 L20,252 L8,216" stroke-width="2.0"/><path d="M140,0 L140,92 L164,116 L192,116" stroke-width="2.9"/><path d="M340,0 L340,68" stroke-width="1.5"/><path d="M356,0 L356,96 L372,140" stroke-width="1.5"/><path d="M84,0 L84,112 L52,144 L8,144" stroke-width="2.3"/><path d="M100,0 L100,152 L72,180 L40,180" stroke-width="2.3"/><path d="M40,180 L52,144" stroke-width="1.4"/><path d="M152,300 L152,256 L168,240 L208,240" stroke-width="2.8"/><path d="M328,300 L328,232 L364,196 L372,196" stroke-width="2.2"/><path d="M48,300 L48,192" stroke-width="2.3"/><path d="M260,300 L260,232" stroke-width="2.7"/><path d="M32,300 L32,208 L8,176" stroke-width="2.0"/><path d="M76,300 L76,276" stroke-width="2.1"/><path d="M92,300 L92,232" stroke-width="2.1"/><path d="M220,300 L220,224" stroke-width="2.9"/><path d="M140,300 L140,260" stroke-width="2.1"/><path d="M208,0 L208,32 L240,64 L312,64" stroke-width="2.6"/><path d="M280,0 L280,40" stroke-width="2.0"/><path d="M352,300 L352,252" stroke-width="3.7"/><path d="M28,0 L28,28 L8,60" stroke-width="1.0"/><path d="M152,0 L152,60" stroke-width="2.7"/><path d="M164,0 L164,84" stroke-width="2.6"/><path d="M264,0 L264,32" stroke-width="2.1"/><path d="M112,0 L112,28" stroke-width="2.0"/><path d="M64,0 L64,24" stroke-width="2.7"/><path d="M-4,0 L8,28" stroke-width="3.0"/><path d="M40,0 L40,44" stroke-width="2.0"/><path d="M176,0 L176,44" stroke-width="1.8"/><path d="M172,300 L172,264" stroke-width="3.1"/><path d="M368,300 L368,236" stroke-width="2.3"/><path d="M288,300 L288,264" stroke-width="2.3"/><path d="M304,300 L304,228" stroke-width="2.3"/><path d="M272,300 L272,252" stroke-width="2.3"/><path d="M-8,300 L8,276" stroke-width="2.6"/><path d="M52,0 L52,68" stroke-width="3.2"/><path d="M104,300 L104,272" stroke-width="1.8"/><path d="M204,300 L204,268" stroke-width="2.6"/><path d="M236,300 L236,268" stroke-width="2.1"/><path d="M184,300 L184,272" stroke-width="3.0"/><path d="M192,0 L192,24" stroke-width="2.8"/><path d="M224,0 L224,28" stroke-width="3.0"/><path d="M300,0 L300,32" stroke-width="2.0"/><path d="M316,300 L316,276" stroke-width="3.1"/><path d="M372,0 L372,76" stroke-width="2.7"/><path d="M320,0 L320,28" stroke-width="2.8"/><path d="M116,300 L116,252" stroke-width="1.9"/><path d="M128,300 L128,268" stroke-width="1.9"/><path d="M236,0 L236,32" stroke-width="2.5"/><path d="M248,300 L248,240" stroke-width="2.5"/></g><g fill="#5cc8e0" stroke="none" fill-opacity="0.9"><circle cx="8" cy="216" r="5.6"/><circle cx="192" cy="116" r="5.9"/><circle cx="340" cy="68" r="5.1"/><circle cx="372" cy="140" r="5.1"/><circle cx="8" cy="144" r="4.9"/><circle cx="40" cy="180" r="4.9"/><circle cx="208" cy="240" r="2.5"/><circle cx="372" cy="196" r="4.3"/><circle cx="48" cy="192" r="6.4"/><circle cx="260" cy="232" r="5.5"/><circle cx="8" cy="176" r="2.8"/><circle cx="76" cy="276" r="5.6"/><circle cx="92" cy="232" r="5.6"/><circle cx="220" cy="224" r="6.9"/><circle cx="140" cy="260" r="3.3"/><circle cx="312" cy="64" r="3.9"/><circle cx="280" cy="40" r="6.2"/><circle cx="352" cy="252" r="4.9"/><circle cx="8" cy="60" r="3.9"/><circle cx="152" cy="60" r="5.3"/><circle cx="164" cy="84" r="6.0"/><circle cx="264" cy="32" r="4.0"/><circle cx="112" cy="28" r="6.3"/><circle cx="64" cy="24" r="5.2"/><circle cx="8" cy="28" r="2.7"/><circle cx="40" cy="44" r="4.7"/><circle cx="176" cy="44" r="2.5"/><circle cx="172" cy="264" r="4.8"/><circle cx="368" cy="236" r="6.1"/><circle cx="288" cy="264" r="4.6"/><circle cx="304" cy="228" r="4.6"/><circle cx="272" cy="252" r="5.1"/><circle cx="8" cy="276" r="5.1"/><circle cx="52" cy="68" r="4.0"/><circle cx="104" cy="272" r="4.1"/><circle cx="204" cy="268" r="3.2"/><circle cx="236" cy="268" r="2.5"/><circle cx="184" cy="272" r="6.5"/><circle cx="192" cy="24" r="3.7"/><circle cx="224" cy="28" r="5.8"/><circle cx="300" cy="32" r="3.1"/><circle cx="316" cy="276" r="6.0"/><circle cx="372" cy="76" r="5.3"/><circle cx="320" cy="28" r="4.8"/><circle cx="116" cy="252" r="3.6"/><circle cx="128" cy="268" r="6.0"/><circle cx="236" cy="32" r="7.2"/><circle cx="248" cy="240" r="4.5"/></g><g fill="#0a1a24" stroke="none"><circle cx="8" cy="216" r="2.2"/><circle cx="192" cy="116" r="2.4"/><circle cx="340" cy="68" r="2.0"/><circle cx="372" cy="140" r="2.0"/><circle cx="8" cy="144" r="2.0"/><circle cx="40" cy="180" r="2.0"/><circle cx="208" cy="240" r="1.0"/><circle cx="372" cy="196" r="1.7"/><circle cx="48" cy="192" r="2.6"/><circle cx="260" cy="232" r="2.2"/><circle cx="8" cy="176" r="1.1"/><circle cx="76" cy="276" r="2.2"/><circle cx="92" cy="232" r="2.2"/><circle cx="220" cy="224" r="2.8"/><circle cx="140" cy="260" r="1.3"/><circle cx="312" cy="64" r="1.6"/><circle cx="280" cy="40" r="2.5"/><circle cx="352" cy="252" r="1.9"/><circle cx="8" cy="60" r="1.6"/><circle cx="152" cy="60" r="2.1"/><circle cx="164" cy="84" r="2.4"/><circle cx="264" cy="32" r="1.6"/><circle cx="112" cy="28" r="2.5"/><circle cx="64" cy="24" r="2.1"/><circle cx="8" cy="28" r="1.1"/><circle cx="40" cy="44" r="1.9"/><circle cx="176" cy="44" r="1.0"/><circle cx="172" cy="264" r="1.9"/><circle cx="368" cy="236" r="2.4"/><circle cx="288" cy="264" r="1.8"/><circle cx="304" cy="228" r="1.8"/><circle cx="272" cy="252" r="2.0"/><circle cx="8" cy="276" r="2.0"/><circle cx="52" cy="68" r="1.6"/><circle cx="104" cy="272" r="1.7"/><circle cx="204" cy="268" r="1.3"/><circle cx="236" cy="268" r="1.0"/><circle cx="184" cy="272" r="2.6"/><circle cx="192" cy="24" r="1.5"/><circle cx="224" cy="28" r="2.3"/><circle cx="300" cy="32" r="1.3"/><circle cx="316" cy="276" r="2.4"/><circle cx="372" cy="76" r="2.1"/><circle cx="320" cy="28" r="1.9"/><circle cx="116" cy="252" r="1.4"/><circle cx="128" cy="268" r="2.4"/><circle cx="236" cy="32" r="2.9"/><circle cx="248" cy="240" r="1.8"/></g></g><text x="200.0" y="335" text-anchor="middle" fill="#5cc8e0" font-size="13" font-family="monospace">uniform (145)</text><g transform="translate(400,10)"><rect width="380" height="300" fill="none" stroke="#1a5a6e" stroke-width="0.5"/><g fill="none" stroke="#5cc8e0" stroke-opacity="0.7"><path d="M20,300 L20,252 L8,216" stroke-width="2.0"/><path d="M140,0 L140,92 L164,116 L192,116" stroke-width="2.9"/><path d="M340,0 L340,68" stroke-width="1.5"/><path d="M356,0 L356,96 L372,140" stroke-width="1.5"/><path d="M84,0 L84,112 L52,144 L8,144" stroke-width="2.3"/><path d="M100,0 L100,152 L72,180 L40,180" stroke-width="2.3"/><path d="M40,180 L52,144" stroke-width="1.4"/><path d="M152,300 L152,256 L168,240 L208,240" stroke-width="2.8"/><path d="M328,300 L328,232 L364,196 L372,196" stroke-width="2.2"/><path d="M48,300 L48,192" stroke-width="2.3"/><path d="M260,300 L260,232" stroke-width="2.7"/><path d="M140,300 L140,248 L108,216 L72,216" stroke-width="2.0"/><path d="M204,300 L204,260" stroke-width="2.9"/><path d="M220,300 L220,220" stroke-width="2.9"/><path d="M204,0 L204,56 L228,80 L288,80" stroke-width="3.3"/><path d="M152,0 L152,76" stroke-width="3.2"/><path d="M268,0 L268,24" stroke-width="2.5"/><path d="M328,0 L328,28" stroke-width="2.4"/><path d="M280,0 L280,64" stroke-width="2.8"/><path d="M292,300 L292,244" stroke-width="3.2"/><path d="M176,300 L176,260" stroke-width="2.0"/><path d="M176,0 L176,32" stroke-width="1.7"/><path d="M224,0 L224,28" stroke-width="2.5"/><path d="M240,0 L240,60" stroke-width="2.5"/><path d="M236,300 L236,252" stroke-width="3.0"/><path d="M192,0 L192,24" stroke-width="3.6"/><path d="M368,0 L368,68 L372,84" stroke-width="2.4"/><path d="M164,0 L164,48" stroke-width="3.0"/><path d="M128,300 L128,272" stroke-width="3.1"/><path d="M188,300 L188,272" stroke-width="2.0"/><path d="M248,300 L248,216 L208,176 L124,176" stroke-width="2.3"/><path d="M304,300 L304,252" stroke-width="2.1"/><path d="M276,300 L276,276" stroke-width="2.6"/><path d="M360,300 L360,272 L372,228" stroke-width="2.6"/></g><g fill="#5cc8e0" stroke="none" fill-opacity="0.9"><circle cx="8" cy="216" r="5.6"/><circle cx="192" cy="116" r="5.9"/><circle cx="340" cy="68" r="5.1"/><circle cx="372" cy="140" r="5.1"/><circle cx="8" cy="144" r="4.9"/><circle cx="40" cy="180" r="4.9"/><circle cx="208" cy="240" r="2.5"/><circle cx="372" cy="196" r="4.3"/><circle cx="48" cy="192" r="6.4"/><circle cx="260" cy="232" r="5.5"/><circle cx="72" cy="216" r="2.8"/><circle cx="204" cy="260" r="4.1"/><circle cx="220" cy="220" r="4.1"/><circle cx="288" cy="80" r="3.1"/><circle cx="152" cy="76" r="6.5"/><circle cx="268" cy="24" r="3.9"/><circle cx="328" cy="28" r="4.8"/><circle cx="280" cy="64" r="2.5"/><circle cx="292" cy="244" r="6.7"/><circle cx="176" cy="260" r="5.4"/><circle cx="176" cy="32" r="4.0"/><circle cx="224" cy="28" r="3.5"/><circle cx="240" cy="60" r="3.5"/><circle cx="236" cy="252" r="2.5"/><circle cx="192" cy="24" r="5.9"/><circle cx="372" cy="84" r="5.1"/><circle cx="164" cy="48" r="2.7"/><circle cx="128" cy="272" r="4.9"/><circle cx="188" cy="272" r="5.5"/><circle cx="124" cy="176" r="6.1"/><circle cx="304" cy="252" r="5.3"/><circle cx="276" cy="276" r="5.1"/><circle cx="372" cy="228" r="3.1"/></g><g fill="#0a1a24" stroke="none"><circle cx="8" cy="216" r="2.2"/><circle cx="192" cy="116" r="2.4"/><circle cx="340" cy="68" r="2.0"/><circle cx="372" cy="140" r="2.0"/><circle cx="8" cy="144" r="2.0"/><circle cx="40" cy="180" r="2.0"/><circle cx="208" cy="240" r="1.0"/><circle cx="372" cy="196" r="1.7"/><circle cx="48" cy="192" r="2.6"/><circle cx="260" cy="232" r="2.2"/><circle cx="72" cy="216" r="1.1"/><circle cx="204" cy="260" r="1.6"/><circle cx="220" cy="220" r="1.6"/><circle cx="288" cy="80" r="1.2"/><circle cx="152" cy="76" r="2.6"/><circle cx="268" cy="24" r="1.6"/><circle cx="328" cy="28" r="1.9"/><circle cx="280" cy="64" r="1.0"/><circle cx="292" cy="244" r="2.7"/><circle cx="176" cy="260" r="2.2"/><circle cx="176" cy="32" r="1.6"/><circle cx="224" cy="28" r="1.4"/><circle cx="240" cy="60" r="1.4"/><circle cx="236" cy="252" r="1.0"/><circle cx="192" cy="24" r="2.3"/><circle cx="372" cy="84" r="2.0"/><circle cx="164" cy="48" r="1.1"/><circle cx="128" cy="272" r="2.0"/><circle cx="188" cy="272" r="2.2"/><circle cx="124" cy="176" r="2.4"/><circle cx="304" cy="252" r="2.1"/><circle cx="276" cy="276" r="2.0"/><circle cx="372" cy="228" r="1.3"/></g></g><text x="590.0" y="335" text-anchor="middle" fill="#5cc8e0" font-size="13" font-family="monospace">left-to-right (100)</text><g transform="translate(790,10)"><rect width="380" height="300" fill="none" stroke="#1a5a6e" stroke-width="0.5"/><g fill="none" stroke="#5cc8e0" stroke-opacity="0.7"><path d="M20,300 L20,252 L8,216" stroke-width="2.0"/><path d="M140,0 L140,92 L164,116 L192,116" stroke-width="2.9"/><path d="M264,300 L264,260" stroke-width="1.3"/><path d="M280,300 L280,224 L256,200 L232,200" stroke-width="1.3"/><path d="M76,300 L76,208 L32,164 L8,164" stroke-width="3.0"/><path d="M176,0 L176,40" stroke-width="2.8"/><path d="M192,0 L192,84" stroke-width="2.8"/><path d="M48,0 L48,108 L84,144 L128,144" stroke-width="2.1"/><path d="M208,0 L208,140 L172,176 L136,176" stroke-width="1.7"/><path d="M260,0 L260,76 L304,120 L372,120" stroke-width="1.7"/><path d="M148,300 L148,264 L180,232 L268,232" stroke-width="2.5"/><path d="M216,300 L216,272" stroke-width="2.6"/><path d="M32,300 L32,216 L8,180" stroke-width="2.3"/><path d="M92,0 L92,24" stroke-width="2.6"/><path d="M108,0 L108,52" stroke-width="2.6"/><path d="M32,0 L32,44" stroke-width="2.6"/><path d="M76,0 L76,28" stroke-width="2.4"/><path d="M152,0 L152,64" stroke-width="2.8"/><path d="M220,0 L220,44" stroke-width="2.6"/><path d="M344,300 L344,264" stroke-width="2.8"/><path d="M300,300 L300,260" stroke-width="2.8"/><path d="M328,0 L328,52 L368,92 L372,92" stroke-width="2.3"/><path d="M132,300 L132,276" stroke-width="3.7"/><path d="M164,0 L164,28" stroke-width="2.0"/><path d="M168,300 L168,264 L188,244 L212,244" stroke-width="2.2"/><path d="M192,300 L192,268" stroke-width="2.1"/><path d="M236,0 L236,48" stroke-width="2.7"/><path d="M204,300 L204,276" stroke-width="2.8"/><path d="M248,0 L248,28" stroke-width="3.0"/><path d="M272,0 L272,48" stroke-width="2.4"/><path d="M232,300 L232,256" stroke-width="2.3"/></g><g fill="#5cc8e0" stroke="none" fill-opacity="0.9"><circle cx="8" cy="216" r="5.6"/><circle cx="192" cy="116" r="5.9"/><circle cx="264" cy="260" r="2.6"/><circle cx="232" cy="200" r="2.6"/><circle cx="8" cy="164" r="4.0"/><circle cx="176" cy="40" r="3.6"/><circle cx="192" cy="84" r="3.6"/><circle cx="128" cy="144" r="5.4"/><circle cx="136" cy="176" r="6.2"/><circle cx="372" cy="120" r="5.8"/><circle cx="268" cy="232" r="2.5"/><circle cx="216" cy="272" r="5.0"/><circle cx="8" cy="180" r="4.4"/><circle cx="92" cy="24" r="4.1"/><circle cx="108" cy="52" r="4.1"/><circle cx="32" cy="44" r="3.9"/><circle cx="76" cy="28" r="4.8"/><circle cx="152" cy="64" r="2.5"/><circle cx="220" cy="44" r="3.4"/><circle cx="344" cy="264" r="5.8"/><circle cx="300" cy="260" r="6.4"/><circle cx="372" cy="92" r="5.0"/><circle cx="132" cy="276" r="4.8"/><circle cx="164" cy="28" r="2.5"/><circle cx="212" cy="244" r="3.9"/><circle cx="192" cy="268" r="4.4"/><circle cx="236" cy="48" r="4.6"/><circle cx="204" cy="276" r="5.9"/><circle cx="248" cy="28" r="2.7"/><circle cx="272" cy="48" r="3.5"/><circle cx="232" cy="256" r="4.3"/></g><g fill="#0a1a24" stroke="none"><circle cx="8" cy="216" r="2.2"/><circle cx="192" cy="116" r="2.4"/><circle cx="264" cy="260" r="1.0"/><circle cx="232" cy="200" r="1.0"/><circle cx="8" cy="164" r="1.6"/><circle cx="176" cy="40" r="1.4"/><circle cx="192" cy="84" r="1.4"/><circle cx="128" cy="144" r="2.1"/><circle cx="136" cy="176" r="2.5"/><circle cx="372" cy="120" r="2.3"/><circle cx="268" cy="232" r="1.0"/><circle cx="216" cy="272" r="2.0"/><circle cx="8" cy="180" r="1.8"/><circle cx="92" cy="24" r="1.7"/><circle cx="108" cy="52" r="1.7"/><circle cx="32" cy="44" r="1.6"/><circle cx="76" cy="28" r="1.9"/><circle cx="152" cy="64" r="1.0"/><circle cx="220" cy="44" r="1.3"/><circle cx="344" cy="264" r="2.3"/><circle cx="300" cy="260" r="2.5"/><circle cx="372" cy="92" r="2.0"/><circle cx="132" cy="276" r="1.9"/><circle cx="164" cy="28" r="1.0"/><circle cx="212" cy="244" r="1.6"/><circle cx="192" cy="268" r="1.8"/><circle cx="236" cy="48" r="1.9"/><circle cx="204" cy="276" r="2.3"/><circle cx="248" cy="28" r="1.1"/><circle cx="272" cy="48" r="1.4"/><circle cx="232" cy="256" r="1.7"/></g></g><text x="980.0" y="335" text-anchor="middle" fill="#5cc8e0" font-size="13" font-family="monospace">center-out (93)</text><g transform="translate(1180,10)"><rect width="380" height="300" fill="none" stroke="#1a5a6e" stroke-width="0.5"/><g fill="none" stroke="#5cc8e0" stroke-opacity="0.7"><path d="M20,300 L20,252 L8,216" stroke-width="2.0"/><path d="M140,0 L140,92 L164,116 L192,116" stroke-width="2.9"/><path d="M340,0 L340,68" stroke-width="1.5"/><path d="M356,0 L356,96 L372,140" stroke-width="1.5"/><path d="M84,0 L84,112 L52,144 L8,144" stroke-width="2.3"/><path d="M100,0 L100,152 L72,180 L40,180" stroke-width="2.3"/><path d="M40,180 L52,144" stroke-width="1.4"/><path d="M152,300 L152,256 L168,240 L208,240" stroke-width="2.8"/><path d="M328,300 L328,232 L364,196 L372,196" stroke-width="2.2"/><path d="M48,300 L48,192" stroke-width="2.3"/><path d="M260,300 L260,232" stroke-width="2.7"/><path d="M32,300 L32,208 L8,176" stroke-width="2.0"/><path d="M76,300 L76,276" stroke-width="2.1"/><path d="M92,300 L92,232" stroke-width="2.1"/><path d="M220,300 L220,224" stroke-width="2.9"/><path d="M140,300 L140,260" stroke-width="2.1"/><path d="M208,0 L208,32 L240,64 L312,64" stroke-width="2.6"/><path d="M280,0 L280,40" stroke-width="2.0"/><path d="M352,300 L352,252" stroke-width="3.7"/><path d="M28,0 L28,28 L8,60" stroke-width="1.0"/><path d="M152,0 L152,60" stroke-width="2.7"/><path d="M164,0 L164,84" stroke-width="2.6"/><path d="M264,0 L264,32" stroke-width="2.1"/><path d="M108,300 L108,260" stroke-width="2.4"/><path d="M112,0 L112,36" stroke-width="2.9"/><path d="M8,0 L8,28" stroke-width="3.4"/><path d="M48,0 L48,28" stroke-width="3.2"/><path d="M176,0 L176,44" stroke-width="2.0"/><path d="M172,300 L172,276" stroke-width="2.8"/><path d="M188,300 L188,252" stroke-width="2.8"/><path d="M312,300 L312,276" stroke-width="3.0"/><path d="M364,300 L364,272" stroke-width="3.2"/><path d="M320,0 L320,36" stroke-width="1.8"/><path d="M292,300 L292,272" stroke-width="2.9"/><path d="M4,300 L8,276" stroke-width="2.8"/><path d="M60,0 L60,84" stroke-width="3.5"/><path d="M204,300 L204,252" stroke-width="2.1"/><path d="M236,0 L236,32" stroke-width="2.3"/><path d="M196,0 L196,24" stroke-width="1.6"/><path d="M368,0 L368,60 L372,100" stroke-width="2.7"/><path d="M376,300 L372,212" stroke-width="2.6"/></g><g fill="#5cc8e0" stroke="none" fill-opacity="0.9"><circle cx="8" cy="216" r="5.6"/><circle cx="192" cy="116" r="5.9"/><circle cx="340" cy="68" r="5.1"/><circle cx="372" cy="140" r="5.1"/><circle cx="8" cy="144" r="4.9"/><circle cx="40" cy="180" r="4.9"/><circle cx="208" cy="240" r="2.5"/><circle cx="372" cy="196" r="4.3"/><circle cx="48" cy="192" r="6.4"/><circle cx="260" cy="232" r="5.5"/><circle cx="8" cy="176" r="2.8"/><circle cx="76" cy="276" r="5.6"/><circle cx="92" cy="232" r="5.6"/><circle cx="220" cy="224" r="6.9"/><circle cx="140" cy="260" r="3.3"/><circle cx="312" cy="64" r="3.9"/><circle cx="280" cy="40" r="6.2"/><circle cx="352" cy="252" r="4.9"/><circle cx="8" cy="60" r="3.9"/><circle cx="152" cy="60" r="5.3"/><circle cx="164" cy="84" r="6.0"/><circle cx="264" cy="32" r="4.0"/><circle cx="108" cy="260" r="5.0"/><circle cx="112" cy="36" r="3.9"/><circle cx="8" cy="28" r="4.8"/><circle cx="48" cy="28" r="4.9"/><circle cx="176" cy="44" r="3.4"/><circle cx="172" cy="276" r="5.9"/><circle cx="188" cy="252" r="5.9"/><circle cx="312" cy="276" r="5.9"/><circle cx="364" cy="272" r="4.7"/><circle cx="320" cy="36" r="3.9"/><circle cx="292" cy="272" r="4.5"/><circle cx="8" cy="276" r="3.9"/><circle cx="60" cy="84" r="2.5"/><circle cx="204" cy="252" r="4.3"/><circle cx="236" cy="32" r="5.1"/><circle cx="196" cy="24" r="2.5"/><circle cx="372" cy="100" r="3.3"/><circle cx="372" cy="212" r="5.4"/></g><g fill="#0a1a24" stroke="none"><circle cx="8" cy="216" r="2.2"/><circle cx="192" cy="116" r="2.4"/><circle cx="340" cy="68" r="2.0"/><circle cx="372" cy="140" r="2.0"/><circle cx="8" cy="144" r="2.0"/><circle cx="40" cy="180" r="2.0"/><circle cx="208" cy="240" r="1.0"/><circle cx="372" cy="196" r="1.7"/><circle cx="48" cy="192" r="2.6"/><circle cx="260" cy="232" r="2.2"/><circle cx="8" cy="176" r="1.1"/><circle cx="76" cy="276" r="2.2"/><circle cx="92" cy="232" r="2.2"/><circle cx="220" cy="224" r="2.8"/><circle cx="140" cy="260" r="1.3"/><circle cx="312" cy="64" r="1.6"/><circle cx="280" cy="40" r="2.5"/><circle cx="352" cy="252" r="1.9"/><circle cx="8" cy="60" r="1.6"/><circle cx="152" cy="60" r="2.1"/><circle cx="164" cy="84" r="2.4"/><circle cx="264" cy="32" r="1.6"/><circle cx="108" cy="260" r="2.0"/><circle cx="112" cy="36" r="1.6"/><circle cx="8" cy="28" r="1.9"/><circle cx="48" cy="28" r="1.9"/><circle cx="176" cy="44" r="1.4"/><circle cx="172" cy="276" r="2.3"/><circle cx="188" cy="252" r="2.3"/><circle cx="312" cy="276" r="2.3"/><circle cx="364" cy="272" r="1.9"/><circle cx="320" cy="36" r="1.6"/><circle cx="292" cy="272" r="1.8"/><circle cx="8" cy="276" r="1.6"/><circle cx="60" cy="84" r="1.0"/><circle cx="204" cy="252" r="1.7"/><circle cx="236" cy="32" r="2.1"/><circle cx="196" cy="24" r="1.0"/><circle cx="372" cy="100" r="1.3"/><circle cx="372" cy="212" r="2.2"/></g></g><text x="1370.0" y="335" text-anchor="middle" fill="#5cc8e0" font-size="13" font-family="monospace">edges-in (121)</text></svg>