<svg xmlns="http://www.w3.org/2000/svg" viewBox="0 0 1570 360"><rect width="1570" height="360" fill="#0a1a24"/><g transform="translate(10,10)"><rect width="380" height="300" fill="none" stroke="#1a5a6e" stroke-width="0.5"/><g fill="none" stroke="#5cc8e0" stroke-opacity="0.7"><path d="M100,300 L100,144 L136,108 L164,108" stroke-width="2.6"/><path d="M168,300 L168,208" stroke-width="2.7"/><path d="M184,300 L184,168" stroke-width="2.7"/><path d="M168,0 L168,80" stroke-width="2.2"/><path d="M184,0 L184,108" stroke-width="2.2"/><path d="M144,300 L144,212" stroke-width="2.9"/><path d="M52,0 L52,92 L8,136" stroke-width="2.1"/><path d="M240,300 L240,172 L212,144 L164,144" stroke-width="2.8"/><path d="M88,300 L88,140" stroke-width="3.1"/><path d="M300,300 L300,144 L324,120 L372,120" stroke-width="1.4"/><path d="M132,300 L132,156" stroke-width="1.7"/></g><g fill="#5cc8e0" stroke="none" fill-opacity="0.9"><circle cx="164" cy="108" r="5.2"/><circle cx="168" cy="208" r="3.9"/><circle cx="184" cy="168" r="3.9"/><circle cx="168" cy="80" r="4.4"/><circle cx="184" cy="108" r="4.4"/><circle cx="144" cy="212" r="5.8"/><circle cx="8" cy="136" r="3.7"/><circle cx="164" cy="144" r="3.6"/><circle cx="88" cy="140" r="3.1"/><circle cx="372" cy="120" r="4.4"/><circle cx="132" cy="156" r="6.2"/></g><g fill="#0a1a24" stroke="none"><circle cx="164" cy="108" r="2.1"/><circle cx="168" cy="208" r="1.5"/><circle cx="184" cy="168" r="1.5"/><circle cx="168" cy="80" r="1.8"/><circle cx="184" cy="108" r="1.8"/><circle cx="144" cy="212" r="2.3"/><circle cx="8" cy="136" r="1.5"/><circle cx="164" cy="144" r="1.4"/><circle cx="88" cy="140" r="1.3"/><circle cx="372" cy="120" r="1.8"/><circle cx="132" cy="156" r="2.5"/></g></g><text x="200.0" y="335" text-anchor="middle" fill="#5cc8e0" font-size="14" font-family="monospace">low (33)</text><g transform="translate(400,10)"><rect width="380" height="300" fill="none" stroke="#1a5a6e" stroke-width="0.5"/><g fill="none" stroke="#5cc8e0" stroke-opacity="0.7"><path d="M100,300 L100,144 L136,108 L164,108" stroke-width="2.6"/><path d="M204,0 L204,84" stroke-width="2.2"/><path d="M220,0 L220,124 L200,144 L144,144" stroke-width="2.2"/><path d="M240,0 L240,120" stroke-width="2.7"/><path d="M284,0 L284,88" stroke-width="1.9"/><path d="M300,0 L300,136 L336,172 L372,172" stroke-width="1.9"/><path d="M56,300 L56,140 L40,124 L8,124" stroke-width="2.8"/><path d="M72,300 L72,112 L32,72 L8,72" stroke-width="2.8"/><path d="M88,300 L88,80 L60,52 L8,52" stroke-width="2.8"/><path d="M304,300 L304,184" stroke-width="2.8"/><path d="M132,300 L132,156" stroke-width="1.7"/><path d="M152,300 L152,168" stroke-width="2.4"/><path d="M252,0 L252,224" stroke-width="2.1"/><path d="M44,300 L44,156" stroke-width="3.2"/><path d="M176,0 L176,104" stroke-width="2.5"/><path d="M272,0 L272,180" stroke-width="3.3"/><path d="M116,0 L116,88" stroke-width="3.2"/></g><g fill="#5cc8e0" stroke="none" fill-opacity="0.9"><circle cx="164" cy="108" r="5.2"/><circle cx="204" cy="84" r="4.7"/><circle cx="144" cy="144" r="4.7"/><circle cx="240" cy="120" r="5.0"/><circle cx="284" cy="88" r="5.0"/><circle cx="372" cy="172" r="5.0"/><circle cx="8" cy="124" r="2.5"/><circle cx="8" cy="72" r="2.5"/><circle cx="8" cy="52" r="2.5"/><circle cx="304" cy="184" r="4.1"/><circle cx="132" cy="156" r="6.2"/><circle cx="152" cy="168" r="6.8"/><circle cx="252" cy="224" r="7.5"/><circle cx="44" cy="156" r="5.9"/><circle cx="176" cy="104" r="5.3"/><circle cx="272" cy="180" r="3.4"/><circle cx="116" cy="88" r="3.0"/></g><g fill="#0a1a24" stroke="none"><circle cx="164" cy="108" r="2.1"/><circle cx="204" cy="84" r="1.9"/><circle cx="144" cy="144" r="1.9"/><circle cx="240" cy="120" r="2.0"/><circle cx="284" cy="88" r="2.0"/><circle cx="372" cy="172" r="2.0"/><circle cx="8" cy="124" r="1.0"/><circle cx="8" cy="72" r="1.0"/><circle cx="8" cy="52" r="1.0"/><circle cx="304" cy="184" r="1.6"/><circle cx="132" cy="156" r="2.5"/><circle cx="152" cy="168" r="2.7"/><circle cx="252" cy="224" r="3.0"/><circle cx="44" cy="156" r="2.4"/><circle cx="176" cy="104" r="2.1"/><circle cx="272" cy="180" r="1.4"/><circle cx="116" cy="88" r="1.2"/></g></g><text x="590.0" y="335" text-anchor="middle" fill="#5cc8e0" font-size="14" font-family="monospace">medium (51)</text><g transform="translate(790,10)"><rect width="380" height="300" fill="none" stroke="#1a5a6e" stroke-width="0.5"/><g fill="none" stroke="#5cc8e0" stroke-opacity="0.7"><path d="M100,300 L100,144 L136,108 L164,108" stroke-width="2.6"/><path d="M204,0 L204,84" stroke-width="2.2"/><path d="M220,0 L220,124 L200,144 L144,144" stroke-width="2.2"/><path d="M240,0 L240,120" stroke-width="2.7"/><path d="M284,0 L284,88" stroke-width="1.9"/><path d="M300,0 L300,136 L336,172 L372,172" stroke-width="1.9"/><path d="M56,300 L56,140 L40,124 L8,124" stroke-width="2.8"/><path d="M72,300 L72,112 L56,96 L8,96" stroke-width="2.8"/><path d="M88,300 L88,80 L60,52 L8,52" stroke-width="2.8"/><path d="M304,300 L304,184" stroke-width="2.8"/><path d="M132,300 L132,156" stroke-width="1.7"/><path d="M152,300 L152,168" stroke-width="2.4"/><path d="M252,0 L252,224" stroke-width="2.1"/><path d="M268,0 L268,264" stroke-width="2.1"/><path d="M44,300 L44,156" stroke-width="3.2"/><path d="M176,0 L176,104" stroke-width="2.5"/><path d="M120,0 L120,80" stroke-width="2.6"/><path d="M312,0 L312,116" stroke-width="2.4"/><path d="M160,0 L160,96" stroke-width="2.8"/><path d="M24,300 L24,208" stroke-width="1.7"/><path d="M284,300 L284,100" stroke-width="1.6"/><path d="M164,300 L164,172" stroke-width="3.5"/><path d="M144,0 L144,84" stroke-width="3.0"/><path d="M176,300 L176,192" stroke-width="1.8"/><path d="M192,300 L192,160" stroke-width="1.8"/></g><g fill="#5cc8e0" stroke="none" fill-opacity="0.9"><circle cx="164" cy="108" r="5.2"/><circle cx="204" cy="84" r="4.7"/><circle cx="144" cy="144" r="4.7"/><circle cx="240" cy="120" r="5.0"/><circle cx="284" cy="88" r="5.0"/><circle cx="372" cy="172" r="5.0"/><circle cx="8" cy="124" r="2.5"/><circle cx="8" cy="96" r="2.5"/><circle cx="8" cy="52" r="2.5"/><circle cx="304" cy="184" r="4.1"/><circle cx="132" cy="156" r="6.2"/><circle cx="152" cy="168" r="6.8"/><circle cx="252" cy="224" r="7.5"/><circle cx="268" cy="264" r="7.5"/><circle cx="44" cy="156" r="5.9"/><circle cx="176" cy="104" r="5.3"/><circle cx="120" cy="80" r="3.4"/><circle cx="312" cy="116" r="4.2"/><circle cx="160" cy="96" r="6.8"/><circle cx="24" cy="208" r="4.0"/><circle cx="284" cy="100" r="5.6"/><circle cx="164" cy="172" r="5.6"/><circle cx="144" cy="84" r="2.8"/><circle cx="176" cy="192" r="4.5"/><circle cx="192" cy="160" r="4.5"/></g><g fill="#0a1a24" stroke="none"><circle cx="164" cy="108" r="2.1"/><circle cx="204" cy="84" r="1.9"/><circle cx="144" cy="144" r="1.9"/><circle cx="240" cy="120" r="2.0"/><circle cx="284" cy="88" r="2.0"/><circle cx="372" cy="172" r="2.0"/><circle cx="8" cy="124" r="1.0"/><circle cx="8" cy="96" r="1.0"/><circle cx="8" cy="52" r="1.0"/><circle cx="304" cy="184" r="1.6"/><circle cx="132" cy="156" r="2.5"/><circle cx="152" cy="168" r="2.7"/><circle cx="252" cy="224" r="3.0"/><circle cx="268" cy="264" r="3.0"/><circle cx="44" cy="156" r="2.4"/><circle cx="176" cy="104" r="2.1"/><circle cx="120" cy="80" r="1.3"/><circle cx="312" cy="116" r="1.7"/><circle cx="160" cy="96" r="2.7"/><circle cx="24" cy="208" r="1.6"/><circle cx="284" cy="100" r="2.3"/><circle cx="164" cy="172" r="2.3"/><circle cx="144" cy="84" r="1.1"/><circle cx="176" cy="192" r="1.8"/><circle cx="192" cy="160" r="1.8"/></g></g><text x="980.0" y="335" text-anchor="middle" fill="#5cc8e0" font-size="14" font-family="monospace">high (75)</text><g transform="translate(1180,10)"><rect width="380" height="300" fill="none" stroke="#1a5a6e" stroke-width="0.5"/><g fill="none" stroke="#5cc8e0" stroke-opacity="0.7"><path d="M100,300 L100,144 L136,108 L164,108" stroke-width="2.6"/><path d="M204,0 L204,84" stroke-width="2.2"/><path d="M220,0 L220,124 L200,144 L144,144" stroke-width="2.2"/><path d="M240,0 L240,120" stroke-width="2.7"/><path d="M60,300 L60,128 L20,88 L8,88" stroke-width="1.6"/><path d="M76,300 L76,92 L32,48 L8,48" stroke-width="1.6"/><path d="M280,300 L280,184 L264,168 L216,168" stroke-width="2.2"/><path d="M296,300 L296,140" stroke-width="2.2"/><path d="M312,300 L312,96" stroke-width="2.2"/><path d="M332,0 L332,160 L364,192 L372,192" stroke-width="2.1"/><path d="M300,0 L300,100" stroke-width="2.0"/><path d="M116,300 L116,160" stroke-width="2.8"/><path d="M256,0 L256,128" stroke-width="2.5"/><path d="M272,0 L272,152" stroke-width="2.5"/><path d="M160,300 L160,192" stroke-width="3.2"/><path d="M324,300 L324,172" stroke-width="2.7"/><path d="M32,300 L32,208" stroke-width="1.6"/><path d="M48,300 L48,168" stroke-width="1.6"/><path d="M88,0 L88,144" stroke-width="1.0"/><path d="M128,300 L128,212" stroke-width="3.1"/><path d="M144,300 L144,164" stroke-width="3.1"/><path d="M268,300 L268,192" stroke-width="2.8"/><path d="M248,300 L248,208 L228,188 L204,188" stroke-width="3.1"/><path d="M336,300 L336,188" stroke-width="2.4"/><path d="M180,0 L180,88" stroke-width="3.2"/><path d="M100,0 L100,116" stroke-width="2.2"/><path d="M408,0 L372,292" stroke-width="3.1"/><path d="M172,300 L172,156" stroke-width="2.1"/></g><g fill="#5cc8e0" stroke="none" fill-opacity="0.9"><circle cx="164" cy="108" r="5.2"/><circle cx="204" cy="84" r="4.7"/><circle cx="144" cy="144" r="4.7"/><circle cx="240" cy="120" r="5.0"/><circle cx="8" cy="88" r="3.9"/><circle cx="8" cy="48" r="3.9"/><circle cx="216" cy="168" r="5.3"/><circle cx="296" cy="140" r="5.3"/><circle cx="312" cy="96" r="5.3"/><circle cx="372" cy="192" r="4.9"/><circle cx="300" cy="100" r="2.8"/><circle cx="116" cy="160" r="4.3"/><circle cx="256" cy="128" r="4.4"/><circle cx="272" cy="152" r="4.4"/><circle cx="160" cy="192" r="3.1"/><circle cx="324" cy="172" r="4.0"/><circle cx="32" cy="208" r="4.6"/><circle cx="48" cy="168" r="4.6"/><circle cx="88" cy="144" r="3.9"/><circle cx="128" cy="212" r="5.2"/><circle cx="144" cy="164" r="5.2"/><circle cx="268" cy="192" r="8.5"/><circle cx="204" cy="188" r="5.8"/><circle cx="336" cy="188" r="7.2"/><circle cx="180" cy="88" r="2.5"/><circle cx="100" cy="116" r="4.3"/><circle cx="372" cy="292" r="5.7"/><circle cx="172" cy="156" r="6.1"/></g><g fill="#0a1a24" stroke="none"><circle cx="164" cy="108" r="2.1"/><circle cx="204" cy="84" r="1.9"/><circle cx="144" cy="144" r="1.9"/><circle cx="240" cy="120" r="2.0"/><circle cx="8" cy="88" r="1.5"/><circle cx="8" cy="48" r="1.5"/><circle cx="216" cy="168" r="2.1"/><circle cx="296" cy="140" r="2.1"/><circle cx="312" cy="96" r="2.1"/><circle cx="372" cy="192" r="2.0"/><circle cx="300" cy="100" r="1.1"/><circle cx="116" cy="160" r="1.7"/><circle cx="256" cy="128" r="1.8"/><circle cx="272" cy="152" r="1.8"/><circle cx="160" cy="192" r="1.3"/><circle cx="324" cy="172" r="1.6"/><circle cx="32" cy="208" r="1.8"/><circle cx="48" cy="168" r="1.8"/><circle cx="88" cy="144" r="1.6"/><circle cx="128" cy="212" r="2.1"/><circle cx="144" cy="164" r="2.1"/><circle cx="268" cy="192" r="3.4"/><circle cx="204" cy="188" r="2.3"/><circle cx="336" cy="188" r="2.9"/><circle cx="180" cy="88" r="1.0"/><circle cx="100" cy="116" r="1.7"/><circle cx="372" cy="292" r="2.3"/><circle cx="172" cy="156" r="2.4"/></g></g><text x="1370.0" y="335" text-anchor="middle" fill="#5cc8e0" font-size="14" font-family="monospace">dense (84)</text></svg>