<?xml version="1.0"?>
<svg xmlns="http://www.w3.org/2000/svg" viewBox="0 0 1180 890" width="1180" height="890">
<style>
.panel { fill: #0a1a24; }
path { fill: none; stroke: #5cc8e0; stroke-linecap: round; stroke-linejoin: round; }
circle { fill: #5cc8e0; }
.bg { fill: #0a1a24; }
</style>
<rect class="bg" width="100%" height="100%"/>
<g transform="translate(12,12)">
<clipPath id="clip0"><rect width="280" height="200"/></clipPath>
<g clip-path="url(#clip0)">
<rect class="panel" width="280" height="200"/>
<path d="M160.0,200.0 L152.0,200.0" stroke-width="2.7"/>
<path d="M160.0,200.0 L184.0,200.0" stroke-width="3.3"/>
<path d="M128.0,200.0 L152.0,200.0" stroke-width="2.9"/>
</g>
<text x="4" y="196" font-family="monospace" font-size="8" fill="#5cc8e0">R1C1 circuit-low bottom-up LOW</text>
<text x="276" y="196" text-anchor="end" font-family="monospace" font-size="8" fill="#d4a04a">3el 0ms</text>
</g>
<g transform="translate(304,12)">
<clipPath id="clip1"><rect width="280" height="200"/></clipPath>
<g clip-path="url(#clip1)">
<rect class="panel" width="280" height="200"/>
<path d="M0.0,132.0 L0.0,140.0" stroke-width="2.4"/>
<path d="M0.0,156.0 L0.0,140.0" stroke-width="3.9"/>
<path d="M0.0,60.0 L0.0,60.0" stroke-width="2.1"/>
<path d="M0.0,60.0 L0.0,36.0" stroke-width="0.9"/>
<path d="M0.0,60.0 L0.0,64.0" stroke-width="0.8"/>
<path d="M0.0,84.0 L0.0,84.0" stroke-width="0.8"/>
<path d="M0.0,84.0 L0.0,88.0" stroke-width="1.7"/>
<path d="M0.0,140.0 L0.0,140.0" stroke-width="2.6"/>
</g>
<text x="4" y="196" font-family="monospace" font-size="8" fill="#5cc8e0">R1C2 circuit-medium left-right MED</text>
<text x="276" y="196" text-anchor="end" font-family="monospace" font-size="8" fill="#d4a04a">8el 1ms</text>
</g>
<g transform="translate(596,12)">
<clipPath id="clip2"><rect width="280" height="200"/></clipPath>
<g clip-path="url(#clip2)">
<rect class="panel" width="280" height="200"/>
<path d="M92.0,0.0 L92.0,0.0" stroke-width="0.8"/>
<path d="M92.0,0.0 L108.0,0.0 L132.0,0.0 L156.0,0.0 L180.0,0.0 L204.0,0.0" stroke-width="1.1"/>
<path d="M32.0,0.0 L20.0,0.0" stroke-width="2.1"/>
<path d="M32.0,0.0 L44.0,0.0 L56.0,0.0" stroke-width="0.8"/>
<path d="M176.0,200.0 L152.0,200.0 L128.0,200.0 L104.0,200.0" stroke-width="1.7"/>
<path d="M52.0,200.0 L48.0,200.0" stroke-width="1.7"/>
<path d="M52.0,200.0 L60.0,200.0" stroke-width="2.1"/>
<path d="M76.0,200.0 L72.0,200.0" stroke-width="2.6"/>
<path d="M76.0,200.0 L80.0,200.0 L84.0,200.0" stroke-width="2.3"/>
<path d="M104.0,200.0 L100.0,200.0" stroke-width="1.7"/>
</g>
<text x="4" y="196" font-family="monospace" font-size="8" fill="#5cc8e0">R1C3 circuit-high top+bot HIGH</text>
<text x="276" y="196" text-anchor="end" font-family="monospace" font-size="8" fill="#d4a04a">10el 2ms</text>
</g>
<g transform="translate(888,12)">
<clipPath id="clip3"><rect width="280" height="200"/></clipPath>
<g clip-path="url(#clip3)">
<rect class="panel" width="280" height="200"/>
<path d="M128.0,200.0 L104.0,200.0 L80.0,200.0 L64.0,200.0" stroke-width="4.0"/>
<path d="M64.0,200.0 L64.0,200.0" stroke-width="2.2"/>
</g>
<text x="4" y="196" font-family="monospace" font-size="8" fill="#5cc8e0">R1C4 circuit-medium BL-TR diag MED</text>
<text x="276" y="196" text-anchor="end" font-family="monospace" font-size="8" fill="#d4a04a">2el 1ms</text>
</g>
<g transform="translate(12,224)">
<clipPath id="clip4"><rect width="280" height="200"/></clipPath>
<g clip-path="url(#clip4)">
<rect class="panel" width="280" height="200"/>
<path d="M19.8,200.0 Q20.7,193.9 21.3,190.9 Q21.9,187.9 22.4,184.8 Q22.8,181.8 23.2,178.7 Q23.7,175.7 24.0,172.6 Q24.4,169.6 24.7,166.5 Q25.1,163.4 25.5,160.4 Q25.9,157.3 26.3,154.3 Q26.7,151.2 27.1,148.2 Q27.5,145.1 27.9,142.1 Q28.3,139.0 28.8,136.0 Q29.3,132.9 29.8,129.9 Q30.3,126.8 30.9,123.8 Q31.5,120.8 32.2,117.8 Q32.8,114.8 33.5,111.8 Q34.2,108.8 34.9,105.8 Q35.6,102.8 36.2,99.8 Q36.9,96.8 37.5,93.7 Q38.2,90.7 38.7,87.7 Q39.2,84.7 39.6,81.6 Q40.0,78.6 40.4,75.5 Q40.7,72.4 41.1,69.4 Q41.5,66.3 42.3,63.3 Q43.0,60.4 43.7,57.4 Q44.5,54.4 45.4,51.4 T46.3,48.5" stroke-width="2.09"/>
<path d="M59.5,200.0 Q60.0,193.9 60.4,190.8 Q60.8,187.8 61.1,184.7 Q61.5,181.6 61.8,178.6 Q62.1,175.5 62.4,172.4 Q62.7,169.4 62.9,166.3 Q63.2,163.2 63.5,160.2 Q63.8,157.1 64.1,154.0 Q64.3,151.0 64.6,147.9 Q64.9,144.8 65.1,141.8 Q65.4,138.7 65.7,135.6 Q65.9,132.6 66.2,129.5 Q66.5,126.4 66.9,123.4 Q67.3,120.3 67.6,117.2 Q67.9,114.2 68.0,111.1 Q68.2,108.0 68.2,104.9 Q68.3,101.9 68.3,98.8 Q68.4,95.7 68.4,92.6 Q68.5,89.5 68.6,86.5 Q68.7,83.4 68.7,80.3 Q68.7,77.2 68.6,74.2 Q68.4,71.1 68.4,68.0 Q68.3,64.9 68.2,61.8 Q68.1,58.8 68.3,55.7 Q68.6,52.6 69.2,49.6 Q69.8,46.6 70.6,43.6 Q71.5,40.7 72.5,37.8 Q73.6,34.9 74.9,32.1 Q76.1,29.3 77.6,26.6 Q79.1,23.9 80.8,21.3 Q82.4,18.7 84.2,16.1 T85.9,13.6" stroke-width="1.24"/>
<path d="M102.1,200.0 Q102.5,193.9 102.9,190.8 Q103.3,187.7 103.6,184.7 Q103.9,181.6 104.0,178.5 Q104.1,175.5 104.4,172.4 Q104.6,169.3 104.8,166.2 Q105.0,163.2 105.1,160.1 Q105.3,157.0 105.4,153.9 Q105.5,150.9 105.6,147.8 Q105.7,144.7 105.7,141.6 Q105.6,138.5 105.4,135.5 Q105.2,132.4 104.9,129.3 Q104.5,126.3 104.2,123.2 Q103.8,120.2 103.3,117.1 Q102.8,114.1 102.3,111.0 Q101.7,108.0 101.3,105.0 Q100.9,101.9 100.6,98.8 Q100.2,95.8 99.8,92.7 Q99.4,89.7 99.1,86.6 Q98.7,83.6 98.5,80.5 Q98.3,77.4 98.0,74.3 Q97.7,71.3 97.7,68.2 Q97.6,65.1 97.7,62.0 Q97.9,59.0 98.2,55.9 Q98.6,52.8 99.1,49.8 Q99.7,46.8 100.3,43.8 Q100.9,40.8 101.4,37.7 Q102.0,34.7 102.7,31.7 Q103.4,28.7 104.6,25.9 Q105.8,23.0 107.4,20.4 Q108.9,17.7 110.6,15.2 T112.4,12.6" stroke-width="0.80"/>
<path d="M157.3,200.0 Q157.4,193.8 157.5,190.8 Q157.6,187.7 157.9,184.6 T158.2,181.6" stroke-width="0.54"/>
<path d="M216.8,200.0 Q215.9,193.9 215.3,190.9 Q214.7,187.9 214.3,184.8 Q213.8,181.8 213.4,178.7 T213.0,175.7" stroke-width="0.58"/>
<path d="M275.0,200.0 Q273.7,194.0 272.8,191.0 T272.0,188.1" stroke-width="2.42"/>
<path d="M272.0,188.1 L270.0,182.2" stroke-width="1.01"/>
<path d="M158.2,181.6 L158.9,175.4" stroke-width="0.20"/>
<path d="M270.0,182.2 Q267.8,176.5 266.7,173.6 Q265.6,170.7 264.5,167.9 Q263.4,165.0 262.4,162.1 Q261.4,159.1 260.4,156.2 Q259.5,153.3 258.4,150.4 Q257.4,147.5 256.3,144.6 Q255.2,141.7 254.1,138.9 Q253.0,136.0 252.0,133.1 Q251.0,130.2 249.9,127.3 Q248.9,124.4 247.9,121.4 Q247.0,118.5 246.2,115.5 Q245.4,112.6 244.7,109.6 Q243.9,106.6 243.1,103.6 Q242.4,100.6 241.6,97.6 Q240.8,94.7 240.1,91.7 Q239.4,88.7 238.8,85.6 Q238.2,82.6 237.6,79.6 Q237.0,76.6 236.4,73.6 Q235.8,70.5 235.1,67.5 Q234.4,64.6 233.5,61.6 Q232.6,58.6 231.6,55.7 Q230.7,52.8 229.7,49.9 Q228.7,46.9 227.8,44.0 Q226.8,41.1 225.6,38.3 Q224.4,35.4 223.1,32.6 Q221.8,29.8 220.3,27.1 Q218.8,24.4 217.2,21.9 Q215.5,19.3 213.7,16.8 T212.0,14.2" stroke-width="0.88"/>
<path d="M158.9,175.4 Q159.7,169.3 160.0,166.3 Q160.3,163.2 160.2,160.1 Q160.2,157.0 160.0,154.0 Q159.8,150.9 159.6,147.8 Q159.3,144.7 159.1,141.7 Q158.9,138.6 158.7,135.5 Q158.4,132.5 158.2,129.4 Q158.0,126.3 157.7,123.2 Q157.4,120.2 157.0,117.1 Q156.7,114.1 156.4,111.0 Q156.1,107.9 155.8,104.9 Q155.4,101.8 155.1,98.7 Q154.8,95.7 154.4,92.6 Q154.0,89.6 153.7,86.5 Q153.5,83.4 153.3,80.4 Q153.1,77.3 152.9,74.2 Q152.7,71.1 152.4,68.1 Q152.1,65.0 151.9,61.9 Q151.7,58.9 151.7,55.8 Q151.8,52.7 152.0,49.6 Q152.1,46.6 152.4,43.5 Q152.6,40.4 152.9,37.3 Q153.2,34.3 153.6,31.2 Q154.0,28.2 154.4,25.1 Q154.8,22.1 154.4,19.0 Q154.1,15.9 155.2,13.0 T156.2,10.1" stroke-width="0.50"/>
<path d="M213.0,175.7 L212.0,169.6" stroke-width="0.65"/>
<path d="M212.0,169.6 Q211.1,163.5 210.6,160.4 Q210.2,157.4 209.6,154.4 Q209.1,151.3 208.5,148.3 Q207.9,145.3 207.3,142.3 Q206.7,139.2 206.3,136.2 Q205.9,133.1 205.5,130.1 Q205.1,127.0 204.7,124.0 Q204.3,120.9 203.8,117.9 Q203.3,114.8 202.9,111.8 Q202.5,108.7 202.1,105.7 Q201.7,102.6 201.2,99.6 Q200.7,96.6 200.2,93.5 Q199.6,90.5 199.2,87.4 Q198.7,84.4 198.3,81.3 Q197.9,78.3 197.4,75.3 Q196.9,72.2 196.3,69.2 T195.6,66.2" stroke-width="0.97"/>
<path d="M195.6,66.2 L194.3,60.2" stroke-width="0.20"/>
<path d="M194.3,60.2 Q193.3,54.1 192.8,51.0 Q192.4,48.0 191.9,45.0 Q191.5,41.9 190.7,38.9 Q189.9,36.0 188.8,33.1 Q187.7,30.2 186.8,27.2 T185.9,24.3" stroke-width="0.20"/>
<path d="M46.3,48.5 L48.5,42.7" stroke-width="0.20"/>
<path d="M48.5,42.7 Q51.0,37.1 52.3,34.3 Q53.5,31.5 55.1,28.8 Q56.6,26.1 58.3,23.5 Q59.9,21.0 61.7,18.4 T63.4,15.9" stroke-width="0.20"/>
<path d="M185.9,24.3 L183.6,18.6" stroke-width="0.20"/>
<path d="M183.6,18.6 L181.1,13.0" stroke-width="0.20"/>
<circle cx="63.4" cy="15.9" r="1.6"/>
<circle cx="85.9" cy="13.6" r="1.6"/>
<circle cx="112.4" cy="12.6" r="1.6"/>
<circle cx="156.2" cy="10.1" r="1.6"/>
<circle cx="181.1" cy="13.0" r="1.6"/>
<circle cx="212.0" cy="14.2" r="1.6"/>
</g>
<text x="4" y="196" font-family="monospace" font-size="8" fill="#5cc8e0">R2C1 neural-low bottom-up LOW</text>
<text x="276" y="196" text-anchor="end" font-family="monospace" font-size="8" fill="#d4a04a">24el 4ms</text>
</g>
<g transform="translate(304,224)">
<clipPath id="clip5"><rect width="280" height="200"/></clipPath>
<g clip-path="url(#clip5)">
<rect class="panel" width="280" height="200"/>
<path d="M0.0,8.4 Q6.0,10.0 8.8,11.1 Q11.7,12.2 14.6,13.3 T17.4,14.5" stroke-width="9.78"/>
<path d="M0.0,28.5 Q6.1,29.5 9.1,30.3 Q12.0,31.0 15.0,31.9 T18.0,32.7" stroke-width="2.70"/>
<path d="M0.0,40.6 Q6.1,41.5 9.1,42.1 Q12.1,42.7 15.1,43.4 Q18.1,44.1 21.1,44.8 T24.1,45.5" stroke-width="0.87"/>
<path d="M0.0,59.7 Q6.1,60.3 9.2,60.6 Q12.3,60.9 15.3,61.4 Q18.3,61.9 21.4,62.5 Q24.4,63.0 27.4,63.8 Q30.4,64.5 33.4,65.2 Q36.4,65.9 39.4,66.5 Q42.4,67.0 45.5,67.6 Q48.5,68.1 51.5,68.6 Q54.6,69.2 57.6,69.7 Q60.6,70.3 63.6,70.9 Q66.7,71.5 69.7,72.1 Q72.7,72.8 75.7,73.4 Q78.7,74.0 81.8,74.5 Q84.8,75.0 87.9,75.4 Q90.9,75.9 94.0,76.2 Q97.0,76.5 100.1,76.9 T103.2,77.2" stroke-width="8.00"/>
<path d="M0.0,73.0 L6.2,73.2" stroke-width="2.34"/>
<path d="M0.0,91.6 Q6.2,91.7 9.2,91.7 Q12.3,91.8 15.4,92.1 Q18.4,92.4 21.5,92.8 Q24.5,93.2 27.6,93.8 Q30.6,94.3 33.6,94.8 Q36.7,95.4 39.7,95.9 Q42.8,96.4 45.8,96.9 Q48.8,97.3 51.9,97.8 Q54.9,98.2 58.0,98.6 Q61.1,99.0 64.1,99.3 Q67.2,99.7 70.2,100.0 Q73.3,100.4 76.4,100.7 Q79.4,101.0 82.5,101.3 Q85.6,101.5 88.6,101.7 Q91.7,101.9 94.8,102.1 Q97.9,102.3 100.9,102.4 Q104.0,102.6 107.1,102.8 Q110.2,103.0 113.2,103.2 Q116.3,103.5 119.4,103.7 Q122.4,104.0 125.5,104.2 Q128.6,104.5 131.7,104.7 Q134.7,104.9 137.8,105.2 Q140.9,105.5 143.9,105.7 Q147.0,105.9 150.1,106.0 Q153.2,106.2 156.2,106.4 Q159.3,106.6 162.4,106.8 Q165.4,107.0 168.5,107.1 Q171.6,107.2 174.7,107.2 Q177.8,107.3 180.8,107.2 Q183.9,107.2 187.0,107.1 T190.1,107.0" stroke-width="7.91"/>
<path d="M0.0,110.7 Q6.2,110.5 9.2,110.4 Q12.3,110.3 15.4,110.4 Q18.5,110.6 21.5,110.7 Q24.6,110.9 27.7,111.3 Q30.7,111.6 33.8,112.0 Q36.9,112.4 39.9,112.7 T43.0,113.1" stroke-width="1.08"/>
<path d="M0.0,125.2 Q6.2,125.0 9.2,124.7 Q12.3,124.5 15.4,124.4 Q18.5,124.3 21.5,124.3 Q24.6,124.4 27.7,124.5 Q30.8,124.7 33.8,125.0 Q36.9,125.2 40.0,125.5 Q43.0,125.8 46.1,126.0 Q49.2,126.2 52.3,126.3 Q55.3,126.5 58.4,126.6 Q61.5,126.8 64.6,126.9 Q67.6,126.9 70.7,127.1 Q73.8,127.2 76.9,127.3 Q80.0,127.4 83.0,127.5 T86.1,127.5" stroke-width="0.29"/>
<path d="M0.0,142.0 Q6.1,141.5 9.2,141.2 Q12.3,140.8 15.3,140.7 Q18.4,140.6 21.5,140.6 Q24.6,140.5 27.7,140.6 T30.7,140.6" stroke-width="1.08"/>
<path d="M0.0,157.4 L6.1,156.7" stroke-width="1.86"/>
<path d="M0.0,173.1 Q6.1,172.1 9.1,171.5 Q12.1,170.8 15.1,170.2 Q18.1,169.6 21.2,169.1 Q24.2,168.5 27.2,168.0 Q30.3,167.5 33.3,167.2 Q36.4,166.9 39.5,166.6 Q42.5,166.3 45.6,166.0 Q48.7,165.7 51.7,165.4 Q54.8,165.1 57.9,164.8 Q60.9,164.4 64.0,164.1 Q67.0,163.7 70.1,163.3 Q73.2,163.0 76.2,162.6 Q79.3,162.3 82.3,161.9 Q85.4,161.5 88.5,161.2 Q91.5,160.8 94.6,160.3 Q97.6,159.9 100.6,159.4 Q103.7,158.9 106.7,158.3 T109.8,157.8" stroke-width="0.95"/>
<path d="M0.0,196.3 Q6.0,195.1 9.0,194.3 Q12.0,193.5 14.9,192.6 Q17.9,191.8 20.8,190.9 Q23.8,190.0 26.8,189.2 Q29.7,188.4 32.7,187.6 Q35.7,186.9 38.7,186.1 Q41.7,185.4 44.7,184.7 Q47.7,184.0 50.7,183.3 T53.7,182.6" stroke-width="2.14"/>
<path d="M6.2,73.2 L12.3,73.6" stroke-width="0.59"/>
<path d="M6.1,156.7 L12.2,155.7" stroke-width="4.18"/>
<path d="M12.3,73.6 Q18.4,74.4 21.4,75.0 Q24.5,75.6 27.5,76.3 Q30.5,77.0 33.5,77.7 T36.4,78.4" stroke-width="2.16"/>
<path d="M12.2,155.7 Q18.3,155.0 21.4,154.7 Q24.4,154.3 27.5,154.2 Q30.6,154.1 33.7,154.1 Q36.8,154.1 39.8,154.0 Q42.9,153.9 46.0,153.8 Q49.1,153.7 52.1,153.6 Q55.2,153.5 58.3,153.3 Q61.4,153.2 64.4,153.0 Q67.5,152.8 70.6,152.6 Q73.7,152.4 76.7,152.2 Q79.8,152.0 82.9,151.7 Q85.9,151.4 89.0,151.0 Q92.1,150.7 95.1,150.3 Q98.2,150.0 101.2,149.6 Q104.3,149.2 107.3,148.7 Q110.4,148.3 113.5,148.0 Q116.5,147.7 119.6,147.4 T122.7,147.1" stroke-width="2.68"/>
<path d="M17.4,14.5 L23.3,16.4" stroke-width="3.59"/>
<path d="M18.0,32.7 L23.9,34.3" stroke-width="0.20"/>
<path d="M23.3,16.4 Q29.2,18.2 32.2,19.0 Q35.1,19.8 38.2,20.4 T41.2,21.0" stroke-width="2.60"/>
<path d="M23.9,34.3 Q29.8,36.0 32.8,36.7 Q35.9,37.3 38.9,37.9 T41.9,38.4" stroke-width="1.41"/>
<path d="M24.1,45.5 L30.1,47.0" stroke-width="2.71"/>
<path d="M30.1,47.0 Q36.1,48.3 39.2,48.8 Q42.2,49.3 45.2,49.9 Q48.3,50.4 51.3,50.9 Q54.3,51.4 57.4,52.0 T60.4,52.6" stroke-width="2.70"/>
<path d="M30.7,140.6 L36.9,140.8" stroke-width="0.82"/>
<path d="M36.4,78.4 L42.5,79.7" stroke-width="5.05"/>
<path d="M36.9,140.8 Q43.0,141.1 46.1,141.2 Q49.2,141.2 52.3,141.3 Q55.4,141.3 58.4,141.3 Q61.5,141.2 64.6,141.2 Q67.7,141.1 70.8,141.0 Q73.8,141.0 76.9,140.9 Q80.0,140.8 83.1,140.7 Q86.2,140.6 89.2,140.4 Q92.3,140.3 95.4,140.1 Q98.5,139.9 101.5,139.6 Q104.6,139.4 107.7,139.1 Q110.7,138.8 113.8,138.6 T116.9,138.5" stroke-width="2.99"/>
<path d="M41.2,21.0 L47.2,22.2" stroke-width="1.23"/>
<path d="M41.9,38.4 L48.0,39.5" stroke-width="2.25"/>
<path d="M42.5,79.7 L48.5,80.9" stroke-width="0.20"/>
<path d="M43.0,113.1 L49.1,113.8" stroke-width="1.49"/>
<path d="M47.2,22.2 Q53.2,23.6 56.2,24.3 Q59.2,25.0 62.2,25.7 Q65.2,26.4 68.2,27.1 Q71.2,27.7 74.2,28.5 Q77.2,29.2 80.2,29.9 Q83.2,30.6 86.2,31.3 Q89.2,32.0 92.2,32.6 Q95.2,33.3 98.2,34.0 Q101.2,34.8 104.2,35.5 Q107.2,36.3 110.2,37.1 Q113.1,37.9 116.1,38.6 Q119.1,39.4 122.1,40.2 Q125.1,41.0 128.0,41.8 Q131.0,42.6 134.0,43.4 Q136.9,44.2 139.9,45.0 Q142.9,45.8 145.9,46.6 Q148.8,47.5 151.8,48.3 Q154.8,49.1 157.8,49.8 Q160.7,50.6 163.8,51.2 Q166.8,51.8 169.8,52.3 Q172.9,52.8 175.9,53.4 Q178.9,54.0 181.9,54.7 Q184.9,55.3 187.9,56.1 Q190.9,56.8 193.9,57.6 T196.8,58.5" stroke-width="2.12"/>
<path d="M48.0,39.5 Q54.0,40.6 57.1,41.2 Q60.1,41.8 63.1,42.3 Q66.2,42.8 69.2,43.4 Q72.2,44.0 75.2,44.6 Q78.3,45.2 81.3,45.7 Q84.3,46.3 87.3,46.8 Q90.4,47.4 93.4,47.9 Q96.4,48.5 99.5,49.1 Q102.5,49.7 105.5,50.3 Q108.5,50.9 111.5,51.6 Q114.5,52.3 117.5,53.0 Q120.5,53.7 123.5,54.5 T126.5,55.2" stroke-width="4.40"/>
<path d="M48.5,80.9 Q54.6,82.0 57.6,82.5 Q60.7,83.0 63.7,83.6 Q66.7,84.1 69.8,84.6 Q72.8,85.2 75.8,85.7 Q78.9,86.2 81.9,86.6 Q85.0,87.0 88.0,87.3 Q91.1,87.6 94.2,87.8 T97.2,88.0" stroke-width="0.93"/>
<path d="M49.1,113.8 Q55.2,114.3 58.3,114.6 Q61.4,114.9 64.4,115.1 Q67.5,115.4 70.6,115.6 Q73.6,115.8 76.7,116.0 T79.8,116.2" stroke-width="5.55"/>
<path d="M53.7,182.6 L59.7,181.2" stroke-width="3.01"/>
<path d="M60.4,52.6 L66.4,53.7" stroke-width="2.65"/>
<path d="M59.7,181.2 Q65.7,179.9 68.7,179.2 Q71.7,178.6 74.8,178.1 Q77.8,177.5 80.8,177.0 Q83.9,176.4 86.9,175.9 Q89.9,175.4 93.0,174.9 T96.0,174.3" stroke-width="0.98"/>
<path d="M66.4,53.7 Q72.5,54.9 75.5,55.5 Q78.5,56.1 81.6,56.6 Q84.6,57.1 87.6,57.6 Q90.7,58.2 93.7,58.7 Q96.7,59.2 99.8,59.7 Q102.8,60.3 105.8,60.8 Q108.9,61.4 111.9,62.0 Q114.9,62.6 117.9,63.1 Q121.0,63.7 124.0,64.3 T127.0,64.9" stroke-width="2.45"/>
<path d="M79.8,116.2 L85.9,116.5" stroke-width="0.99"/>
<path d="M85.9,116.5 Q92.1,116.6 95.2,116.6 Q98.3,116.6 101.3,116.5 T104.4,116.5" stroke-width="2.11"/>
<path d="M86.1,127.5 L92.3,127.5" stroke-width="2.16"/>
<path d="M92.3,127.5 Q98.4,127.3 101.5,127.2 Q104.6,127.0 107.7,126.9 Q110.7,126.8 113.8,126.7 T116.9,126.6" stroke-width="3.85"/>
<path d="M97.2,88.0 L103.4,88.6" stroke-width="2.69"/>
<path d="M96.0,174.3 L102.0,173.0" stroke-width="1.19"/>
<path d="M103.2,77.2 L109.3,77.8" stroke-width="2.61"/>
<path d="M103.4,88.6 Q109.5,89.2 112.6,89.6 Q115.6,90.0 118.7,90.4 T121.7,90.8" stroke-width="0.32"/>
<path d="M104.4,116.5 L110.6,116.5" stroke-width="1.86"/>
<path d="M102.0,173.0 Q108.0,171.7 111.1,171.1 Q114.1,170.5 117.1,169.8 Q120.1,169.2 123.1,168.4 Q126.1,167.7 129.1,167.0 Q132.1,166.3 135.1,165.6 Q138.1,164.9 141.1,164.3 Q144.1,163.6 147.1,162.9 Q150.1,162.2 153.1,161.5 T156.1,160.9" stroke-width="1.28"/>
<path d="M109.3,77.8 Q115.4,78.6 118.4,79.1 T121.5,79.5" stroke-width="0.57"/>
<path d="M110.6,116.5 Q116.7,116.6 119.8,116.7 Q122.9,116.7 126.0,116.8 Q129.1,116.8 132.1,116.9 Q135.2,117.0 138.3,117.1 Q141.4,117.2 144.5,117.2 Q147.5,117.3 150.6,117.3 Q153.7,117.3 156.8,117.4 Q159.9,117.4 162.9,117.3 T166.0,117.3" stroke-width="0.46"/>
<path d="M109.8,157.8 L115.8,156.9" stroke-width="1.41"/>
<path d="M116.9,126.6 L123.1,126.5" stroke-width="0.46"/>
<path d="M116.9,138.5 L123.0,138.0" stroke-width="0.76"/>
<path d="M115.8,156.9 Q121.9,155.9 125.0,155.4 Q128.0,154.8 131.0,154.3 Q134.1,153.8 137.1,153.3 Q140.1,152.7 143.2,152.2 Q146.2,151.7 149.7,147.6 T153.2,143.5" stroke-width="0.37"/>
<path d="M121.5,79.5 L127.5,80.6" stroke-width="0.90"/>
<path d="M121.7,90.8 L127.8,91.6" stroke-width="0.20"/>
<path d="M123.1,126.5 Q129.2,126.3 132.3,126.2 Q135.4,126.1 138.5,126.0 Q141.5,125.9 144.6,125.8 Q147.7,125.7 150.8,125.7 Q153.8,125.6 156.9,125.6 Q160.0,125.5 163.1,125.4 Q166.2,125.3 169.2,125.2 Q172.3,125.1 175.4,124.9 Q178.5,124.7 181.5,124.4 T184.6,124.1" stroke-width="0.26"/>
<path d="M123.0,138.0 Q129.2,137.5 132.2,137.2 Q135.3,137.0 138.4,136.7 Q141.4,136.5 144.5,136.2 Q147.6,135.9 150.6,135.7 T153.7,135.4" stroke-width="1.21"/>
<path d="M122.7,147.1 L128.8,146.4" stroke-width="1.60"/>
<path d="M126.5,55.2 L132.5,56.7" stroke-width="0.63"/>
<path d="M127.0,64.9 L133.1,66.1" stroke-width="0.80"/>
<path d="M127.5,80.6 Q133.6,81.7 136.6,82.3 Q139.6,82.9 142.7,83.5 Q145.7,84.1 148.7,84.6 Q151.8,85.1 154.8,85.7 Q157.8,86.2 160.9,86.8 Q163.9,87.3 166.9,87.8 Q170.0,88.3 173.0,88.7 Q176.1,89.2 179.1,89.5 Q182.2,89.9 185.3,90.2 Q188.3,90.6 191.4,91.0 T194.4,91.4" stroke-width="1.00"/>
<path d="M127.8,91.6 Q133.9,92.5 137.0,92.8 Q140.0,93.2 143.1,93.6 Q146.2,94.0 149.2,94.4 Q152.3,94.8 155.3,95.2 Q158.4,95.6 161.4,95.9 Q164.5,96.3 167.5,96.6 Q170.6,97.0 173.7,97.2 Q176.8,97.5 179.8,97.7 Q182.9,97.8 186.0,98.1 T189.0,98.3" stroke-width="1.07"/>
<path d="M128.8,146.4 L134.9,145.7" stroke-width="0.52"/>
<path d="M132.5,56.7 L138.4,58.2" stroke-width="0.72"/>
<path d="M133.1,66.1 Q139.1,67.4 142.1,68.1 Q145.1,68.8 148.1,69.5 Q151.1,70.2 154.1,71.0 Q157.0,71.7 160.0,72.4 Q163.1,73.1 166.1,73.8 Q169.1,74.5 172.1,75.1 Q175.1,75.8 178.1,76.3 Q181.1,76.9 184.2,77.4 Q187.2,77.9 190.2,78.5 Q193.3,79.1 196.3,79.7 Q199.3,80.4 202.3,81.1 Q205.3,81.8 208.2,82.6 Q211.2,83.4 214.2,84.3 Q217.1,85.1 220.1,85.8 T223.1,86.5" stroke-width="0.60"/>
<path d="M134.9,145.7 Q141.0,144.9 144.1,144.5 Q147.1,144.2 150.2,143.8 T153.2,143.5" stroke-width="0.35"/>
<path d="M138.4,58.2 L144.4,59.6" stroke-width="1.25"/>
<path d="M144.4,59.6 L150.4,61.1" stroke-width="0.47"/>
<path d="M150.4,61.1 L156.4,62.6" stroke-width="0.93"/>
<path d="M153.7,135.4 L159.8,134.9" stroke-width="0.20"/>
<path d="M153.2,143.5 Q159.4,142.8 162.4,142.5 Q165.5,142.2 168.6,142.0 Q171.6,141.7 175.0,137.7 T178.3,133.6" stroke-width="0.99"/>
<path d="M156.4,62.6 Q162.4,64.0 165.4,64.6 Q168.4,65.2 171.4,65.9 Q174.4,66.5 177.5,67.1 T180.5,67.7" stroke-width="0.46"/>
<path d="M159.8,134.9 Q166.0,134.5 169.1,134.3 Q172.1,134.1 175.2,133.9 T178.3,133.6" stroke-width="0.67"/>
<path d="M156.1,160.9 L162.2,159.9" stroke-width="1.13"/>
<path d="M166.0,117.3 L172.2,117.2" stroke-width="0.54"/>
<path d="M162.2,159.9 Q168.3,159.1 171.3,158.7 Q174.4,158.3 177.4,157.8 Q180.5,157.3 183.5,156.7 Q186.5,156.1 189.5,155.4 Q192.5,154.8 195.5,154.0 Q198.5,153.3 201.5,152.6 Q204.5,151.8 207.5,151.1 T210.5,150.4" stroke-width="0.75"/>
<path d="M172.2,117.2 Q178.3,116.9 181.4,116.7 Q184.5,116.5 187.5,116.2 Q190.6,116.0 193.7,115.8 T196.8,115.5" stroke-width="0.79"/>
<path d="M178.3,133.6 L184.4,132.9" stroke-width="0.25"/>
<path d="M180.5,67.7 L186.5,69.1" stroke-width="0.36"/>
<path d="M184.6,124.1 L190.7,123.4" stroke-width="0.20"/>
<path d="M184.4,132.9 L190.5,132.2" stroke-width="0.85"/>
<path d="M186.5,69.1 L192.5,70.5" stroke-width="0.35"/>
<path d="M189.0,98.3 L194.4,91.4" stroke-width="0.20"/>
<path d="M189.0,98.3 L190.1,107.0" stroke-width="0.20"/>
<path d="M190.1,107.0 L196.2,106.9" stroke-width="0.29"/>
<path d="M190.7,123.4 L196.8,115.5" stroke-width="0.50"/>
<path d="M190.5,132.2 Q196.6,131.3 199.6,130.8 Q202.7,130.3 205.7,129.8 Q208.8,129.3 211.8,128.7 Q214.8,128.0 217.8,127.6 Q220.9,127.2 224.0,126.9 Q227.0,126.7 230.1,126.4 Q233.2,126.1 236.2,125.5 Q239.2,124.9 242.2,124.4 Q245.3,123.8 248.2,123.0 Q251.2,122.1 253.9,120.7 Q256.7,119.3 257.0,114.8 T257.4,110.3" stroke-width="0.20"/>
<path d="M192.5,70.5 L198.4,72.1" stroke-width="0.63"/>
<path d="M194.4,91.4 L200.5,92.1" stroke-width="0.60"/>
<path d="M196.2,106.9 L202.4,106.8" stroke-width="0.20"/>
<path d="M196.8,115.5 L202.9,115.0" stroke-width="1.64"/>
<path d="M196.8,58.5 L202.7,60.3" stroke-width="0.23"/>
<path d="M198.4,72.1 Q204.4,73.7 207.3,74.6 Q210.3,75.5 213.2,76.5 Q216.1,77.4 219.1,78.3 Q222.0,79.2 222.6,82.8 T223.1,86.5" stroke-width="0.20"/>
<path d="M200.5,92.1 Q206.6,93.1 209.7,93.6 Q212.7,94.1 215.7,94.7 Q218.7,95.2 221.8,95.9 Q224.8,96.5 227.7,97.3 Q230.7,98.2 233.6,99.3 Q236.5,100.3 239.4,101.2 T242.4,102.1" stroke-width="0.20"/>
<path d="M202.4,106.8 L208.6,106.9" stroke-width="0.20"/>
<path d="M202.9,115.0 L209.1,114.9" stroke-width="0.49"/>
<path d="M202.7,60.3 Q208.5,62.3 211.4,63.3 Q214.3,64.4 217.3,65.4 Q220.2,66.4 223.1,67.3 Q226.1,68.1 228.9,69.3 Q231.8,70.5 234.5,71.8 Q237.3,73.1 240.1,74.4 Q242.9,75.6 245.9,76.6 Q248.8,77.5 251.7,78.6 Q254.6,79.6 257.3,81.2 Q259.9,82.7 262.5,84.4 Q265.1,86.0 267.6,87.8 T270.2,89.6" stroke-width="0.20"/>
<path d="M208.6,106.9 L214.7,107.1" stroke-width="0.20"/>
<path d="M209.1,114.9 Q215.2,114.5 218.0,111.0 T220.9,107.5" stroke-width="0.40"/>
<path d="M209.1,114.9 L214.7,107.1" stroke-width="0.28"/>
<path d="M214.7,107.1 L220.9,107.5" stroke-width="0.22"/>
<path d="M210.5,150.4 L216.5,149.1" stroke-width="0.20"/>
<path d="M220.9,107.5 L227.0,108.1" stroke-width="0.20"/>
<path d="M216.5,149.1 L222.6,147.9" stroke-width="0.20"/>
<path d="M223.1,86.5 Q229.0,88.5 231.8,89.7 Q234.7,90.8 237.5,92.0 Q240.4,93.2 241.4,97.6 T242.4,102.1" stroke-width="0.20"/>
<path d="M227.0,108.1 L233.1,109.1" stroke-width="0.20"/>
<path d="M222.6,147.9 L228.6,146.7" stroke-width="0.20"/>
<path d="M233.1,109.1 L239.1,110.3" stroke-width="0.20"/>
<path d="M228.6,146.7 Q234.7,145.6 237.7,144.9 T240.7,144.2" stroke-width="0.20"/>
<path d="M239.1,110.3 L245.2,111.2" stroke-width="0.20"/>
<path d="M242.4,102.1 Q248.3,103.8 249.8,107.6 T251.3,111.4" stroke-width="0.20"/>
<path d="M245.2,111.2 L251.3,111.4" stroke-width="0.20"/>
<path d="M240.7,144.2 L246.7,142.9" stroke-width="0.20"/>
<path d="M251.3,111.4 L257.4,110.3" stroke-width="0.20"/>
<path d="M246.7,142.9 Q252.8,142.3 255.9,142.1 Q259.0,141.8 261.9,142.8 Q264.8,143.9 267.5,145.3 T270.2,146.8" stroke-width="0.20"/>
<path d="M257.4,110.3 Q263.0,107.6 265.6,106.0 Q268.2,104.4 270.7,102.6 T273.2,100.9" stroke-width="0.20"/>
<circle cx="273.2" cy="100.9" r="1.6"/>
<circle cx="270.2" cy="146.8" r="1.6"/>
<circle cx="270.2" cy="89.6" r="1.6"/>
</g>
<text x="4" y="196" font-family="monospace" font-size="8" fill="#5cc8e0">R2C2 neural-medium left-right MED</text>
<text x="276" y="196" text-anchor="end" font-family="monospace" font-size="8" fill="#d4a04a">119el 13ms</text>
</g>
<g transform="translate(596,224)">
<clipPath id="clip6"><rect width="280" height="200"/></clipPath>
<g clip-path="url(#clip6)">
<rect class="panel" width="280" height="200"/>
<path d="M39.2,0.0 L40.1,6.1" stroke-width="2.13"/>
<path d="M39.2,200.0 Q40.2,193.9 40.8,190.9 Q41.5,187.9 42.2,184.9 Q42.9,181.9 43.5,178.9 Q44.1,175.9 44.8,172.9 T45.5,169.9" stroke-width="8.58"/>
<path d="M0.0,28.0 Q6.1,28.9 9.1,29.6 Q12.1,30.2 15.1,30.9 Q18.1,31.5 21.1,32.2 Q24.2,32.8 27.2,33.5 Q30.2,34.1 33.2,34.9 Q36.2,35.6 42.0,35.7 T47.8,35.9" stroke-width="1.24"/>
<path d="M280.0,28.0 Q273.9,29.0 270.9,29.6 T267.9,30.3" stroke-width="6.96"/>
<path d="M89.6,0.0 Q89.8,6.2 90.0,9.2 Q90.2,12.3 90.5,15.4 Q90.7,18.4 91.1,21.5 T91.5,24.6" stroke-width="0.20"/>
<path d="M89.6,200.0 Q89.7,193.8 89.8,190.8 Q89.9,187.7 90.0,184.6 Q90.1,181.5 90.3,178.5 Q90.5,175.4 90.9,172.3 Q91.2,169.3 91.6,166.2 Q91.9,163.1 92.4,160.1 Q92.9,157.1 93.4,154.0 Q93.9,151.0 94.4,147.9 Q94.9,144.9 95.5,141.9 Q96.0,138.8 96.5,135.8 T97.1,132.8" stroke-width="9.33"/>
<path d="M0.0,64.0 Q6.1,64.6 9.2,65.0 Q12.2,65.4 15.3,65.8 Q18.3,66.2 21.4,66.7 Q24.4,67.1 27.5,67.6 Q30.5,68.1 33.6,68.6 Q36.6,69.1 39.7,69.5 Q42.7,69.8 45.8,70.1 Q48.8,70.4 51.9,70.7 T55.0,71.0" stroke-width="2.38"/>
<path d="M280.0,64.0 Q273.9,64.5 270.8,64.9 Q267.8,65.4 264.7,65.8 Q261.7,66.3 258.6,66.8 Q255.6,67.3 252.6,67.9 Q249.5,68.5 246.5,69.1 Q243.5,69.7 240.5,70.4 Q237.5,71.0 234.5,71.6 Q231.5,72.2 228.4,72.8 T225.4,73.4" stroke-width="1.92"/>
<path d="M140.0,0.0 Q139.9,6.2 139.8,9.2 Q139.8,12.3 139.7,15.4 Q139.7,18.5 139.6,21.6 Q139.5,24.6 139.4,27.7 Q139.2,30.8 139.1,33.9 Q139.0,36.9 138.8,40.0 T138.7,43.1" stroke-width="3.98"/>
<path d="M140.0,200.0 Q140.0,193.8 140.0,190.8 T140.1,187.7" stroke-width="1.82"/>
<path d="M0.0,100.0 Q6.2,100.2 9.2,100.3 Q12.3,100.4 15.4,100.5 Q18.5,100.6 21.5,100.8 Q24.6,100.9 27.7,101.0 Q30.8,101.1 33.9,101.1 Q36.9,101.2 40.0,101.2 Q43.1,101.2 46.2,101.2 Q49.3,101.2 52.3,101.2 Q55.4,101.2 58.5,101.2 Q61.6,101.2 64.7,101.2 Q67.7,101.3 70.8,101.2 Q73.9,101.2 77.0,101.2 Q80.1,101.2 83.1,101.1 T86.2,101.0" stroke-width="8.54"/>
<path d="M280.0,100.0 Q273.8,100.3 270.8,100.6 Q267.7,100.8 264.6,101.0 T261.6,101.2" stroke-width="4.23"/>
<path d="M190.4,0.0 L190.1,6.2" stroke-width="8.27"/>
<path d="M190.4,200.0 Q190.4,193.8 190.4,190.8 Q190.4,187.7 190.4,184.6 Q190.4,181.5 190.3,178.4 T190.2,175.4" stroke-width="0.41"/>
<path d="M0.0,136.0 L6.2,135.7" stroke-width="5.85"/>
<path d="M280.0,136.0 Q273.8,135.9 270.8,135.8 T267.7,135.7" stroke-width="4.69"/>
<path d="M240.8,0.0 Q240.1,6.1 239.5,9.1 T239.0,12.2" stroke-width="1.27"/>
<path d="M240.8,200.0 Q240.0,193.9 239.5,190.9 Q239.0,187.8 238.4,184.8 T237.8,181.8" stroke-width="4.99"/>
<path d="M0.0,172.0 Q6.1,171.2 9.1,170.6 Q12.2,170.1 15.2,169.4 Q18.2,168.8 21.2,168.2 Q24.2,167.5 27.2,166.8 Q30.2,166.1 33.2,165.4 Q36.2,164.8 41.6,164.3 T47.0,163.9" stroke-width="24.14"/>
<path d="M280.0,172.0 Q273.9,171.1 270.9,170.6 Q267.9,170.0 264.8,169.3 Q261.8,168.7 258.8,168.0 Q255.8,167.3 252.8,166.6 Q249.8,165.8 246.8,165.1 Q243.8,164.4 238.5,164.2 T233.2,163.9" stroke-width="0.72"/>
<path d="M40.1,6.1 L41.4,12.1" stroke-width="8.02"/>
<path d="M190.1,6.2 L189.7,12.3" stroke-width="4.15"/>
<path d="M6.2,135.7 L12.3,135.3" stroke-width="2.62"/>
<path d="M41.4,12.1 Q42.8,18.1 43.6,21.1 T44.4,24.1" stroke-width="1.67"/>
<path d="M267.9,30.3 L261.9,31.7" stroke-width="1.58"/>
<path d="M140.1,187.7 L140.1,181.5" stroke-width="1.18"/>
<path d="M189.7,12.3 Q189.0,18.4 188.7,21.5 Q188.3,24.5 188.0,27.6 T187.6,30.7" stroke-width="1.53"/>
<path d="M12.3,135.3 Q18.4,134.8 21.5,134.6 Q24.6,134.3 27.7,134.1 Q30.7,133.9 33.8,133.7 Q36.9,133.4 39.9,133.1 Q43.0,132.7 46.1,132.4 T49.1,132.1" stroke-width="4.79"/>
<path d="M267.7,135.7 L261.5,135.4" stroke-width="1.11"/>
<path d="M239.0,12.2 L237.8,18.2" stroke-width="7.26"/>
<path d="M261.9,31.7 Q255.9,33.0 252.9,33.7 Q249.9,34.4 246.9,35.2 Q243.9,36.0 238.7,36.1 T233.5,36.2" stroke-width="1.04"/>
<path d="M140.1,181.5 Q140.2,175.4 140.3,172.3 T140.3,169.2" stroke-width="4.90"/>
<path d="M261.6,101.2 L255.4,101.7" stroke-width="0.90"/>
<path d="M261.5,135.4 Q255.4,134.8 252.3,134.5 T249.3,134.2" stroke-width="1.87"/>
<path d="M237.8,18.2 L236.5,24.2" stroke-width="4.47"/>
<path d="M237.8,181.8 L236.4,175.8" stroke-width="0.50"/>
<path d="M44.4,24.1 L46.2,30.0" stroke-width="1.48"/>
<path d="M91.5,24.6 L92.3,30.7" stroke-width="7.32"/>
<path d="M255.4,101.7 Q249.3,102.0 246.2,102.3 Q243.1,102.5 240.1,102.8 Q237.0,103.2 233.9,103.4 Q230.9,103.6 227.8,103.9 Q224.7,104.1 221.6,104.3 Q218.6,104.4 215.5,104.4 Q212.4,104.4 209.3,104.3 Q206.2,104.2 203.2,104.2 Q200.1,104.2 197.0,104.2 Q193.9,104.1 190.9,104.0 Q187.8,103.9 184.4,106.1 T181.1,108.3" stroke-width="0.20"/>
<path d="M190.2,175.4 L189.7,169.2" stroke-width="6.04"/>
<path d="M236.5,24.2 L235.1,30.2" stroke-width="1.12"/>
<path d="M236.4,175.8 Q234.9,169.8 234.0,166.8 T233.2,163.9" stroke-width="3.03"/>
<path d="M46.2,30.0 L47.8,35.9" stroke-width="0.79"/>
<path d="M45.5,169.9 L47.0,163.9" stroke-width="1.09"/>
<path d="M92.3,30.7 L93.0,36.8" stroke-width="0.29"/>
<path d="M140.3,169.2 L140.5,163.0" stroke-width="2.93"/>
<path d="M187.6,30.7 L186.8,36.8" stroke-width="1.77"/>
<path d="M189.7,169.2 L189.3,163.1" stroke-width="0.63"/>
<path d="M249.3,134.2 L243.1,133.7" stroke-width="5.75"/>
<path d="M235.1,30.2 L233.5,36.2" stroke-width="2.21"/>
<path d="M47.8,35.9 Q49.4,41.9 50.2,44.8 Q51.0,47.8 51.8,50.8 Q52.6,53.7 53.5,56.7 Q54.4,59.6 54.7,65.3 T55.0,71.0" stroke-width="0.20"/>
<path d="M47.0,163.9 Q48.5,157.9 49.2,154.9 Q50.0,151.9 50.7,148.9 Q51.5,146.0 52.3,143.0 Q53.1,140.0 54.2,135.7 T55.2,131.4" stroke-width="1.29"/>
<path d="M93.0,36.8 Q93.6,42.9 94.0,46.0 T94.3,49.0" stroke-width="0.39"/>
<path d="M140.5,163.0 L140.9,156.9" stroke-width="1.29"/>
<path d="M186.8,36.8 Q185.8,42.8 185.3,45.9 Q184.8,48.9 184.4,52.0 Q183.9,55.0 183.4,58.1 Q182.9,61.1 182.6,64.2 Q182.2,67.2 181.9,70.3 T181.6,73.3" stroke-width="0.42"/>
<path d="M189.3,163.1 L188.8,156.9" stroke-width="3.75"/>
<path d="M243.1,133.7 L237.0,133.2" stroke-width="0.84"/>
<path d="M233.5,36.2 Q231.9,42.2 231.1,45.1 Q230.4,48.1 229.6,51.1 T228.9,54.1" stroke-width="2.55"/>
<path d="M233.2,163.9 Q231.4,158.0 230.5,155.0 Q229.5,152.1 228.7,149.2 Q227.8,146.2 226.9,143.2 T226.1,140.3" stroke-width="0.75"/>
<path d="M138.7,43.1 L138.4,49.3" stroke-width="0.85"/>
<path d="M140.9,156.9 L141.2,150.7" stroke-width="1.24"/>
<path d="M188.8,156.9 Q188.1,150.8 187.7,147.8 Q187.3,144.7 186.8,141.7 Q186.4,138.6 185.9,135.6 T185.4,132.5" stroke-width="0.31"/>
<path d="M237.0,133.2 L230.9,132.6" stroke-width="0.31"/>
<path d="M94.3,49.0 L95.2,55.1" stroke-width="1.14"/>
<path d="M138.4,49.3 Q138.3,55.4 138.2,58.5 Q138.1,61.6 138.2,64.6 T138.2,67.7" stroke-width="0.51"/>
<path d="M141.2,150.7 Q141.5,144.6 141.6,141.5 Q141.7,138.4 141.9,135.4 Q142.0,132.3 142.1,129.2 T142.2,126.1" stroke-width="3.31"/>
<path d="M49.1,132.1 L55.2,131.4" stroke-width="1.88"/>
<path d="M230.9,132.6 L224.7,132.1" stroke-width="1.37"/>
<path d="M95.2,55.1 L96.3,61.2" stroke-width="0.38"/>
<path d="M55.0,71.0 L61.1,71.6" stroke-width="2.23"/>
<path d="M225.4,73.4 Q219.3,74.4 216.3,74.9 Q213.2,75.3 210.2,75.7 Q207.1,76.1 204.1,76.5 T201.0,76.9" stroke-width="1.51"/>
<path d="M225.4,73.4 Q225.9,66.1 226.6,63.1 T227.3,60.1" stroke-width="0.44"/>
<path d="M55.2,131.4 L61.3,130.5" stroke-width="0.66"/>
<path d="M224.7,132.1 L218.6,131.4" stroke-width="1.44"/>
<path d="M224.7,132.1 L226.1,140.3" stroke-width="0.20"/>
<path d="M228.9,54.1 L227.3,60.1" stroke-width="0.98"/>
<path d="M96.3,61.2 L97.3,67.3" stroke-width="0.41"/>
<path d="M61.1,71.6 Q67.2,72.2 70.3,72.6 Q73.4,72.9 76.4,73.4 T79.5,73.8" stroke-width="0.70"/>
<path d="M61.3,130.5 L67.4,129.7" stroke-width="0.22"/>
<path d="M218.6,131.4 Q212.5,130.6 209.4,130.2 Q206.4,129.8 203.3,129.4 Q200.3,129.1 197.2,128.6 Q194.2,128.2 189.2,127.3 T184.3,126.5" stroke-width="1.74"/>
<path d="M218.6,131.4 L226.1,140.3" stroke-width="0.34"/>
<path d="M97.3,67.3 L98.4,73.3" stroke-width="0.20"/>
<path d="M97.1,132.8 L98.2,126.7" stroke-width="0.20"/>
<path d="M97.1,132.8 L85.7,126.7" stroke-width="0.20"/>
<path d="M138.2,67.7 L138.5,73.9" stroke-width="0.20"/>
<path d="M185.4,132.5 L184.3,126.5" stroke-width="0.20"/>
<path d="M67.4,129.7 Q73.5,128.8 76.6,128.3 Q79.6,127.8 82.6,127.2 T85.7,126.7" stroke-width="2.08"/>
<path d="M98.4,73.3 Q99.6,79.4 100.3,82.4 T100.9,85.4" stroke-width="0.22"/>
<path d="M98.4,73.3 L85.6,74.6" stroke-width="0.82"/>
<path d="M98.2,126.7 Q99.5,120.7 100.1,117.7 Q100.8,114.7 101.3,111.6 T101.9,108.6" stroke-width="0.20"/>
<path d="M98.2,126.7 L85.7,126.7" stroke-width="0.24"/>
<path d="M138.5,73.9 Q138.8,80.0 139.0,83.1 Q139.3,86.2 139.6,89.2 Q140.0,92.3 140.2,95.4 T140.4,98.4" stroke-width="0.21"/>
<path d="M142.2,126.1 L142.5,120.0" stroke-width="0.80"/>
<path d="M181.6,73.3 L180.9,79.5" stroke-width="0.20"/>
<path d="M184.3,126.5 Q183.2,120.4 182.7,117.4 Q182.1,114.4 181.6,111.3 T181.1,108.3" stroke-width="0.40"/>
<path d="M79.5,73.8 L85.6,74.6" stroke-width="0.20"/>
<path d="M201.0,76.9 L194.9,77.8" stroke-width="0.20"/>
<path d="M142.5,120.0 Q142.8,113.8 142.8,110.7 T142.8,107.7" stroke-width="0.20"/>
<path d="M180.9,79.5 Q180.2,85.6 179.8,88.6 Q179.5,91.7 179.2,94.8 T179.0,97.8" stroke-width="0.20"/>
<path d="M180.9,79.5 Q188.8,78.5 191.9,78.2 T194.9,77.8" stroke-width="0.20"/>
<path d="M100.9,85.4 L102.2,91.4" stroke-width="0.20"/>
<path d="M86.2,101.0 L92.4,100.8" stroke-width="0.20"/>
<path d="M102.2,91.4 L103.0,97.5" stroke-width="0.20"/>
<path d="M101.9,108.6 L103.0,97.5" stroke-width="0.20"/>
<path d="M142.8,107.7 L140.4,98.4" stroke-width="0.20"/>
<path d="M92.4,100.8 L103.0,97.5" stroke-width="0.20"/>
<path d="M181.1,108.3 L179.0,97.8" stroke-width="0.20"/>
</g>
<text x="4" y="196" font-family="monospace" font-size="8" fill="#5cc8e0">R2C3 neural-high all edges HIGH</text>
<text x="276" y="196" text-anchor="end" font-family="monospace" font-size="8" fill="#d4a04a">107el 13ms</text>
</g>
<g transform="translate(888,224)">
<clipPath id="clip7"><rect width="280" height="200"/></clipPath>
<g clip-path="url(#clip7)">
<rect class="panel" width="280" height="200"/>
<path d="M56.0,0.0 Q56.6,6.1 57.1,9.2 Q57.5,12.2 58.0,15.3 Q58.4,18.3 58.9,21.4 Q59.5,24.4 60.0,27.4 Q60.5,30.5 61.0,33.5 T61.5,36.5" stroke-width="6.97"/>
<path d="M56.0,200.0 Q56.3,193.8 56.5,190.8 Q56.7,187.7 57.0,184.6 Q57.3,181.6 57.6,178.5 Q57.8,175.4 58.1,172.4 T58.3,169.3" stroke-width="3.27"/>
<path d="M0.0,40.0 L6.1,40.8" stroke-width="3.12"/>
<path d="M280.0,40.0 Q273.9,40.6 270.8,41.0 Q267.8,41.5 264.7,42.0 Q261.7,42.5 258.7,43.2 Q255.7,43.8 252.7,44.5 Q249.7,45.2 246.7,46.0 Q243.7,46.8 240.7,47.6 Q237.8,48.4 234.8,49.2 Q231.8,50.0 228.8,50.7 Q225.8,51.5 220.6,53.1 T215.4,54.7" stroke-width="1.50"/>
<path d="M140.0,0.0 Q139.8,6.2 139.7,9.2 Q139.6,12.3 139.6,15.4 Q139.5,18.5 139.6,21.6 Q139.6,24.6 139.6,27.7 Q139.6,30.8 139.7,33.9 Q139.7,37.0 139.6,40.0 Q139.5,43.1 139.4,46.2 T139.2,49.3" stroke-width="0.67"/>
<path d="M140.0,200.0 Q140.1,193.8 140.1,190.8 Q140.1,187.7 140.2,184.6 Q140.3,181.5 140.3,178.4 Q140.3,175.4 140.4,172.3 Q140.5,169.2 140.7,166.1 Q140.8,163.1 141.0,160.0 Q141.2,156.9 141.3,153.8 Q141.5,150.8 141.6,147.7 Q141.7,144.6 141.9,141.5 Q142.1,138.5 142.3,135.4 Q142.5,132.3 142.7,129.2 Q142.8,126.2 142.8,123.1 Q142.8,120.0 142.7,116.9 Q142.5,113.8 142.1,110.8 T141.7,107.7" stroke-width="6.60"/>
<path d="M0.0,100.0 Q6.2,99.8 9.2,99.7 Q12.3,99.6 15.4,99.4 Q18.5,99.2 21.5,99.0 Q24.6,98.7 27.7,98.4 Q30.7,98.1 33.8,97.9 Q36.9,97.7 40.0,97.5 Q43.0,97.3 46.1,97.0 Q49.2,96.8 52.2,96.6 Q55.3,96.4 58.4,96.1 Q61.5,95.9 64.5,95.7 T67.6,95.4" stroke-width="0.35"/>
<path d="M280.0,100.0 Q273.8,99.9 270.8,99.8 Q267.7,99.8 264.6,99.7 Q261.5,99.7 258.4,99.7 Q255.4,99.7 252.3,99.7 Q249.2,99.7 246.1,99.8 Q243.0,99.9 240.0,100.0 Q236.9,100.1 233.8,100.1 Q230.7,100.2 227.6,100.1 Q224.6,100.1 221.5,100.1 Q218.4,100.2 215.3,100.3 Q212.3,100.4 209.2,100.4 T206.1,100.5" stroke-width="0.80"/>
<path d="M224.0,0.0 Q223.4,6.1 223.2,9.2 Q222.9,12.3 222.6,15.3 Q222.3,18.4 222.1,21.5 Q221.8,24.5 221.3,27.6 Q220.8,30.6 220.2,33.6 T219.5,36.6" stroke-width="5.62"/>
<path d="M224.0,200.0 Q223.4,193.9 223.0,190.8 Q222.6,187.8 222.2,184.7 Q221.8,181.7 221.4,178.6 T221.0,175.5" stroke-width="0.89"/>
<path d="M0.0,160.0 L6.1,159.0" stroke-width="0.97"/>
<path d="M280.0,160.0 Q273.9,159.4 270.8,158.9 Q267.8,158.5 264.7,157.9 Q261.7,157.4 258.7,156.8 T255.7,156.2" stroke-width="0.94"/>
<path d="M6.1,40.8 L12.2,41.8" stroke-width="2.40"/>
<path d="M6.1,159.0 L12.1,157.6" stroke-width="2.24"/>
<path d="M12.2,41.8 L18.2,42.9" stroke-width="0.32"/>
<path d="M12.1,157.6 Q18.1,156.2 21.1,155.4 Q24.0,154.6 27.0,153.8 T30.0,152.9" stroke-width="1.12"/>
<path d="M18.2,42.9 L24.3,44.1" stroke-width="0.96"/>
<path d="M24.3,44.1 Q30.3,45.4 33.3,46.0 Q36.3,46.6 39.4,47.2 Q42.4,47.8 45.4,48.4 Q48.4,49.0 51.5,49.6 T54.5,50.2" stroke-width="1.16"/>
<path d="M221.0,175.5 L220.1,169.4" stroke-width="3.85"/>
<path d="M255.7,156.2 L249.7,154.8" stroke-width="3.23"/>
<path d="M58.3,169.3 L58.9,163.2" stroke-width="2.15"/>
<path d="M220.1,169.4 Q219.2,163.4 218.6,160.3 Q218.1,157.3 217.5,154.3 Q216.9,151.3 216.2,148.3 T215.5,145.3" stroke-width="0.20"/>
<path d="M30.0,152.9 L35.9,151.4" stroke-width="2.64"/>
<path d="M249.7,154.8 Q243.7,153.2 240.8,152.4 Q237.8,151.5 234.8,150.7 Q231.9,149.8 228.9,149.0 Q225.9,148.3 220.7,146.8 T215.5,145.3" stroke-width="5.96"/>
<path d="M61.5,36.5 L62.4,42.6" stroke-width="1.62"/>
<path d="M58.9,163.2 Q59.5,157.0 59.8,154.0 Q60.2,150.9 60.6,147.9 T61.1,144.8" stroke-width="0.97"/>
<path d="M219.5,36.6 L218.2,42.7" stroke-width="2.09"/>
<path d="M35.9,151.4 L41.9,149.8" stroke-width="1.94"/>
<path d="M62.4,42.6 L63.2,48.7" stroke-width="3.77"/>
<path d="M218.2,42.7 L216.8,48.7" stroke-width="1.69"/>
<path d="M41.9,149.8 Q47.8,148.0 50.7,147.1 T53.7,146.3" stroke-width="3.10"/>
<path d="M63.2,48.7 Q63.9,54.9 64.3,57.9 Q64.7,61.0 65.1,64.0 Q65.5,67.1 66.0,70.1 Q66.5,73.1 67.1,76.2 Q67.7,79.2 68.3,82.2 Q69.0,85.2 68.3,90.3 T67.6,95.4" stroke-width="0.94"/>
<path d="M63.2,48.7 L54.5,50.2" stroke-width="1.12"/>
<path d="M139.2,49.3 L139.0,55.4" stroke-width="3.23"/>
<path d="M216.8,48.7 L215.4,54.7" stroke-width="0.90"/>
<path d="M61.1,144.8 Q62.2,138.8 62.8,135.7 T63.5,132.7" stroke-width="0.76"/>
<path d="M61.1,144.8 L53.7,146.3" stroke-width="0.46"/>
<path d="M139.0,55.4 L138.7,61.6" stroke-width="0.41"/>
<path d="M215.4,54.7 Q213.9,60.6 213.1,63.6 Q212.4,66.6 211.6,69.6 T210.9,72.6" stroke-width="0.47"/>
<path d="M215.5,145.3 L214.1,139.3" stroke-width="0.49"/>
<path d="M138.7,61.6 L138.6,67.7" stroke-width="0.48"/>
<path d="M214.1,139.3 L212.7,133.3" stroke-width="0.20"/>
<path d="M63.5,132.7 L64.8,126.7" stroke-width="1.52"/>
<path d="M138.6,67.7 Q138.6,73.9 138.7,77.0 Q138.7,80.1 138.8,83.1 Q138.9,86.2 139.2,89.3 T139.4,92.3" stroke-width="0.20"/>
<path d="M67.6,95.4 Q73.7,94.8 76.8,94.5 Q79.9,94.3 82.9,94.0 Q86.0,93.7 89.1,93.5 Q92.1,93.2 95.2,93.2 Q98.3,93.1 101.4,93.1 Q104.5,93.1 107.5,93.1 Q110.6,93.1 113.7,93.2 Q116.8,93.2 119.8,93.4 T122.9,93.5" stroke-width="0.66"/>
<path d="M67.6,95.4 Q68.2,108.5 67.7,111.6 Q67.1,114.6 66.6,117.6 Q66.0,120.7 65.4,123.7 T64.8,126.7" stroke-width="0.34"/>
<path d="M212.7,133.3 L211.0,127.3" stroke-width="1.04"/>
<path d="M206.1,100.5 Q199.9,100.6 196.9,100.6 Q193.8,100.7 190.7,100.6 Q187.6,100.5 184.5,100.3 Q181.5,100.2 178.4,100.1 Q175.3,100.0 172.2,100.0 T169.1,100.0" stroke-width="1.23"/>
<path d="M206.1,100.5 Q206.7,90.6 207.3,87.5 Q207.9,84.5 208.6,81.5 T209.2,78.5" stroke-width="0.46"/>
<path d="M206.1,100.5 Q206.1,109.5 206.9,112.5 Q207.7,115.5 208.6,118.4 Q209.4,121.4 210.2,124.4 T211.0,127.3" stroke-width="0.50"/>
<path d="M210.9,72.6 L209.2,78.5" stroke-width="0.26"/>
<path d="M139.4,92.3 L140.1,98.5" stroke-width="0.20"/>
<path d="M139.4,92.3 L129.1,93.8" stroke-width="0.20"/>
<path d="M141.7,107.7 L140.1,98.5" stroke-width="0.20"/>
<path d="M140.1,98.5 Q150.7,98.5 153.8,98.9 Q156.8,99.3 159.9,99.6 T163.0,99.8" stroke-width="0.20"/>
<path d="M169.1,100.0 L163.0,99.8" stroke-width="0.20"/>
<path d="M122.9,93.5 L129.1,93.8" stroke-width="0.20"/>
</g>
<text x="4" y="196" font-family="monospace" font-size="8" fill="#5cc8e0">R2C4 neural-medium all edges MED</text>
<text x="276" y="196" text-anchor="end" font-family="monospace" font-size="8" fill="#d4a04a">57el 6ms</text>
</g>
<g transform="translate(12,436)">
<clipPath id="clip8"><rect width="280" height="200"/></clipPath>
<g clip-path="url(#clip8)">
<rect class="panel" width="280" height="200"/>
<path d="M0.0,60.0 L0.0,60.0" stroke-width="1.2"/>
<path d="M0.0,60.0 L0.0,64.0" stroke-width="0.9"/>
<path d="M0.0,84.0 L0.0,84.0" stroke-width="0.9"/>
<path d="M0.0,84.0 L0.0,84.0" stroke-width="1.5"/>
<path d="M0.0,108.0 L0.0,108.0" stroke-width="2.6"/>
<path d="M0.0,108.0 L0.0,100.0" stroke-width="3.7"/>
<path d="M0.0,108.0 L0.0,108.0" stroke-width="5.1"/>
<path d="M0.0,140.0 L0.0,140.0" stroke-width="2.3"/>
<path d="M0.0,140.0 L0.0,144.0" stroke-width="2.0"/>
<path d="M0.0,164.0 L0.0,164.0" stroke-width="2.2"/>
<path d="M0.0,164.0 L0.0,168.0" stroke-width="1.5"/>
<path d="M0.0,212.0 L0.0,192.0" stroke-width="1.2"/>
<path d="M0.0,148.0 L0.0,148.0" stroke-width="3.8"/>
<path d="M0.0,148.0 L0.0,156.0" stroke-width="0.8"/>
<path d="M0.0,172.0 L0.0,172.0" stroke-width="0.8"/>
<path d="M0.0,172.0 L0.0,180.0" stroke-width="1.8"/>
<path d="M0.0,124.0 L0.0,120.0" stroke-width="0.8"/>
<path d="M0.0,196.0 L0.0,192.0" stroke-width="2.9"/>
<path d="M0.0,120.0 L0.0,116.0" stroke-width="2.6"/>
<path d="M0.0,192.0 L0.0,188.0" stroke-width="0.9"/>
<path d="M0.0,192.0 L0.0,204.0" stroke-width="3.3"/>
</g>
<text x="4" y="196" font-family="monospace" font-size="8" fill="#5cc8e0">R3C1 circuit-high high-L low-R</text>
<text x="276" y="196" text-anchor="end" font-family="monospace" font-size="8" fill="#d4a04a">21el 3ms</text>
</g>
<g transform="translate(304,436)">
<clipPath id="clip9"><rect width="280" height="200"/></clipPath>
<g clip-path="url(#clip9)">
<rect class="panel" width="280" height="200"/>
<path d="M112.0,200.0 L112.0,200.0" stroke-width="3.2"/>
<path d="M112.0,200.0 L108.0,200.0 L100.0,200.0" stroke-width="3.1"/>
<path d="M196.0,200.0 L192.0,200.0" stroke-width="4.6"/>
<path d="M196.0,200.0 L200.0,200.0 L204.0,200.0 L208.0,200.0" stroke-width="2.1"/>
<path d="M220.0,200.0 L224.0,200.0" stroke-width="3.8"/>
<path d="M220.0,200.0 L216.0,200.0" stroke-width="0.9"/>
<path d="M244.0,200.0 L248.0,200.0" stroke-width="2.3"/>
<path d="M244.0,200.0 L240.0,200.0" stroke-width="2.3"/>
<path d="M180.0,200.0 L176.0,200.0" stroke-width="2.4"/>
<path d="M180.0,200.0 L184.0,200.0" stroke-width="0.9"/>
<path d="M228.0,200.0 L224.0,200.0" stroke-width="1.0"/>
<path d="M252.0,200.0 L248.0,200.0" stroke-width="3.6"/>
<path d="M136.0,200.0 L136.0,200.0" stroke-width="1.5"/>
<path d="M136.0,200.0 L132.0,200.0 L124.0,200.0" stroke-width="1.2"/>
<path d="M160.0,200.0 L156.0,200.0 L152.0,200.0" stroke-width="0.9"/>
<path d="M160.0,200.0 L160.0,200.0" stroke-width="3.0"/>
<path d="M160.0,200.0 L168.0,200.0" stroke-width="2.7"/>
<path d="M20.0,200.0 L44.0,200.0" stroke-width="1.6"/>
<path d="M44.0,200.0 L64.0,200.0" stroke-width="2.6"/>
</g>
<text x="4" y="196" font-family="monospace" font-size="8" fill="#5cc8e0">R3C2 circuit-high low-bot med-top</text>
<text x="276" y="196" text-anchor="end" font-family="monospace" font-size="8" fill="#d4a04a">19el 2ms</text>
</g>
<g transform="translate(596,436)">
<clipPath id="clip10"><rect width="280" height="200"/></clipPath>
<g clip-path="url(#clip10)">
<rect class="panel" width="280" height="200"/>
<path d="M116.0,200.0 L112.0,200.0" stroke-width="4.9"/>
<path d="M208.0,200.0 L212.0,200.0" stroke-width="3.2"/>
<path d="M208.0,200.0 L204.0,200.0 L200.0,200.0" stroke-width="0.9"/>
<path d="M228.0,200.0 L232.0,200.0" stroke-width="1.8"/>
<path d="M228.0,200.0 L224.0,200.0" stroke-width="4.3"/>
<path d="M252.0,200.0 L256.0,200.0 L272.0,200.0 L296.0,200.0" stroke-width="0.8"/>
<path d="M252.0,200.0 L248.0,200.0" stroke-width="1.2"/>
<path d="M40.0,200.0 L44.0,200.0 L48.0,200.0" stroke-width="2.1"/>
<path d="M40.0,200.0 L40.0,200.0" stroke-width="4.3"/>
<path d="M64.0,200.0 L64.0,200.0" stroke-width="2.3"/>
<path d="M64.0,200.0 L72.0,200.0" stroke-width="3.6"/>
<path d="M88.0,200.0 L92.0,200.0 L96.0,200.0" stroke-width="5.0"/>
<path d="M88.0,200.0 L88.0,200.0" stroke-width="0.8"/>
<path d="M112.0,200.0 L112.0,200.0" stroke-width="2.7"/>
<path d="M112.0,200.0 L108.0,200.0" stroke-width="0.9"/>
<path d="M132.0,200.0 L136.0,200.0" stroke-width="1.3"/>
<path d="M136.0,200.0 L140.0,200.0" stroke-width="0.9"/>
</g>
<text x="4" y="196" font-family="monospace" font-size="8" fill="#5cc8e0">R3C3 circuit-high hi-bot lo-mid med-top</text>
<text x="276" y="196" text-anchor="end" font-family="monospace" font-size="8" fill="#d4a04a">17el 2ms</text>
</g>
<g transform="translate(888,436)">
<clipPath id="clip11"><rect width="280" height="200"/></clipPath>
<g clip-path="url(#clip11)">
<rect class="panel" width="280" height="200"/>
<path d="M112.0,0.0 L112.0,0.0" stroke-width="4.5"/>
<path d="M112.0,0.0 L108.0,0.0" stroke-width="1.1"/>
<path d="M112.0,0.0 L116.0,0.0 L124.0,0.0" stroke-width="3.5"/>
<path d="M112.0,0.0 L112.0,0.0" stroke-width="3.4"/>
<path d="M136.0,0.0 L136.0,0.0" stroke-width="3.2"/>
<path d="M136.0,0.0 L132.0,0.0" stroke-width="0.9"/>
<path d="M136.0,0.0 L140.0,0.0 L148.0,0.0" stroke-width="2.3"/>
<path d="M160.0,0.0 L160.0,0.0" stroke-width="1.1"/>
<path d="M160.0,0.0 L156.0,0.0" stroke-width="3.4"/>
<path d="M184.0,0.0 L184.0,0.0" stroke-width="4.2"/>
<path d="M184.0,0.0 L180.0,0.0" stroke-width="0.8"/>
<path d="M184.0,0.0 L192.0,0.0" stroke-width="4.9"/>
<path d="M208.0,0.0 L208.0,0.0" stroke-width="1.4"/>
<path d="M208.0,0.0 L204.0,0.0" stroke-width="0.8"/>
<path d="M208.0,0.0 L216.0,0.0" stroke-width="1.2"/>
<path d="M88.0,0.0 L88.0,0.0" stroke-width="3.7"/>
<path d="M88.0,0.0 L84.0,0.0" stroke-width="2.1"/>
<path d="M88.0,0.0 L92.0,0.0 L100.0,0.0" stroke-width="1.8"/>
<path d="M24.0,0.0 L48.0,0.0" stroke-width="4.5"/>
<path d="M48.0,0.0 L52.0,0.0" stroke-width="0.9"/>
<path d="M76.0,0.0 L72.0,0.0 L68.0,0.0" stroke-width="0.8"/>
<path d="M232.0,0.0 L228.0,0.0" stroke-width="4.9"/>
<path d="M232.0,0.0 L256.0,0.0 L280.0,0.0 L304.0,0.0" stroke-width="2.7"/>
<path d="M68.0,0.0 L64.0,0.0" stroke-width="3.7"/>
</g>
<text x="4" y="196" font-family="monospace" font-size="8" fill="#5cc8e0">R3C4 circuit-high hi-top lo-mid zero-bot</text>
<text x="276" y="196" text-anchor="end" font-family="monospace" font-size="8" fill="#d4a04a">24el 3ms</text>
</g>
<g transform="translate(12,648)">
<clipPath id="clip12"><rect width="280" height="200"/></clipPath>
<g clip-path="url(#clip12)">
<rect class="panel" width="280" height="200"/>
<path d="M0.0,10.6 Q6.1,11.7 9.0,12.5 Q12.0,13.2 15.0,14.1 Q18.0,14.9 20.9,15.8 Q23.9,16.6 26.8,17.5 Q29.8,18.4 32.7,19.3 T35.7,20.2" stroke-width="2.18"/>
<path d="M0.0,18.6 L6.1,19.6" stroke-width="5.27"/>
<path d="M0.0,26.5 Q6.1,27.5 9.1,28.1 Q12.1,28.8 15.1,29.5 Q18.1,30.2 21.1,30.9 Q24.1,31.7 27.0,28.8 T29.9,25.9" stroke-width="0.20"/>
<path d="M0.0,36.5 Q6.1,37.3 9.1,37.8 Q12.2,38.4 15.2,39.0 Q18.2,39.7 21.2,40.3 Q24.2,41.0 27.2,41.7 Q30.2,42.3 33.2,43.0 Q36.2,43.7 39.2,44.4 Q42.2,45.0 45.2,45.7 Q48.2,46.4 51.2,47.1 T54.2,47.8" stroke-width="20.62"/>
<path d="M0.0,47.3 L6.1,48.0" stroke-width="1.06"/>
<path d="M0.0,54.7 L6.1,48.0" stroke-width="6.43"/>
<path d="M0.0,62.3 Q6.1,62.7 9.2,63.0 Q12.3,63.4 15.3,63.7 Q18.4,64.1 21.5,64.4 T24.5,64.8" stroke-width="2.65"/>
<path d="M0.0,73.6 L6.1,74.0" stroke-width="2.96"/>
<path d="M0.0,79.8 L6.1,74.0" stroke-width="2.66"/>
<path d="M0.0,93.0 Q6.2,93.3 9.2,93.5 Q12.3,93.7 15.4,94.0 Q18.4,94.2 21.5,94.5 Q24.6,94.7 27.7,94.9 Q30.7,95.2 33.8,95.4 Q36.9,95.7 39.9,95.9 T43.0,96.0" stroke-width="0.62"/>
<path d="M0.0,101.6 L6.2,101.7" stroke-width="6.56"/>
<path d="M0.0,107.5 L6.2,101.7" stroke-width="0.72"/>
<path d="M0.0,121.8 L6.2,121.7" stroke-width="0.79"/>
<path d="M0.0,128.4 L6.2,121.7" stroke-width="8.16"/>
<path d="M0.0,134.3 Q6.2,134.0 9.2,133.9 Q12.3,133.8 15.4,133.6 Q18.5,133.5 21.5,133.3 Q24.6,133.0 27.7,132.8 Q30.7,132.5 33.8,132.3 Q36.9,132.0 40.0,131.8 T43.0,131.5" stroke-width="3.06"/>
<path d="M0.0,144.4 Q6.1,144.0 9.2,143.8 Q12.3,143.5 15.3,143.2 Q18.4,142.9 21.5,142.5 Q24.5,142.2 27.6,141.8 Q30.6,141.5 33.7,141.1 T36.8,140.8" stroke-width="3.74"/>
<path d="M0.0,152.4 Q6.1,152.0 9.2,151.7 Q12.3,151.4 15.3,151.0 Q18.4,150.7 21.4,150.3 T24.5,149.9" stroke-width="4.35"/>
<path d="M0.0,162.6 Q6.1,161.9 9.2,161.6 Q12.2,161.2 15.3,160.7 Q18.3,160.3 21.4,159.8 Q24.4,159.4 27.1,161.0 T29.7,162.6" stroke-width="5.26"/>
<path d="M0.0,173.0 Q6.1,172.2 9.2,171.8 T12.2,171.3" stroke-width="3.83"/>
<path d="M0.0,180.5 Q6.1,179.7 9.1,175.5 T12.2,171.3" stroke-width="2.10"/>
<path d="M0.0,193.4 Q6.0,192.2 9.0,191.5 Q12.0,190.7 15.0,189.9 Q18.0,189.1 20.9,188.3 Q23.9,187.5 26.9,186.6 Q29.8,185.8 32.8,184.9 Q35.8,184.1 38.7,183.3 Q41.7,182.4 44.6,181.5 Q47.6,180.7 50.5,179.8 Q53.5,178.8 56.4,177.9 Q59.3,176.9 62.3,176.0 Q65.2,175.1 68.1,174.2 T71.1,173.3" stroke-width="7.81"/>
<path d="M6.1,19.6 L12.1,21.0" stroke-width="17.04"/>
<path d="M6.1,48.0 L12.2,48.9" stroke-width="3.02"/>
<path d="M6.1,74.0 Q12.3,74.6 15.3,74.9 Q18.4,75.3 21.5,75.6 T24.5,75.9" stroke-width="11.30"/>
<path d="M6.2,101.7 Q12.3,102.0 15.4,102.2 Q18.5,102.4 21.5,102.5 Q24.6,102.6 27.7,102.8 T30.8,102.9" stroke-width="3.66"/>
<path d="M6.2,121.7 Q12.3,121.6 15.4,121.5 Q18.5,121.5 21.6,121.4 Q24.6,121.2 27.7,121.1 Q30.8,121.0 33.9,120.9 Q36.9,120.8 40.0,120.7 T43.1,120.6" stroke-width="4.12"/>
<path d="M12.1,21.0 Q18.0,22.6 21.0,23.4 Q24.0,24.2 26.9,25.1 T29.9,25.9" stroke-width="1.42"/>
<path d="M12.2,48.9 Q18.3,50.0 21.3,50.5 Q24.3,51.0 27.4,51.6 Q30.4,52.1 33.4,52.7 Q36.5,53.2 39.5,53.8 Q42.5,54.3 45.6,54.9 Q48.6,55.5 51.6,56.1 T54.6,56.6" stroke-width="2.98"/>
<path d="M12.2,171.3 Q18.3,170.2 21.3,169.6 Q24.3,169.0 27.0,165.8 T29.7,162.6" stroke-width="2.23"/>
<path d="M24.5,64.8 L30.6,65.6" stroke-width="1.71"/>
<path d="M24.5,149.9 L30.6,149.0" stroke-width="1.75"/>
<path d="M29.9,25.9 L35.7,20.2" stroke-width="1.67"/>
<path d="M30.6,65.6 L36.7,66.6" stroke-width="7.19"/>
<path d="M30.8,102.9 L36.9,103.2" stroke-width="2.79"/>
<path d="M30.6,149.0 L36.8,140.8" stroke-width="1.90"/>
<path d="M29.7,162.6 Q35.8,163.1 38.9,162.8 T42.0,162.5" stroke-width="0.91"/>
<path d="M35.7,20.2 Q41.6,22.0 44.5,22.8 Q47.5,23.7 50.4,24.6 Q53.4,25.5 56.3,26.4 Q59.2,27.4 62.2,28.3 T65.1,29.2" stroke-width="1.76"/>
<path d="M36.7,66.6 L42.8,67.5" stroke-width="4.08"/>
<path d="M36.9,103.2 L43.0,96.0" stroke-width="1.17"/>
<path d="M36.8,140.8 L42.9,140.0" stroke-width="1.85"/>
<path d="M42.8,67.5 Q48.9,68.5 51.9,69.0 Q54.9,69.5 58.0,70.1 Q61.0,70.7 64.0,71.1 Q67.1,71.6 70.1,72.1 Q73.2,72.6 76.2,73.0 Q79.3,73.5 82.3,73.9 Q85.4,74.4 88.4,74.8 Q91.5,75.2 94.5,75.5 T97.6,75.9" stroke-width="3.97"/>
<path d="M43.0,96.0 Q49.2,96.5 52.2,96.6 Q55.3,96.8 58.4,96.9 Q61.5,97.1 64.5,97.3 Q67.6,97.4 70.7,97.6 Q73.8,97.8 76.8,97.9 T79.9,98.0" stroke-width="3.25"/>
<path d="M43.1,120.6 L49.3,120.3" stroke-width="0.20"/>
<path d="M43.0,131.5 L49.2,131.0" stroke-width="4.68"/>
<path d="M42.9,140.0 L49.0,139.3" stroke-width="2.69"/>
<path d="M42.0,162.5 L48.0,161.4" stroke-width="1.61"/>
<path d="M49.3,120.3 Q55.4,120.0 58.5,119.8 Q61.5,119.5 64.6,119.3 Q67.7,119.0 67.6,124.0 T67.5,129.0" stroke-width="0.27"/>
<path d="M49.2,131.0 Q55.3,130.4 58.4,130.0 Q61.4,129.7 64.5,129.4 T67.5,129.0" stroke-width="1.15"/>
<path d="M49.0,139.3 L55.1,138.5" stroke-width="1.96"/>
<path d="M48.0,161.4 Q54.0,160.1 57.0,159.3 Q60.0,158.6 63.0,157.8 Q66.0,157.1 69.0,156.4 Q72.0,155.7 75.0,155.0 Q78.0,154.3 81.0,153.6 Q84.0,152.9 87.0,152.3 Q90.0,151.6 93.0,151.0 Q96.1,150.4 99.1,149.9 Q102.1,149.4 105.2,148.7 Q108.2,148.1 110.7,149.9 Q113.2,151.6 116.3,152.1 Q119.3,152.6 122.4,152.3 Q125.5,152.1 128.5,151.5 T131.5,150.9" stroke-width="2.32"/>
<path d="M54.6,56.6 L60.7,57.9" stroke-width="0.89"/>
<path d="M55.1,138.5 Q61.2,137.6 64.3,137.2 Q67.3,136.7 70.4,136.3 Q73.4,136.0 76.5,135.5 Q79.5,135.1 82.7,130.8 T85.8,126.5" stroke-width="0.27"/>
<path d="M67.5,129.0 Q73.7,128.3 76.7,127.9 Q79.8,127.5 82.8,127.0 T85.8,126.5" stroke-width="0.40"/>
<path d="M71.1,173.3 L77.0,171.5" stroke-width="0.96"/>
<path d="M85.8,126.5 L91.9,125.4" stroke-width="0.32"/>
<circle cx="0.0" cy="54.7" r="2.4"/>
<circle cx="0.0" cy="79.8" r="2.4"/>
<circle cx="0.0" cy="107.5" r="2.4"/>
<circle cx="0.0" cy="128.4" r="2.4"/>
<circle cx="24.5" cy="75.9" r="2.3"/>
<circle cx="54.2" cy="47.8" r="2.1"/>
<circle cx="65.1" cy="29.2" r="2.0"/>
<circle cx="79.9" cy="98.0" r="1.9"/>
<circle cx="91.9" cy="125.4" r="1.9"/>
<circle cx="97.6" cy="75.9" r="1.8"/>
<circle cx="131.5" cy="150.9" r="1.6"/>
</g>
<text x="4" y="196" font-family="monospace" font-size="8" fill="#5cc8e0">R4C1 neural-high high-L low-R</text>
<text x="276" y="196" text-anchor="end" font-family="monospace" font-size="8" fill="#d4a04a">66el 11ms</text>
</g>
<g transform="translate(304,648)">
<clipPath id="clip13"><rect width="280" height="200"/></clipPath>
<g clip-path="url(#clip13)">
<rect class="panel" width="280" height="200"/>
<path d="M17.9,200.0 Q19.0,193.9 19.7,190.9 Q20.5,188.0 21.2,185.0 T22.0,182.0" stroke-width="2.37"/>
<path d="M29.1,200.0 Q30.0,193.9 30.6,190.9 Q31.2,187.9 31.8,184.9 T32.5,181.8" stroke-width="4.28"/>
<path d="M41.0,200.0 Q41.7,193.9 42.2,190.8 Q42.6,187.8 43.1,184.7 T43.6,181.7" stroke-width="1.28"/>
<path d="M54.3,200.0 Q54.8,193.9 55.1,190.8 Q55.5,187.7 55.9,184.7 Q56.3,181.6 56.7,178.6 T57.1,175.5" stroke-width="0.49"/>
<path d="M66.1,200.0 Q66.5,193.9 66.8,190.8 Q67.0,187.7 67.3,184.6 T67.6,181.6" stroke-width="3.67"/>
<path d="M74.4,200.0 Q74.6,193.8 74.8,190.8 Q75.0,187.7 75.2,184.6 T75.4,181.6" stroke-width="4.33"/>
<path d="M89.0,200.0 Q89.1,193.8 89.3,190.8 Q89.4,187.7 89.5,184.6 Q89.7,181.5 89.9,178.5 Q90.1,175.4 90.2,172.3 T90.4,169.2" stroke-width="3.84"/>
<path d="M103.9,200.0 Q104.0,193.8 104.1,190.8 Q104.3,187.7 104.4,184.6 T104.5,181.5" stroke-width="1.82"/>
<path d="M113.9,200.0 Q114.2,193.8 114.4,190.8 T114.6,187.7" stroke-width="5.63"/>
<path d="M122.6,200.0 L123.0,193.9" stroke-width="0.37"/>
<path d="M138.8,200.0 Q139.1,193.9 139.4,190.8 Q139.6,187.7 139.9,184.6 T140.1,181.6" stroke-width="3.53"/>
<path d="M150.6,200.0 Q150.9,193.8 151.1,190.8 Q151.3,187.7 151.4,184.6 T151.6,181.5" stroke-width="4.70"/>
<path d="M163.7,200.0 Q164.1,193.8 164.3,190.8 Q164.4,187.7 164.5,184.6 Q164.6,181.5 164.7,178.5 Q164.7,175.4 164.8,172.3 T164.8,169.2" stroke-width="3.44"/>
<path d="M179.0,200.0 Q179.3,193.8 179.4,190.8 Q179.5,187.7 179.7,184.6 T179.8,181.5" stroke-width="0.75"/>
<path d="M190.0,200.0 Q190.2,193.8 190.4,190.8 Q190.5,187.7 190.5,184.6 Q190.5,181.5 190.5,178.4 T190.5,175.4" stroke-width="4.40"/>
<path d="M201.0,200.0 Q201.2,193.8 201.3,190.8 Q201.4,187.7 201.5,184.6 T201.5,181.5" stroke-width="4.47"/>
<path d="M213.0,200.0 Q213.1,193.8 213.0,190.8 Q213.0,187.7 212.9,184.6 T212.8,181.5" stroke-width="1.16"/>
<path d="M227.6,200.0 Q227.4,193.8 227.2,190.8 T227.0,187.7" stroke-width="11.20"/>
<path d="M240.4,200.0 Q239.8,193.9 239.4,190.8 Q239.0,187.8 238.6,184.7 T238.2,181.7" stroke-width="4.64"/>
<path d="M253.0,200.0 Q252.2,193.9 251.6,190.9 Q251.1,187.8 250.5,184.8 T249.9,181.8" stroke-width="1.45"/>
<path d="M266.4,200.0 Q265.3,193.9 264.6,190.9 Q264.0,187.9 263.2,184.9 Q262.5,181.9 261.7,179.0 T260.9,176.0" stroke-width="5.29"/>
<path d="M123.0,193.9 Q123.5,187.7 123.6,184.6 T123.7,181.6" stroke-width="1.44"/>
<path d="M123.0,193.9 L114.6,187.7" stroke-width="4.51"/>
<path d="M114.6,187.7 Q114.9,181.5 115.0,178.5 T115.1,175.4" stroke-width="1.72"/>
<path d="M227.0,187.7 L226.6,181.6" stroke-width="0.20"/>
<circle cx="22.0" cy="182.0" r="1.9"/>
<circle cx="32.5" cy="181.8" r="1.9"/>
<circle cx="43.6" cy="181.7" r="1.9"/>
<circle cx="67.6" cy="181.6" r="1.9"/>
<circle cx="75.4" cy="181.6" r="1.9"/>
<circle cx="104.5" cy="181.5" r="1.9"/>
<circle cx="123.7" cy="181.6" r="1.9"/>
<circle cx="140.1" cy="181.6" r="1.9"/>
<circle cx="151.6" cy="181.5" r="1.9"/>
<circle cx="179.8" cy="181.5" r="1.9"/>
<circle cx="201.5" cy="181.5" r="1.9"/>
<circle cx="212.8" cy="181.5" r="1.9"/>
<circle cx="238.2" cy="181.7" r="1.9"/>
<circle cx="249.9" cy="181.8" r="1.9"/>
<circle cx="57.1" cy="175.5" r="1.8"/>
<circle cx="115.1" cy="175.4" r="1.8"/>
<circle cx="190.5" cy="175.4" r="1.8"/>
<circle cx="260.9" cy="176.0" r="1.8"/>
<circle cx="90.4" cy="169.2" r="1.6"/>
<circle cx="164.8" cy="169.2" r="1.6"/>
</g>
<text x="4" y="196" font-family="monospace" font-size="8" fill="#5cc8e0">R4C2 neural-high low-bot med-top</text>
<text x="276" y="196" text-anchor="end" font-family="monospace" font-size="8" fill="#d4a04a">45el 4ms</text>
</g>
<g transform="translate(596,648)">
<clipPath id="clip14"><rect width="280" height="200"/></clipPath>
<g clip-path="url(#clip14)">
<rect class="panel" width="280" height="200"/>
<path d="M16.4,200.0 Q17.6,194.0 18.5,191.0 Q19.3,188.0 20.2,185.1 Q21.0,182.1 21.8,179.1 Q22.5,176.2 23.3,173.2 Q24.1,170.2 24.8,167.2 T25.6,164.2" stroke-width="0.78"/>
<path d="M26.1,200.0 Q27.2,193.9 28.0,191.0 Q28.8,188.0 29.6,185.0 Q30.4,182.1 31.2,179.1 Q32.0,176.1 32.7,173.1 T33.4,170.1" stroke-width="15.75"/>
<path d="M36.9,200.0 Q38.1,193.9 38.8,191.0 Q39.6,188.0 40.3,185.0 Q41.1,182.0 41.8,179.0 Q42.5,176.0 43.2,173.0 Q43.8,170.0 44.4,167.0 Q44.9,163.9 45.4,160.9 Q45.8,157.8 46.2,154.8 T46.5,151.7" stroke-width="10.03"/>
<path d="M52.2,200.0 Q53.1,193.9 53.8,190.9 Q54.4,187.9 55.1,184.9 T55.7,181.9" stroke-width="0.38"/>
<path d="M65.0,200.0 L65.9,193.9" stroke-width="1.87"/>
<path d="M71.4,200.0 L65.9,193.9" stroke-width="11.63"/>
<path d="M88.4,200.0 Q89.0,193.9 89.4,190.8 Q89.9,187.8 90.2,184.7 T90.6,181.7" stroke-width="1.46"/>
<path d="M102.9,200.0 Q103.2,193.9 103.5,190.8 Q103.8,187.7 104.0,184.6 Q104.2,181.6 104.4,178.5 Q104.6,175.4 104.6,172.3 T104.6,169.3" stroke-width="5.64"/>
<path d="M114.3,200.0 Q114.5,193.8 114.6,190.8 Q114.8,187.7 114.9,184.6 Q114.9,181.5 115.0,178.5 T115.1,175.4" stroke-width="5.69"/>
<path d="M127.9,200.0 L128.0,193.8" stroke-width="5.25"/>
<path d="M136.3,200.0 Q136.5,193.8 136.6,190.8 T136.8,187.7" stroke-width="2.69"/>
<path d="M148.0,200.0 Q147.9,193.8 148.0,190.8 Q148.0,187.7 148.0,184.6 Q148.0,181.5 148.1,178.4 Q148.1,175.4 148.1,172.3 T148.2,169.2" stroke-width="4.17"/>
<path d="M166.0,200.0 Q165.9,193.8 165.9,190.8 Q165.8,187.7 165.8,184.6 Q165.9,181.5 165.9,178.4 Q165.9,175.4 166.0,172.3 Q166.1,169.2 166.3,166.1 T166.5,163.1" stroke-width="3.60"/>
<path d="M180.9,200.0 Q180.6,193.8 180.4,190.8 Q180.3,187.7 180.2,184.6 Q180.1,181.5 180.0,178.5 Q180.0,175.4 180.0,172.3 T180.0,169.2" stroke-width="0.95"/>
<path d="M191.5,200.0 Q191.2,193.8 191.0,190.8 Q190.9,187.7 190.7,184.6 Q190.5,181.5 190.4,178.5 T190.3,175.4" stroke-width="2.94"/>
<path d="M207.2,200.0 L206.6,193.9" stroke-width="0.89"/>
<path d="M213.9,200.0 L206.6,193.9" stroke-width="2.03"/>
<path d="M227.5,200.0 Q226.6,193.9 226.1,190.9 Q225.6,187.8 225.0,184.8 T224.4,181.8" stroke-width="4.74"/>
<path d="M241.9,200.0 Q240.8,193.9 240.1,190.9 T239.5,187.9" stroke-width="0.32"/>
<path d="M253.6,200.0 Q252.5,193.9 251.9,190.9 Q251.2,187.9 250.5,184.9 Q249.8,181.9 249.1,178.9 Q248.5,175.9 247.9,172.9 Q247.3,169.9 246.7,166.8 Q246.2,163.8 245.7,160.8 Q245.3,157.7 245.0,154.6 Q244.6,151.6 244.4,148.5 T244.1,145.4" stroke-width="6.38"/>
<path d="M267.0,200.0 Q265.7,194.0 265.0,191.0 T264.2,188.0" stroke-width="0.57"/>
<path d="M65.9,193.9 Q67.0,187.8 67.6,184.8 Q68.1,181.8 68.6,178.7 Q69.1,175.7 69.5,172.7 Q69.9,169.6 70.2,166.5 Q70.5,163.5 70.7,160.4 T70.9,157.3" stroke-width="2.39"/>
<path d="M128.0,193.8 L128.1,187.7" stroke-width="1.86"/>
<path d="M206.6,193.9 L205.9,187.7" stroke-width="1.00"/>
<path d="M128.1,187.7 Q128.2,181.5 128.2,178.4 Q128.3,175.4 128.2,172.3 Q128.1,169.2 127.9,166.1 Q127.7,163.1 127.4,160.0 T127.2,156.9" stroke-width="0.85"/>
<path d="M136.8,187.7 L137.0,181.5" stroke-width="4.42"/>
<path d="M205.9,187.7 Q205.3,181.6 205.1,178.5 Q204.9,175.5 204.7,172.4 Q204.6,169.3 206.6,167.0 T208.6,164.6" stroke-width="2.07"/>
<path d="M239.5,187.9 L238.1,181.9" stroke-width="2.05"/>
<path d="M264.2,188.0 L262.6,182.1" stroke-width="3.13"/>
<path d="M90.6,181.7 L91.3,175.5" stroke-width="3.71"/>
<path d="M137.0,181.5 Q137.2,175.4 137.1,172.3 Q137.0,169.2 136.9,166.1 Q136.7,163.1 136.5,160.0 Q136.3,156.9 136.0,153.9 Q135.6,150.8 135.3,147.7 T135.0,144.7" stroke-width="2.73"/>
<path d="M238.1,181.9 Q236.9,175.9 236.4,172.8 T235.9,169.8" stroke-width="2.81"/>
<path d="M262.6,182.1 L261.2,176.1" stroke-width="2.00"/>
<path d="M91.3,175.5 Q91.7,169.4 91.7,166.3 Q91.7,163.2 91.5,160.2 Q91.3,157.1 93.6,155.0 T95.9,153.0" stroke-width="1.10"/>
<path d="M148.2,169.2 L148.4,163.0" stroke-width="1.01"/>
<path d="M180.0,169.2 L180.2,163.1" stroke-width="0.87"/>
<path d="M148.4,163.0 L148.8,156.9" stroke-width="0.92"/>
<path d="M166.5,163.1 L167.1,156.9" stroke-width="2.17"/>
<path d="M180.2,163.1 Q180.7,156.9 181.0,153.9 Q181.4,150.8 181.7,147.7 Q182.1,144.7 182.5,141.6 Q182.9,138.6 183.2,135.5 T183.6,132.5" stroke-width="0.20"/>
<path d="M70.9,157.3 L71.1,151.2" stroke-width="0.20"/>
<path d="M148.8,156.9 Q149.2,150.8 149.4,147.7 Q149.7,144.6 149.8,141.5 Q150.0,138.5 150.2,135.4 T150.4,132.3" stroke-width="0.20"/>
<path d="M167.1,156.9 L167.8,150.8" stroke-width="3.05"/>
<path d="M71.1,151.2 Q71.3,145.0 71.3,141.9 Q71.2,138.8 71.2,135.8 Q71.1,132.7 71.0,129.6 T70.9,126.5" stroke-width="0.20"/>
<path d="M167.8,150.8 L168.6,144.7" stroke-width="1.18"/>
<circle cx="71.4" cy="200.0" r="2.4"/>
<circle cx="213.9" cy="200.0" r="2.4"/>
<circle cx="55.7" cy="181.9" r="2.2"/>
<circle cx="224.4" cy="181.8" r="2.2"/>
<circle cx="115.1" cy="175.4" r="2.1"/>
<circle cx="190.3" cy="175.4" r="2.1"/>
<circle cx="33.4" cy="170.1" r="2.1"/>
<circle cx="104.6" cy="169.3" r="2.1"/>
<circle cx="235.9" cy="169.8" r="2.1"/>
<circle cx="25.6" cy="164.2" r="2.0"/>
<circle cx="208.6" cy="164.6" r="2.0"/>
<circle cx="127.2" cy="156.9" r="1.9"/>
<circle cx="46.5" cy="151.7" r="1.9"/>
<circle cx="95.9" cy="153.0" r="1.9"/>
<circle cx="135.0" cy="144.7" r="1.8"/>
<circle cx="244.1" cy="145.4" r="1.8"/>
<circle cx="150.4" cy="132.3" r="1.7"/>
<circle cx="183.6" cy="132.5" r="1.7"/>
<circle cx="70.9" cy="126.5" r="1.6"/>
</g>
<text x="4" y="196" font-family="monospace" font-size="8" fill="#5cc8e0">R4C3 neural-high hi-bot lo-mid med-top</text>
<text x="276" y="196" text-anchor="end" font-family="monospace" font-size="8" fill="#d4a04a">63el 7ms</text>
</g>
<g transform="translate(888,648)">
<clipPath id="clip15"><rect width="280" height="200"/></clipPath>
<g clip-path="url(#clip15)">
<rect class="panel" width="280" height="200"/>
<path d="M16.4,0.0 Q17.6,6.0 18.4,9.0 T19.2,12.0" stroke-width="5.78"/>
<path d="M27.3,0.0 Q28.4,6.0 29.2,9.0 Q30.0,12.0 30.8,15.0 Q31.7,17.9 32.4,20.9 T33.1,23.9" stroke-width="5.38"/>
<path d="M41.5,0.0 Q42.5,6.1 43.2,9.1 Q43.9,12.1 44.6,15.1 T45.3,18.1" stroke-width="4.67"/>
<path d="M52.1,0.0 Q53.1,6.1 53.7,9.1 Q54.3,12.1 55.0,15.1 T55.6,18.1" stroke-width="13.38"/>
<path d="M65.9,0.0 Q66.8,6.1 67.2,9.1 Q67.7,12.2 68.2,15.2 Q68.7,18.3 69.1,21.3 Q69.5,24.4 69.8,27.4 T70.2,30.5" stroke-width="1.27"/>
<path d="M76.8,0.0 Q77.4,6.1 77.8,9.2 Q78.2,12.2 78.5,15.3 Q78.9,18.4 79.1,21.4 Q79.3,24.5 79.5,27.6 T79.6,30.7" stroke-width="8.32"/>
<path d="M92.3,0.0 Q92.7,6.1 92.9,9.2 Q93.2,12.3 93.5,15.3 T93.8,18.4" stroke-width="1.15"/>
<path d="M101.8,0.0 Q102.1,6.1 102.4,9.2 Q102.6,12.3 102.8,15.4 Q103.1,18.4 103.2,21.5 Q103.3,24.6 103.4,27.7 Q103.5,30.7 103.4,33.8 Q103.4,36.9 103.0,40.0 T102.7,43.0" stroke-width="8.07"/>
<path d="M115.1,0.0 L115.3,6.2" stroke-width="4.23"/>
<path d="M127.1,0.0 L127.3,6.2" stroke-width="0.70"/>
<path d="M139.8,0.0 Q139.8,6.2 139.8,9.2 Q139.9,12.3 140.0,15.4 T140.2,18.5" stroke-width="2.72"/>
<path d="M150.3,0.0 L150.3,6.2" stroke-width="0.56"/>
<path d="M163.7,0.0 Q163.8,6.2 163.9,9.2 Q164.0,12.3 164.3,15.4 Q164.6,18.5 164.9,21.5 Q165.2,24.6 165.5,27.6 Q165.8,30.7 166.1,33.8 Q166.4,36.8 166.8,39.9 T167.2,43.0" stroke-width="2.13"/>
<path d="M176.7,0.0 Q176.6,6.2 176.7,9.2 Q176.8,12.3 177.0,15.4 Q177.3,18.5 177.6,21.5 Q177.9,24.6 178.3,27.6 T178.6,30.7" stroke-width="10.86"/>
<path d="M193.1,0.0 L193.1,6.2" stroke-width="4.80"/>
<path d="M202.6,0.0 L202.4,6.2" stroke-width="2.69"/>
<path d="M215.2,0.0 Q214.7,6.1 214.5,9.2 Q214.3,12.3 214.1,15.4 Q214.0,18.4 213.9,21.5 T213.9,24.6" stroke-width="10.87"/>
<path d="M225.4,0.0 Q224.7,6.1 224.4,9.2 Q224.0,12.2 223.8,15.3 Q223.6,18.4 223.3,21.5 Q223.1,24.5 223.0,27.6 T222.8,30.7" stroke-width="3.15"/>
<path d="M237.5,0.0 Q236.6,6.1 236.1,9.1 Q235.6,12.2 235.2,15.2 Q234.7,18.3 234.3,21.3 T233.8,24.4" stroke-width="4.54"/>
<path d="M252.4,0.0 Q251.4,6.1 250.8,9.1 T250.2,12.1" stroke-width="0.20"/>
<path d="M264.2,0.0 Q263.1,6.1 262.4,9.1 T261.7,12.1" stroke-width="1.19"/>
<path d="M115.3,6.2 L115.6,12.3" stroke-width="4.82"/>
<path d="M127.3,6.2 L127.7,12.3" stroke-width="0.20"/>
<path d="M150.3,6.2 L150.4,12.3" stroke-width="4.44"/>
<path d="M193.1,6.2 L193.2,12.3" stroke-width="9.63"/>
<path d="M202.4,6.2 L202.2,12.3" stroke-width="0.29"/>
<path d="M19.2,12.0 L20.9,17.9" stroke-width="6.23"/>
<path d="M115.6,12.3 Q116.1,18.5 116.2,21.5 T116.3,24.6" stroke-width="1.47"/>
<path d="M127.7,12.3 L128.1,18.5" stroke-width="4.06"/>
<path d="M150.4,12.3 Q150.7,18.5 150.9,21.5 T151.1,24.6" stroke-width="4.15"/>
<path d="M193.2,12.3 Q193.4,18.5 193.6,21.6 Q193.7,24.6 193.9,27.7 Q194.1,30.8 194.3,33.8 Q194.6,36.9 194.8,40.0 Q195.1,43.1 195.4,46.1 T195.8,49.2" stroke-width="4.39"/>
<path d="M202.2,12.3 Q202.3,18.5 202.4,21.6 Q202.5,24.6 202.7,27.7 T202.8,30.8" stroke-width="6.30"/>
<path d="M250.2,12.1 L249.1,18.2" stroke-width="1.58"/>
<path d="M261.7,12.1 L260.3,18.1" stroke-width="1.94"/>
<path d="M20.9,17.9 L22.5,23.9" stroke-width="0.82"/>
<path d="M128.1,18.5 L128.3,24.6" stroke-width="2.61"/>
<path d="M249.1,18.2 Q248.1,24.3 247.7,27.3 Q247.2,30.4 248.9,32.9 T250.6,35.5" stroke-width="6.33"/>
<path d="M128.3,24.6 Q128.7,30.8 128.7,33.8 T128.8,36.9" stroke-width="1.66"/>
<path d="M151.1,24.6 L151.5,30.8" stroke-width="1.34"/>
<path d="M151.5,30.8 Q151.8,36.9 151.9,40.0 Q152.1,43.1 152.2,46.1 Q152.3,49.2 152.6,52.3 Q152.9,55.4 153.4,58.4 Q153.9,61.4 154.4,64.5 Q155.0,67.5 157.5,69.3 T160.0,71.0" stroke-width="3.87"/>
<path d="M178.6,30.7 L179.5,36.8" stroke-width="0.20"/>
<path d="M179.5,36.8 L180.5,42.9" stroke-width="0.20"/>
<circle cx="45.3" cy="18.1" r="2.2"/>
<circle cx="55.6" cy="18.1" r="2.2"/>
<circle cx="93.8" cy="18.4" r="2.2"/>
<circle cx="140.2" cy="18.5" r="2.2"/>
<circle cx="22.5" cy="23.9" r="2.1"/>
<circle cx="33.1" cy="23.9" r="2.1"/>
<circle cx="116.3" cy="24.6" r="2.1"/>
<circle cx="213.9" cy="24.6" r="2.1"/>
<circle cx="233.8" cy="24.4" r="2.1"/>
<circle cx="70.2" cy="30.5" r="2.1"/>
<circle cx="79.6" cy="30.7" r="2.1"/>
<circle cx="202.8" cy="30.8" r="2.1"/>
<circle cx="222.8" cy="30.7" r="2.1"/>
<circle cx="128.8" cy="36.9" r="2.0"/>
<circle cx="250.6" cy="35.5" r="2.0"/>
<circle cx="102.7" cy="43.0" r="1.9"/>
<circle cx="167.2" cy="43.0" r="1.9"/>
<circle cx="180.5" cy="42.9" r="1.9"/>
<circle cx="195.8" cy="49.2" r="1.9"/>
<circle cx="160.0" cy="71.0" r="1.6"/>
</g>
<text x="4" y="196" font-family="monospace" font-size="8" fill="#5cc8e0">R4C4 neural-high hi-top lo-mid zero-bot</text>
<text x="276" y="196" text-anchor="end" font-family="monospace" font-size="8" fill="#d4a04a">62el 8ms</text>
</g>
<text x="12" y="880" font-family="monospace" font-size="11" fill="#5cc8e0">v25 no-hooks+merges, gamma-thickness neural - 647 elements in 0.08s</text>
</svg>