<svg xmlns="http://www.w3.org/2000/svg" viewBox="0 0 1560 588"><rect width="1560" height="588" fill="#0a1a24"/><g transform="translate(8,8)"><rect width="380" height="250" fill="none" stroke="#1a5a6e" stroke-width="0.5"/><g fill="none" stroke="#5cc8e0" stroke-opacity="0.6"><path d="M321.1,7.8 L318.0,8.7" stroke-width="0.35"/><path d="M326.9,7.9 L326.7,10.9 L325.8,14.0 L323.7,16.5 L321.1,18.1 L318.3,18.6 L320.8,17.5 L320.5,14.8 L318.1,12.9" stroke-width="0.30"/><path d="M323.1,9.3 L323.7,12.0 L324.1,8.5 L322.3,5.4 L319.3,4.3 L322.1,6.1 L320.3,10.3" stroke-width="0.30"/><path d="M318.2,4.4 L322.8,3.8 L325.6,5.0 L326.9,7.9 L323.1,9.3 L320.4,12.5 L317.1,13.6 L314.2,12.2" stroke-width="0.35"/><path d="M311.1,18.2 L314.8,18.0 L314.1,11.8 L316.7,9.0 L320.4,11.8 L321.1,7.8 L317.0,8.2 L321.2,7.4 L318.2,4.4" stroke-width="0.66"/><path d="M318.3,2.0 L321.1,2.3 L318.8,1.4 L322.0,2.3 L324.7,4.7" stroke-width="0.30"/><path d="M313.5,6.3 L317.0,4.1 L320.4,4.1 L317.4,4.6 L318.2,8.2 L321.7,8.4 L319.8,12.3 L317.2,10.8" stroke-width="0.30"/><path d="M317.0,5.1 L316.6,7.8 L313.9,10.1 L314.5,7.7 L314.8,10.7 L317.8,10.7" stroke-width="0.30"/><path d="M320.7,4.3 L317.6,3.6 L313.9,5.0 L318.3,2.0 L316.6,4.4 L313.5,6.3 L317.0,5.1 L317.3,9.2" stroke-width="0.35"/><path d="M322.2,7.9 L323.8,11.6 L322.7,8.0 L323.2,11.3 L320.1,10.0" stroke-width="0.35"/><path d="M316.6,18.1 L311.8,15.3 L311.5,11.4 L312.9,7.0 L316.7,6.0 L320.7,4.3 L322.2,7.9 L317.1,6.4 L318.7,10.5" stroke-width="0.66"/><path d="M312.8,10.9 L313.0,6.7 L316.3,5.0 L315.1,7.4 L318.5,7.2 L321.0,8.7 L318.2,10.1" stroke-width="0.30"/><path d="M313.5,14.4 L315.9,12.1 L318.0,14.4 L321.7,13.5 L324.5,10.6 L324.5,7.5" stroke-width="0.30"/><path d="M320.5,17.5 L317.7,16.1 L319.5,13.4 L316.0,13.8 L312.8,10.9 L313.5,14.4 L316.7,10.4 L316.9,5.9 L320.5,7.6" stroke-width="0.35"/><path d="M313.4,14.4 L317.2,16.4 L313.2,14.9 L316.9,18.2 L321.6,16.6 L323.8,13.6 L320.5,17.5" stroke-width="0.66"/><path d="M316.2,20.1 L310.9,18.1 L315.8,21.1 L311.1,18.2 L316.6,18.1 L313.4,14.4 L316.8,10.1" stroke-width="1.25"/><path d="M293.5,7.7 L299.4,6.9 L305.1,7.0 L311.7,7.5 L315.8,7.3 L321.6,8.1 L322.2,14.8 L317.7,17.4 L311.8,15.3 L316.2,20.1" stroke-width="2.38"/><path d="M261.1,62.0 L260.1,64.6 L258.7,68.0 L258.3,70.4 L258.3,73.3 L257.7,76.0 L257.4,79.1 L256.3,82.1 L255.4,84.8" stroke-width="0.30"/><path d="M269.6,48.7 L266.7,51.4 L264.9,54.1 L263.0,57.9 L261.1,62.0 L257.8,60.1" stroke-width="0.35"/><path d="M271.6,37.9 L271.3,41.6 L271.1,45.0 L269.6,48.7 L271.6,53.4 L272.9,57.7 L273.9,62.4 L273.5,68.0 L273.4,72.5 L273.5,77.5" stroke-width="0.66"/><path d="M299.2,60.3 L302.3,62.2 L305.5,64.1 L308.8,66.6 L311.6,68.3 L313.9,70.3 L316.7,72.4" stroke-width="0.30"/><path d="M301.9,73.0 L302.6,76.6 L304.3,78.7 L308.1,80.9 L311.1,81.5 L314.6,82.3 L318.0,83.1 L321.1,83.2 L324.0,83.6" stroke-width="0.30"/><path d="M287.3,51.1 L290.4,54.2 L293.4,57.1 L296.0,58.1 L299.2,60.3 L300.0,64.0 L301.0,67.9 L301.9,73.0" stroke-width="0.35"/><path d="M317.9,61.4 L319.2,63.5 L320.3,66.2 L322.4,69.0 L324.5,71.6 L325.8,74.7 L326.2,78.1" stroke-width="0.30"/><path d="M320.8,61.2 L324.4,62.9 L326.9,64.9 L328.6,67.5 L329.6,70.0 L330.7,73.3 L330.9,77.4" stroke-width="0.30"/><path d="M328.6,63.1 L331.0,65.0 L332.2,67.5 L333.5,71.3 L334.4,75.0" stroke-width="0.30"/><path d="M295.1,50.2 L299.1,50.9 L303.8,52.1 L307.9,52.1 L310.9,53.7 L313.8,56.6 L315.6,58.5 L317.9,61.4 L320.8,61.2 L325.2,62.1 L328.6,63.1" stroke-width="0.35"/><path d="M278.4,41.6 L281.8,43.5 L284.3,47.7 L287.3,51.1 L291.7,51.4 L295.1,50.2 L300.1,48.8 L304.9,47.8 L308.0,48.4" stroke-width="0.66"/><path d="M244.1,94.1 L241.7,94.4 L238.8,94.2 L237.4,96.9 L236.6,100.5 L236.3,104.1 L237.2,107.8 L238.2,110.3" stroke-width="0.30"/><path d="M261.7,85.7 L258.5,87.9 L254.8,90.3 L252.1,91.5 L247.7,92.6 L244.1,94.1 L244.4,91.2 L240.7,88.1" stroke-width="0.35"/><path d="M251.9,103.5 L249.6,103.7 L247.6,102.8 L245.3,100.3 L242.7,99.4 L239.8,98.7 L236.7,97.8" stroke-width="0.30"/><path d="M254.3,100.6 L251.4,99.0 L249.0,97.1 L247.5,93.4 L244.6,95.4 L243.4,97.1 L240.0,98.9 L242.6,97.2 L239.7,96.8" stroke-width="0.30"/><path d="M247.5,97.7 L243.6,97.7 L241.4,100.0 L238.7,100.0 L235.7,99.2 L234.2,96.3 L234.6,94.0" stroke-width="0.30"/><path d="M262.2,90.9 L261.6,94.2 L258.4,99.0 L255.7,101.5 L251.9,103.5 L254.3,100.6 L250.6,98.7 L247.5,97.7 L243.8,99.1 L246.6,96.7 L244.7,92.1" stroke-width="0.35"/><path d="M273.5,42.2 L270.6,45.7 L267.5,49.2 L265.2,53.5 L263.3,57.5 L263.2,62.0 L263.0,65.8 L263.5,68.6 L264.2,73.2 L264.9,76.6 L263.8,80.9 L261.7,85.7 L262.2,90.9" stroke-width="0.66"/><path d="M272.6,23.8 L271.7,28.8 L271.3,32.9 L271.6,37.9 L276.9,37.2 L278.4,41.6 L273.5,42.2 L277.9,44.5" stroke-width="1.25"/><path d="M290.2,9.7 L283.8,10.1 L279.5,13.7 L275.1,20.0 L272.6,23.8 L267.3,24.6 L261.6,26.1 L256.5,32.3 L251.7,34.8 L246.5,35.7" stroke-width="2.38"/><path d="M357.1,93.6 L359.5,96.1 L361.1,99.1 L362.2,101.7 L364.2,105.2 L365.0,107.8 L366.1,110.7" stroke-width="0.30"/><path d="M344.7,72.1 L345.5,75.0 L346.5,79.0 L347.7,82.3 L350.5,85.9 L352.5,87.7 L355.5,90.2 L357.1,93.6" stroke-width="0.35"/><path d="M358.6,87.2 L357.5,90.5 L358.8,87.5 L357.3,90.2 L355.0,88.0 L352.8,86.0" stroke-width="0.30"/><path d="M349.2,70.3 L352.3,71.7 L355.2,74.0 L356.3,76.7 L358.2,80.2 L358.8,83.9 L358.6,87.2" stroke-width="0.35"/><path d="M361.0,74.5 L361.9,77.4 L362.5,80.6 L362.9,84.0 L362.9,87.2 L362.4,90.8 L362.3,93.9 L363.3,97.5 L364.8,94.5" stroke-width="0.30"/><path d="M365.1,79.9 L366.7,83.4 L366.3,86.3 L367.0,89.8 L367.9,93.5 L367.0,96.6 L365.8,98.7" stroke-width="0.30"/><path d="M366.7,83.6 L365.6,86.0 L361.8,85.4 L359.2,85.2 L356.1,88.3 L355.9,85.3" stroke-width="0.30"/><path d="M361.6,86.3 L358.3,87.1 L354.7,86.1" stroke-width="0.30"/><path d="M359.6,88.3 L360.2,91.0 L359.4,94.5 L358.0,97.3 L357.9,100.5 L356.7,103.6 L356.5,106.5" stroke-width="0.30"/><path d="M352.4,68.7 L356.6,69.8 L359.3,71.5 L361.0,74.5 L363.2,76.7 L365.1,79.9 L366.7,83.6 L364.9,86.0 L361.6,86.3 L359.6,88.3 L357.6,91.4" stroke-width="0.35"/><path d="M334.6,48.4 L335.6,52.1 L336.4,55.6 L337.7,59.2 L341.9,63.8 L343.9,67.7 L344.7,72.1 L349.2,70.3 L352.4,68.7 L347.7,69.7 L344.1,73.1" stroke-width="0.66"/><path d="M346.6,89.3 L349.7,91.2 L347.9,89.1 L350.9,87.6 L351.1,84.3 L353.8,82.9 L349.8,83.4 L347.2,85.8" stroke-width="0.30"/><path d="M339.5,66.8 L338.4,69.9 L337.9,75.0 L338.6,78.3 L340.7,82.0 L342.4,84.9 L344.4,87.3 L346.6,89.3 L348.3,93.5 L352.2,95.6 L354.9,98.5" stroke-width="0.35"/><path d="M357.7,73.3 L359.5,76.4 L356.2,76.2 L353.6,78.2 L350.8,80.8 L353.7,79.0" stroke-width="0.30"/><path d="M361.1,74.9 L359.2,73.9 L362.3,75.9 L363.5,79.4 L364.8,82.8" stroke-width="0.30"/><path d="M359.1,73.9 L361.9,75.6 L358.2,76.8 L356.5,79.5 L357.0,83.0 L354.7,81.5 L351.0,80.0 L354.8,79.5" stroke-width="0.30"/><path d="M343.7,65.2 L347.9,68.0 L352.7,67.3 L355.3,69.9 L357.7,73.3 L361.1,74.9 L359.1,73.9 L363.1,76.2 L364.4,80.0" stroke-width="0.35"/><path d="M367.1,77.6 L366.4,81.4 L366.4,84.8 L364.8,88.2 L364.2,91.7" stroke-width="0.30"/><path d="M348.5,65.7 L353.1,65.9 L356.9,66.3 L360.2,68.8 L363.1,70.9 L365.7,73.7 L367.1,77.6 L368.3,79.9" stroke-width="0.35"/><path d="M338.0,52.9 L339.4,57.8 L341.3,62.8 L339.5,66.8 L343.7,65.2 L348.5,65.7 L352.0,65.4 L349.0,67.7 L351.3,70.4" stroke-width="0.66"/><path d="M331.5,31.9 L331.5,38.2 L333.2,43.3 L334.6,48.4 L338.0,52.9 L343.1,50.9 L347.6,50.2 L351.6,51.2" stroke-width="1.25"/><path d="M325.0,15.5 L329.4,18.4 L332.1,26.3 L331.5,31.9 L324.4,34.6 L323.5,40.5 L322.9,47.1 L321.6,53.2 L321.0,60.0 L321.7,66.2 L321.8,72.3 L320.7,79.0 L324.4,85.3 L330.1,85.0" stroke-width="2.38"/><path d="M269.8,5.0 L278.2,5.2 L286.1,7.1 L293.5,7.7 L292.1,15.2 L290.2,9.7 L297.2,7.9 L302.9,9.1 L309.9,10.0 L317.1,11.1 L325.0,15.5 L333.1,12.9 L338.8,13.5 L342.7,20.4 L340.8,28.7 L336.8,34.2 L330.9,36.5 L336.4,33.8" stroke-width="4.50"/><path d="M318.0,8.7 L320.3,10.3" stroke-width="0.15"/><path d="M318.1,12.9 L318.2,4.4" stroke-width="0.15"/><path d="M314.2,12.2 L317.8,10.7" stroke-width="0.15"/><path d="M324.7,4.7 L318.2,10.1" stroke-width="0.15"/><path d="M317.2,10.8 L320.5,17.5" stroke-width="0.15"/><path d="M317.3,9.2 L318.7,10.5" stroke-width="0.17"/><path d="M320.1,10.0 L316.8,10.1" stroke-width="0.17"/><path d="M324.5,7.5 L320.5,7.6" stroke-width="0.15"/><path d="M316.2,20.1 L336.4,33.8" stroke-width="1.19"/><path d="M255.4,84.8 L273.5,77.5" stroke-width="0.15"/><path d="M316.7,72.4 L324.0,83.6" stroke-width="0.15"/><path d="M326.2,78.1 L330.9,77.4" stroke-width="0.15"/><path d="M334.4,75.0 L354.7,86.1" stroke-width="0.15"/><path d="M328.6,63.1 L344.1,73.1" stroke-width="0.17"/><path d="M238.2,110.3 L239.7,96.8" stroke-width="0.15"/><path d="M240.7,88.1 L236.7,97.8" stroke-width="0.15"/><path d="M244.7,92.1 L262.2,90.9" stroke-width="0.17"/><path d="M366.1,110.7 L365.8,98.7" stroke-width="0.15"/><path d="M357.1,93.6 L356.5,106.5" stroke-width="0.15"/><path d="M352.8,86.0 L357.6,91.4" stroke-width="0.15"/><path d="M358.6,87.2 L364.4,80.0" stroke-width="0.17"/><path d="M364.8,94.5 L355.9,85.3" stroke-width="0.15"/><path d="M347.2,85.8 L354.9,98.5" stroke-width="0.15"/><path d="M353.7,79.0 L354.8,79.5" stroke-width="0.15"/><path d="M364.8,82.8 L364.2,91.7" stroke-width="0.15"/></g><g fill="#5cc8e0" stroke="none" fill-opacity="0.8"><circle cx="318.0" cy="8.7" r="1.0"/><circle cx="318.1" cy="12.9" r="1.0"/><circle cx="320.3" cy="10.3" r="1.0"/><circle cx="314.2" cy="12.2" r="1.0"/><circle cx="318.2" cy="4.4" r="1.0"/><circle cx="324.7" cy="4.7" r="1.0"/><circle cx="317.2" cy="10.8" r="1.0"/><circle cx="317.8" cy="10.7" r="1.0"/><circle cx="317.3" cy="9.2" r="1.0"/><circle cx="320.1" cy="10.0" r="1.0"/><circle cx="318.7" cy="10.5" r="1.0"/><circle cx="318.2" cy="10.1" r="1.0"/><circle cx="324.5" cy="7.5" r="1.0"/><circle cx="320.5" cy="7.6" r="1.0"/><circle cx="320.5" cy="17.5" r="1.0"/><circle cx="316.8" cy="10.1" r="1.0"/><circle cx="316.2" cy="20.1" r="1.7"/><circle cx="255.4" cy="84.8" r="1.0"/><circle cx="257.8" cy="60.1" r="1.0"/><circle cx="273.5" cy="77.5" r="1.0"/><circle cx="316.7" cy="72.4" r="1.0"/><circle cx="324.0" cy="83.6" r="1.0"/><circle cx="301.9" cy="73.0" r="1.0"/><circle cx="326.2" cy="78.1" r="1.0"/><circle cx="330.9" cy="77.4" r="1.0"/><circle cx="334.4" cy="75.0" r="1.0"/><circle cx="328.6" cy="63.1" r="1.0"/><circle cx="308.0" cy="48.4" r="1.0"/><circle cx="238.2" cy="110.3" r="1.0"/><circle cx="240.7" cy="88.1" r="1.0"/><circle cx="236.7" cy="97.8" r="1.0"/><circle cx="239.7" cy="96.8" r="1.0"/><circle cx="234.6" cy="94.0" r="1.0"/><circle cx="244.7" cy="92.1" r="1.0"/><circle cx="262.2" cy="90.9" r="1.0"/><circle cx="277.9" cy="44.5" r="1.0"/><circle cx="246.5" cy="35.7" r="1.7"/><circle cx="366.1" cy="110.7" r="1.0"/><circle cx="357.1" cy="93.6" r="1.0"/><circle cx="352.8" cy="86.0" r="1.0"/><circle cx="358.6" cy="87.2" r="1.0"/><circle cx="364.8" cy="94.5" r="1.0"/><circle cx="365.8" cy="98.7" r="1.0"/><circle cx="355.9" cy="85.3" r="1.0"/><circle cx="354.7" cy="86.1" r="1.0"/><circle cx="356.5" cy="106.5" r="1.0"/><circle cx="357.6" cy="91.4" r="1.0"/><circle cx="344.1" cy="73.1" r="1.0"/><circle cx="347.2" cy="85.8" r="1.0"/><circle cx="354.9" cy="98.5" r="1.0"/><circle cx="353.7" cy="79.0" r="1.0"/><circle cx="364.8" cy="82.8" r="1.0"/><circle cx="354.8" cy="79.5" r="1.0"/><circle cx="364.4" cy="80.0" r="1.0"/><circle cx="364.2" cy="91.7" r="1.0"/><circle cx="368.3" cy="79.9" r="1.0"/><circle cx="351.3" cy="70.4" r="1.0"/><circle cx="351.6" cy="51.2" r="1.0"/><circle cx="330.1" cy="85.0" r="1.7"/><circle cx="336.4" cy="33.8" r="3.1"/></g><g fill="#0a1a24" stroke="none"></g></g><text x="198.0" y="278" text-anchor="middle" fill="#5cc8e0" font-size="11" font-family="monospace">neural uniform (145)</text><g transform="translate(396,8)"><rect width="380" height="250" fill="none" stroke="#1a5a6e" stroke-width="0.5"/><g fill="none" stroke="#5cc8e0" stroke-opacity="0.6"><path d="M86.5,79.4 L88.1,82.2 L90.3,83.8 L93.3,84.8 L96.2,85.7 L99.6,85.8" stroke-width="0.30"/><path d="M78.6,81.3 L75.9,82.1 L72.8,82.5 L69.8,82.8 L67.1,82.5 L63.7,81.9 L61.3,80.4" stroke-width="0.30"/><path d="M78.2,84.7 L79.7,86.5 L82.4,89.5 L84.1,92.2 L86.2,94.2 L88.9,95.6 L91.8,96.8" stroke-width="0.30"/><path d="M85.1,67.1 L85.8,71.5 L85.3,75.5 L86.5,79.4 L84.0,77.3 L81.0,80.0 L78.6,81.3 L78.2,84.7 L74.9,86.6" stroke-width="0.35"/><path d="M83.2,48.5 L84.1,53.9 L84.2,57.7 L84.1,61.7 L85.1,67.1 L87.4,61.7 L91.2,63.4 L94.7,65.9" stroke-width="0.66"/><path d="M62.3,52.1 L60.4,55.1 L59.6,57.8 L59.4,61.2 L61.2,64.6 L63.0,67.5" stroke-width="0.35"/><path d="M60.8,37.6 L60.8,34.8 L62.2,30.6 L63.9,27.7 L66.4,25.8 L69.5,25.3" stroke-width="0.30"/><path d="M63.8,48.4 L61.8,45.3 L61.0,41.4 L60.8,37.6 L60.4,41.5 L56.4,42.9" stroke-width="0.35"/><path d="M78.3,47.4 L72.4,47.6 L67.8,48.9 L62.3,52.1 L63.8,48.4 L68.2,50.3" stroke-width="0.66"/><path d="M87.2,33.5 L86.0,38.3 L83.8,43.4 L83.2,48.5 L78.3,47.4 L73.9,44.4 L78.7,39.6" stroke-width="1.25"/><path d="M92.7,19.2 L91.2,23.9 L89.2,28.4 L87.2,33.5 L92.4,29.4 L98.0,27.1" stroke-width="2.38"/><path d="M113.9,5.0 L108.7,9.1 L102.5,11.7 L95.9,15.5 L92.7,19.2 L94.1,11.7 L93.9,4.4 L91.8,0.0" stroke-width="4.50"/><path d="M256.6,112.1 L256.0,115.5 L255.4,118.7 L254.6,121.8 L255.2,124.6" stroke-width="0.30"/><path d="M257.3,115.2 L256.7,118.8 L255.9,122.1 L255.3,125.5 L253.6,129.3 L252.2,132.3 L250.7,134.6 L248.9,137.0" stroke-width="0.30"/><path d="M259.7,90.7 L258.1,93.9 L257.9,97.5 L257.8,100.9 L257.2,105.5 L257.1,108.5 L256.6,112.1 L257.3,115.2" stroke-width="0.35"/><path d="M269.4,117.3 L271.6,119.8 L273.4,123.4 L275.5,125.5 L277.6,128.4 L280.2,130.5 L283.0,133.1 L286.0,135.8 L288.5,138.4" stroke-width="0.30"/><path d="M276.8,124.3 L278.7,121.6 L280.6,119.0 L282.2,116.2 L283.9,112.9 L285.3,109.3 L286.7,105.8" stroke-width="0.30"/><path d="M260.0,108.8 L262.9,112.0 L266.4,114.4 L269.4,117.3 L271.4,119.2 L274.4,121.7 L276.8,124.3" stroke-width="0.35"/><path d="M251.2,139.7 L249.1,142.6 L247.5,145.3 L244.8,147.9 L242.9,150.3" stroke-width="0.30"/><path d="M259.0,112.1 L259.0,115.1 L259.5,119.5 L259.6,123.0 L258.8,126.7 L257.3,130.7 L255.9,133.3 L253.8,136.3 L251.2,139.7 L249.5,143.4" stroke-width="0.35"/><path d="M263.7,78.8 L263.1,82.8 L260.7,87.5 L259.7,90.7 L260.3,96.2 L259.8,100.2 L260.0,104.1 L260.0,108.8 L259.0,112.1 L258.9,116.5 L259.1,121.2" stroke-width="0.66"/><path d="M251.5,123.8 L249.5,126.5 L248.0,129.7 L246.3,132.4 L245.9,135.6 L244.8,138.1 L244.4,141.1" stroke-width="0.30"/><path d="M250.2,107.6 L249.9,112.4 L250.5,115.9 L250.5,120.1 L251.5,123.8 L252.3,126.6" stroke-width="0.35"/><path d="M245.8,140.9 L245.9,144.0 L244.1,147.0 L242.7,148.7 L242.4,152.3 L242.7,148.8 L243.2,151.8 L246.2,153.7" stroke-width="0.30"/><path d="M251.7,127.8 L253.1,130.7 L254.1,133.2 L251.4,135.0 L249.0,138.3 L245.8,140.9 L245.1,146.2" stroke-width="0.35"/><path d="M251.4,90.0 L251.6,94.1 L251.8,98.3 L250.9,103.1 L250.2,107.6 L249.3,111.9 L249.4,116.0 L249.2,121.3 L250.9,124.6 L251.7,127.8" stroke-width="0.66"/><path d="M245.1,89.8 L249.8,88.1 L253.4,86.0 L256.9,83.9 L260.5,81.7 L265.6,80.0 L269.0,79.1 L273.5,78.5 L278.7,78.4 L283.1,79.8 L287.5,79.3 L293.0,80.7 L299.2,80.3" stroke-width="0.66"/><path d="M232.6,126.6 L230.5,129.3 L228.9,132.4 L227.8,136.5 L225.9,141.0 L225.3,144.8 L224.5,148.2 L223.7,151.9 L222.8,155.1" stroke-width="0.35"/><path d="M229.2,150.3 L228.1,153.2 L226.6,155.7 L225.4,158.4 L225.9,161.8 L224.4,164.8 L222.9,167.2 L220.5,169.3 L218.1,171.5" stroke-width="0.30"/><path d="M231.5,138.3 L230.4,142.8 L230.3,146.5 L229.2,150.3 L228.8,153.8 L228.6,157.0" stroke-width="0.35"/><path d="M241.1,100.8 L239.5,105.1 L238.2,108.9 L237.4,114.2 L235.2,118.2 L233.7,122.7 L232.6,126.6 L231.2,130.4 L231.1,133.9 L231.5,138.3 L231.9,142.2" stroke-width="0.66"/><path d="M245.7,144.3 L243.9,147.4 L242.7,150.2 L239.9,151.2 L237.2,153.8 L235.1,156.8 L233.6,159.3" stroke-width="0.30"/><path d="M254.1,124.1 L255.1,128.3 L254.1,132.2 L252.0,135.4 L250.2,139.3 L248.4,141.7 L245.7,144.3 L244.2,147.8" stroke-width="0.35"/><path d="M244.1,104.3 L246.6,108.3 L248.5,111.6 L251.6,116.4 L252.5,120.1 L254.1,124.1 L254.9,128.6" stroke-width="0.66"/><path d="M267.3,64.4 L265.8,69.6 L264.6,74.7 L263.7,78.8 L261.8,83.8 L260.8,89.3 L256.7,89.4 L251.4,90.0 L245.1,89.8 L240.3,91.6 L240.0,95.8 L241.1,100.8 L244.1,104.3" stroke-width="1.25"/><path d="M260.3,82.3 L263.5,82.1 L266.0,80.9 L269.5,80.9 L272.6,79.3 L276.2,78.1" stroke-width="0.30"/><path d="M264.5,81.0 L267.6,78.9 L271.1,78.0 L273.7,77.0 L276.9,75.9 L279.5,75.3 L283.6,74.8" stroke-width="0.30"/><path d="M271.3,76.5 L273.9,73.9 L276.6,72.5 L279.0,72.1 L282.7,71.6 L285.6,71.4" stroke-width="0.30"/><path d="M275.7,73.9 L278.4,73.4 L282.1,73.8 L284.6,73.1 L288.3,73.1 L292.5,72.5 L295.6,71.8" stroke-width="0.30"/><path d="M249.5,86.3 L253.9,85.2 L257.4,84.5 L260.3,82.3 L264.5,81.0 L267.4,78.9 L271.3,76.5 L275.7,73.9 L278.8,73.9 L282.8,74.0" stroke-width="0.35"/><path d="M281.5,73.1 L284.3,72.0 L287.6,70.7 L290.6,71.0 L292.6,70.7 L295.3,70.0 L298.0,69.2" stroke-width="0.30"/><path d="M256.8,81.0 L259.6,79.6 L263.1,78.6 L266.5,76.4 L269.6,75.9 L273.4,74.1 L276.7,73.6 L281.5,73.1 L286.3,72.1 L290.2,71.4 L293.8,70.7" stroke-width="0.35"/><path d="M264.2,77.1 L268.2,75.8 L271.4,74.5 L274.9,73.1 L278.4,72.2 L281.8,70.9" stroke-width="0.35"/><path d="M244.2,89.9 L239.2,91.7 L241.6,90.5 L246.0,87.8 L249.5,86.3 L252.3,83.8 L256.8,81.0 L261.2,79.3 L264.2,77.1 L269.8,76.3 L272.2,76.1" stroke-width="0.66"/><path d="M238.8,92.9 L239.3,98.3 L239.8,102.0 L241.1,106.6 L243.4,109.7 L245.0,113.7 L247.1,117.6 L249.5,121.2 L251.7,124.6" stroke-width="0.66"/><path d="M253.4,135.9 L252.0,138.0 L250.6,141.2 L248.8,143.8 L246.5,146.6 L243.8,148.6 L242.3,150.7 L238.9,150.9 L235.9,152.9" stroke-width="0.30"/><path d="M247.2,146.4 L245.1,148.4 L243.4,151.5 L240.1,151.1 L238.8,155.3 L236.7,158.3 L233.1,160.8" stroke-width="0.30"/><path d="M251.2,120.9 L252.5,123.9 L254.0,127.4 L253.6,132.7 L253.4,135.9 L251.5,139.9 L250.3,142.8 L247.2,146.4 L245.4,149.7" stroke-width="0.35"/><path d="M236.0,157.2 L233.6,158.2 L230.8,160.3 L227.8,162.5 L225.7,165.1 L223.3,167.6 L221.5,169.8 L218.9,172.0" stroke-width="0.30"/><path d="M244.3,147.5 L241.5,149.9 L237.3,149.8 L241.3,151.4 L238.2,155.4 L236.0,157.2 L232.3,158.8" stroke-width="0.35"/><path d="M227.6,159.6 L224.7,161.8 L222.4,164.4 L219.2,166.5 L218.0,169.0 L217.0,171.8 L215.1,173.3 L212.4,175.2" stroke-width="0.30"/><path d="M238.4,148.3 L240.8,151.0 L237.0,153.3 L235.1,156.5 L230.9,157.6 L227.6,159.6 L223.8,161.8 L220.7,165.0 L218.0,167.2" stroke-width="0.35"/><path d="M244.7,109.8 L246.1,113.3 L249.5,117.2 L251.2,120.9 L252.7,125.2 L254.5,129.8 L255.1,134.1 L252.3,137.5 L250.4,140.1 L247.9,144.4 L244.3,147.5 L242.2,150.6 L238.4,148.3" stroke-width="0.66"/><path d="M262.5,76.7 L261.3,81.2 L259.9,86.4 L254.7,88.6 L249.4,89.7 L244.2,89.9 L238.8,92.9 L240.7,99.1 L243.5,104.8 L244.7,109.8" stroke-width="1.25"/><path d="M281.8,35.8 L286.4,40.1 L281.2,43.1 L275.3,45.1 L269.1,46.6 L270.5,53.5 L269.0,60.2 L267.3,64.4 L265.6,70.7 L262.5,76.7 L260.1,82.5 L260.0,89.6 L254.7,90.3 L248.4,90.4 L241.2,90.6" stroke-width="2.38"/><path d="M318.7,5.0 L319.6,11.0 L323.4,15.9 L327.1,23.7 L329.6,29.5 L325.3,35.0 L319.1,39.3 L313.1,43.1 L306.5,47.6 L299.1,50.9 L293.1,46.8 L289.6,39.6 L281.8,35.8 L290.6,40.0 L283.3,37.6 L274.8,41.3" stroke-width="4.50"/><path d="M69.5,25.3 L98.0,27.1" stroke-width="0.15"/><path d="M68.2,50.3 L78.7,39.6" stroke-width="0.33"/><path d="M255.2,124.6 L248.9,137.0" stroke-width="0.15"/><path d="M286.7,105.8 L299.2,80.3" stroke-width="0.15"/><path d="M242.9,150.3 L244.4,141.1" stroke-width="0.15"/><path d="M249.5,143.4 L259.1,121.2" stroke-width="0.17"/><path d="M252.3,126.6 L245.1,146.2" stroke-width="0.17"/><path d="M246.2,153.7 L231.9,142.2" stroke-width="0.15"/><path d="M251.7,127.8 L254.9,128.6" stroke-width="0.33"/><path d="M222.8,155.1 L228.6,157.0" stroke-width="0.17"/><path d="M218.1,171.5 L233.6,159.3" stroke-width="0.15"/><path d="M244.2,147.8 L235.9,152.9" stroke-width="0.15"/><path d="M244.1,104.3 L251.7,124.6" stroke-width="0.33"/><path d="M276.2,78.1 L285.6,71.4" stroke-width="0.15"/><path d="M283.6,74.8 L295.6,71.8" stroke-width="0.15"/><path d="M282.8,74.0 L298.0,69.2" stroke-width="0.15"/><path d="M233.1,160.8 L245.4,149.7" stroke-width="0.15"/><path d="M218.9,172.0 L218.0,167.2" stroke-width="0.15"/></g><g fill="#5cc8e0" stroke="none" fill-opacity="0.8"><circle cx="99.6" cy="85.8" r="1.0"/><circle cx="61.3" cy="80.4" r="1.0"/><circle cx="91.8" cy="96.8" r="1.0"/><circle cx="74.9" cy="86.6" r="1.0"/><circle cx="94.7" cy="65.9" r="1.0"/><circle cx="63.0" cy="67.5" r="1.0"/><circle cx="69.5" cy="25.3" r="1.0"/><circle cx="56.4" cy="42.9" r="1.0"/><circle cx="68.2" cy="50.3" r="1.0"/><circle cx="78.7" cy="39.6" r="1.0"/><circle cx="98.0" cy="27.1" r="1.7"/><circle cx="91.8" cy="0.0" r="3.1"/><circle cx="255.2" cy="124.6" r="1.0"/><circle cx="248.9" cy="137.0" r="1.0"/><circle cx="257.3" cy="115.2" r="1.0"/><circle cx="288.5" cy="138.4" r="1.0"/><circle cx="286.7" cy="105.8" r="1.0"/><circle cx="276.8" cy="124.3" r="1.0"/><circle cx="242.9" cy="150.3" r="1.0"/><circle cx="249.5" cy="143.4" r="1.0"/><circle cx="259.1" cy="121.2" r="1.0"/><circle cx="244.4" cy="141.1" r="1.0"/><circle cx="252.3" cy="126.6" r="1.0"/><circle cx="246.2" cy="153.7" r="1.0"/><circle cx="245.1" cy="146.2" r="1.0"/><circle cx="251.7" cy="127.8" r="1.0"/><circle cx="299.2" cy="80.3" r="1.0"/><circle cx="222.8" cy="155.1" r="1.0"/><circle cx="218.1" cy="171.5" r="1.0"/><circle cx="228.6" cy="157.0" r="1.0"/><circle cx="231.9" cy="142.2" r="1.0"/><circle cx="233.6" cy="159.3" r="1.0"/><circle cx="244.2" cy="147.8" r="1.0"/><circle cx="254.9" cy="128.6" r="1.0"/><circle cx="244.1" cy="104.3" r="1.0"/><circle cx="276.2" cy="78.1" r="1.0"/><circle cx="283.6" cy="74.8" r="1.0"/><circle cx="285.6" cy="71.4" r="1.0"/><circle cx="295.6" cy="71.8" r="1.0"/><circle cx="282.8" cy="74.0" r="1.0"/><circle cx="298.0" cy="69.2" r="1.0"/><circle cx="293.8" cy="70.7" r="1.0"/><circle cx="281.8" cy="70.9" r="1.0"/><circle cx="272.2" cy="76.1" r="1.0"/><circle cx="251.7" cy="124.6" r="1.0"/><circle cx="235.9" cy="152.9" r="1.0"/><circle cx="233.1" cy="160.8" r="1.0"/><circle cx="245.4" cy="149.7" r="1.0"/><circle cx="218.9" cy="172.0" r="1.0"/><circle cx="232.3" cy="158.8" r="1.0"/><circle cx="212.4" cy="175.2" r="1.0"/><circle cx="218.0" cy="167.2" r="1.0"/><circle cx="238.4" cy="148.3" r="1.0"/><circle cx="244.7" cy="109.8" r="1.0"/><circle cx="241.2" cy="90.6" r="1.7"/><circle cx="274.8" cy="41.3" r="3.1"/></g><g fill="#0a1a24" stroke="none"></g></g><text x="586.0" y="278" text-anchor="middle" fill="#5cc8e0" font-size="11" font-family="monospace">neural L-R (130)</text><g transform="translate(784,8)"><rect width="380" height="250" fill="none" stroke="#1a5a6e" stroke-width="0.5"/><g fill="none" stroke="#5cc8e0" stroke-opacity="0.6"><path d="M291.5,5.0 L290.3,11.6 L285.6,15.8 L281.1,21.4 L276.8,28.9 L274.0,36.8 L273.5,42.5 L271.7,49.5" stroke-width="4.50"/><path d="M183.1,58.1 L180.4,58.2 L177.4,57.4 L174.2,56.8 L172.0,56.4 L168.7,56.1 L165.3,56.0" stroke-width="0.30"/><path d="M197.6,60.1 L192.5,58.6 L188.3,57.7 L183.1,58.1 L179.6,58.6 L175.9,58.9 L172.5,59.6" stroke-width="0.35"/><path d="M179.6,60.6 L176.4,61.8 L172.8,62.2 L168.8,61.9 L164.7,61.0 L162.5,58.9" stroke-width="0.35"/><path d="M211.1,60.6 L206.6,60.7 L201.7,61.1 L197.6,60.1 L192.7,59.2 L188.3,60.1 L183.7,58.8 L179.6,60.6 L175.7,61.1" stroke-width="0.66"/><path d="M235.9,34.5 L235.4,39.4 L233.2,43.5 L230.4,49.0 L225.6,53.1 L221.0,56.0 L217.0,58.1 L211.1,60.6 L206.3,59.5 L200.7,56.8" stroke-width="1.25"/><path d="M258.1,34.4 L262.6,36.6 L266.7,39.4 L269.2,42.9 L269.2,48.0 L267.8,51.7 L269.9,55.6 L273.7,57.8" stroke-width="0.66"/><path d="M243.9,32.7 L249.0,32.5 L254.2,32.7 L258.1,34.4 L263.5,31.0 L267.3,28.5 L272.2,24.7" stroke-width="1.25"/><path d="M258.6,106.0 L257.7,109.4 L257.0,112.6 L255.9,115.7 L256.3,118.5" stroke-width="0.30"/><path d="M259.5,109.1 L259.8,112.8 L259.7,116.1 L259.7,119.6 L258.6,123.6 L257.7,126.7 L256.5,129.2 L255.1,131.7" stroke-width="0.30"/><path d="M261.6,84.7 L260.6,87.9 L260.4,91.5 L260.2,94.9 L259.5,99.4 L259.2,102.5 L258.6,106.0 L259.5,109.1" stroke-width="0.35"/><path d="M242.6,91.5 L240.2,92.7 L237.8,93.6 L236.1,96.5 L234.4,98.4 L231.9,100.9 L228.8,103.3" stroke-width="0.30"/><path d="M257.0,89.2 L253.8,90.3 L250.3,91.3 L246.3,90.4 L242.6,91.5 L238.9,92.4 L235.1,96.2 L231.4,97.9" stroke-width="0.35"/><path d="M231.0,106.7 L228.7,108.6 L225.9,111.4 L223.2,113.5 L220.2,114.1 L217.6,116.3 L215.2,118.9" stroke-width="0.30"/><path d="M221.6,112.9 L218.6,115.0 L216.6,117.4 L213.6,119.7 L216.3,117.9" stroke-width="0.30"/><path d="M239.9,94.4 L238.2,97.6 L236.1,100.5 L233.6,104.4 L231.0,106.7 L228.7,108.7 L225.6,110.7 L221.6,112.9" stroke-width="0.35"/><path d="M255.3,61.7 L256.4,66.2 L256.9,70.2 L259.0,75.6 L259.9,80.6 L261.6,84.7 L262.1,90.1 L261.2,85.8 L257.0,89.2 L251.9,89.6 L247.2,90.4 L243.6,92.1 L239.9,94.4" stroke-width="0.66"/><path d="M241.3,100.1 L242.5,103.8 L244.4,106.5 L245.6,109.8 L247.3,112.8" stroke-width="0.30"/><path d="M243.5,106.6 L244.5,109.3 L244.2,112.6 L246.1,115.6 L248.0,119.5 L249.8,122.3" stroke-width="0.30"/><path d="M245.3,111.0 L245.2,114.2 L245.9,116.6 L247.7,118.8 L248.8,122.4" stroke-width="0.30"/><path d="M238.9,89.9 L238.2,93.3 L239.9,96.6 L241.3,100.1 L242.5,103.3 L243.5,106.6 L245.3,111.0 L246.7,114.4 L250.5,116.6" stroke-width="0.35"/><path d="M228.7,104.1 L227.6,107.4 L225.8,111.2 L224.6,113.4 L223.9,117.6 L221.7,120.6 L220.9,123.9 L219.4,128.1 L220.0,126.0" stroke-width="0.35"/><path d="M224.4,106.5 L223.0,102.7 L221.6,99.6 L220.2,95.1 L219.0,91.8 L218.6,88.5 L218.1,85.9 L217.0,83.4" stroke-width="0.35"/><path d="M254.0,81.5 L250.2,81.8 L245.3,82.7 L241.6,85.3 L238.9,89.9 L238.5,94.7 L235.3,96.9 L232.4,101.0 L228.7,104.1 L224.4,106.5" stroke-width="0.66"/><path d="M254.1,44.3 L253.7,51.4 L253.5,55.8 L255.3,61.7 L255.8,67.3 L256.6,71.4 L254.4,76.3 L254.0,81.5 L257.7,84.5 L263.4,87.3 L259.1,88.9 L254.9,92.9 L250.6,94.0 L245.5,95.5" stroke-width="1.25"/><path d="M234.4,17.7 L232.4,23.9 L233.2,28.3 L235.9,34.5 L239.5,31.8 L243.9,32.7 L251.8,33.8 L251.2,39.1 L254.1,44.3 L258.0,40.5 L263.2,41.8 L268.4,44.9" stroke-width="2.38"/><path d="M228.6,23.3 L224.2,28.6 L223.0,36.3 L225.6,40.8 L232.4,42.1 L236.8,39.7 L242.1,37.3 L246.1,31.9" stroke-width="2.38"/><path d="M220.0,0.0 L214.7,0.4 L209.7,1.0 L204.9,2.7 L199.0,5.1 L196.3,8.5 L196.0,13.6" stroke-width="1.25"/><path d="M175.2,7.4 L172.6,10.0 L170.0,12.3 L168.7,15.5 L166.3,18.1 L164.4,20.7" stroke-width="0.35"/><path d="M178.0,3.8 L174.0,3.8 L170.8,2.1 L166.2,0.6 L163.6,0.0 L159.7,0.0" stroke-width="0.35"/><path d="M188.9,1.7 L184.0,2.1 L179.1,3.7 L175.2,7.4 L178.0,3.8 L173.9,4.1 L171.6,8.6 L166.6,7.9 L163.7,10.1 L160.1,13.7" stroke-width="0.66"/><path d="M180.6,0.0 L177.3,0.2 L177.3,0.0 L178.2,0.0 L182.3,0.3 L186.3,1.5" stroke-width="0.30"/><path d="M172.2,0.0 L173.3,0.0 L175.9,0.0 L172.7,1.4 L173.5,5.0 L173.1,8.1 L176.6,7.7" stroke-width="0.30"/><path d="M186.0,0.0 L184.8,0.0 L181.6,0.0 L180.6,0.0 L176.2,0.0 L172.2,0.0 L170.2,0.0" stroke-width="0.35"/><path d="M193.9,0.0 L192.6,0.0 L188.0,0.9 L186.0,0.0 L189.9,0.0 L193.0,0.0" stroke-width="0.66"/><path d="M206.5,0.0 L201.4,0.0 L195.1,2.0 L188.9,1.7 L193.9,0.0 L197.2,1.7" stroke-width="1.25"/><path d="M238.2,10.3 L238.1,3.5 L235.3,0.0 L230.6,0.0 L224.3,0.0 L220.0,0.0 L214.6,0.0 L211.5,0.0 L206.5,0.0" stroke-width="2.38"/><path d="M251.9,5.0 L246.6,10.1 L239.6,13.1 L234.4,17.7 L236.1,23.6 L228.6,23.3 L232.1,16.8 L238.2,10.3 L239.1,16.1" stroke-width="4.50"/><path d="M238.3,31.8 L243.1,35.0 L249.1,33.6 L253.1,29.2 L253.2,23.5 L253.6,15.8" stroke-width="2.38"/><path d="M216.4,28.8 L218.6,31.0 L221.3,32.2 L223.6,34.0 L226.2,36.3 L228.8,37.7 L231.8,38.8" stroke-width="0.30"/><path d="M204.5,17.3 L207.3,20.2 L210.0,23.2 L213.5,26.3 L216.4,28.8 L211.8,29.0" stroke-width="0.35"/><path d="M204.0,6.6 L200.9,9.7 L203.0,14.0 L204.5,17.3 L203.7,21.9 L201.5,26.0" stroke-width="0.66"/><path d="M243.8,7.7 L246.5,9.1 L249.2,11.7 L252.4,14.2 L249.9,11.4" stroke-width="0.30"/><path d="M240.3,5.6 L239.6,2.3 L241.2,0.0 L244.9,0.0 L247.7,0.0" stroke-width="0.30"/><path d="M230.2,0.5 L233.2,0.8 L236.5,3.1 L240.3,5.7 L243.8,7.7 L240.3,5.6 L239.9,2.0 L244.0,1.0" stroke-width="0.35"/><path d="M201.9,1.5 L207.2,0.1 L211.4,0.0 L215.0,0.0 L220.7,0.7 L226.2,0.0 L230.2,0.5 L226.2,1.6 L227.3,5.1" stroke-width="0.66"/><path d="M202.1,35.4 L204.2,37.1 L207.0,38.4 L210.4,39.0 L213.7,40.4" stroke-width="0.30"/><path d="M200.8,40.2 L201.7,43.7 L203.4,45.9 L206.0,48.0 L208.4,49.4 L211.4,50.8 L214.3,52.7" stroke-width="0.30"/><path d="M193.8,29.3 L197.0,29.7 L200.3,31.5 L202.1,35.4 L200.8,40.2 L203.2,42.9" stroke-width="0.35"/><path d="M203.5,8.5 L206.8,8.7 L209.4,9.8 L210.8,12.7 L210.7,16.1 L208.7,18.7" stroke-width="0.30"/><path d="M192.6,20.6 L194.0,15.9 L196.5,12.3 L199.6,10.3 L203.5,8.5 L199.1,7.4" stroke-width="0.35"/><path d="M183.8,24.5 L185.0,28.1 L189.9,30.1 L193.8,29.3 L191.6,25.4 L192.6,20.6 L196.9,18.8" stroke-width="0.66"/><path d="M216.9,9.3 L213.6,7.0 L208.4,6.0 L204.0,6.6 L201.9,1.5 L197.1,0.0 L196.8,0.0 L193.1,2.5 L190.3,5.9 L188.1,12.3 L186.1,18.6 L183.8,24.5 L182.6,18.7" stroke-width="1.25"/><path d="M222.8,12.7 L226.1,17.6 L229.6,21.0 L235.0,24.1 L238.8,24.7 L244.0,23.3 L248.1,21.7" stroke-width="1.25"/><path d="M235.1,13.9 L239.5,13.1 L242.2,12.7 L246.6,12.5 L250.0,13.2 L253.8,15.1 L257.2,16.3" stroke-width="0.35"/><path d="M224.9,0.0 L224.0,0.0 L220.3,2.0 L221.7,5.7 L225.6,8.8 L228.7,12.5 L232.4,13.7 L235.1,13.9" stroke-width="0.66"/><path d="M211.7,0.0 L215.0,0.0 L219.7,0.0 L224.9,0.0 L229.8,0.7 L233.9,1.6 L239.1,1.8" stroke-width="1.25"/><path d="M175.2,10.9 L176.6,14.8 L178.9,16.7 L182.4,18.0 L183.6,14.1 L185.9,11.9 L188.4,9.2" stroke-width="0.35"/><path d="M189.1,0.0 L184.0,0.3 L179.8,2.4 L176.5,7.2 L175.2,10.9 L171.4,7.4 L169.1,4.1 L167.3,0.0" stroke-width="0.66"/><path d="M205.4,0.0 L199.7,0.0 L194.3,0.0 L189.1,0.0 L191.5,0.0 L196.6,0.0 L201.7,0.8" stroke-width="1.25"/><path d="M227.8,26.9 L223.6,21.3 L220.0,15.4 L216.9,9.3 L222.8,12.7 L219.0,7.9 L215.0,5.1 L211.7,0.0 L205.4,0.0 L211.6,0.0" stroke-width="2.38"/><path d="M224.0,5.0 L228.3,11.2 L233.0,17.4 L234.6,24.0 L238.3,31.8 L233.5,28.8 L227.8,26.9 L230.2,32.3 L235.2,38.0 L239.9,39.3 L246.7,38.2" stroke-width="4.50"/><path d="M271.7,49.5 L268.4,44.9" stroke-width="1.19"/><path d="M165.3,56.0 L162.5,58.9" stroke-width="0.15"/><path d="M200.7,56.8 L213.7,40.4" stroke-width="0.15"/><path d="M272.2,24.7 L249.9,11.4" stroke-width="0.15"/><path d="M256.3,118.5 L249.8,122.3" stroke-width="0.15"/><path d="M255.1,131.7 L248.8,122.4" stroke-width="0.15"/><path d="M259.5,109.1 L247.3,112.8" stroke-width="0.15"/><path d="M228.8,103.3 L220.0,126.0" stroke-width="0.15"/><path d="M231.4,97.9 L250.5,116.6" stroke-width="0.17"/><path d="M221.6,112.9 L239.9,94.4" stroke-width="0.17"/><path d="M224.4,106.5 L245.5,95.5" stroke-width="0.33"/><path d="M196.0,13.6 L176.6,7.7" stroke-width="0.15"/><path d="M164.4,20.7 L160.1,13.7" stroke-width="0.17"/><path d="M159.7,0.0 L170.2,0.0" stroke-width="0.17"/><path d="M186.3,1.5 L196.9,18.8" stroke-width="0.15"/><path d="M193.0,0.0 L197.2,1.7" stroke-width="0.33"/><path d="M206.5,0.0 L201.5,26.0" stroke-width="0.33"/><path d="M239.1,16.1 L231.8,38.8" stroke-width="0.15"/><path d="M253.6,15.8 L247.7,0.0" stroke-width="0.15"/><path d="M211.8,29.0 L199.1,7.4" stroke-width="0.17"/><path d="M244.0,1.0 L239.1,1.8" stroke-width="0.17"/><path d="M227.3,5.1 L248.1,21.7" stroke-width="0.33"/><path d="M214.3,52.7 L203.2,42.9" stroke-width="0.15"/><path d="M208.7,18.7 L235.1,13.9" stroke-width="0.15"/><path d="M182.6,18.7 L188.4,9.2" stroke-width="0.17"/><path d="M257.2,16.3 L246.7,38.2" stroke-width="0.17"/></g><g fill="#5cc8e0" stroke="none" fill-opacity="0.8"><circle cx="271.7" cy="49.5" r="3.1"/><circle cx="165.3" cy="56.0" r="1.0"/><circle cx="172.5" cy="59.6" r="1.0"/><circle cx="162.5" cy="58.9" r="1.0"/><circle cx="175.7" cy="61.1" r="1.0"/><circle cx="200.7" cy="56.8" r="1.0"/><circle cx="273.7" cy="57.8" r="1.0"/><circle cx="272.2" cy="24.7" r="1.0"/><circle cx="256.3" cy="118.5" r="1.0"/><circle cx="255.1" cy="131.7" r="1.0"/><circle cx="259.5" cy="109.1" r="1.0"/><circle cx="228.8" cy="103.3" r="1.0"/><circle cx="231.4" cy="97.9" r="1.0"/><circle cx="215.2" cy="118.9" r="1.0"/><circle cx="216.3" cy="117.9" r="1.0"/><circle cx="221.6" cy="112.9" r="1.0"/><circle cx="239.9" cy="94.4" r="1.0"/><circle cx="247.3" cy="112.8" r="1.0"/><circle cx="249.8" cy="122.3" r="1.0"/><circle cx="248.8" cy="122.4" r="1.0"/><circle cx="250.5" cy="116.6" r="1.0"/><circle cx="220.0" cy="126.0" r="1.0"/><circle cx="217.0" cy="83.4" r="1.0"/><circle cx="224.4" cy="106.5" r="1.0"/><circle cx="245.5" cy="95.5" r="1.0"/><circle cx="268.4" cy="44.9" r="1.7"/><circle cx="246.1" cy="31.9" r="1.7"/><circle cx="196.0" cy="13.6" r="1.0"/><circle cx="164.4" cy="20.7" r="1.0"/><circle cx="159.7" cy="0.0" r="1.0"/><circle cx="160.1" cy="13.7" r="1.0"/><circle cx="186.3" cy="1.5" r="1.0"/><circle cx="176.6" cy="7.7" r="1.0"/><circle cx="170.2" cy="0.0" r="1.0"/><circle cx="193.0" cy="0.0" r="1.0"/><circle cx="197.2" cy="1.7" r="1.0"/><circle cx="206.5" cy="0.0" r="1.7"/><circle cx="239.1" cy="16.1" r="3.1"/><circle cx="253.6" cy="15.8" r="1.7"/><circle cx="231.8" cy="38.8" r="1.0"/><circle cx="211.8" cy="29.0" r="1.0"/><circle cx="201.5" cy="26.0" r="1.0"/><circle cx="249.9" cy="11.4" r="1.0"/><circle cx="247.7" cy="0.0" r="1.0"/><circle cx="244.0" cy="1.0" r="1.0"/><circle cx="227.3" cy="5.1" r="1.0"/><circle cx="213.7" cy="40.4" r="1.0"/><circle cx="214.3" cy="52.7" r="1.0"/><circle cx="203.2" cy="42.9" r="1.0"/><circle cx="208.7" cy="18.7" r="1.0"/><circle cx="199.1" cy="7.4" r="1.0"/><circle cx="196.9" cy="18.8" r="1.0"/><circle cx="182.6" cy="18.7" r="1.0"/><circle cx="248.1" cy="21.7" r="1.0"/><circle cx="257.2" cy="16.3" r="1.0"/><circle cx="235.1" cy="13.9" r="1.0"/><circle cx="239.1" cy="1.8" r="1.0"/><circle cx="188.4" cy="9.2" r="1.0"/><circle cx="167.3" cy="0.0" r="1.0"/><circle cx="201.7" cy="0.8" r="1.0"/><circle cx="211.6" cy="0.0" r="1.7"/><circle cx="246.7" cy="38.2" r="3.1"/></g><g fill="#0a1a24" stroke="none"></g></g><text x="974.0" y="278" text-anchor="middle" fill="#5cc8e0" font-size="11" font-family="monospace">neural center (150)</text><g transform="translate(1172,8)"><rect width="380" height="250" fill="none" stroke="#1a5a6e" stroke-width="0.5"/><g fill="none" stroke="#5cc8e0" stroke-opacity="0.6"><path d="M182.1,23.1 L183.9,20.6 L181.3,22.4 L181.0,25.2 L181.3,21.9" stroke-width="0.30"/><path d="M186.2,25.4 L183.1,24.4 L185.4,21.6 L182.1,23.1 L185.3,24.2" stroke-width="0.47"/><path d="M190.5,17.6 L192.4,20.8 L193.0,24.6 L188.8,23.3 L186.2,25.4 L182.1,28.7 L186.3,30.2 L182.2,30.2" stroke-width="0.88"/><path d="M190.4,35.2 L192.8,33.6 L193.9,31.7 L193.9,29.2 L194.7,26.5" stroke-width="0.30"/><path d="M182.9,35.5 L183.8,33.7 L184.2,31.3 L186.6,31.1 L188.3,30.5 L190.4,27.9 L187.6,27.7 L187.6,25.2 L187.4,22.5" stroke-width="0.30"/><path d="M177.5,31.3 L179.5,34.3 L182.5,36.0 L186.4,35.6 L190.4,35.2 L186.4,35.7 L182.9,35.5 L183.3,32.7 L181.9,30.0" stroke-width="0.47"/><path d="M178.9,24.2 L179.5,22.2 L179.8,19.7 L182.1,18.0 L184.0,16.6 L181.3,16.7 L179.2,17.8 L177.1,19.9" stroke-width="0.30"/><path d="M176.7,30.2 L176.2,27.5 L179.6,29.1 L178.6,26.8 L178.9,24.2 L178.5,27.7" stroke-width="0.47"/><path d="M184.3,12.1 L181.5,13.1 L179.3,14.9 L177.1,17.6 L176.4,21.8 L176.3,26.7 L177.5,31.3 L175.2,27.5 L176.7,30.2 L175.0,27.7" stroke-width="0.88"/><path d="M181.6,25.5 L181.1,21.4 L183.1,18.8 L188.6,18.9 L185.5,16.7 L190.5,17.6 L188.3,13.4 L184.3,12.1 L188.9,13.4 L191.6,17.7 L188.9,14.6" stroke-width="1.67"/><path d="M182.7,30.4 L187.6,27.8 L183.8,28.8 L187.3,23.7 L186.2,18.4 L190.0,21.5 L188.6,17.6 L191.3,21.2" stroke-width="1.67"/><path d="M157.8,27.0 L155.8,28.6 L153.6,29.9 L151.0,32.0 L148.9,33.0 L145.8,34.2 L143.3,35.4 L140.3,36.7" stroke-width="0.30"/><path d="M159.8,29.5 L159.6,31.8 L157.7,34.6 L156.6,36.2 L154.9,38.1 L152.5,39.7 L150.4,41.2 L148.2,42.4 L145.8,43.5" stroke-width="0.30"/><path d="M170.6,17.9 L167.8,18.6 L164.8,20.3 L162.3,22.4 L160.2,24.9 L157.8,27.0 L159.8,29.5" stroke-width="0.47"/><path d="M161.2,20.6 L164.0,20.0 L161.1,21.9" stroke-width="0.30"/><path d="M162.9,17.1 L165.4,18.2 L167.5,19.9 L166.2,22.4 L165.4,25.3" stroke-width="0.30"/><path d="M154.1,24.6 L155.8,27.7 L157.0,24.3 L158.9,22.6 L161.2,20.6 L164.3,19.4 L160.3,18.1 L162.9,17.1 L159.7,16.8 L162.4,16.6 L159.9,17.9" stroke-width="0.47"/><path d="M185.0,22.6 L178.7,21.4 L174.4,19.5 L170.6,17.9 L167.4,16.1 L162.6,15.6 L158.5,16.4 L156.2,19.5 L154.7,23.8 L154.9,19.9 L154.1,24.6 L155.0,27.5" stroke-width="0.88"/><path d="M170.1,20.8 L169.8,23.2 L167.7,20.9 L167.2,23.6 L165.0,24.1 L162.7,22.5 L160.5,25.0" stroke-width="0.30"/><path d="M168.3,18.2 L167.0,16.5 L165.1,18.5 L163.1,20.6 L160.9,22.4 L158.8,23.9 L156.1,25.9" stroke-width="0.30"/><path d="M170.2,24.0 L168.8,26.6 L166.6,28.9 L167.8,27.3 L165.3,28.9" stroke-width="0.30"/><path d="M162.4,27.2 L165.4,25.3 L168.1,23.4 L167.8,26.4 L169.8,23.7 L170.1,20.8 L168.3,18.2 L170.6,21.1 L170.2,24.0 L169.4,26.7" stroke-width="0.47"/><path d="M159.1,21.5 L160.6,19.7 L157.4,22.2 L157.9,19.3 L157.2,22.5" stroke-width="0.30"/><path d="M162.0,19.6 L164.3,20.1 L163.8,23.1 L161.7,24.6 L164.9,23.2 L163.3,21.3" stroke-width="0.30"/><path d="M159.0,20.4 L160.7,17.8 L162.8,17.8 L165.2,17.7 L162.7,16.4 L165.6,17.9" stroke-width="0.30"/><path d="M161.1,17.5 L163.9,18.3 L161.1,18.6 L162.2,20.5 L161.1,23.3 L162.8,24.7 L165.3,24.5 L163.4,27.1" stroke-width="0.30"/><path d="M157.7,26.6 L160.0,28.4 L157.6,25.8 L159.1,21.5 L162.0,19.6 L159.0,20.4 L161.1,17.5" stroke-width="0.47"/><path d="M177.4,26.7 L173.5,28.2 L170.0,29.3 L166.1,30.1 L162.0,31.1 L164.8,29.8 L162.4,27.2 L159.0,25.7 L161.1,28.5 L157.7,26.6 L160.3,28.3 L162.5,27.0" stroke-width="0.88"/><path d="M188.5,29.4 L190.1,24.9 L190.6,20.6 L186.1,19.4 L185.0,22.6 L180.6,23.4 L177.4,26.7 L178.4,23.2 L178.6,18.4" stroke-width="1.67"/><path d="M169.6,55.1 L167.6,57.3 L165.3,59.5 L163.0,61.9 L160.9,64.7 L158.9,67.0 L156.6,69.2" stroke-width="0.47"/><path d="M179.5,42.3 L177.5,45.8 L174.1,48.8 L171.5,52.8 L169.6,55.1 L171.3,58.2 L171.4,62.7 L170.7,66.1" stroke-width="0.88"/><path d="M149.3,47.1 L146.2,47.3 L144.2,47.8 L141.9,48.9 L139.2,49.5" stroke-width="0.30"/><path d="M149.7,50.1 L148.3,52.3 L146.3,54.5 L144.1,56.1 L141.6,57.7 L139.7,59.0 L137.0,59.3" stroke-width="0.30"/><path d="M161.1,43.8 L158.4,45.0 L156.2,45.7 L152.8,46.1 L149.3,47.1 L149.7,50.1 L149.4,53.4 L148.4,56.4" stroke-width="0.47"/><path d="M175.0,40.5 L172.2,40.5 L167.5,41.1 L164.4,42.1 L161.1,43.8 L160.0,39.7 L156.7,38.0" stroke-width="0.88"/><path d="M158.9,59.7 L156.7,60.8 L153.5,60.1 L151.0,61.7 L148.7,63.2 L146.8,64.3 L144.6,66.8 L142.9,69.0" stroke-width="0.30"/><path d="M163.0,52.4 L160.4,54.9 L159.3,58.3 L159.7,61.7 L158.9,59.7 L161.5,61.6 L162.3,58.4 L161.4,55.4 L161.8,58.6" stroke-width="0.47"/><path d="M161.2,54.4 L158.1,52.4 L155.3,52.7 L152.5,54.3 L153.0,57.2 L152.1,60.0 L151.1,57.0 L150.7,60.9 L151.4,59.1" stroke-width="0.30"/><path d="M158.6,52.1 L161.1,54.2 L157.8,53.4 L155.7,56.1 L154.1,58.6 L153.7,56.0" stroke-width="0.30"/><path d="M167.0,52.6 L165.5,55.8 L162.8,53.7 L163.1,56.9 L161.2,54.4 L158.6,52.1 L161.1,54.5 L159.3,57.9" stroke-width="0.47"/><path d="M173.3,42.6 L171.5,46.9 L167.2,50.5 L163.0,52.4 L167.0,52.6 L168.1,55.7 L168.7,60.0 L167.7,63.9" stroke-width="0.88"/><path d="M143.8,48.4 L140.2,47.4 L136.8,47.3 L133.3,48.3 L130.7,49.5 L126.5,50.1 L124.4,51.2 L121.6,53.1" stroke-width="0.47"/><path d="M146.1,57.9 L148.3,60.4 L147.9,57.5 L150.0,55.4 L151.7,53.1 L149.1,54.0 L151.0,51.8" stroke-width="0.30"/><path d="M143.0,53.4 L144.0,55.0 L145.7,57.2 L145.9,61.0 L146.1,57.9 L148.1,59.1 L149.2,62.1" stroke-width="0.47"/><path d="M124.1,61.3 L121.7,62.0 L119.6,62.7 L117.0,63.1 L114.9,63.5 L112.4,64.7 L109.0,65.7 L105.8,66.0" stroke-width="0.30"/><path d="M141.3,56.9 L138.8,59.7 L135.4,61.4 L131.4,61.8 L127.6,61.4 L124.1,61.3 L124.2,58.6 L122.6,56.3 L120.3,54.7" stroke-width="0.47"/><path d="M154.4,66.4 L157.0,65.2 L158.5,62.7 L159.0,60.0 L161.7,61.5 L164.1,59.7" stroke-width="0.30"/><path d="M151.0,66.9 L154.4,67.2 L157.7,67.0 L160.4,65.8 L162.9,65.0" stroke-width="0.30"/><path d="M155.4,67.3 L157.7,65.6 L158.8,63.7 L157.1,65.8 L154.7,66.1 L155.7,63.7 L154.1,60.5 L154.4,57.6" stroke-width="0.30"/><path d="M141.7,61.0 L144.5,64.2 L148.0,65.5 L150.8,66.7 L154.4,66.4 L151.0,66.9 L155.4,67.3 L158.9,66.5 L161.5,64.2" stroke-width="0.47"/><path d="M169.3,42.0 L164.9,42.8 L161.2,42.6 L158.1,45.3 L154.4,46.6 L149.6,47.5 L144.9,49.7 L147.2,46.4 L143.8,48.4 L141.7,51.0 L143.0,53.4 L141.3,56.9 L141.7,61.0" stroke-width="0.88"/><path d="M166.1,57.8 L164.2,55.2 L162.6,58.3 L159.7,57.0 L157.1,55.8 L153.8,53.8" stroke-width="0.47"/><path d="M167.9,45.8 L165.1,44.6 L161.8,46.2 L159.0,50.1 L162.4,50.5 L164.7,53.8 L166.1,57.8 L165.4,54.2 L167.5,58.2" stroke-width="0.88"/><path d="M190.2,25.3 L190.7,29.0 L189.3,32.4 L186.0,35.2 L182.6,39.2 L179.5,42.3 L175.0,40.5 L177.4,44.3 L173.3,42.6 L169.3,42.0 L167.9,45.8" stroke-width="1.67"/><path d="M161.4,27.8 L163.9,27.6 L165.8,26.0 L167.0,25.5 L166.8,22.6 L166.9,20.5 L167.3,23.3" stroke-width="0.30"/><path d="M161.0,24.1 L158.4,23.0 L156.5,23.1 L153.7,23.3 L151.2,23.9 L148.2,24.2" stroke-width="0.30"/><path d="M163.6,17.3 L160.2,16.6 L157.6,17.9 L156.7,21.1 L157.2,23.8 L158.4,25.9 L161.4,27.8 L158.9,26.1 L162.7,26.9 L161.0,24.1 L162.3,21.6" stroke-width="0.47"/><path d="M166.9,16.8 L164.1,15.3 L161.4,17.2 L163.5,20.1 L165.6,22.3 L162.9,21.8 L162.3,24.8" stroke-width="0.30"/><path d="M170.9,27.4 L169.2,29.0 L166.4,30.6 L163.5,31.2 L160.1,30.7 L157.5,29.7 L155.5,28.2 L153.9,25.9" stroke-width="0.30"/><path d="M168.6,30.0 L165.7,32.1 L163.8,33.4 L161.1,32.9 L158.4,31.9 L155.8,30.6 L153.5,29.1 L151.7,26.3 L152.5,28.8" stroke-width="0.30"/><path d="M165.5,30.8 L162.9,30.0 L160.3,27.0 L158.3,24.8 L159.4,22.1 L161.8,19.9 L159.3,20.6 L161.1,18.5 L159.6,21.1" stroke-width="0.30"/><path d="M162.9,29.0 L160.9,26.5 L160.3,23.6 L157.9,22.9 L154.8,23.4 L153.1,21.3 L150.3,20.6 L147.5,19.2" stroke-width="0.30"/><path d="M163.3,15.4 L160.2,15.6 L164.5,15.2 L166.9,16.8 L169.4,19.1 L170.9,21.8 L171.9,24.6 L170.9,27.4 L168.6,30.0 L165.5,30.8 L162.9,29.0" stroke-width="0.47"/><path d="M157.5,18.4 L160.1,15.7 L158.5,18.4 L161.1,18.8 L161.3,21.6" stroke-width="0.30"/><path d="M160.4,15.7 L163.5,17.7 L165.3,20.0 L165.5,22.8 L164.5,24.3 L161.9,25.5" stroke-width="0.30"/><path d="M162.5,17.0 L165.0,17.7 L166.9,19.7 L167.2,22.7 L167.6,25.7" stroke-width="0.30"/><path d="M168.2,20.7 L167.8,23.7 L166.7,26.0 L163.8,26.9 L165.9,24.5 L164.8,26.9 L166.3,24.4" stroke-width="0.30"/><path d="M159.9,17.5 L157.7,19.0 L159.2,16.5 L157.5,18.4 L160.4,15.7 L162.5,17.0 L166.2,18.0 L168.2,20.7" stroke-width="0.47"/><path d="M169.3,18.7 L167.2,16.1 L164.2,14.4 L167.0,14.5 L164.8,13.2" stroke-width="0.30"/><path d="M166.7,17.3 L169.1,19.6 L167.5,16.7 L169.3,18.7 L167.8,15.9 L170.5,18.3 L172.4,20.9 L172.6,23.5" stroke-width="0.47"/><path d="M165.0,25.0 L161.1,24.9 L159.3,22.3 L161.6,19.5 L165.7,20.3 L163.6,17.3 L166.4,17.8 L163.3,15.4 L159.9,17.5 L163.2,15.8 L166.7,17.3 L168.5,19.6" stroke-width="0.88"/><path d="M148.7,33.2 L145.5,33.3 L142.1,33.5 L139.0,33.5 L136.2,33.5 L133.0,32.0" stroke-width="0.47"/><path d="M162.7,27.1 L159.1,28.4 L156.2,30.0 L153.1,32.1 L148.7,33.2 L145.1,37.4 L143.2,39.2" stroke-width="0.88"/><path d="M183.7,23.7 L179.5,23.8 L173.9,24.9 L169.7,25.5 L165.0,25.0 L160.0,26.3 L159.4,22.9 L162.7,27.1" stroke-width="1.67"/><path d="M195.8,25.0 L192.2,27.4 L187.2,28.0 L181.6,25.5 L187.3,26.3 L182.7,30.4 L188.5,29.4 L190.2,25.3 L183.7,23.7 L182.6,27.9" stroke-width="3.17"/><path d="M293.2,49.1 L295.4,51.2 L297.1,52.7 L298.5,54.4 L300.0,57.1" stroke-width="0.30"/><path d="M295.4,47.8 L299.1,48.2 L302.2,48.5 L303.3,51.1 L303.2,54.1 L301.2,56.2 L302.5,54.2 L299.2,53.5" stroke-width="0.30"/><path d="M281.1,46.1 L283.5,46.0 L286.3,46.9 L290.2,48.3 L293.2,49.1 L295.4,47.8" stroke-width="0.47"/><path d="M279.8,39.4 L281.8,36.2 L284.1,34.8 L288.2,35.9 L289.0,38.2 L287.6,40.9 L285.2,42.2" stroke-width="0.47"/><path d="M286.0,21.9 L288.0,20.3 L290.1,18.8 L291.7,17.3 L293.9,16.1 L295.6,13.6" stroke-width="0.30"/><path d="M284.7,16.2 L284.9,13.3 L286.3,10.9 L288.9,8.3 L291.4,6.9 L294.6,5.8 L297.7,5.6" stroke-width="0.30"/><path d="M281.1,31.8 L281.6,28.6 L283.8,25.6 L286.0,21.9 L284.6,19.5 L284.7,16.2" stroke-width="0.47"/><path d="M275.1,41.3 L274.3,43.8 L274.0,46.4 L271.8,47.7 L272.0,50.3 L272.0,52.8 L272.5,55.9" stroke-width="0.30"/><path d="M282.5,44.9 L285.5,44.0 L287.6,45.2 L290.2,46.3 L293.7,45.4" stroke-width="0.30"/><path d="M275.2,37.1 L275.6,40.1 L278.0,44.2 L275.1,41.3 L276.7,44.6 L275.3,42.2 L279.3,44.2 L282.5,44.9 L285.5,45.0 L282.5,45.3 L286.2,46.1" stroke-width="0.47"/><path d="M276.6,33.6 L275.8,36.5 L279.3,35.3 L279.5,39.1 L279.3,36.3 L280.9,38.7 L283.9,37.4 L286.7,39.5 L289.5,38.2 L292.7,39.0" stroke-width="0.47"/><path d="M268.6,42.2 L270.9,46.6 L274.5,47.6 L277.7,47.3 L281.1,46.1 L279.4,43.7 L279.8,39.4 L279.6,34.9 L281.1,31.8 L277.1,33.5 L275.2,37.1 L276.6,33.6 L275.7,36.8" stroke-width="0.88"/><path d="M245.7,22.0 L250.4,22.7 L253.9,24.2 L256.9,26.4 L260.8,30.4 L264.4,33.9 L266.7,38.0 L268.6,42.2 L265.6,46.6 L265.8,52.1 L266.4,56.0 L268.8,59.3 L272.8,59.6" stroke-width="1.67"/><path d="M198.6,29.6 L204.6,29.0 L208.7,29.4 L213.6,30.3 L219.2,31.6 L224.6,32.2 L228.5,31.5 L233.8,32.0 L238.0,33.2 L242.4,30.4 L243.7,25.4 L245.7,22.0" stroke-width="3.17"/><path d="M207.0,5.0 L201.1,7.2 L200.0,13.4 L197.9,19.4 L195.8,25.0 L198.6,29.6 L191.3,28.1 L186.8,23.8 L182.7,28.5 L183.6,36.0 L186.8,39.7 L191.9,43.3 L197.1,42.4 L200.6,37.4 L200.3,29.9 L205.0,34.2 L207.7,41.9 L204.6,46.1 L198.5,49.4" stroke-width="6.00"/><path d="M181.3,21.9 L185.3,24.2" stroke-width="0.15"/><path d="M182.2,30.2 L177.1,19.9" stroke-width="0.15"/><path d="M194.7,26.5 L181.9,30.0" stroke-width="0.15"/><path d="M187.4,22.5 L178.5,27.7" stroke-width="0.15"/><path d="M175.0,27.7 L188.9,14.6" stroke-width="0.44"/><path d="M191.3,21.2 L167.3,23.3" stroke-width="0.15"/><path d="M140.3,36.7 L159.8,29.5" stroke-width="0.15"/><path d="M145.8,43.5 L156.1,25.9" stroke-width="0.15"/><path d="M161.1,21.9 L159.9,17.9" stroke-width="0.15"/><path d="M165.4,25.3 L169.4,26.7" stroke-width="0.15"/><path d="M155.0,27.5 L157.2,22.5" stroke-width="0.15"/><path d="M160.5,25.0 L165.3,28.9" stroke-width="0.15"/><path d="M163.3,21.3 L163.4,27.1" stroke-width="0.15"/><path d="M165.6,17.9 L178.6,18.4" stroke-width="0.15"/><path d="M161.1,17.5 L161.9,25.5" stroke-width="0.15"/><path d="M162.5,27.0 L167.9,45.8" stroke-width="0.44"/><path d="M156.6,69.2 L170.7,66.1" stroke-width="0.23"/><path d="M139.2,49.5 L137.0,59.3" stroke-width="0.15"/><path d="M148.4,56.4 L142.9,69.0" stroke-width="0.15"/><path d="M156.7,38.0 L159.3,57.9" stroke-width="0.23"/><path d="M161.8,58.6 L153.7,56.0" stroke-width="0.15"/><path d="M151.4,59.1 L161.5,64.2" stroke-width="0.15"/><path d="M167.7,63.9 L164.1,59.7" stroke-width="0.15"/><path d="M121.6,53.1 L120.3,54.7" stroke-width="0.23"/><path d="M151.0,51.8 L149.2,62.1" stroke-width="0.15"/><path d="M141.7,61.0 L153.8,53.8" stroke-width="0.23"/><path d="M148.2,24.2 L162.3,21.6" stroke-width="0.15"/><path d="M162.3,24.8 L152.5,28.8" stroke-width="0.15"/><path d="M153.9,25.9 L159.6,21.1" stroke-width="0.15"/><path d="M147.5,19.2 L161.3,21.6" stroke-width="0.15"/><path d="M162.9,29.0 L172.6,23.5" stroke-width="0.23"/><path d="M167.6,25.7 L166.3,24.4" stroke-width="0.15"/><path d="M164.8,13.2 L168.5,19.6" stroke-width="0.15"/><path d="M300.0,57.1 L299.2,53.5" stroke-width="0.15"/><path d="M295.4,47.8 L293.7,45.4" stroke-width="0.15"/><path d="M297.7,5.6 L284.7,16.2" stroke-width="0.15"/><path d="M286.2,46.1 L272.8,59.6" stroke-width="0.23"/><path d="M292.7,39.0 L275.7,36.8" stroke-width="0.23"/></g><g fill="#5cc8e0" stroke="none" fill-opacity="0.8"><circle cx="181.3" cy="21.9" r="1.0"/><circle cx="185.3" cy="24.2" r="1.0"/><circle cx="182.2" cy="30.2" r="1.0"/><circle cx="194.7" cy="26.5" r="1.0"/><circle cx="187.4" cy="22.5" r="1.0"/><circle cx="181.9" cy="30.0" r="1.0"/><circle cx="177.1" cy="19.9" r="1.0"/><circle cx="178.5" cy="27.7" r="1.0"/><circle cx="175.0" cy="27.7" r="1.0"/><circle cx="188.9" cy="14.6" r="1.2"/><circle cx="191.3" cy="21.2" r="1.2"/><circle cx="140.3" cy="36.7" r="1.0"/><circle cx="145.8" cy="43.5" r="1.0"/><circle cx="159.8" cy="29.5" r="1.0"/><circle cx="161.1" cy="21.9" r="1.0"/><circle cx="165.4" cy="25.3" r="1.0"/><circle cx="159.9" cy="17.9" r="1.0"/><circle cx="155.0" cy="27.5" r="1.0"/><circle cx="160.5" cy="25.0" r="1.0"/><circle cx="156.1" cy="25.9" r="1.0"/><circle cx="165.3" cy="28.9" r="1.0"/><circle cx="169.4" cy="26.7" r="1.0"/><circle cx="157.2" cy="22.5" r="1.0"/><circle cx="163.3" cy="21.3" r="1.0"/><circle cx="165.6" cy="17.9" r="1.0"/><circle cx="163.4" cy="27.1" r="1.0"/><circle cx="161.1" cy="17.5" r="1.0"/><circle cx="162.5" cy="27.0" r="1.0"/><circle cx="178.6" cy="18.4" r="1.2"/><circle cx="156.6" cy="69.2" r="1.0"/><circle cx="170.7" cy="66.1" r="1.0"/><circle cx="139.2" cy="49.5" r="1.0"/><circle cx="137.0" cy="59.3" r="1.0"/><circle cx="148.4" cy="56.4" r="1.0"/><circle cx="156.7" cy="38.0" r="1.0"/><circle cx="142.9" cy="69.0" r="1.0"/><circle cx="161.8" cy="58.6" r="1.0"/><circle cx="151.4" cy="59.1" r="1.0"/><circle cx="153.7" cy="56.0" r="1.0"/><circle cx="159.3" cy="57.9" r="1.0"/><circle cx="167.7" cy="63.9" r="1.0"/><circle cx="121.6" cy="53.1" r="1.0"/><circle cx="151.0" cy="51.8" r="1.0"/><circle cx="149.2" cy="62.1" r="1.0"/><circle cx="105.8" cy="66.0" r="1.0"/><circle cx="120.3" cy="54.7" r="1.0"/><circle cx="164.1" cy="59.7" r="1.0"/><circle cx="162.9" cy="65.0" r="1.0"/><circle cx="154.4" cy="57.6" r="1.0"/><circle cx="161.5" cy="64.2" r="1.0"/><circle cx="141.7" cy="61.0" r="1.0"/><circle cx="153.8" cy="53.8" r="1.0"/><circle cx="167.5" cy="58.2" r="1.0"/><circle cx="167.9" cy="45.8" r="1.2"/><circle cx="167.3" cy="23.3" r="1.0"/><circle cx="148.2" cy="24.2" r="1.0"/><circle cx="162.3" cy="21.6" r="1.0"/><circle cx="162.3" cy="24.8" r="1.0"/><circle cx="153.9" cy="25.9" r="1.0"/><circle cx="152.5" cy="28.8" r="1.0"/><circle cx="159.6" cy="21.1" r="1.0"/><circle cx="147.5" cy="19.2" r="1.0"/><circle cx="162.9" cy="29.0" r="1.0"/><circle cx="161.3" cy="21.6" r="1.0"/><circle cx="161.9" cy="25.5" r="1.0"/><circle cx="167.6" cy="25.7" r="1.0"/><circle cx="166.3" cy="24.4" r="1.0"/><circle cx="168.2" cy="20.7" r="1.0"/><circle cx="164.8" cy="13.2" r="1.0"/><circle cx="172.6" cy="23.5" r="1.0"/><circle cx="168.5" cy="19.6" r="1.0"/><circle cx="133.0" cy="32.0" r="1.0"/><circle cx="143.2" cy="39.2" r="1.0"/><circle cx="162.7" cy="27.1" r="1.2"/><circle cx="182.6" cy="27.9" r="2.2"/><circle cx="300.0" cy="57.1" r="1.0"/><circle cx="299.2" cy="53.5" r="1.0"/><circle cx="295.4" cy="47.8" r="1.0"/><circle cx="285.2" cy="42.2" r="1.0"/><circle cx="295.6" cy="13.6" r="1.0"/><circle cx="297.7" cy="5.6" r="1.0"/><circle cx="284.7" cy="16.2" r="1.0"/><circle cx="272.5" cy="55.9" r="1.0"/><circle cx="293.7" cy="45.4" r="1.0"/><circle cx="286.2" cy="46.1" r="1.0"/><circle cx="292.7" cy="39.0" r="1.0"/><circle cx="275.7" cy="36.8" r="1.0"/><circle cx="272.8" cy="59.6" r="1.2"/><circle cx="245.7" cy="22.0" r="2.2"/><circle cx="198.5" cy="49.4" r="4.2"/></g><g fill="#0a1a24" stroke="none"></g></g><text x="1362.0" y="278" text-anchor="middle" fill="#5cc8e0" font-size="11" font-family="monospace">neural dense (218)</text><g transform="translate(8,298)"><rect width="380" height="250" fill="none" stroke="#1a5a6e" stroke-width="0.5"/><g fill="none" stroke="#5cc8e0" stroke-opacity="0.6"><path d="M56,0 L56,36 L28,64 L8,64" stroke-width="0.8"/><path d="M64,0 L64,48 L28,84 L8,84" stroke-width="0.8"/><path d="M72,0 L72,64 L40,96 L8,96" stroke-width="0.8"/><path d="M80,0 L80,76 L52,104 L8,104" stroke-width="0.8"/><path d="M160,0 L160,84 L176,100 L212,100" stroke-width="2.8"/><path d="M340,250 L340,152 L304,116 L252,116" stroke-width="4.8"/><path d="M340,200 L368,200" stroke-width="2.9"/><path d="M24,250 L24,200 L8,176" stroke-width="1.5"/><path d="M32,250 L32,184" stroke-width="1.5"/><path d="M32,204 L56,204" stroke-width="0.9"/><path d="M216,0 L216,56" stroke-width="4.7"/><path d="M224,0 L224,76 L212,88 L176,88" stroke-width="4.7"/><path d="M176,88 L160,84" stroke-width="2.8"/><path d="M92,0 L92,128 L124,160 L164,160" stroke-width="0.8"/><path d="M140,0 L140,84" stroke-width="1.0"/><path d="M140,32 L116,32" stroke-width="0.6"/><path d="M148,0 L148,100" stroke-width="1.0"/><path d="M148,100 L140,84" stroke-width="0.6"/><path d="M136,250 L136,224" stroke-width="3.2"/><path d="M144,250 L144,208" stroke-width="3.2"/><path d="M144,208 L136,224" stroke-width="1.9"/><path d="M152,250 L152,192 L164,180 L188,180" stroke-width="3.2"/><path d="M200,250 L200,224 L228,196 L288,196" stroke-width="2.0"/><path d="M276,0 L276,56" stroke-width="2.8"/><path d="M284,0 L284,80" stroke-width="2.8"/><path d="M332,250 L332,208 L304,180 L268,180" stroke-width="4.7"/><path d="M276,250 L276,208" stroke-width="3.4"/><path d="M76,250 L76,208 L100,184 L132,184" stroke-width="3.4"/><path d="M24,0 L24,32" stroke-width="0.8"/><path d="M100,250 L100,224" stroke-width="1.4"/><path d="M108,250 L108,216" stroke-width="1.4"/><path d="M204,0 L204,52" stroke-width="1.8"/><path d="M336,0 L336,52" stroke-width="3.5"/><path d="M344,0 L344,68 L320,92 L256,92" stroke-width="3.5"/><path d="M352,0 L352,80" stroke-width="3.5"/><path d="M268,250 L268,216" stroke-width="3.2"/><path d="M268,216 L288,196" stroke-width="1.9"/><path d="M16,0 L16,36" stroke-width="0.8"/><path d="M236,250 L236,216" stroke-width="3.5"/><path d="M168,0 L168,64" stroke-width="2.4"/><path d="M288,250 L288,224" stroke-width="1.7"/><path d="M288,240 L312,240" stroke-width="1.0"/></g><g fill="#5cc8e0" stroke="none" fill-opacity="0.8"><circle cx="8" cy="64" r="6.4"/><circle cx="8" cy="84" r="6.4"/><circle cx="8" cy="96" r="6.4"/><circle cx="8" cy="104" r="6.4"/><circle cx="212" cy="100" r="6.7"/><circle cx="252" cy="116" r="5.4"/><circle cx="368" cy="200" r="3.8"/><circle cx="8" cy="176" r="4.0"/><circle cx="32" cy="184" r="4.0"/><circle cx="56" cy="204" r="2.8"/><circle cx="216" cy="56" r="3.9"/><circle cx="176" cy="88" r="3.9"/><circle cx="164" cy="160" r="2.4"/><circle cx="140" cy="84" r="2.5"/><circle cx="116" cy="32" r="2.0"/><circle cx="148" cy="100" r="2.5"/><circle cx="136" cy="224" r="1.9"/><circle cx="144" cy="208" r="1.9"/><circle cx="188" cy="180" r="1.9"/><circle cx="288" cy="196" r="4.3"/><circle cx="276" cy="56" r="6.5"/><circle cx="284" cy="80" r="6.5"/><circle cx="268" cy="180" r="2.7"/><circle cx="276" cy="208" r="6.1"/><circle cx="132" cy="184" r="6.4"/><circle cx="24" cy="32" r="7.7"/><circle cx="100" cy="224" r="8.6"/><circle cx="108" cy="216" r="8.6"/><circle cx="204" cy="52" r="7.8"/><circle cx="336" cy="52" r="6.2"/><circle cx="256" cy="92" r="6.2"/><circle cx="352" cy="80" r="6.2"/><circle cx="268" cy="216" r="2.4"/><circle cx="16" cy="36" r="2.2"/><circle cx="236" cy="216" r="6.6"/><circle cx="168" cy="64" r="5.6"/><circle cx="288" cy="224" r="7.2"/><circle cx="312" cy="240" r="5.0"/></g><g fill="#0a1a24" stroke="none"><circle cx="8" cy="64" r="2.5"/><circle cx="8" cy="84" r="2.5"/><circle cx="8" cy="96" r="2.5"/><circle cx="8" cy="104" r="2.5"/><circle cx="212" cy="100" r="2.7"/><circle cx="252" cy="116" r="2.2"/><circle cx="368" cy="200" r="1.5"/><circle cx="8" cy="176" r="1.6"/><circle cx="32" cy="184" r="1.6"/><circle cx="56" cy="204" r="1.1"/><circle cx="216" cy="56" r="1.6"/><circle cx="176" cy="88" r="1.6"/><circle cx="164" cy="160" r="1.0"/><circle cx="140" cy="84" r="1.0"/><circle cx="116" cy="32" r="0.8"/><circle cx="148" cy="100" r="1.0"/><circle cx="136" cy="224" r="0.8"/><circle cx="144" cy="208" r="0.8"/><circle cx="188" cy="180" r="0.8"/><circle cx="288" cy="196" r="1.7"/><circle cx="276" cy="56" r="2.6"/><circle cx="284" cy="80" r="2.6"/><circle cx="268" cy="180" r="1.1"/><circle cx="276" cy="208" r="2.4"/><circle cx="132" cy="184" r="2.5"/><circle cx="24" cy="32" r="3.1"/><circle cx="100" cy="224" r="3.4"/><circle cx="108" cy="216" r="3.4"/><circle cx="204" cy="52" r="3.1"/><circle cx="336" cy="52" r="2.5"/><circle cx="256" cy="92" r="2.5"/><circle cx="352" cy="80" r="2.5"/><circle cx="268" cy="216" r="1.0"/><circle cx="16" cy="36" r="0.9"/><circle cx="236" cy="216" r="2.6"/><circle cx="168" cy="64" r="2.3"/><circle cx="288" cy="224" r="2.9"/><circle cx="312" cy="240" r="2.0"/></g></g><text x="198.0" y="568" text-anchor="middle" fill="#5cc8e0" font-size="11" font-family="monospace">circuit uniform (118)</text><g transform="translate(396,298)"><rect width="380" height="250" fill="none" stroke="#1a5a6e" stroke-width="0.5"/><g fill="none" stroke="#5cc8e0" stroke-opacity="0.6"><path d="M180,0 L180,36 L152,64 L100,64" stroke-width="0.8"/><path d="M188,0 L188,48 L152,84 L92,84" stroke-width="0.8"/><path d="M196,0 L196,64 L164,96 L112,96" stroke-width="0.8"/><path d="M204,0 L204,76 L176,104 L112,104" stroke-width="0.8"/><path d="M288,0 L288,84 L304,100 L340,100" stroke-width="2.8"/><path d="M212,250 L212,152 L176,116 L124,116" stroke-width="4.8"/><path d="M212,200 L240,200" stroke-width="2.9"/><path d="M276,250 L276,200" stroke-width="1.5"/><path d="M276,224 L248,224" stroke-width="0.9"/><path d="M284,250 L284,184" stroke-width="1.5"/><path d="M284,184 L276,200" stroke-width="0.9"/><path d="M308,0 L308,72" stroke-width="0.9"/><path d="M308,72 L288,84" stroke-width="0.5"/><path d="M316,0 L316,88" stroke-width="0.9"/><path d="M276,0 L276,56" stroke-width="0.8"/><path d="M324,250 L324,208" stroke-width="0.9"/><path d="M332,250 L332,192 L308,168 L264,168" stroke-width="0.9"/><path d="M264,168 L284,184" stroke-width="0.5"/><path d="M268,0 L268,24 L248,44 L216,44" stroke-width="2.9"/><path d="M336,0 L336,36" stroke-width="2.7"/><path d="M336,16 L364,16" stroke-width="1.6"/><path d="M296,250 L296,176" stroke-width="0.8"/><path d="M340,250 L340,192" stroke-width="0.9"/><path d="M340,192 L324,208" stroke-width="0.5"/><path d="M348,250 L348,176 L324,152 L268,152" stroke-width="0.9"/><path d="M296,152 L296,124" stroke-width="0.5"/><path d="M356,250 L356,152 L336,132 L312,132" stroke-width="0.9"/><path d="M312,132 L324,152" stroke-width="0.5"/><path d="M76,250 L76,0" stroke-width="2.6"/></g><g fill="#5cc8e0" stroke="none" fill-opacity="0.8"><circle cx="100" cy="64" r="6.4"/><circle cx="92" cy="84" r="6.4"/><circle cx="112" cy="96" r="6.4"/><circle cx="112" cy="104" r="6.4"/><circle cx="340" cy="100" r="6.7"/><circle cx="124" cy="116" r="5.4"/><circle cx="240" cy="200" r="3.8"/><circle cx="276" cy="200" r="4.0"/><circle cx="248" cy="224" r="2.8"/><circle cx="284" cy="184" r="4.0"/><circle cx="308" cy="72" r="6.3"/><circle cx="316" cy="88" r="6.3"/><circle cx="276" cy="56" r="2.4"/><circle cx="324" cy="208" r="5.0"/><circle cx="264" cy="168" r="5.0"/><circle cx="216" cy="44" r="3.3"/><circle cx="336" cy="36" r="1.6"/><circle cx="364" cy="16" r="2.0"/><circle cx="296" cy="176" r="5.3"/><circle cx="340" cy="192" r="4.7"/><circle cx="268" cy="152" r="4.7"/><circle cx="296" cy="124" r="3.3"/><circle cx="312" cy="132" r="4.7"/></g><g fill="#0a1a24" stroke="none"><circle cx="100" cy="64" r="2.5"/><circle cx="92" cy="84" r="2.5"/><circle cx="112" cy="96" r="2.5"/><circle cx="112" cy="104" r="2.5"/><circle cx="340" cy="100" r="2.7"/><circle cx="124" cy="116" r="2.2"/><circle cx="240" cy="200" r="1.5"/><circle cx="276" cy="200" r="1.6"/><circle cx="248" cy="224" r="1.1"/><circle cx="284" cy="184" r="1.6"/><circle cx="308" cy="72" r="2.5"/><circle cx="316" cy="88" r="2.5"/><circle cx="276" cy="56" r="1.0"/><circle cx="324" cy="208" r="2.0"/><circle cx="264" cy="168" r="2.0"/><circle cx="216" cy="44" r="1.3"/><circle cx="336" cy="36" r="0.6"/><circle cx="364" cy="16" r="0.8"/><circle cx="296" cy="176" r="2.1"/><circle cx="340" cy="192" r="1.9"/><circle cx="268" cy="152" r="1.9"/><circle cx="296" cy="124" r="1.3"/><circle cx="312" cy="132" r="1.9"/></g></g><text x="586.0" y="568" text-anchor="middle" fill="#5cc8e0" font-size="11" font-family="monospace">circuit L-R (75)</text><g transform="translate(784,298)"><rect width="380" height="250" fill="none" stroke="#1a5a6e" stroke-width="0.5"/><g fill="none" stroke="#5cc8e0" stroke-opacity="0.6"><path d="M180,0 L180,36 L152,64 L100,64" stroke-width="0.8"/><path d="M188,0 L188,48 L152,84 L92,84" stroke-width="0.8"/><path d="M136,84 L136,112" stroke-width="0.5"/><path d="M196,0 L196,64" stroke-width="0.8"/><path d="M204,0 L204,76" stroke-width="0.8"/><path d="M92,0 L92,64" stroke-width="3.1"/><path d="M92,64 L92,84" stroke-width="1.8"/><path d="M92,36 L68,36" stroke-width="1.8"/><path d="M212,0 L212,164 L200,176 L164,176" stroke-width="2.1"/><path d="M212,120 L240,120" stroke-width="1.3"/><path d="M268,250 L268,216 L300,184 L344,184" stroke-width="4.2"/><path d="M148,250 L148,216 L164,200 L236,200" stroke-width="4.8"/><path d="M224,0 L224,56" stroke-width="4.6"/><path d="M232,0 L232,68" stroke-width="4.6"/><path d="M136,0 L136,24" stroke-width="2.9"/><path d="M144,0 L144,40" stroke-width="2.9"/><path d="M144,40 L136,24" stroke-width="1.8"/><path d="M204,250 L204,216" stroke-width="1.0"/></g><g fill="#5cc8e0" stroke="none" fill-opacity="0.8"><circle cx="100" cy="64" r="6.4"/><circle cx="92" cy="84" r="6.4"/><circle cx="136" cy="112" r="4.4"/><circle cx="196" cy="64" r="6.4"/><circle cx="204" cy="76" r="6.4"/><circle cx="92" cy="64" r="2.6"/><circle cx="68" cy="36" r="2.0"/><circle cx="164" cy="176" r="2.7"/><circle cx="240" cy="120" r="2.0"/><circle cx="344" cy="184" r="9.1"/><circle cx="236" cy="200" r="1.3"/><circle cx="224" cy="56" r="2.3"/><circle cx="232" cy="68" r="2.3"/><circle cx="136" cy="24" r="3.3"/><circle cx="144" cy="40" r="3.3"/><circle cx="204" cy="216" r="1.6"/></g><g fill="#0a1a24" stroke="none"><circle cx="100" cy="64" r="2.5"/><circle cx="92" cy="84" r="2.5"/><circle cx="136" cy="112" r="1.8"/><circle cx="196" cy="64" r="2.5"/><circle cx="204" cy="76" r="2.5"/><circle cx="92" cy="64" r="1.0"/><circle cx="68" cy="36" r="0.8"/><circle cx="164" cy="176" r="1.1"/><circle cx="240" cy="120" r="0.8"/><circle cx="344" cy="184" r="3.6"/><circle cx="236" cy="200" r="0.5"/><circle cx="224" cy="56" r="0.9"/><circle cx="232" cy="68" r="0.9"/><circle cx="136" cy="24" r="1.3"/><circle cx="144" cy="40" r="1.3"/><circle cx="204" cy="216" r="0.6"/></g></g><text x="974.0" y="568" text-anchor="middle" fill="#5cc8e0" font-size="11" font-family="monospace">circuit center (50)</text><g transform="translate(1172,298)"><rect width="380" height="250" fill="none" stroke="#1a5a6e" stroke-width="0.5"/><g fill="none" stroke="#5cc8e0" stroke-opacity="0.6"><path d="M40,0 L40,36 L12,64 L8,64" stroke-width="0.8"/><path d="M48,0 L48,48 L12,84 L8,84" stroke-width="0.8"/><path d="M12,84 L12,112" stroke-width="0.5"/><path d="M56,0 L56,64" stroke-width="0.8"/><path d="M64,0 L64,76" stroke-width="0.8"/><path d="M72,0 L72,88 L40,120 L16,120" stroke-width="0.8"/><path d="M80,0 L80,100" stroke-width="0.8"/><path d="M80,100 L72,88" stroke-width="0.5"/><path d="M88,0 L88,116 L72,132 L12,132" stroke-width="0.8"/><path d="M12,132 L16,120" stroke-width="0.5"/><path d="M148,250 L148,160 L172,136 L224,136" stroke-width="0.8"/><path d="M188,136 L188,112" stroke-width="0.5"/><path d="M172,250 L172,176" stroke-width="2.3"/><path d="M180,250 L180,160" stroke-width="2.3"/><path d="M188,250 L188,144" stroke-width="2.3"/><path d="M300,0 L300,72 L264,108 L200,108" stroke-width="0.9"/><path d="M308,0 L308,88" stroke-width="0.9"/><path d="M316,0 L316,100" stroke-width="0.9"/><path d="M324,0 L324,112 L300,136 L244,136" stroke-width="0.9"/><path d="M332,0 L332,128" stroke-width="0.9"/><path d="M332,128 L324,112" stroke-width="0.5"/><path d="M340,0 L340,140 L316,164 L268,164" stroke-width="0.9"/><path d="M268,0 L268,92" stroke-width="2.7"/><path d="M268,92 L264,108" stroke-width="1.6"/><path d="M268,44 L240,44" stroke-width="1.6"/><path d="M196,250 L196,176" stroke-width="0.8"/><path d="M204,250 L204,152" stroke-width="0.8"/><path d="M204,220 L228,220" stroke-width="0.5"/><path d="M160,0 L160,108" stroke-width="2.8"/><path d="M296,250 L296,176" stroke-width="0.8"/><path d="M44,250 L44,208 L60,192 L80,192" stroke-width="3.4"/><path d="M68,192 L68,164" stroke-width="2.0"/><path d="M200,0 L200,52" stroke-width="2.8"/><path d="M208,0 L208,68" stroke-width="2.8"/><path d="M208,24 L232,24" stroke-width="1.7"/><path d="M136,250 L136,200" stroke-width="1.1"/><path d="M264,250 L264,184" stroke-width="1.8"/><path d="M144,0 L144,28" stroke-width="1.6"/><path d="M152,0 L152,44" stroke-width="1.6"/><path d="M168,0 L168,76" stroke-width="1.6"/><path d="M12,0 L12,52" stroke-width="3.5"/><path d="M88,250 L88,216" stroke-width="4.2"/><path d="M96,250 L96,192" stroke-width="4.2"/><path d="M104,250 L104,176" stroke-width="4.2"/><path d="M104,176 L96,192" stroke-width="2.5"/><path d="M12,250 L12,224 L8,196" stroke-width="2.0"/><path d="M20,250 L20,208" stroke-width="2.0"/><path d="M28,250 L28,184 L8,156" stroke-width="2.0"/><path d="M36,250 L36,168" stroke-width="2.0"/><path d="M80,250 L80,200" stroke-width="3.7"/><path d="M80,200 L88,216" stroke-width="2.2"/><path d="M80,236 L56,236" stroke-width="2.2"/><path d="M160,250 L160,192" stroke-width="3.9"/><path d="M288,250 L288,224" stroke-width="1.7"/><path d="M332,250 L332,216" stroke-width="4.1"/><path d="M340,250 L340,200" stroke-width="4.1"/><path d="M348,250 L348,176" stroke-width="4.1"/><path d="M276,0 L276,80" stroke-width="1.0"/><path d="M276,80 L268,92" stroke-width="0.6"/><path d="M356,250 L356,176" stroke-width="0.9"/><path d="M364,250 L364,160" stroke-width="0.9"/><path d="M364,160 L356,176" stroke-width="0.5"/><path d="M96,0 L96,92" stroke-width="2.6"/><path d="M104,0 L104,116" stroke-width="2.6"/><path d="M112,0 L112,136" stroke-width="2.6"/><path d="M112,136 L104,116" stroke-width="1.5"/><path d="M128,0 L128,48" stroke-width="4.8"/><path d="M136,0 L136,60" stroke-width="4.8"/><path d="M276,250 L276,208" stroke-width="1.0"/><path d="M352,0 L352,108 L368,124 L372,124" stroke-width="2.8"/><path d="M324,250 L324,200" stroke-width="1.8"/></g><g fill="#5cc8e0" stroke="none" fill-opacity="0.8"><circle cx="8" cy="64" r="6.4"/><circle cx="8" cy="84" r="6.4"/><circle cx="12" cy="112" r="4.4"/><circle cx="56" cy="64" r="6.4"/><circle cx="64" cy="76" r="6.4"/><circle cx="16" cy="120" r="6.4"/><circle cx="80" cy="100" r="6.4"/><circle cx="12" cy="132" r="6.4"/><circle cx="224" cy="136" r="5.3"/><circle cx="188" cy="112" r="3.7"/><circle cx="172" cy="176" r="1.3"/><circle cx="180" cy="160" r="1.3"/><circle cx="188" cy="144" r="1.3"/><circle cx="200" cy="108" r="6.3"/><circle cx="308" cy="88" r="6.3"/><circle cx="316" cy="100" r="6.3"/><circle cx="244" cy="136" r="6.3"/><circle cx="332" cy="128" r="6.3"/><circle cx="268" cy="164" r="6.3"/><circle cx="268" cy="92" r="7.7"/><circle cx="240" cy="44" r="5.4"/><circle cx="196" cy="176" r="5.3"/><circle cx="204" cy="152" r="5.3"/><circle cx="228" cy="220" r="3.7"/><circle cx="160" cy="108" r="1.9"/><circle cx="296" cy="176" r="2.3"/><circle cx="80" cy="192" r="6.1"/><circle cx="68" cy="164" r="4.3"/><circle cx="200" cy="52" r="4.4"/><circle cx="208" cy="68" r="4.4"/><circle cx="232" cy="24" r="3.1"/><circle cx="136" cy="200" r="2.4"/><circle cx="264" cy="184" r="7.9"/><circle cx="144" cy="28" r="3.0"/><circle cx="152" cy="44" r="3.0"/><circle cx="168" cy="76" r="3.0"/><circle cx="12" cy="52" r="6.2"/><circle cx="88" cy="216" r="2.1"/><circle cx="96" cy="192" r="2.1"/><circle cx="104" cy="176" r="2.1"/><circle cx="8" cy="196" r="3.1"/><circle cx="20" cy="208" r="3.1"/><circle cx="8" cy="156" r="3.1"/><circle cx="36" cy="168" r="3.1"/><circle cx="80" cy="200" r="1.5"/><circle cx="56" cy="236" r="2.0"/><circle cx="160" cy="192" r="8.7"/><circle cx="288" cy="224" r="7.2"/><circle cx="332" cy="216" r="1.3"/><circle cx="340" cy="200" r="1.3"/><circle cx="348" cy="176" r="1.3"/><circle cx="276" cy="80" r="4.6"/><circle cx="356" cy="176" r="3.9"/><circle cx="364" cy="160" r="3.9"/><circle cx="96" cy="92" r="2.3"/><circle cx="104" cy="116" r="2.3"/><circle cx="112" cy="136" r="2.3"/><circle cx="128" cy="48" r="8.2"/><circle cx="136" cy="60" r="8.2"/><circle cx="276" cy="208" r="2.2"/><circle cx="372" cy="124" r="3.0"/><circle cx="324" cy="200" r="5.9"/></g><g fill="#0a1a24" stroke="none"><circle cx="8" cy="64" r="2.5"/><circle cx="8" cy="84" r="2.5"/><circle cx="12" cy="112" r="1.8"/><circle cx="56" cy="64" r="2.5"/><circle cx="64" cy="76" r="2.5"/><circle cx="16" cy="120" r="2.5"/><circle cx="80" cy="100" r="2.5"/><circle cx="12" cy="132" r="2.5"/><circle cx="224" cy="136" r="2.1"/><circle cx="188" cy="112" r="1.5"/><circle cx="172" cy="176" r="0.5"/><circle cx="180" cy="160" r="0.5"/><circle cx="188" cy="144" r="0.5"/><circle cx="200" cy="108" r="2.5"/><circle cx="308" cy="88" r="2.5"/><circle cx="316" cy="100" r="2.5"/><circle cx="244" cy="136" r="2.5"/><circle cx="332" cy="128" r="2.5"/><circle cx="268" cy="164" r="2.5"/><circle cx="268" cy="92" r="3.1"/><circle cx="240" cy="44" r="2.2"/><circle cx="196" cy="176" r="2.1"/><circle cx="204" cy="152" r="2.1"/><circle cx="228" cy="220" r="1.5"/><circle cx="160" cy="108" r="0.8"/><circle cx="296" cy="176" r="0.9"/><circle cx="80" cy="192" r="2.4"/><circle cx="68" cy="164" r="1.7"/><circle cx="200" cy="52" r="1.7"/><circle cx="208" cy="68" r="1.7"/><circle cx="232" cy="24" r="1.2"/><circle cx="136" cy="200" r="1.0"/><circle cx="264" cy="184" r="3.1"/><circle cx="144" cy="28" r="1.2"/><circle cx="152" cy="44" r="1.2"/><circle cx="168" cy="76" r="1.2"/><circle cx="12" cy="52" r="2.5"/><circle cx="88" cy="216" r="0.8"/><circle cx="96" cy="192" r="0.8"/><circle cx="104" cy="176" r="0.8"/><circle cx="8" cy="196" r="1.3"/><circle cx="20" cy="208" r="1.3"/><circle cx="8" cy="156" r="1.3"/><circle cx="36" cy="168" r="1.3"/><circle cx="80" cy="200" r="0.6"/><circle cx="56" cy="236" r="0.8"/><circle cx="160" cy="192" r="3.5"/><circle cx="288" cy="224" r="2.9"/><circle cx="332" cy="216" r="0.5"/><circle cx="340" cy="200" r="0.5"/><circle cx="348" cy="176" r="0.5"/><circle cx="276" cy="80" r="1.8"/><circle cx="356" cy="176" r="1.6"/><circle cx="364" cy="160" r="1.6"/><circle cx="96" cy="92" r="0.9"/><circle cx="104" cy="116" r="0.9"/><circle cx="112" cy="136" r="0.9"/><circle cx="128" cy="48" r="3.3"/><circle cx="136" cy="60" r="3.3"/><circle cx="276" cy="208" r="0.9"/><circle cx="372" cy="124" r="1.2"/><circle cx="324" cy="200" r="2.4"/></g></g><text x="1362.0" y="568" text-anchor="middle" fill="#5cc8e0" font-size="11" font-family="monospace">circuit dense (195)</text></svg>