<?xml version="1.0"?>
<svg xmlns="http://www.w3.org/2000/svg" viewBox="0 0 1180 890" width="1180" height="890">
<style>
.panel { fill: #0a1a24; }
path { fill: none; stroke: #5cc8e0; stroke-linecap: round; stroke-linejoin: round; }
circle { fill: #5cc8e0; }
.bg { fill: #0a1a24; }
</style>
<rect class="bg" width="100%" height="100%"/>
<g transform="translate(12,12)">
<clipPath id="clip0"><rect width="280" height="200"/></clipPath>
<g clip-path="url(#clip0)">
<rect class="panel" width="280" height="200"/>
<path d="M160.0,200.0 L152.0,200.0" stroke-width="2.7"/>
<path d="M160.0,200.0 L184.0,200.0" stroke-width="3.3"/>
<path d="M128.0,200.0 L152.0,200.0" stroke-width="2.9"/>
</g>
<text x="4" y="196" font-family="monospace" font-size="8" fill="#5cc8e0">R1C1 circuit-low bottom-up LOW</text>
<text x="276" y="196" text-anchor="end" font-family="monospace" font-size="8" fill="#d4a04a">3el 0ms</text>
</g>
<g transform="translate(304,12)">
<clipPath id="clip1"><rect width="280" height="200"/></clipPath>
<g clip-path="url(#clip1)">
<rect class="panel" width="280" height="200"/>
<path d="M0.0,132.0 L0.0,140.0" stroke-width="2.4"/>
<path d="M0.0,156.0 L0.0,140.0" stroke-width="3.9"/>
<path d="M0.0,60.0 L0.0,60.0" stroke-width="2.1"/>
<path d="M0.0,60.0 L0.0,36.0" stroke-width="0.9"/>
<path d="M0.0,60.0 L0.0,64.0" stroke-width="0.8"/>
<path d="M0.0,84.0 L0.0,84.0" stroke-width="0.8"/>
<path d="M0.0,84.0 L0.0,88.0" stroke-width="1.7"/>
<path d="M0.0,140.0 L0.0,140.0" stroke-width="2.6"/>
</g>
<text x="4" y="196" font-family="monospace" font-size="8" fill="#5cc8e0">R1C2 circuit-medium left-right MED</text>
<text x="276" y="196" text-anchor="end" font-family="monospace" font-size="8" fill="#d4a04a">8el 1ms</text>
</g>
<g transform="translate(596,12)">
<clipPath id="clip2"><rect width="280" height="200"/></clipPath>
<g clip-path="url(#clip2)">
<rect class="panel" width="280" height="200"/>
<path d="M92.0,0.0 L92.0,0.0" stroke-width="0.8"/>
<path d="M92.0,0.0 L108.0,0.0 L132.0,0.0 L156.0,0.0 L180.0,0.0 L204.0,0.0" stroke-width="1.1"/>
<path d="M32.0,0.0 L20.0,0.0" stroke-width="2.1"/>
<path d="M32.0,0.0 L44.0,0.0 L56.0,0.0" stroke-width="0.8"/>
<path d="M176.0,200.0 L152.0,200.0 L128.0,200.0 L104.0,200.0" stroke-width="1.7"/>
<path d="M52.0,200.0 L48.0,200.0" stroke-width="1.7"/>
<path d="M52.0,200.0 L60.0,200.0" stroke-width="2.1"/>
<path d="M76.0,200.0 L72.0,200.0" stroke-width="2.6"/>
<path d="M76.0,200.0 L80.0,200.0 L84.0,200.0" stroke-width="2.3"/>
<path d="M104.0,200.0 L100.0,200.0" stroke-width="1.7"/>
</g>
<text x="4" y="196" font-family="monospace" font-size="8" fill="#5cc8e0">R1C3 circuit-high top+bot HIGH</text>
<text x="276" y="196" text-anchor="end" font-family="monospace" font-size="8" fill="#d4a04a">10el 2ms</text>
</g>
<g transform="translate(888,12)">
<clipPath id="clip3"><rect width="280" height="200"/></clipPath>
<g clip-path="url(#clip3)">
<rect class="panel" width="280" height="200"/>
<path d="M128.0,200.0 L104.0,200.0 L80.0,200.0 L64.0,200.0" stroke-width="4.0"/>
<path d="M64.0,200.0 L64.0,200.0" stroke-width="2.2"/>
</g>
<text x="4" y="196" font-family="monospace" font-size="8" fill="#5cc8e0">R1C4 circuit-medium BL-TR diag MED</text>
<text x="276" y="196" text-anchor="end" font-family="monospace" font-size="8" fill="#d4a04a">2el 1ms</text>
</g>
<g transform="translate(12,224)">
<clipPath id="clip4"><rect width="280" height="200"/></clipPath>
<g clip-path="url(#clip4)">
<rect class="panel" width="280" height="200"/>
<path d="M19.8,200.0 Q21.0,193.9 21.8,191.0 Q22.7,188.0 23.7,185.1 Q24.8,182.2 25.7,179.3 Q26.7,176.4 27.5,173.4 T28.3,170.4" stroke-width="1.26"/>
<path d="M59.5,200.0 L60.2,193.9" stroke-width="6.46"/>
<path d="M102.1,200.0 Q102.7,193.9 103.0,190.8 Q103.3,187.7 103.5,184.7 Q103.7,181.6 103.7,178.5 Q103.6,175.4 103.8,172.4 T103.9,169.3" stroke-width="3.81"/>
<path d="M157.3,200.0 Q157.4,193.8 157.5,190.8 Q157.5,187.7 157.7,184.6 T157.9,181.5" stroke-width="0.68"/>
<path d="M216.8,200.0 Q215.6,194.0 214.8,191.0 Q213.9,188.0 213.1,185.1 Q212.3,182.1 211.5,179.1 Q210.7,176.1 209.9,173.2 Q209.2,170.2 208.5,167.2 Q207.9,164.2 207.4,161.1 Q206.9,158.1 206.2,155.1 Q205.5,152.1 204.7,149.1 Q203.9,146.1 203.1,143.2 Q202.3,140.2 201.5,137.2 Q200.7,134.2 200.0,131.2 Q199.3,128.2 198.5,125.3 Q197.7,122.3 197.0,119.3 Q196.3,116.3 195.6,113.3 Q194.8,110.3 194.0,107.3 Q193.3,104.3 192.4,101.4 Q191.6,98.4 190.7,95.5 Q189.8,92.5 188.8,89.6 T187.8,86.7" stroke-width="2.87"/>
<path d="M275.0,200.0 Q273.3,194.1 271.9,191.3 T270.5,188.6" stroke-width="0.45"/>
<path d="M60.2,193.9 Q61.3,187.8 62.0,184.8 Q62.6,181.8 63.2,178.8 Q63.8,175.8 64.4,172.7 Q65.0,169.7 65.4,166.7 Q65.8,163.6 66.2,160.6 T66.5,157.5" stroke-width="1.31"/>
<path d="M60.2,193.9 Q69.9,188.4 72.0,186.2 Q74.2,184.0 76.4,181.9 Q78.6,179.8 81.2,178.1 Q83.8,176.4 86.1,174.4 Q88.5,172.4 90.2,169.8 T91.8,167.2" stroke-width="0.72"/>
<path d="M270.5,188.6 L267.6,183.2" stroke-width="2.44"/>
<path d="M157.9,181.5 Q158.3,175.4 158.7,172.3 Q159.1,169.3 159.5,166.2 Q159.9,163.2 160.0,160.1 Q160.1,157.0 159.9,153.9 Q159.7,150.9 159.2,147.8 Q158.8,144.8 158.4,141.7 Q158.0,138.7 157.7,135.6 Q157.4,132.5 157.1,129.5 Q156.8,126.4 156.5,123.3 Q156.3,120.3 156.2,117.2 Q156.0,114.1 155.8,111.0 Q155.6,108.0 155.4,104.9 Q155.2,101.8 154.8,98.7 Q154.5,95.7 154.2,92.6 Q153.9,89.6 153.5,86.5 Q153.1,83.4 152.8,80.4 Q152.5,77.3 152.0,74.3 Q151.5,71.3 150.8,68.2 Q150.1,65.2 149.6,62.2 Q149.0,59.2 148.4,56.2 Q147.8,53.1 147.2,50.1 Q146.7,47.1 146.4,44.0 Q146.0,41.0 146.7,37.9 Q147.3,34.9 148.6,32.1 Q150.0,29.4 151.8,26.9 Q153.7,24.5 155.9,22.3 Q158.1,20.2 160.8,18.7 Q163.5,17.2 166.3,15.9 Q169.1,14.6 173.5,16.5 T177.9,18.3" stroke-width="0.76"/>
<path d="M157.9,181.5 Q151.9,180.2 149.1,179.0 Q146.3,177.7 143.7,176.0 Q141.1,174.3 138.6,172.5 Q136.1,170.8 133.5,169.0 Q131.0,167.3 128.5,165.5 Q125.9,163.7 123.4,162.0 Q120.8,160.3 118.1,158.8 Q115.4,157.4 110.0,157.2 T104.5,157.0" stroke-width="0.20"/>
<path d="M267.6,183.2 Q264.4,177.9 262.7,175.3 Q261.1,172.7 259.5,170.1 T257.8,167.5" stroke-width="4.05"/>
<path d="M28.3,170.4 L29.6,164.4" stroke-width="1.91"/>
<path d="M103.9,169.3 Q104.2,163.1 104.4,160.1 T104.5,157.0" stroke-width="0.20"/>
<path d="M103.9,169.3 Q97.8,168.9 94.8,168.1 T91.8,167.2" stroke-width="0.88"/>
<path d="M29.6,164.4 Q31.1,158.4 31.7,155.4 Q32.3,152.4 32.8,149.4 Q33.4,146.3 34.0,143.3 Q34.6,140.3 35.2,137.3 Q35.9,134.3 36.6,131.3 Q37.4,128.3 38.2,125.3 Q39.0,122.4 39.8,119.4 Q40.6,116.4 41.4,113.4 Q42.2,110.4 43.1,107.5 Q44.0,104.6 44.9,101.6 T45.9,98.7" stroke-width="1.06"/>
<path d="M257.8,167.5 Q254.5,162.3 252.8,159.7 Q251.1,157.2 249.3,154.6 Q247.6,152.1 245.9,149.5 Q244.1,147.0 242.6,144.3 Q241.1,141.6 239.6,138.9 Q238.2,136.2 236.8,133.5 Q235.4,130.7 234.0,127.9 Q232.7,125.2 231.3,122.4 Q230.0,119.7 228.5,116.9 Q227.0,114.2 225.5,111.6 Q223.9,108.9 222.3,106.3 Q220.7,103.6 219.2,101.0 Q217.7,98.3 216.4,95.5 Q215.2,92.7 213.9,89.9 T212.7,87.0" stroke-width="0.99"/>
<path d="M257.8,167.5 Q262.1,163.1 263.4,160.3 Q264.8,157.5 265.7,154.6 Q266.6,151.7 267.2,148.6 Q267.7,145.6 268.3,142.6 Q268.9,139.6 269.4,136.5 Q270.0,133.5 270.5,130.4 Q270.9,127.4 271.3,124.3 Q271.7,121.3 272.0,118.2 Q272.3,115.2 272.5,112.1 Q272.7,109.0 272.7,105.9 Q272.8,102.9 272.8,99.8 Q272.7,96.7 272.6,93.6 Q272.5,90.5 272.3,87.5 Q272.0,84.4 271.7,81.3 T271.4,78.3" stroke-width="0.47"/>
<path d="M66.5,157.5 Q67.0,151.4 67.3,148.3 Q67.5,145.2 67.8,142.1 Q68.1,139.1 68.5,136.0 Q68.8,133.0 69.3,129.9 Q69.7,126.9 70.2,123.8 Q70.8,120.8 71.2,117.8 Q71.7,114.7 72.0,111.7 Q72.3,108.6 72.5,105.5 Q72.8,102.4 73.0,99.4 Q73.1,96.3 73.4,93.2 Q73.6,90.2 74.1,87.1 Q74.6,84.1 75.0,81.0 Q75.5,78.0 75.5,74.9 Q75.5,71.8 75.5,68.7 Q75.5,65.7 75.6,62.6 Q75.8,59.5 75.8,56.4 Q75.9,53.3 76.2,50.3 Q76.6,47.2 76.9,44.2 Q77.2,41.1 77.5,38.0 Q77.9,35.0 78.8,32.0 T79.6,29.1" stroke-width="0.51"/>
<path d="M66.5,157.5 Q74.8,160.1 77.6,161.4 T80.4,162.8" stroke-width="0.28"/>
<path d="M104.5,157.0 L104.4,150.8" stroke-width="1.08"/>
<path d="M91.8,167.2 L86.0,165.2" stroke-width="1.43"/>
<path d="M104.4,150.8 Q104.4,144.7 104.3,141.6 Q104.2,138.5 104.1,135.4 Q103.9,132.3 103.7,129.3 Q103.4,126.2 103.1,123.1 Q102.8,120.1 102.3,117.0 Q101.9,114.0 101.3,111.0 Q100.7,107.9 100.1,104.9 Q99.5,101.9 99.0,98.9 Q98.5,95.8 98.1,92.8 Q97.6,89.7 97.2,86.7 Q96.7,83.6 96.4,80.6 Q96.1,77.5 95.9,74.4 Q95.8,71.4 95.7,68.3 Q95.7,65.2 95.8,62.1 Q95.8,59.0 95.8,56.0 Q95.7,52.9 95.4,49.8 Q95.1,46.7 94.7,43.7 Q94.3,40.6 93.9,37.6 Q93.6,34.5 93.5,31.4 Q93.4,28.4 95.1,25.8 Q96.8,23.2 99.3,21.4 Q101.7,19.6 104.4,18.0 T107.0,16.4" stroke-width="2.04"/>
<path d="M86.0,165.2 L80.4,162.8" stroke-width="0.43"/>
<path d="M45.9,98.7 Q47.8,92.8 48.9,89.9 Q49.9,87.0 50.8,84.1 Q51.7,81.1 52.4,78.2 Q53.1,75.2 53.7,72.1 Q54.4,69.1 54.9,66.1 Q55.5,63.1 56.2,60.1 Q56.9,57.1 58.0,54.2 Q59.1,51.3 60.7,48.7 Q62.3,46.0 64.0,43.5 Q65.7,40.9 67.1,38.2 Q68.5,35.4 69.9,32.7 Q71.2,29.9 75.4,29.5 T79.6,29.1" stroke-width="0.31"/>
<path d="M45.9,98.7 Q40.1,96.6 37.4,95.2 Q34.7,93.7 32.1,92.0 Q29.5,90.4 27.2,88.3 Q24.9,86.2 22.6,84.2 Q20.3,82.1 19.1,79.3 Q17.9,76.4 16.9,73.5 Q15.9,70.6 15.0,67.7 Q14.0,64.7 13.0,61.8 Q12.0,59.0 10.9,56.0 Q9.9,53.1 9.0,50.2 Q8.1,47.3 7.4,44.3 Q6.6,41.3 6.1,38.2 T5.7,35.2" stroke-width="0.78"/>
<path d="M187.8,86.7 L185.6,80.9" stroke-width="0.24"/>
<path d="M185.6,80.9 Q183.4,75.2 182.3,72.3 Q181.1,69.5 180.0,66.6 Q178.9,63.7 177.8,60.8 Q176.7,58.0 175.8,55.0 Q174.9,52.1 174.0,49.1 Q173.1,46.2 172.4,43.2 Q171.8,40.2 170.9,37.2 Q170.0,34.3 170.2,31.2 Q170.5,28.1 172.2,25.6 T173.9,23.0" stroke-width="1.41"/>
<path d="M212.7,87.0 L210.5,81.3" stroke-width="0.20"/>
<path d="M210.5,81.3 Q208.3,75.5 207.3,72.6 Q206.2,69.7 205.2,66.8 Q204.1,63.9 202.8,61.1 Q201.5,58.3 200.4,55.5 Q199.3,52.6 198.1,49.7 Q197.0,46.9 195.8,44.0 Q194.7,41.2 193.6,38.3 Q192.5,35.4 191.1,32.7 T189.6,30.0" stroke-width="0.34"/>
<path d="M79.6,29.1 Q82.5,23.6 84.8,21.6 T87.1,19.6" stroke-width="0.25"/>
<path d="M87.1,19.6 L92.3,16.2" stroke-width="0.20"/>
<path d="M173.9,23.0 L177.9,18.3" stroke-width="0.20"/>
<path d="M173.9,23.0 Q184.9,26.1 187.2,28.0 T189.6,30.0" stroke-width="0.20"/>
<path d="M92.3,16.2 Q97.7,13.3 102.4,14.8 T107.0,16.4" stroke-width="0.20"/>
<path d="M107.0,16.4 Q112.5,13.6 115.4,12.4 Q118.2,11.2 121.1,10.3 Q124.0,9.3 127.0,8.4 Q130.0,7.6 132.9,6.8 Q135.9,6.0 138.9,5.3 Q141.9,4.6 144.9,3.9 Q147.9,3.3 151.0,2.7 Q154.0,2.1 157.0,2.0 Q160.1,1.8 163.1,1.8 Q166.2,1.8 169.3,1.8 Q172.3,1.8 175.4,1.8 Q178.5,1.8 181.6,1.8 T184.6,1.8" stroke-width="0.20"/>
<path d="M177.9,18.3 Q182.7,14.4 185.6,13.5 T188.5,12.5" stroke-width="0.20"/>
<path d="M189.6,30.0 Q189.7,18.5 189.1,15.5 T188.5,12.5" stroke-width="0.20"/>
<path d="M188.5,12.5 Q194.5,11.3 197.6,10.9 T200.7,10.6" stroke-width="0.32"/>
<circle cx="271.4" cy="78.3" r="2.0"/>
<circle cx="5.7" cy="35.2" r="1.9"/>
<circle cx="200.7" cy="10.6" r="1.8"/>
<circle cx="184.6" cy="1.8" r="1.6"/>
</g>
<text x="4" y="196" font-family="monospace" font-size="8" fill="#5cc8e0">R2C1 neural-low bottom-up LOW</text>
<text x="276" y="196" text-anchor="end" font-family="monospace" font-size="8" fill="#d4a04a">43el 6ms</text>
</g>
<g transform="translate(304,224)">
<clipPath id="clip5"><rect width="280" height="200"/></clipPath>
<g clip-path="url(#clip5)">
<rect class="panel" width="280" height="200"/>
<path d="M0.0,8.4 Q5.8,10.6 8.5,12.1 Q11.1,13.6 13.7,15.3 T16.3,17.0" stroke-width="1.37"/>
<path d="M0.0,28.5 Q6.0,29.9 8.9,31.0 Q11.8,32.0 14.6,33.3 T17.4,34.6" stroke-width="1.98"/>
<path d="M0.0,40.6 Q6.0,41.8 9.0,42.6 Q12.0,43.5 14.9,44.5 Q17.7,45.6 20.6,46.6 T23.5,47.7" stroke-width="0.49"/>
<path d="M0.0,59.7 Q6.1,60.5 9.2,60.9 Q12.2,61.4 15.2,62.2 Q18.2,62.9 21.1,63.7 T24.1,64.6" stroke-width="3.13"/>
<path d="M0.0,73.0 L6.2,73.3" stroke-width="4.31"/>
<path d="M0.0,91.6 Q6.2,91.7 9.2,91.8 Q12.3,91.8 15.4,92.3 Q18.4,92.8 21.4,93.4 Q24.4,94.0 27.4,94.8 T30.4,95.5" stroke-width="1.54"/>
<path d="M0.0,110.7 Q6.2,110.4 9.2,110.3 Q12.3,110.1 15.4,110.4 Q18.5,110.6 21.5,110.9 Q24.6,111.2 27.6,111.6 T30.7,112.0" stroke-width="4.02"/>
<path d="M0.0,125.2 Q6.2,124.9 9.2,124.6 Q12.3,124.2 15.4,124.2 Q18.4,124.2 21.5,124.2 Q24.6,124.3 27.7,124.5 Q30.7,124.6 33.8,125.0 Q36.9,125.4 39.9,125.7 T43.0,126.0" stroke-width="6.51"/>
<path d="M0.0,142.0 Q6.1,141.4 9.2,140.9 Q12.2,140.4 15.3,140.2 Q18.4,140.1 21.4,140.0 Q24.5,140.0 27.6,140.0 Q30.7,140.1 33.8,140.2 Q36.8,140.4 39.9,140.6 Q43.0,140.7 46.1,140.8 T49.1,140.9" stroke-width="14.67"/>
<path d="M0.0,157.4 L6.1,156.5" stroke-width="5.86"/>
<path d="M0.0,173.1 Q6.0,171.8 9.0,170.9 Q11.9,170.0 14.9,169.1 Q17.8,168.2 20.8,167.4 Q23.7,166.5 26.7,165.8 Q29.7,165.1 32.8,164.6 Q35.8,164.2 38.9,163.8 Q41.9,163.4 45.0,163.0 Q48.0,162.6 51.1,162.2 Q54.1,161.8 57.2,161.4 Q60.2,160.9 63.3,160.5 Q66.3,160.0 69.4,159.6 Q72.4,159.2 75.5,158.7 Q78.5,158.3 81.6,157.8 Q84.6,157.3 87.6,156.8 Q90.7,156.2 93.7,155.7 T96.7,155.1" stroke-width="0.24"/>
<path d="M0.0,196.3 Q5.9,194.7 8.8,193.6 Q11.6,192.4 14.5,191.1 Q17.3,189.9 20.0,188.5 Q22.8,187.2 25.6,185.9 Q28.4,184.7 31.3,183.6 Q34.2,182.5 37.1,181.5 Q40.0,180.6 43.0,179.6 Q45.9,178.7 48.9,177.8 Q51.8,176.9 54.8,176.0 Q57.7,175.2 60.7,174.3 Q63.6,173.4 66.6,172.7 Q69.6,171.9 72.6,171.2 Q75.6,170.5 78.6,169.8 Q81.6,169.1 84.6,168.4 T87.6,167.8" stroke-width="2.35"/>
<path d="M6.2,73.3 L12.3,73.9" stroke-width="3.25"/>
<path d="M6.1,156.5 L12.1,155.0" stroke-width="6.39"/>
<path d="M12.3,73.9 Q18.3,75.2 21.3,76.0 Q24.2,76.9 27.1,77.9 T30.1,78.9" stroke-width="3.95"/>
<path d="M12.1,155.0 Q18.1,153.9 21.2,153.4 Q24.2,153.0 27.3,152.8 T30.4,152.6" stroke-width="1.29"/>
<path d="M16.3,17.0 L21.7,19.9" stroke-width="5.13"/>
<path d="M17.4,34.6 L23.0,37.0" stroke-width="5.18"/>
<path d="M21.7,19.9 Q27.3,22.5 30.2,23.6 Q33.1,24.6 36.1,25.4 Q39.0,26.3 42.0,27.1 Q44.9,28.0 47.9,29.0 Q50.8,29.9 53.7,30.9 Q56.6,31.9 59.6,32.8 Q62.5,33.7 65.4,34.7 Q68.4,35.6 71.3,36.5 Q74.2,37.5 77.2,38.3 Q80.2,39.2 83.1,40.0 Q86.1,40.8 89.1,41.6 Q92.0,42.5 95.0,43.4 Q97.9,44.3 100.8,45.3 Q103.8,46.2 106.7,47.2 Q109.6,48.1 112.6,49.0 Q115.5,50.0 118.4,50.9 T121.3,51.9" stroke-width="3.48"/>
<path d="M23.0,37.0 Q28.7,39.3 31.7,40.3 Q34.6,41.3 37.6,42.0 Q40.6,42.8 43.5,43.6 Q46.5,44.3 49.5,45.1 Q52.5,45.9 55.4,46.7 Q58.4,47.6 61.4,48.5 Q64.3,49.3 67.3,50.2 Q70.2,51.0 73.2,51.8 Q76.2,52.6 79.2,53.2 T82.2,53.9" stroke-width="1.33"/>
<path d="M23.5,47.7 Q29.3,49.7 32.3,50.7 Q35.2,51.6 38.2,52.4 Q41.2,53.2 44.1,54.1 Q47.1,54.9 50.0,55.7 Q53.0,56.6 56.0,57.5 Q58.9,58.3 61.9,59.2 Q64.8,60.1 67.8,61.0 Q70.7,61.9 73.7,62.7 Q76.7,63.5 79.7,64.2 Q82.6,65.0 85.7,65.6 Q88.7,66.3 91.7,67.0 Q94.7,67.7 97.7,68.3 Q100.7,68.9 103.7,69.5 Q106.7,70.1 109.8,70.8 T112.8,71.4" stroke-width="3.43"/>
<path d="M23.5,47.7 Q22.2,53.7 23.2,59.2 T24.1,64.6" stroke-width="1.25"/>
<path d="M24.1,64.6 Q29.9,66.6 32.8,67.6 T35.8,68.6" stroke-width="4.94"/>
<path d="M30.1,78.9 Q35.9,80.9 38.8,81.7 Q41.8,82.6 44.8,83.4 Q47.7,84.3 50.7,85.1 T53.7,85.9" stroke-width="7.21"/>
<path d="M30.1,78.9 Q29.5,85.0 30.0,90.3 T30.4,95.5" stroke-width="4.65"/>
<path d="M30.4,95.5 Q36.4,96.9 39.4,97.6 Q42.4,98.2 45.4,98.9 Q48.4,99.6 51.5,100.2 T54.5,100.8" stroke-width="0.59"/>
<path d="M30.7,112.0 L36.8,113.1" stroke-width="2.91"/>
<path d="M30.4,152.6 L36.5,152.5" stroke-width="1.95"/>
<path d="M35.8,68.6 L41.7,70.3" stroke-width="2.45"/>
<path d="M36.8,113.1 Q42.8,114.0 45.9,114.5 Q48.9,115.0 52.0,115.4 Q55.0,115.8 58.1,116.2 Q61.1,116.6 64.2,117.0 Q67.3,117.3 70.3,117.6 Q73.4,117.9 76.5,118.0 Q79.5,118.2 82.6,118.3 Q85.7,118.4 88.8,118.5 Q91.9,118.5 94.9,118.4 Q98.0,118.4 101.1,118.4 Q104.2,118.3 107.3,118.2 Q110.3,118.1 113.4,118.1 Q116.5,118.1 119.6,118.1 Q122.7,118.2 125.7,118.2 Q128.8,118.3 131.9,118.4 Q135.0,118.5 138.0,118.5 Q141.1,118.6 144.2,118.8 Q147.3,118.9 150.4,119.0 T153.4,119.2" stroke-width="4.22"/>
<path d="M36.5,152.5 Q42.7,152.4 45.8,152.2 T48.8,152.1" stroke-width="2.08"/>
<path d="M41.7,70.3 Q47.6,72.0 50.5,72.9 Q53.5,73.7 56.5,74.5 T59.4,75.4" stroke-width="1.50"/>
<path d="M43.0,126.0 L49.1,126.5" stroke-width="0.74"/>
<path d="M49.1,126.5 Q55.3,127.0 58.3,127.2 Q61.4,127.4 64.5,127.5 Q67.6,127.7 70.6,127.8 T73.7,127.9" stroke-width="3.35"/>
<path d="M49.1,140.9 L55.3,141.0" stroke-width="0.24"/>
<path d="M49.1,140.9 L48.8,152.1" stroke-width="2.65"/>
<path d="M48.8,152.1 L55.0,151.8" stroke-width="1.44"/>
<path d="M53.7,85.9 L59.6,87.4" stroke-width="0.71"/>
<path d="M53.7,85.9 Q53.0,92.0 53.7,96.4 T54.5,100.8" stroke-width="1.87"/>
<path d="M54.5,100.8 Q60.5,101.9 63.6,102.4 Q66.6,102.9 69.7,103.4 Q72.7,103.9 75.8,104.2 Q78.8,104.6 81.9,104.9 Q84.9,105.2 88.0,105.5 T91.1,105.7" stroke-width="5.80"/>
<path d="M55.3,141.0 Q61.5,141.0 64.5,140.9 Q67.6,140.8 70.7,140.7 T73.8,140.6" stroke-width="1.52"/>
<path d="M55.3,141.0 L55.0,151.8" stroke-width="1.32"/>
<path d="M55.0,151.8 Q61.1,151.3 64.2,151.0 Q67.3,150.8 70.3,150.5 Q73.4,150.3 76.5,149.9 Q79.5,149.5 82.6,149.1 Q85.6,148.7 88.7,148.3 Q91.7,147.9 94.8,147.4 T97.8,147.0" stroke-width="5.74"/>
<path d="M59.4,75.4 Q65.4,77.1 68.3,77.9 Q71.3,78.8 74.3,79.6 Q77.3,80.3 80.3,81.0 Q83.3,81.6 86.3,82.1 Q89.3,82.7 92.4,83.1 Q95.4,83.5 98.5,83.9 Q101.5,84.3 104.6,84.8 Q107.6,85.2 110.7,85.8 Q113.7,86.3 116.7,87.0 Q119.7,87.6 122.7,88.4 Q125.7,89.2 128.7,89.9 Q131.7,90.7 134.7,91.4 Q137.7,92.1 140.7,92.7 Q143.7,93.4 146.7,94.0 Q149.7,94.6 152.7,95.2 T155.8,95.7" stroke-width="1.24"/>
<path d="M59.4,75.4 L59.6,87.4" stroke-width="0.20"/>
<path d="M59.6,87.4 Q65.6,88.8 68.6,89.6 Q71.6,90.3 74.6,90.8 Q77.7,91.4 80.7,91.9 Q83.8,92.3 86.8,92.7 T89.9,93.2" stroke-width="3.95"/>
<path d="M73.7,127.9 Q79.9,128.1 83.0,128.0 Q86.0,128.0 89.1,127.9 Q92.2,127.8 95.3,127.8 Q98.4,127.7 101.4,127.6 Q104.5,127.5 107.6,127.4 Q110.7,127.2 113.7,127.1 T116.8,127.0" stroke-width="1.10"/>
<path d="M73.7,127.9 L73.8,140.6" stroke-width="1.40"/>
<path d="M73.8,140.6 Q79.9,140.3 83.0,140.1 Q86.1,139.9 89.1,139.7 Q92.2,139.5 95.3,139.3 Q98.4,139.0 101.4,138.8 Q104.5,138.5 107.6,138.2 T110.6,137.9" stroke-width="0.41"/>
<path d="M82.2,53.9 L88.2,55.3" stroke-width="1.28"/>
<path d="M88.2,55.3 Q94.2,56.7 97.2,57.4 Q100.2,58.1 103.2,58.9 T106.2,59.7" stroke-width="2.06"/>
<path d="M89.9,93.2 Q96.0,93.9 99.0,94.3 T102.1,94.7" stroke-width="3.41"/>
<path d="M89.9,93.2 L91.1,105.7" stroke-width="2.27"/>
<path d="M91.1,105.7 Q97.2,106.2 100.3,106.4 Q103.4,106.6 106.5,106.8 Q109.5,106.9 112.6,107.2 Q115.7,107.4 118.7,107.7 Q121.8,108.0 124.9,108.3 Q127.9,108.6 131.0,108.9 Q134.1,109.2 137.1,109.4 T140.2,109.7" stroke-width="0.88"/>
<path d="M87.6,167.8 L93.6,166.4" stroke-width="1.04"/>
<path d="M97.8,147.0 Q103.9,146.1 107.3,142.0 T110.6,137.9" stroke-width="2.53"/>
<path d="M97.8,147.0 L96.7,155.1" stroke-width="1.26"/>
<path d="M96.7,155.1 L102.8,153.9" stroke-width="5.13"/>
<path d="M93.6,166.4 Q99.6,164.9 102.6,164.1 Q105.5,163.3 108.5,162.5 Q111.5,161.7 114.5,160.9 T117.4,160.1" stroke-width="1.08"/>
<path d="M102.1,94.7 L108.2,95.5" stroke-width="2.20"/>
<path d="M102.8,153.9 Q108.8,152.6 111.8,152.0 Q114.8,151.4 117.9,150.8 T120.9,150.2" stroke-width="0.27"/>
<path d="M106.2,59.7 L112.1,61.2" stroke-width="2.28"/>
<path d="M108.2,95.5 Q114.3,96.3 117.3,96.8 Q120.4,97.3 123.4,97.9 Q126.4,98.4 129.5,99.0 Q132.5,99.5 135.5,100.0 Q138.6,100.5 141.6,100.9 T144.7,101.3" stroke-width="0.20"/>
<path d="M110.6,137.9 L116.8,137.4" stroke-width="0.44"/>
<path d="M112.1,61.2 L118.1,62.8" stroke-width="0.50"/>
<path d="M112.8,71.4 L118.8,72.7" stroke-width="2.19"/>
<path d="M116.8,127.0 Q123.0,127.0 126.1,126.9 T129.1,126.8" stroke-width="3.75"/>
<path d="M116.8,127.0 L116.8,137.4" stroke-width="1.09"/>
<path d="M116.8,137.4 Q122.9,136.9 126.0,136.6 T129.0,136.4" stroke-width="1.26"/>
<path d="M118.1,62.8 Q124.0,64.6 126.9,65.4 Q129.9,66.2 132.8,67.2 Q135.8,68.1 138.7,69.0 Q141.7,69.9 144.6,70.8 Q147.6,71.7 150.5,72.6 Q153.5,73.5 156.4,74.5 Q159.3,75.6 162.1,76.7 Q165.0,77.8 167.8,79.0 T170.7,80.2" stroke-width="2.98"/>
<path d="M118.1,62.8 L121.3,51.9" stroke-width="1.08"/>
<path d="M118.8,72.7 Q124.8,74.1 127.8,74.9 Q130.7,75.7 133.7,76.6 Q136.6,77.4 139.6,78.4 Q142.5,79.4 145.4,80.3 Q148.4,81.3 151.3,82.2 Q154.2,83.1 157.1,84.1 Q160.0,85.2 162.9,86.2 T165.8,87.2" stroke-width="0.35"/>
<path d="M120.9,150.2 Q127.0,149.2 130.0,148.6 Q133.0,148.1 136.0,147.5 T139.1,146.9" stroke-width="1.43"/>
<path d="M120.9,150.2 L117.4,160.1" stroke-width="0.91"/>
<path d="M117.4,160.1 Q123.4,158.5 126.3,157.7 Q129.3,156.9 132.3,156.0 T135.2,155.2" stroke-width="0.74"/>
<path d="M121.3,51.9 Q127.1,54.0 130.0,55.1 Q132.9,56.1 135.8,57.2 Q138.7,58.2 141.7,59.0 T144.6,59.9" stroke-width="0.47"/>
<path d="M129.1,126.8 Q135.3,126.6 138.4,126.5 Q141.5,126.4 144.5,126.4 Q147.6,126.4 150.5,122.8 T153.4,119.2" stroke-width="1.47"/>
<path d="M129.1,126.8 L129.0,136.4" stroke-width="0.63"/>
<path d="M129.0,136.4 Q135.2,135.8 138.2,135.5 Q141.3,135.2 144.4,134.9 Q147.4,134.6 150.5,134.3 T153.6,134.0" stroke-width="0.65"/>
<path d="M140.2,109.7 L146.3,110.1" stroke-width="0.72"/>
<path d="M140.2,109.7 L144.7,101.3" stroke-width="1.04"/>
<path d="M139.1,146.9 Q145.2,146.0 148.2,145.6 Q151.3,145.2 154.3,144.9 Q157.4,144.5 160.5,144.4 Q163.5,144.3 166.6,144.0 Q169.7,143.8 172.8,143.5 Q175.8,143.2 178.9,142.9 T181.9,142.5" stroke-width="1.15"/>
<path d="M139.1,146.9 L135.2,155.2" stroke-width="1.55"/>
<path d="M144.7,101.3 Q150.8,102.1 153.3,98.9 T155.8,95.7" stroke-width="1.41"/>
<path d="M144.7,101.3 L146.3,110.1" stroke-width="0.20"/>
<path d="M146.3,110.1 Q152.5,110.4 155.6,110.5 Q158.7,110.6 161.7,110.9 Q164.8,111.1 167.9,111.4 Q170.9,111.7 174.0,112.0 Q177.1,112.3 180.1,112.6 Q183.2,112.8 186.3,112.7 T189.4,112.6" stroke-width="0.42"/>
<path d="M144.6,59.9 L150.6,61.6" stroke-width="1.54"/>
<path d="M153.4,119.2 Q159.6,119.2 162.7,119.4 Q165.7,119.6 168.8,119.9 Q171.9,120.1 175.0,120.3 Q178.0,120.6 181.1,120.5 Q184.2,120.4 186.8,116.5 T189.4,112.6" stroke-width="0.95"/>
<path d="M153.6,134.0 L159.7,133.3" stroke-width="0.57"/>
<path d="M150.6,61.6 Q156.5,63.3 159.4,64.2 Q162.4,65.1 165.3,66.1 Q168.2,67.0 171.1,68.0 T174.1,69.0" stroke-width="0.36"/>
<path d="M155.8,95.7 L161.8,97.1" stroke-width="0.82"/>
<path d="M159.7,133.3 Q165.8,133.0 168.9,132.9 T172.0,132.8" stroke-width="1.45"/>
<path d="M161.8,97.1 Q167.8,98.5 170.8,99.2 Q173.8,99.9 176.8,100.5 Q179.8,101.2 182.8,102.0 Q185.8,102.8 188.8,103.3 T191.8,103.8" stroke-width="2.34"/>
<path d="M161.8,97.1 L165.8,87.2" stroke-width="0.20"/>
<path d="M165.8,87.2 Q171.6,89.3 174.5,90.3 Q177.4,91.4 180.3,92.5 Q183.2,93.6 186.1,94.7 T188.9,95.9" stroke-width="1.75"/>
<path d="M165.8,87.2 L170.7,80.2" stroke-width="1.43"/>
<path d="M172.0,132.8 L178.1,132.4" stroke-width="1.10"/>
<path d="M170.7,80.2 Q176.4,82.5 179.2,83.7 Q182.1,84.9 184.9,86.2 Q187.7,87.4 188.3,91.7 T188.9,95.9" stroke-width="0.55"/>
<path d="M170.7,80.2 L174.1,69.0" stroke-width="0.32"/>
<path d="M178.1,132.4 L184.3,131.9" stroke-width="0.81"/>
<path d="M174.1,69.0 Q179.8,71.3 182.6,72.6 Q185.4,73.9 188.1,75.2 Q190.9,76.6 193.6,78.1 Q196.3,79.6 199.0,81.1 Q201.6,82.7 204.4,84.1 Q207.1,85.5 209.8,87.0 T212.5,88.4" stroke-width="0.43"/>
<path d="M184.3,131.9 Q190.4,131.4 193.5,130.9 Q196.5,130.4 199.5,129.9 Q202.6,129.3 205.5,128.4 Q208.4,127.5 211.3,126.3 T214.1,125.1" stroke-width="1.27"/>
<path d="M184.3,131.9 L181.9,142.5" stroke-width="0.20"/>
<path d="M181.9,142.5 Q188.0,141.5 191.0,140.7 Q194.0,140.0 197.0,139.2 Q199.9,138.3 202.9,137.4 Q205.8,136.5 208.7,135.5 T211.6,134.5" stroke-width="0.20"/>
<path d="M189.4,112.6 Q195.5,112.4 198.6,112.6 T201.7,112.8" stroke-width="1.71"/>
<path d="M188.9,95.9 L191.8,103.8" stroke-width="1.84"/>
<path d="M191.8,103.8 Q197.9,104.8 199.8,108.8 T201.7,112.8" stroke-width="0.62"/>
<path d="M201.7,112.8 Q207.8,113.2 210.9,113.0 T213.9,112.7" stroke-width="0.20"/>
<path d="M213.9,112.7 L220.0,111.4" stroke-width="0.22"/>
<path d="M214.1,125.1 L219.6,122.3" stroke-width="0.20"/>
<path d="M214.1,125.1 L211.6,134.5" stroke-width="0.20"/>
<path d="M211.6,134.5 Q217.3,132.2 220.2,131.0 Q223.0,129.8 225.8,128.5 Q228.6,127.2 231.3,125.8 Q234.0,124.3 236.7,122.7 Q239.3,121.1 241.8,116.0 T244.3,110.8" stroke-width="0.45"/>
<path d="M220.0,111.4 Q226.0,110.0 229.0,109.7 T232.1,109.3" stroke-width="0.95"/>
<path d="M220.0,111.4 L219.6,122.3" stroke-width="0.20"/>
<path d="M219.6,122.3 Q225.2,119.6 227.9,118.2 Q230.6,116.7 234.4,113.2 T238.2,109.6" stroke-width="0.20"/>
<path d="M212.5,88.4 L217.6,91.9" stroke-width="0.85"/>
<path d="M217.6,91.9 Q222.7,95.4 225.2,97.2 Q227.7,99.0 229.9,104.1 T232.1,109.3" stroke-width="0.36"/>
<path d="M232.1,109.3 L238.2,109.6" stroke-width="0.93"/>
<path d="M238.2,109.6 L244.3,110.8" stroke-width="0.20"/>
<path d="M244.3,110.8 Q250.4,111.3 253.1,109.9 T255.9,108.5" stroke-width="0.20"/>
<path d="M255.9,108.5 L259.3,103.3" stroke-width="0.42"/>
<path d="M259.3,103.3 Q261.8,97.7 263.0,94.9 Q264.1,92.0 265.2,89.1 Q266.3,86.3 267.3,83.4 Q268.3,80.4 269.2,77.5 Q270.1,74.6 271.3,71.7 Q272.4,68.8 273.6,66.0 Q274.7,63.1 275.8,60.3 Q277.0,57.4 277.6,54.5 Q278.2,51.5 278.2,48.6 Q278.2,45.6 278.2,42.6 Q278.2,39.6 278.2,36.5 T278.2,33.5" stroke-width="0.41"/>
<circle cx="278.2" cy="33.5" r="1.6"/>
</g>
<text x="4" y="196" font-family="monospace" font-size="8" fill="#5cc8e0">R2C2 neural-medium left-right MED</text>
<text x="276" y="196" text-anchor="end" font-family="monospace" font-size="8" fill="#d4a04a">123el 13ms</text>
</g>
<g transform="translate(596,224)">
<clipPath id="clip6"><rect width="280" height="200"/></clipPath>
<g clip-path="url(#clip6)">
<rect class="panel" width="280" height="200"/>
<path d="M39.2,0.0 L40.4,6.0" stroke-width="3.43"/>
<path d="M39.2,200.0 Q40.5,194.0 41.4,191.0 Q42.4,188.1 43.4,185.2 T44.4,182.3" stroke-width="2.43"/>
<path d="M0.0,28.0 Q6.0,29.3 9.0,30.2 Q11.9,31.1 14.8,32.1 Q17.7,33.1 20.6,34.1 Q23.6,35.1 26.5,36.1 Q29.4,37.1 32.3,38.1 Q35.2,39.1 38.1,40.3 T40.9,41.4" stroke-width="2.18"/>
<path d="M280.0,28.0 Q274.0,29.3 271.0,30.2 T268.1,31.2" stroke-width="9.13"/>
<path d="M89.6,0.0 Q89.9,6.2 90.2,9.2 Q90.4,12.3 90.8,15.4 Q91.1,18.4 91.5,21.5 Q92.0,24.5 92.4,27.6 Q92.9,30.6 93.5,33.6 Q94.0,36.7 94.7,39.7 Q95.3,42.7 96.1,45.7 Q96.8,48.7 97.7,51.6 Q98.5,54.6 99.5,57.5 T100.5,60.4" stroke-width="0.42"/>
<path d="M89.6,200.0 Q89.7,193.8 89.8,190.8 Q89.9,187.7 90.1,184.6 Q90.2,181.5 90.4,178.5 Q90.7,175.4 91.1,172.3 Q91.5,169.3 92.1,166.3 Q92.7,163.2 93.5,160.3 Q94.3,157.3 95.2,154.3 Q96.1,151.4 97.1,148.5 Q98.1,145.6 99.2,142.7 Q100.4,139.9 101.6,137.0 T102.8,134.2" stroke-width="5.16"/>
<path d="M0.0,64.0 Q6.1,64.8 9.1,65.4 Q12.2,65.9 15.2,66.6 Q18.2,67.2 21.2,68.0 Q24.2,68.7 27.2,69.4 Q30.1,70.2 33.2,70.8 T36.2,71.5" stroke-width="2.24"/>
<path d="M280.0,64.0 Q273.9,64.7 270.9,65.3 Q267.8,65.9 264.8,66.6 Q261.8,67.3 258.9,68.1 Q255.9,68.9 253.0,69.8 Q250.0,70.7 247.1,71.7 Q244.1,72.6 241.2,73.6 Q238.3,74.6 235.4,75.6 Q232.5,76.5 229.5,77.4 Q226.6,78.3 223.6,79.1 Q220.6,79.8 217.6,80.4 Q214.5,81.0 211.5,81.6 T208.5,82.1" stroke-width="2.36"/>
<path d="M140.0,0.0 Q139.9,6.2 139.8,9.2 Q139.7,12.3 139.6,15.4 Q139.5,18.5 139.3,21.5 Q139.1,24.6 138.9,27.7 Q138.7,30.8 138.5,33.8 Q138.3,36.9 138.1,40.0 Q137.8,43.1 137.5,46.1 Q137.3,49.2 137.2,52.3 T137.1,55.3" stroke-width="7.69"/>
<path d="M140.0,200.0 Q140.0,193.8 140.0,190.8 T140.1,187.7" stroke-width="11.95"/>
<path d="M0.0,100.0 Q6.2,100.2 9.2,100.4 T12.3,100.5" stroke-width="3.26"/>
<path d="M280.0,100.0 Q273.9,100.4 270.8,100.8 Q267.7,101.1 264.7,101.4 Q261.6,101.8 258.6,102.2 Q255.5,102.6 252.4,103.0 T249.4,103.3" stroke-width="4.96"/>
<path d="M190.4,0.0 L190.1,6.2" stroke-width="2.52"/>
<path d="M190.4,200.0 Q190.4,193.8 190.4,190.8 Q190.4,187.7 190.5,184.6 Q190.6,181.5 190.6,178.4 Q190.6,175.4 190.5,172.3 Q190.3,169.2 190.1,166.1 T189.9,163.1" stroke-width="5.90"/>
<path d="M280.0,136.0 Q273.8,135.9 270.8,135.7 T267.7,135.6" stroke-width="1.52"/>
<path d="M240.8,0.0 Q239.8,6.1 239.0,9.1 Q238.2,12.0 237.4,15.0 Q236.5,17.9 235.6,20.9 T234.6,23.8" stroke-width="3.04"/>
<path d="M240.8,200.0 Q239.8,193.9 239.1,190.9 Q238.4,187.9 237.5,185.0 Q236.6,182.0 235.6,179.1 T234.6,176.2" stroke-width="3.11"/>
<path d="M0.0,172.0 Q6.1,171.0 9.0,170.1 Q12.0,169.3 14.9,168.4 Q17.9,167.4 20.8,166.5 T23.7,165.5" stroke-width="10.04"/>
<path d="M280.0,172.0 Q273.9,170.9 271.0,170.0 Q268.0,169.2 265.1,168.2 T262.2,167.3" stroke-width="3.08"/>
<path d="M40.4,6.0 L42.3,11.9" stroke-width="0.97"/>
<path d="M190.1,6.2 L189.4,12.3" stroke-width="5.74"/>
<path d="M6.1,135.6 Q0.0,136.0 3.0,132.7 T6.0,129.4" stroke-width="4.44"/>
<path d="M6.1,135.6 Q12.3,135.0 15.3,134.6 Q18.4,134.2 21.4,133.8 Q24.5,133.4 27.6,133.1 T30.6,132.8" stroke-width="1.35"/>
<path d="M6.1,135.6 L6.0,129.4" stroke-width="16.92"/>
<path d="M42.3,11.9 Q44.4,17.7 45.6,20.5 Q46.8,23.4 48.1,26.2 Q49.4,29.0 50.7,31.7 Q52.0,34.5 53.5,37.2 Q54.9,40.0 56.5,42.6 T58.0,45.3" stroke-width="4.64"/>
<path d="M268.1,31.2 L262.3,33.2" stroke-width="2.29"/>
<path d="M140.1,187.7 L140.2,181.5" stroke-width="3.63"/>
<path d="M12.3,100.5 L18.4,101.0" stroke-width="14.42"/>
<path d="M12.3,100.5 Q11.4,111.8 10.3,114.7 Q9.1,117.5 8.2,120.5 Q7.2,123.4 6.6,126.4 T6.0,129.4" stroke-width="6.40"/>
<path d="M189.4,12.3 Q188.6,18.4 188.2,21.4 Q187.8,24.5 187.4,27.5 Q187.0,30.6 186.5,33.6 Q186.0,36.7 185.4,39.7 Q184.7,42.7 184.0,45.7 Q183.3,48.7 182.6,51.7 Q181.8,54.7 181.1,57.7 Q180.3,60.6 179.4,63.6 Q178.6,66.6 177.7,69.5 Q176.9,72.5 176.1,75.5 Q175.3,78.4 174.6,81.4 Q173.9,84.4 173.5,87.5 T173.2,90.5" stroke-width="1.18"/>
<path d="M267.7,135.6 L261.5,135.2" stroke-width="2.50"/>
<path d="M44.4,182.3 Q46.5,176.5 47.7,173.6 T48.8,170.8" stroke-width="0.20"/>
<path d="M44.4,182.3 Q36.5,178.6 34.0,176.8 Q31.5,174.9 29.3,172.8 Q27.0,170.7 25.4,168.1 T23.7,165.5" stroke-width="1.37"/>
<path d="M262.3,33.2 L256.5,35.4" stroke-width="0.47"/>
<path d="M140.2,181.5 Q140.3,175.4 140.3,172.3 Q140.3,169.2 140.4,166.1 Q140.4,163.0 140.6,160.0 Q140.8,156.9 140.9,153.8 Q141.1,150.7 141.3,147.7 Q141.5,144.6 141.5,141.5 Q141.6,138.4 141.7,135.4 Q141.7,132.3 142.0,129.2 Q142.3,126.1 142.5,123.1 T142.8,120.0" stroke-width="1.24"/>
<path d="M18.4,101.0 Q24.6,101.4 27.7,101.5 Q30.8,101.7 33.8,101.8 T36.9,101.8" stroke-width="6.89"/>
<path d="M18.4,101.0 Q20.2,95.1 21.7,92.4 Q23.2,89.7 25.0,87.2 Q26.8,84.8 28.8,82.4 Q30.8,80.0 33.5,75.8 T36.2,71.5" stroke-width="2.90"/>
<path d="M261.5,135.2 L255.4,134.4" stroke-width="0.66"/>
<path d="M262.2,167.3 L256.4,165.1" stroke-width="9.18"/>
<path d="M256.5,35.4 L250.9,37.8" stroke-width="0.20"/>
<path d="M255.4,134.4 Q249.3,133.6 246.3,133.1 Q243.2,132.6 240.2,132.2 Q237.1,131.8 234.1,131.3 Q231.1,130.7 228.1,130.0 T225.1,129.3" stroke-width="0.23"/>
<path d="M234.6,23.8 L232.5,29.6" stroke-width="7.19"/>
<path d="M234.6,23.8 L239.8,27.1" stroke-width="2.23"/>
<path d="M234.6,176.2 L232.4,170.5" stroke-width="1.62"/>
<path d="M23.7,165.5 L29.6,163.7" stroke-width="5.16"/>
<path d="M256.4,165.1 L250.6,162.9" stroke-width="6.93"/>
<path d="M48.8,170.8 L51.1,165.1" stroke-width="8.89"/>
<path d="M250.9,37.8 L245.3,40.4" stroke-width="2.87"/>
<path d="M250.9,37.8 Q244.2,31.5 242.0,29.3 T239.8,27.1" stroke-width="0.83"/>
<path d="M249.4,103.3 L243.3,104.0" stroke-width="1.47"/>
<path d="M30.6,132.8 L36.8,132.2" stroke-width="2.10"/>
<path d="M232.5,29.6 Q230.1,35.3 228.7,38.0 Q227.4,40.8 226.0,43.5 T224.5,46.3" stroke-width="0.49"/>
<path d="M232.5,29.6 L239.8,27.1" stroke-width="4.25"/>
<path d="M232.4,170.5 Q229.9,164.8 228.7,162.0 T227.4,159.2" stroke-width="1.03"/>
<path d="M29.6,163.7 L35.4,161.6" stroke-width="1.87"/>
<path d="M250.6,162.9 Q244.9,160.7 242.0,159.6 T239.2,158.4" stroke-width="0.20"/>
<path d="M51.1,165.1 L53.6,159.4" stroke-width="1.01"/>
<path d="M245.3,40.4 L239.8,43.1" stroke-width="6.40"/>
<path d="M36.2,71.5 L42.2,72.5" stroke-width="0.62"/>
<path d="M36.9,101.8 Q43.1,101.7 46.1,101.6 T49.2,101.5" stroke-width="0.94"/>
<path d="M36.9,101.8 Q36.9,95.7 37.7,92.7 T38.4,89.7" stroke-width="0.26"/>
<path d="M243.3,104.0 Q237.2,104.8 234.1,105.1 Q231.0,105.5 228.0,105.6 Q224.9,105.8 221.8,105.8 Q218.7,105.9 215.6,105.9 Q212.6,105.8 209.5,105.6 Q206.4,105.4 203.3,105.3 T200.3,105.1" stroke-width="0.20"/>
<path d="M189.9,163.1 L189.5,156.9" stroke-width="6.68"/>
<path d="M36.8,132.2 Q42.9,131.3 45.9,130.8 Q48.9,130.4 52.0,129.8 T55.0,129.3" stroke-width="2.41"/>
<path d="M35.4,161.6 Q41.2,159.5 47.4,159.5 T53.6,159.4" stroke-width="3.44"/>
<path d="M53.6,159.4 L56.2,153.9" stroke-width="1.04"/>
<path d="M40.9,41.4 L46.6,43.7" stroke-width="1.14"/>
<path d="M239.8,43.1 Q234.3,46.1 229.4,46.2 T224.5,46.3" stroke-width="2.51"/>
<path d="M42.2,72.5 Q48.3,73.5 51.4,73.9 Q54.4,74.3 57.5,74.8 Q60.5,75.2 63.5,75.8 T66.6,76.4" stroke-width="1.10"/>
<path d="M42.2,72.5 Q40.8,84.0 39.6,86.8 T38.4,89.7" stroke-width="0.82"/>
<path d="M189.5,156.9 Q188.8,150.8 188.3,147.8 Q187.7,144.7 187.1,141.7 Q186.4,138.7 185.6,135.7 T184.7,132.8" stroke-width="1.57"/>
<path d="M227.4,159.2 L224.6,153.7" stroke-width="0.66"/>
<path d="M227.4,159.2 L239.2,158.4" stroke-width="4.33"/>
<path d="M58.0,45.3 Q61.3,50.5 63.0,53.1 Q64.7,55.6 66.5,58.2 T68.2,60.7" stroke-width="4.12"/>
<path d="M58.0,45.3 L46.6,43.7" stroke-width="1.00"/>
<path d="M56.2,153.9 L59.0,148.3" stroke-width="0.45"/>
<path d="M49.2,101.5 Q55.4,101.5 58.5,101.4 Q61.5,101.4 64.6,101.4 T67.7,101.4" stroke-width="2.39"/>
<path d="M49.2,101.5 L49.2,107.7" stroke-width="0.61"/>
<path d="M38.4,89.7 Q44.5,90.5 47.6,91.0 Q50.6,91.5 53.6,92.1 T56.7,92.7" stroke-width="1.09"/>
<path d="M224.5,46.3 Q221.6,51.7 220.2,54.4 Q218.9,57.2 217.5,60.0 Q216.1,62.7 214.7,65.4 Q213.2,68.1 211.8,70.9 Q210.3,73.6 209.4,77.9 T208.5,82.1" stroke-width="1.26"/>
<path d="M224.6,153.7 L221.8,148.2" stroke-width="0.58"/>
<path d="M59.0,148.3 Q61.9,143.0 63.6,140.4 Q65.3,137.8 66.2,132.5 T67.1,127.1" stroke-width="1.45"/>
<path d="M137.1,55.3 L137.2,61.5" stroke-width="0.27"/>
<path d="M49.2,107.7 L50.3,113.7" stroke-width="0.32"/>
<path d="M55.0,129.3 Q61.1,128.2 64.1,127.7 T67.1,127.1" stroke-width="1.24"/>
<path d="M55.0,129.3 Q52.0,119.7 51.2,116.7 T50.3,113.7" stroke-width="0.20"/>
<path d="M225.1,129.3 L219.1,127.8" stroke-width="0.34"/>
<path d="M221.8,148.2 Q219.0,142.7 217.5,140.0 Q216.1,137.3 214.6,131.8 T213.1,126.2" stroke-width="2.77"/>
<path d="M100.5,60.4 Q102.8,66.1 104.2,68.9 Q105.5,71.7 106.9,74.4 Q108.3,77.1 109.6,79.9 T110.9,82.7" stroke-width="0.22"/>
<path d="M100.5,60.4 Q106.6,59.4 109.7,59.5 Q112.8,59.5 115.8,59.9 Q118.9,60.3 121.9,60.7 Q125.0,61.1 131.1,61.3 T137.2,61.5" stroke-width="0.20"/>
<path d="M137.2,61.5 Q137.5,67.7 138.0,70.7 T138.5,73.7" stroke-width="0.20"/>
<path d="M219.1,127.8 L213.1,126.2" stroke-width="0.94"/>
<path d="M68.2,60.7 L71.9,65.6" stroke-width="0.76"/>
<path d="M102.8,134.2 L105.5,128.6" stroke-width="0.41"/>
<path d="M66.6,76.4 Q72.6,77.8 75.6,78.5 T78.6,79.2" stroke-width="0.54"/>
<path d="M66.6,76.4 Q66.5,82.6 67.2,85.6 Q67.8,88.6 65.3,91.3 T62.7,93.9" stroke-width="1.14"/>
<path d="M67.7,101.4 Q73.9,101.5 76.9,101.6 Q80.0,101.7 83.1,101.8 Q86.2,101.9 89.3,102.1 Q92.3,102.2 95.4,102.5 T98.5,102.7" stroke-width="0.27"/>
<path d="M67.7,101.4 L62.7,93.9" stroke-width="0.20"/>
<path d="M56.7,92.7 L62.7,93.9" stroke-width="1.06"/>
<path d="M184.7,132.8 Q182.9,126.9 182.0,124.0 T181.1,121.0" stroke-width="0.36"/>
<path d="M184.7,132.8 Q190.9,132.1 193.9,131.6 Q196.9,131.0 202.0,127.9 T207.2,124.7" stroke-width="1.72"/>
<path d="M67.1,127.1 Q73.2,126.2 76.3,125.8 Q79.3,125.3 82.4,125.0 Q85.4,124.6 88.5,124.4 Q91.6,124.2 94.7,124.0 Q97.7,123.8 103.0,123.5 T108.3,123.2" stroke-width="0.76"/>
<path d="M213.1,126.2 L207.2,124.7" stroke-width="0.20"/>
<path d="M71.9,65.6 Q75.6,70.6 77.1,74.9 T78.6,79.2" stroke-width="0.70"/>
<path d="M105.5,128.6 L108.3,123.2" stroke-width="0.23"/>
<path d="M208.5,82.1 Q202.5,83.5 199.5,84.0 Q196.4,84.6 193.4,85.2 Q190.4,85.8 187.4,86.4 Q184.3,87.0 178.7,88.8 T173.2,90.5" stroke-width="0.20"/>
<path d="M138.5,73.7 Q139.5,79.8 140.1,82.8 T140.8,85.8" stroke-width="1.07"/>
<path d="M138.5,73.7 Q128.5,78.0 125.9,79.7 T123.4,81.4" stroke-width="1.14"/>
<path d="M207.2,124.7 Q201.2,123.2 198.2,122.6 T195.2,122.0" stroke-width="0.58"/>
<path d="M108.3,123.2 Q111.3,117.8 112.9,115.1 Q114.4,112.5 116.0,109.8 T117.5,107.2" stroke-width="1.18"/>
<path d="M78.6,79.2 Q84.6,80.6 87.6,81.3 Q90.6,82.0 93.6,82.7 Q96.6,83.4 99.6,84.0 Q102.6,84.6 106.8,83.7 T110.9,82.7" stroke-width="2.06"/>
<path d="M142.8,120.0 L143.6,113.9" stroke-width="0.42"/>
<path d="M200.3,105.1 Q194.1,104.8 191.0,104.7 T188.0,104.7" stroke-width="0.99"/>
<path d="M200.3,105.1 L197.0,116.1" stroke-width="0.20"/>
<path d="M181.1,121.0 Q179.5,115.1 179.1,112.0 T178.7,109.0" stroke-width="0.81"/>
<path d="M181.1,121.0 Q189.1,121.0 192.1,121.5 T195.2,122.0" stroke-width="0.24"/>
<path d="M110.9,82.7 L113.3,88.4" stroke-width="0.20"/>
<path d="M140.8,85.8 L142.0,91.9" stroke-width="0.20"/>
<path d="M143.6,113.9 L144.5,107.8" stroke-width="0.20"/>
<path d="M195.2,122.0 L197.0,116.1" stroke-width="0.20"/>
<path d="M113.3,88.4 Q115.3,94.2 116.4,100.7 T117.5,107.2" stroke-width="0.36"/>
<path d="M113.3,88.4 Q118.3,84.9 120.8,83.2 T123.4,81.4" stroke-width="0.24"/>
<path d="M142.0,91.9 L143.2,97.9" stroke-width="0.59"/>
<path d="M144.5,107.8 L143.2,97.9" stroke-width="0.20"/>
<path d="M188.0,104.7 L178.7,109.0" stroke-width="1.07"/>
<path d="M188.0,104.7 Q192.1,112.4 194.5,114.2 T197.0,116.1" stroke-width="0.20"/>
<path d="M173.2,90.5 L173.2,96.7" stroke-width="0.20"/>
<path d="M178.7,109.0 L178.9,102.8" stroke-width="0.51"/>
<path d="M117.5,107.2 Q120.4,101.7 121.7,98.9 Q122.9,96.1 124.1,93.2 Q125.3,90.4 124.3,85.9 T123.4,81.4" stroke-width="0.20"/>
<path d="M117.5,107.2 Q110.8,103.6 107.7,103.3 T104.6,103.0" stroke-width="0.20"/>
<path d="M98.5,102.7 L104.6,103.0" stroke-width="0.20"/>
<path d="M173.2,96.7 L178.9,102.8" stroke-width="0.20"/>
</g>
<text x="4" y="196" font-family="monospace" font-size="8" fill="#5cc8e0">R2C3 neural-high all edges HIGH</text>
<text x="276" y="196" text-anchor="end" font-family="monospace" font-size="8" fill="#d4a04a">132el 16ms</text>
</g>
<g transform="translate(888,224)">
<clipPath id="clip7"><rect width="280" height="200"/></clipPath>
<g clip-path="url(#clip7)">
<rect class="panel" width="280" height="200"/>
<path d="M56.0,200.0 Q56.4,193.9 56.7,190.8 T57.0,187.7" stroke-width="0.27"/>
<path d="M0.0,40.0 L6.1,41.1" stroke-width="2.55"/>
<path d="M280.0,40.0 Q273.9,40.8 270.9,41.4 Q267.9,42.1 264.9,42.8 Q261.9,43.6 258.9,44.4 T255.9,45.2" stroke-width="5.38"/>
<path d="M140.0,0.0 Q139.7,6.2 139.6,9.2 Q139.5,12.3 139.4,15.4 Q139.2,18.5 139.2,21.5 Q139.1,24.6 139.0,27.7 Q138.9,30.8 138.8,33.9 T138.7,36.9" stroke-width="4.15"/>
<path d="M0.0,100.0 Q6.2,99.8 9.2,99.6 Q12.3,99.4 15.4,99.1 Q18.4,98.8 21.5,98.5 Q24.6,98.1 27.6,97.8 Q30.7,97.5 33.8,97.2 T36.8,96.9" stroke-width="1.54"/>
<path d="M280.0,100.0 Q273.8,99.8 270.8,99.8 Q267.7,99.7 264.6,99.6 Q261.5,99.6 258.4,99.5 Q255.4,99.3 252.3,99.3 T249.2,99.2" stroke-width="2.03"/>
<path d="M224.0,0.0 Q223.3,6.1 222.9,9.2 Q222.5,12.2 222.1,15.3 Q221.7,18.3 221.4,21.4 Q221.1,24.5 220.6,27.5 Q220.0,30.5 219.3,33.5 Q218.5,36.5 217.6,39.4 Q216.6,42.4 215.6,45.3 Q214.6,48.2 213.5,51.1 Q212.3,53.9 211.0,56.7 T209.8,59.5" stroke-width="8.06"/>
<path d="M224.0,200.0 L223.2,193.9" stroke-width="0.20"/>
<path d="M0.0,160.0 L6.0,158.6" stroke-width="3.61"/>
<path d="M280.0,160.0 Q273.9,159.2 270.9,158.5 Q267.9,157.9 264.9,157.1 Q261.9,156.3 259.0,155.5 T256.0,154.6" stroke-width="3.74"/>
<path d="M6.1,41.1 L12.0,42.6" stroke-width="3.64"/>
<path d="M223.2,193.9 Q222.0,187.8 221.4,184.8 Q220.7,181.8 220.0,178.8 Q219.3,175.8 218.5,172.9 Q217.7,169.9 216.8,166.9 Q215.9,164.0 214.8,161.1 Q213.8,158.2 212.7,155.3 Q211.6,152.4 210.5,149.6 Q209.3,146.7 208.2,143.8 Q207.1,141.0 206.0,138.1 T204.9,135.2" stroke-width="2.67"/>
<path d="M223.2,193.9 L230.7,188.9" stroke-width="5.76"/>
<path d="M6.0,158.6 L11.8,156.6" stroke-width="11.85"/>
<path d="M57.0,187.7 Q57.9,181.6 58.4,178.6 Q58.9,175.5 59.5,172.5 T60.0,169.5" stroke-width="1.11"/>
<path d="M57.0,187.7 Q67.8,186.4 70.8,185.8 Q73.9,185.3 76.9,184.6 Q79.9,183.9 82.8,183.2 Q85.8,182.4 88.4,180.7 Q90.9,179.0 92.8,176.5 Q94.6,174.0 96.0,171.3 Q97.5,168.6 99.1,165.9 Q100.6,163.2 102.7,161.0 Q104.7,158.7 106.6,156.2 T108.5,153.8" stroke-width="0.35"/>
<path d="M12.0,42.6 L18.0,44.2" stroke-width="1.47"/>
<path d="M11.8,156.6 Q17.6,154.4 20.4,153.1 T23.2,151.9" stroke-width="1.89"/>
<path d="M18.0,44.2 Q23.9,46.0 26.8,47.0 Q29.7,47.9 32.7,48.8 Q35.6,49.8 38.5,50.9 Q41.4,52.0 44.3,53.0 Q47.2,54.0 50.1,55.1 Q53.0,56.1 55.8,57.2 Q58.7,58.3 65.3,58.8 T71.8,59.4" stroke-width="1.12"/>
<path d="M18.0,44.2 Q17.9,50.4 18.6,53.4 Q19.3,56.4 20.2,59.3 Q21.2,62.3 22.3,65.1 Q23.4,68.0 24.7,70.8 Q26.0,73.6 27.3,76.4 Q28.6,79.2 29.9,82.0 Q31.2,84.7 34.0,90.8 T36.8,96.9" stroke-width="0.91"/>
<path d="M255.9,45.2 L250.0,46.9" stroke-width="1.35"/>
<path d="M23.2,151.9 Q28.8,149.4 31.6,148.1 Q34.5,146.9 37.3,145.7 Q40.2,144.6 43.0,143.3 Q45.8,142.1 48.6,140.7 Q51.4,139.4 54.1,138.0 Q56.8,136.6 59.6,135.3 Q62.4,133.9 66.7,134.1 T71.1,134.3" stroke-width="0.20"/>
<path d="M23.2,151.9 L32.2,156.6" stroke-width="0.74"/>
<path d="M256.0,154.6 Q250.1,152.8 247.2,151.7 Q244.4,150.6 241.5,149.4 Q238.7,148.3 235.8,147.0 Q233.0,145.8 230.2,144.4 Q227.5,143.1 224.7,141.8 Q221.9,140.6 219.0,139.4 Q216.2,138.2 210.5,136.7 T204.9,135.2" stroke-width="2.75"/>
<path d="M256.0,154.6 Q253.9,160.4 252.3,163.0 Q250.7,165.7 248.8,168.1 Q247.0,170.6 245.1,173.0 Q243.2,175.5 241.2,177.8 T239.2,180.2" stroke-width="0.24"/>
<path d="M60.0,169.5 Q61.3,163.5 62.1,160.5 Q62.8,157.5 63.7,154.5 Q64.6,151.6 65.6,148.7 Q66.5,145.8 67.6,142.9 Q68.7,140.0 69.9,137.1 T71.1,134.3" stroke-width="5.86"/>
<path d="M60.0,169.5 Q54.1,167.9 51.3,166.5 Q48.6,165.1 46.0,163.4 Q43.4,161.8 40.6,160.5 T37.8,159.2" stroke-width="0.79"/>
<path d="M250.0,46.9 Q244.2,48.9 241.3,50.0 Q238.4,51.0 235.5,52.1 Q232.7,53.2 229.8,54.4 T227.0,55.6" stroke-width="0.75"/>
<path d="M249.2,99.2 L243.1,99.1" stroke-width="3.34"/>
<path d="M138.7,36.9 Q138.6,43.1 138.6,46.2 T138.5,49.3" stroke-width="0.38"/>
<path d="M138.7,36.9 Q144.7,38.2 147.6,39.3 T150.5,40.4" stroke-width="0.32"/>
<path d="M36.8,96.9 Q42.9,96.2 46.0,95.9 Q49.1,95.5 52.1,95.1 Q55.2,94.6 58.2,94.2 Q61.3,93.8 64.3,93.6 Q67.4,93.4 70.5,93.2 Q73.6,93.0 76.6,92.9 T79.7,92.7" stroke-width="0.57"/>
<path d="M243.1,99.1 Q236.9,99.0 233.8,98.9 Q230.7,98.7 227.7,98.6 Q224.6,98.5 221.5,98.7 Q218.4,98.9 215.4,99.1 Q212.3,99.2 209.2,99.3 Q206.1,99.3 203.0,99.3 Q200.0,99.2 196.9,99.3 Q193.8,99.3 190.7,99.4 T187.6,99.5" stroke-width="4.33"/>
<path d="M138.5,49.3 Q138.3,55.4 138.2,58.5 Q138.0,61.6 137.7,64.6 Q137.5,67.7 137.5,70.8 Q137.4,73.9 137.4,76.9 Q137.4,80.0 137.6,83.1 Q137.7,86.2 137.4,89.2 T137.1,92.3" stroke-width="0.91"/>
<path d="M138.5,49.3 Q147.9,46.0 149.2,43.2 T150.5,40.4" stroke-width="4.57"/>
<path d="M150.5,40.4 Q156.2,42.8 159.0,44.1 T161.8,45.3" stroke-width="1.96"/>
<path d="M37.8,159.2 L32.2,156.6" stroke-width="0.68"/>
<path d="M227.0,55.6 L221.4,58.2" stroke-width="0.91"/>
<path d="M142.5,144.6 Q142.0,150.8 141.8,153.8 Q141.6,156.9 141.4,160.0 Q141.3,163.1 141.0,166.1 Q140.8,169.2 140.7,172.3 Q140.5,175.4 140.4,178.4 Q140.3,181.5 140.2,184.6 Q140.2,187.7 140.1,190.8 Q140.1,193.8 140.0,196.9 Q140.0,200.0 144.6,199.1 T149.3,198.2" stroke-width="1.21"/>
<path d="M142.5,144.6 Q143.1,138.5 143.4,135.4 Q143.8,132.4 144.1,129.3 Q144.4,126.3 144.5,123.2 Q144.6,120.1 144.7,117.0 T144.7,113.9" stroke-width="2.89"/>
<path d="M142.5,144.6 Q136.7,142.4 134.0,140.9 Q131.4,139.4 128.8,137.7 Q126.2,136.0 123.7,134.3 T121.1,132.6" stroke-width="0.61"/>
<path d="M239.2,180.2 L235.5,185.1" stroke-width="1.62"/>
<path d="M71.8,59.4 Q69.5,53.7 68.5,50.8 Q67.4,47.9 66.6,44.9 Q65.7,42.0 64.9,39.0 Q64.0,36.0 63.2,33.1 Q62.3,30.1 61.6,27.1 Q60.9,24.1 60.2,21.1 Q59.5,18.1 58.8,15.1 Q58.1,12.1 57.4,9.1 Q56.8,6.1 56.4,3.1 Q56.0,0.0 61.2,0.9 Q66.3,1.8 69.3,1.8 Q72.3,1.8 75.3,1.8 Q78.3,1.8 81.2,1.8 Q84.2,1.8 87.1,1.8 Q89.9,1.8 92.7,1.8 Q95.4,1.8 97.2,4.4 Q98.9,6.9 98.8,9.9 Q98.7,13.0 100.3,15.7 T101.8,18.3" stroke-width="1.58"/>
<path d="M71.8,59.4 Q74.6,64.9 76.0,67.6 Q77.4,70.3 78.9,73.1 Q80.3,75.8 81.8,78.5 T83.2,81.2" stroke-width="5.87"/>
<path d="M221.4,58.2 L209.8,59.5" stroke-width="0.36"/>
<path d="M161.8,45.3 Q167.4,47.9 170.1,49.3 Q172.9,50.7 175.6,52.1 Q178.3,53.5 181.0,55.0 Q183.7,56.5 186.5,57.9 Q189.2,59.4 191.9,60.8 Q194.7,62.2 200.8,63.6 T207.0,65.0" stroke-width="0.76"/>
<path d="M161.8,45.3 Q162.7,58.4 163.5,61.4 Q164.2,64.4 165.0,67.4 Q165.7,70.3 166.7,73.3 Q167.6,76.2 168.7,79.1 T169.8,82.0" stroke-width="0.58"/>
<path d="M209.8,59.5 L207.0,65.0" stroke-width="0.48"/>
<path d="M235.5,185.1 L230.7,188.9" stroke-width="3.51"/>
<path d="M71.1,134.3 Q73.4,128.6 74.6,125.8 T75.7,122.9" stroke-width="3.40"/>
<path d="M207.0,65.0 Q204.0,70.4 202.4,73.0 Q200.8,75.7 199.1,78.2 Q197.3,80.8 195.6,83.3 T193.8,85.8" stroke-width="2.67"/>
<path d="M204.9,135.2 Q202.4,129.6 201.1,126.8 Q199.9,124.0 198.4,121.3 Q197.0,118.5 195.5,115.9 T193.9,113.2" stroke-width="0.62"/>
<path d="M75.7,122.9 Q77.9,117.1 79.0,114.2 Q80.0,111.4 81.2,108.5 T82.4,105.6" stroke-width="0.20"/>
<path d="M75.7,122.9 Q84.2,125.9 86.2,128.3 Q88.2,130.7 90.2,133.0 Q92.2,135.3 94.1,137.8 Q96.0,140.2 97.9,142.6 Q99.8,145.0 101.8,147.4 Q103.8,149.7 106.1,151.7 T108.5,153.8" stroke-width="0.45"/>
<path d="M121.1,132.6 Q116.0,129.2 113.5,127.4 Q111.0,125.6 108.5,123.8 Q106.0,121.9 103.6,120.0 Q101.2,118.1 98.7,116.3 Q96.3,114.4 93.8,112.6 Q91.3,110.8 86.8,108.2 T82.4,105.6" stroke-width="0.22"/>
<path d="M121.1,132.6 Q118.2,138.0 116.6,140.7 Q115.0,143.3 113.4,145.9 Q111.7,148.5 110.1,151.1 T108.5,153.8" stroke-width="0.56"/>
<path d="M79.7,92.7 L85.9,92.5" stroke-width="0.79"/>
<path d="M79.7,92.7 L84.9,100.0" stroke-width="2.56"/>
<path d="M83.2,81.2 L85.9,92.5" stroke-width="0.35"/>
<path d="M83.2,81.2 Q92.3,76.4 95.3,75.6 Q98.3,74.8 101.3,74.1 Q104.3,73.4 107.3,72.8 Q110.3,72.2 113.3,71.4 T116.3,70.6" stroke-width="0.95"/>
<path d="M144.7,113.9 L143.9,107.8" stroke-width="0.98"/>
<path d="M144.7,113.9 Q136.8,110.8 136.7,107.7 Q136.7,104.6 136.6,101.5 T136.6,98.5" stroke-width="0.71"/>
<path d="M85.9,92.5 Q92.0,92.1 95.1,91.8 Q98.1,91.5 101.2,91.2 Q104.3,90.8 107.3,90.4 Q110.4,90.0 113.4,89.5 T116.5,89.1" stroke-width="1.72"/>
<path d="M85.9,92.5 L84.9,100.0" stroke-width="1.82"/>
<path d="M137.1,92.3 L136.6,98.5" stroke-width="0.45"/>
<path d="M137.1,92.3 Q128.8,88.3 125.7,88.5 T122.6,88.6" stroke-width="0.31"/>
<path d="M143.9,107.8 L136.6,98.5" stroke-width="3.86"/>
<path d="M143.9,107.8 L144.5,99.6" stroke-width="0.20"/>
<path d="M187.6,99.5 Q181.5,99.6 178.4,99.6 T175.3,99.6" stroke-width="1.45"/>
<path d="M187.6,99.5 L190.4,90.9" stroke-width="1.58"/>
<path d="M187.6,99.5 L191.4,107.6" stroke-width="3.22"/>
<path d="M193.8,85.8 L190.4,90.9" stroke-width="0.36"/>
<path d="M193.9,113.2 L191.4,107.6" stroke-width="2.17"/>
<path d="M82.4,105.6 L84.9,100.0" stroke-width="0.21"/>
<path d="M136.6,98.5 L144.5,99.6" stroke-width="1.25"/>
<path d="M175.3,99.6 Q169.2,99.5 166.1,99.6 T163.0,99.6" stroke-width="1.05"/>
<path d="M175.3,99.6 Q173.9,93.6 173.0,90.6 T172.1,87.7" stroke-width="1.37"/>
<path d="M116.5,89.1 L122.6,88.6" stroke-width="0.20"/>
<path d="M116.5,89.1 L116.9,82.9" stroke-width="0.55"/>
<path d="M163.0,99.6 L156.9,99.8" stroke-width="1.96"/>
<path d="M163.0,99.6 L163.8,105.7" stroke-width="0.95"/>
<path d="M172.1,87.7 L169.8,82.0" stroke-width="0.54"/>
<path d="M122.6,88.6 L116.9,82.9" stroke-width="1.72"/>
<path d="M116.9,82.9 Q116.8,76.8 116.5,73.7 T116.3,70.6" stroke-width="0.92"/>
<path d="M156.9,99.8 Q150.7,99.9 147.6,99.8 T144.5,99.6" stroke-width="0.70"/>
<path d="M156.9,99.8 L163.8,105.7" stroke-width="0.20"/>
<path d="M163.8,105.7 Q164.4,111.9 164.5,114.9 Q164.6,118.0 164.9,121.1 Q165.2,124.1 165.9,127.1 Q166.7,130.1 167.6,133.1 T168.5,136.0" stroke-width="0.39"/>
<path d="M116.3,70.6 Q115.4,64.5 114.9,61.5 Q114.3,58.5 113.5,55.5 Q112.8,52.5 111.5,49.7 Q110.3,46.9 108.7,44.2 Q107.1,41.6 105.9,38.7 Q104.7,35.9 103.6,33.0 T102.5,30.1" stroke-width="0.26"/>
<path d="M168.5,136.0 L170.4,141.9" stroke-width="1.03"/>
<path d="M170.4,141.9 Q172.8,147.5 174.3,150.3 Q175.7,153.0 177.4,155.6 Q179.1,158.1 181.0,160.5 Q183.0,162.9 184.8,165.4 Q186.7,167.8 186.6,170.9 Q186.5,174.0 185.4,176.9 Q184.4,179.8 182.8,182.4 Q181.2,185.0 179.1,187.3 Q177.0,189.6 174.4,191.3 Q171.8,192.9 169.1,194.4 Q166.4,195.8 163.6,197.0 Q160.8,198.2 158.0,198.2 T155.1,198.2" stroke-width="0.20"/>
<path d="M102.5,30.1 L100.5,24.3" stroke-width="0.20"/>
<path d="M100.5,24.3 L101.8,18.3" stroke-width="0.20"/>
<path d="M155.1,198.2 L149.3,198.2" stroke-width="0.20"/>
</g>
<text x="4" y="196" font-family="monospace" font-size="8" fill="#5cc8e0">R2C4 neural-medium all edges MED</text>
<text x="276" y="196" text-anchor="end" font-family="monospace" font-size="8" fill="#d4a04a">93el 9ms</text>
</g>
<g transform="translate(12,436)">
<clipPath id="clip8"><rect width="280" height="200"/></clipPath>
<g clip-path="url(#clip8)">
<rect class="panel" width="280" height="200"/>
<path d="M0.0,60.0 L0.0,60.0" stroke-width="1.2"/>
<path d="M0.0,60.0 L0.0,64.0" stroke-width="0.9"/>
<path d="M0.0,84.0 L0.0,84.0" stroke-width="0.9"/>
<path d="M0.0,84.0 L0.0,84.0" stroke-width="1.5"/>
<path d="M0.0,108.0 L0.0,108.0" stroke-width="2.6"/>
<path d="M0.0,108.0 L0.0,100.0" stroke-width="3.7"/>
<path d="M0.0,108.0 L0.0,108.0" stroke-width="5.1"/>
<path d="M0.0,140.0 L0.0,140.0" stroke-width="2.3"/>
<path d="M0.0,140.0 L0.0,144.0" stroke-width="2.0"/>
<path d="M0.0,164.0 L0.0,164.0" stroke-width="2.2"/>
<path d="M0.0,164.0 L0.0,168.0" stroke-width="1.5"/>
<path d="M0.0,212.0 L0.0,192.0" stroke-width="1.2"/>
<path d="M0.0,148.0 L0.0,148.0" stroke-width="3.8"/>
<path d="M0.0,148.0 L0.0,156.0" stroke-width="0.8"/>
<path d="M0.0,172.0 L0.0,172.0" stroke-width="0.8"/>
<path d="M0.0,172.0 L0.0,180.0" stroke-width="1.8"/>
<path d="M0.0,124.0 L0.0,120.0" stroke-width="0.8"/>
<path d="M0.0,196.0 L0.0,192.0" stroke-width="2.9"/>
<path d="M0.0,120.0 L0.0,116.0" stroke-width="2.6"/>
<path d="M0.0,192.0 L0.0,188.0" stroke-width="0.9"/>
<path d="M0.0,192.0 L0.0,204.0" stroke-width="3.3"/>
</g>
<text x="4" y="196" font-family="monospace" font-size="8" fill="#5cc8e0">R3C1 circuit-high high-L low-R</text>
<text x="276" y="196" text-anchor="end" font-family="monospace" font-size="8" fill="#d4a04a">21el 3ms</text>
</g>
<g transform="translate(304,436)">
<clipPath id="clip9"><rect width="280" height="200"/></clipPath>
<g clip-path="url(#clip9)">
<rect class="panel" width="280" height="200"/>
<path d="M112.0,200.0 L112.0,200.0" stroke-width="3.2"/>
<path d="M112.0,200.0 L108.0,200.0 L100.0,200.0" stroke-width="3.1"/>
<path d="M196.0,200.0 L192.0,200.0" stroke-width="4.6"/>
<path d="M196.0,200.0 L200.0,200.0 L204.0,200.0 L208.0,200.0" stroke-width="2.1"/>
<path d="M220.0,200.0 L224.0,200.0" stroke-width="3.8"/>
<path d="M220.0,200.0 L216.0,200.0" stroke-width="0.9"/>
<path d="M244.0,200.0 L248.0,200.0" stroke-width="2.3"/>
<path d="M244.0,200.0 L240.0,200.0" stroke-width="2.3"/>
<path d="M180.0,200.0 L176.0,200.0" stroke-width="2.4"/>
<path d="M180.0,200.0 L184.0,200.0" stroke-width="0.9"/>
<path d="M228.0,200.0 L224.0,200.0" stroke-width="1.0"/>
<path d="M252.0,200.0 L248.0,200.0" stroke-width="3.6"/>
<path d="M136.0,200.0 L136.0,200.0" stroke-width="1.5"/>
<path d="M136.0,200.0 L132.0,200.0 L124.0,200.0" stroke-width="1.2"/>
<path d="M160.0,200.0 L156.0,200.0 L152.0,200.0" stroke-width="0.9"/>
<path d="M160.0,200.0 L160.0,200.0" stroke-width="3.0"/>
<path d="M160.0,200.0 L168.0,200.0" stroke-width="2.7"/>
<path d="M20.0,200.0 L44.0,200.0" stroke-width="1.6"/>
<path d="M44.0,200.0 L64.0,200.0" stroke-width="2.6"/>
</g>
<text x="4" y="196" font-family="monospace" font-size="8" fill="#5cc8e0">R3C2 circuit-high low-bot med-top</text>
<text x="276" y="196" text-anchor="end" font-family="monospace" font-size="8" fill="#d4a04a">19el 2ms</text>
</g>
<g transform="translate(596,436)">
<clipPath id="clip10"><rect width="280" height="200"/></clipPath>
<g clip-path="url(#clip10)">
<rect class="panel" width="280" height="200"/>
<path d="M116.0,200.0 L112.0,200.0" stroke-width="4.9"/>
<path d="M208.0,200.0 L212.0,200.0" stroke-width="3.2"/>
<path d="M208.0,200.0 L204.0,200.0 L200.0,200.0" stroke-width="0.9"/>
<path d="M228.0,200.0 L232.0,200.0" stroke-width="1.8"/>
<path d="M228.0,200.0 L224.0,200.0" stroke-width="4.3"/>
<path d="M252.0,200.0 L256.0,200.0 L272.0,200.0 L296.0,200.0" stroke-width="0.8"/>
<path d="M252.0,200.0 L248.0,200.0" stroke-width="1.2"/>
<path d="M40.0,200.0 L44.0,200.0 L48.0,200.0" stroke-width="2.1"/>
<path d="M40.0,200.0 L40.0,200.0" stroke-width="4.3"/>
<path d="M64.0,200.0 L64.0,200.0" stroke-width="2.3"/>
<path d="M64.0,200.0 L72.0,200.0" stroke-width="3.6"/>
<path d="M88.0,200.0 L92.0,200.0 L96.0,200.0" stroke-width="5.0"/>
<path d="M88.0,200.0 L88.0,200.0" stroke-width="0.8"/>
<path d="M112.0,200.0 L112.0,200.0" stroke-width="2.7"/>
<path d="M112.0,200.0 L108.0,200.0" stroke-width="0.9"/>
<path d="M132.0,200.0 L136.0,200.0" stroke-width="1.3"/>
<path d="M136.0,200.0 L140.0,200.0" stroke-width="0.9"/>
</g>
<text x="4" y="196" font-family="monospace" font-size="8" fill="#5cc8e0">R3C3 circuit-high hi-bot lo-mid med-top</text>
<text x="276" y="196" text-anchor="end" font-family="monospace" font-size="8" fill="#d4a04a">17el 3ms</text>
</g>
<g transform="translate(888,436)">
<clipPath id="clip11"><rect width="280" height="200"/></clipPath>
<g clip-path="url(#clip11)">
<rect class="panel" width="280" height="200"/>
<path d="M112.0,0.0 L112.0,0.0" stroke-width="4.5"/>
<path d="M112.0,0.0 L108.0,0.0" stroke-width="1.1"/>
<path d="M112.0,0.0 L116.0,0.0 L124.0,0.0" stroke-width="3.5"/>
<path d="M112.0,0.0 L112.0,0.0" stroke-width="3.4"/>
<path d="M136.0,0.0 L136.0,0.0" stroke-width="3.2"/>
<path d="M136.0,0.0 L132.0,0.0" stroke-width="0.9"/>
<path d="M136.0,0.0 L140.0,0.0 L148.0,0.0" stroke-width="2.3"/>
<path d="M160.0,0.0 L160.0,0.0" stroke-width="1.1"/>
<path d="M160.0,0.0 L156.0,0.0" stroke-width="3.4"/>
<path d="M184.0,0.0 L184.0,0.0" stroke-width="4.2"/>
<path d="M184.0,0.0 L180.0,0.0" stroke-width="0.8"/>
<path d="M184.0,0.0 L192.0,0.0" stroke-width="4.9"/>
<path d="M208.0,0.0 L208.0,0.0" stroke-width="1.4"/>
<path d="M208.0,0.0 L204.0,0.0" stroke-width="0.8"/>
<path d="M208.0,0.0 L216.0,0.0" stroke-width="1.2"/>
<path d="M88.0,0.0 L88.0,0.0" stroke-width="3.7"/>
<path d="M88.0,0.0 L84.0,0.0" stroke-width="2.1"/>
<path d="M88.0,0.0 L92.0,0.0 L100.0,0.0" stroke-width="1.8"/>
<path d="M24.0,0.0 L48.0,0.0" stroke-width="4.5"/>
<path d="M48.0,0.0 L52.0,0.0" stroke-width="0.9"/>
<path d="M76.0,0.0 L72.0,0.0 L68.0,0.0" stroke-width="0.8"/>
<path d="M232.0,0.0 L228.0,0.0" stroke-width="4.9"/>
<path d="M232.0,0.0 L256.0,0.0 L280.0,0.0 L304.0,0.0" stroke-width="2.7"/>
<path d="M68.0,0.0 L64.0,0.0" stroke-width="3.7"/>
</g>
<text x="4" y="196" font-family="monospace" font-size="8" fill="#5cc8e0">R3C4 circuit-high hi-top lo-mid zero-bot</text>
<text x="276" y="196" text-anchor="end" font-family="monospace" font-size="8" fill="#d4a04a">24el 3ms</text>
</g>
<g transform="translate(12,648)">
<clipPath id="clip12"><rect width="280" height="200"/></clipPath>
<g clip-path="url(#clip12)">
<rect class="panel" width="280" height="200"/>
<path d="M0.0,10.6 Q6.0,12.1 8.9,13.2 Q11.8,14.2 14.6,15.5 Q17.4,16.7 17.5,20.4 T17.6,24.2" stroke-width="2.18"/>
<path d="M0.0,18.6 L6.0,19.9" stroke-width="5.27"/>
<path d="M0.0,26.5 L6.0,27.8" stroke-width="0.20"/>
<path d="M0.0,36.5 Q6.1,37.5 9.0,38.3 T12.0,39.2" stroke-width="20.62"/>
<path d="M0.0,47.3 L6.1,48.2" stroke-width="1.06"/>
<path d="M0.0,54.7 L6.1,48.2" stroke-width="6.43"/>
<path d="M0.0,62.3 Q6.1,62.9 9.2,63.3 Q12.2,63.7 15.3,64.3 Q18.3,64.8 21.3,65.3 Q24.4,65.9 27.4,66.5 T30.4,67.2" stroke-width="2.65"/>
<path d="M0.0,73.6 L6.1,74.1" stroke-width="2.96"/>
<path d="M0.0,79.8 L6.1,74.1" stroke-width="2.66"/>
<path d="M0.0,93.0 Q6.1,93.4 9.2,93.7 Q12.3,94.0 15.3,94.4 Q18.4,94.7 21.5,95.1 Q24.5,95.4 27.6,95.7 Q30.6,96.1 33.7,96.4 T36.8,96.7" stroke-width="0.62"/>
<path d="M0.0,101.6 L6.2,101.8" stroke-width="6.56"/>
<path d="M0.0,107.5 L6.2,101.8" stroke-width="0.72"/>
<path d="M0.0,121.8 L6.2,121.7" stroke-width="0.79"/>
<path d="M0.0,128.4 L6.2,121.7" stroke-width="8.16"/>
<path d="M0.0,134.3 Q6.2,134.0 9.2,133.8 Q12.3,133.6 15.4,133.4 Q18.4,133.2 21.5,132.9 Q24.6,132.6 27.6,132.2 Q30.7,131.8 33.7,131.4 Q36.8,131.0 39.9,130.7 Q42.9,130.3 46.0,129.9 Q49.0,129.5 52.1,129.0 T55.1,128.6" stroke-width="3.06"/>
<path d="M0.0,144.4 Q6.1,143.9 9.2,143.5 Q12.2,143.1 15.3,142.7 Q18.4,142.3 21.4,141.8 Q24.4,141.3 27.5,140.8 T30.5,140.2" stroke-width="3.74"/>
<path d="M0.0,152.4 Q6.1,151.8 9.2,151.4 Q12.2,151.0 15.3,150.5 Q18.3,150.1 21.3,149.4 Q24.4,148.8 27.4,144.5 T30.5,140.2" stroke-width="4.35"/>
<path d="M0.0,162.6 Q6.1,161.7 9.1,161.2 Q12.2,160.6 15.2,160.0 Q18.2,159.4 21.2,158.8 T24.2,158.1" stroke-width="5.26"/>
<path d="M0.0,173.0 Q6.1,172.0 9.1,171.3 T12.1,170.6" stroke-width="3.83"/>
<path d="M0.0,180.5 Q6.0,179.4 9.1,175.0 T12.1,170.6" stroke-width="2.10"/>
<path d="M0.0,193.4 Q6.0,191.8 8.8,190.7 Q11.7,189.7 14.6,188.5 Q17.4,187.3 20.3,186.1 Q23.1,184.9 25.9,183.7 T28.7,182.4" stroke-width="7.81"/>
<path d="M6.0,19.9 Q11.9,21.9 14.7,23.0 T17.6,24.2" stroke-width="16.66"/>
<path d="M6.0,19.9 L6.0,27.8" stroke-width="2.95"/>
<path d="M6.0,27.8 Q11.9,29.6 14.8,30.6 Q17.7,31.7 20.5,29.1 T23.2,26.6" stroke-width="11.05"/>
<path d="M6.1,48.2 Q12.1,49.6 15.1,50.3 Q18.1,51.1 21.0,51.9 Q24.0,52.6 27.0,53.4 Q30.0,54.2 32.9,55.1 T35.9,55.9" stroke-width="3.58"/>
<path d="M6.1,48.2 L12.0,39.2" stroke-width="4.03"/>
<path d="M6.1,74.1 Q12.2,74.9 15.3,75.4 Q18.3,76.0 21.4,76.4 T24.4,76.9" stroke-width="1.54"/>
<path d="M6.2,101.8 Q12.3,102.2 15.4,102.5 Q18.4,102.7 21.5,102.9 Q24.6,103.1 27.7,103.3 Q30.7,103.5 33.8,100.1 T36.8,96.7" stroke-width="3.23"/>
<path d="M6.2,121.7 Q12.3,121.5 15.4,121.4 Q18.5,121.4 21.5,121.2 Q24.6,121.0 27.7,120.8 T30.8,120.6" stroke-width="2.41"/>
<path d="M12.0,39.2 Q17.9,41.0 20.8,42.0 Q23.7,43.0 26.7,43.9 Q29.6,44.9 32.5,45.8 T35.4,46.8" stroke-width="2.04"/>
<path d="M12.1,170.6 Q18.1,169.1 21.0,168.3 Q24.0,167.4 26.9,166.5 Q29.9,165.6 32.8,164.7 Q35.8,163.8 38.7,162.9 T41.6,162.0" stroke-width="2.08"/>
<path d="M17.6,24.2 L23.2,26.6" stroke-width="1.96"/>
<path d="M23.2,26.6 Q28.9,29.1 31.7,30.3 T34.5,31.6" stroke-width="7.29"/>
<path d="M24.4,76.9 L30.5,78.1" stroke-width="2.83"/>
<path d="M24.2,158.1 L30.2,156.7" stroke-width="1.93"/>
<path d="M30.4,67.2 Q36.4,68.5 39.4,69.2 T42.4,69.9" stroke-width="0.79"/>
<path d="M30.4,67.2 L35.9,55.9" stroke-width="1.74"/>
<path d="M30.5,78.1 Q36.5,79.3 39.5,79.9 T42.5,80.5" stroke-width="4.02"/>
<path d="M30.8,120.6 L36.9,120.2" stroke-width="1.15"/>
<path d="M30.5,140.2 L36.6,139.2" stroke-width="1.82"/>
<path d="M30.2,156.7 Q36.2,155.2 39.2,154.4 T42.1,153.6" stroke-width="4.46"/>
<path d="M28.7,182.4 L34.4,180.0" stroke-width="3.65"/>
<path d="M34.5,31.6 L40.2,34.0" stroke-width="0.20"/>
<path d="M35.4,46.8 L41.3,48.7" stroke-width="4.47"/>
<path d="M35.4,46.8 L35.9,55.9" stroke-width="2.57"/>
<path d="M35.9,55.9 L41.9,57.5" stroke-width="1.53"/>
<path d="M36.8,96.7 L42.9,97.3" stroke-width="0.30"/>
<path d="M36.9,120.2 Q43.1,119.8 46.1,119.6 T49.2,119.4" stroke-width="1.27"/>
<path d="M36.6,139.2 Q42.6,138.1 45.7,137.6 Q48.7,137.1 51.9,132.8 T55.1,128.6" stroke-width="2.15"/>
<path d="M36.6,139.2 Q38.9,144.9 40.5,149.2 T42.1,153.6" stroke-width="2.55"/>
<path d="M34.4,180.0 Q40.1,177.6 42.9,176.3 Q45.7,175.0 48.5,173.7 Q51.3,172.5 54.1,171.2 Q56.9,170.0 59.7,168.7 Q62.5,167.5 65.3,166.2 Q68.1,164.9 70.9,163.7 Q73.8,162.4 76.6,161.1 Q79.4,159.9 82.2,158.6 Q85.0,157.3 87.2,159.5 Q89.3,161.7 91.9,163.4 Q94.5,165.1 97.2,166.5 T100.0,167.8" stroke-width="1.14"/>
<path d="M40.2,34.0 Q45.8,36.5 48.6,37.7 T51.5,38.9" stroke-width="0.29"/>
<path d="M41.9,57.5 L47.8,59.2" stroke-width="0.60"/>
<path d="M42.4,69.9 L47.8,59.2" stroke-width="1.74"/>
<path d="M42.4,69.9 L42.5,80.5" stroke-width="0.91"/>
<path d="M42.5,80.5 Q48.6,81.6 51.6,82.1 Q54.7,82.7 57.7,83.2 Q60.7,83.7 63.8,84.1 Q66.8,84.5 69.9,85.0 Q72.9,85.4 76.0,85.7 Q79.1,86.0 82.1,86.3 Q85.2,86.5 88.3,86.8 T91.3,87.2" stroke-width="0.20"/>
<path d="M42.9,97.3 Q49.0,97.8 52.1,97.9 Q55.2,98.1 58.3,98.3 Q61.3,98.5 64.4,98.6 Q67.5,98.8 70.6,98.9 Q73.6,99.1 76.7,99.0 Q79.8,99.0 82.9,98.9 Q86.0,98.9 83.6,103.9 Q81.3,109.0 79.8,111.7 Q78.4,114.4 77.0,117.1 Q75.6,119.9 74.5,122.7 Q73.4,125.6 70.3,126.2 Q67.3,126.7 64.3,127.2 Q61.2,127.7 58.2,128.1 T55.1,128.6" stroke-width="0.69"/>
<path d="M42.9,97.3 Q43.0,103.5 43.8,106.5 Q44.6,109.4 46.9,114.4 T49.2,119.4" stroke-width="2.05"/>
<path d="M42.1,153.6 Q48.0,151.8 51.0,150.9 Q53.9,150.0 56.9,149.1 Q59.8,148.3 62.8,147.4 T65.7,146.4" stroke-width="1.05"/>
<path d="M42.1,153.6 L41.6,162.0" stroke-width="1.57"/>
<path d="M41.6,162.0 Q47.5,160.1 50.4,159.0 Q53.3,158.0 56.2,156.9 Q59.1,155.9 62.4,151.2 T65.7,146.4" stroke-width="0.47"/>
<path d="M47.8,59.2 Q53.7,60.8 56.7,61.7 Q59.6,62.5 62.6,63.3 T65.6,64.1" stroke-width="0.85"/>
<path d="M49.2,119.4 Q55.3,118.7 58.4,118.4 T61.5,118.1" stroke-width="1.59"/>
<path d="M51.5,38.9 L57.1,41.4" stroke-width="1.15"/>
<path d="M57.1,41.4 Q62.8,43.7 65.7,44.9 T68.5,46.1" stroke-width="0.64"/>
<path d="M65.7,146.4 L71.6,144.7" stroke-width="0.20"/>
<path d="M68.5,46.1 L74.3,48.2" stroke-width="0.22"/>
<path d="M74.3,48.2 L80.1,50.2" stroke-width="0.74"/>
<circle cx="0.0" cy="54.7" r="2.4"/>
<circle cx="0.0" cy="79.8" r="2.4"/>
<circle cx="0.0" cy="107.5" r="2.4"/>
<circle cx="0.0" cy="128.4" r="2.4"/>
<circle cx="41.3" cy="48.7" r="2.1"/>
<circle cx="61.5" cy="118.1" r="2.0"/>
<circle cx="65.6" cy="64.1" r="1.9"/>
<circle cx="71.6" cy="144.7" r="1.9"/>
<circle cx="80.1" cy="50.2" r="1.8"/>
<circle cx="91.3" cy="87.2" r="1.7"/>
<circle cx="100.0" cy="167.8" r="1.6"/>
</g>
<text x="4" y="196" font-family="monospace" font-size="8" fill="#5cc8e0">R4C1 neural-high high-L low-R</text>
<text x="276" y="196" text-anchor="end" font-family="monospace" font-size="8" fill="#d4a04a">79el 12ms</text>
</g>
<g transform="translate(304,648)">
<clipPath id="clip13"><rect width="280" height="200"/></clipPath>
<g clip-path="url(#clip13)">
<rect class="panel" width="280" height="200"/>
<path d="M17.9,200.0 Q19.4,194.0 20.4,191.1 Q21.5,188.2 22.6,185.3 T23.7,182.5" stroke-width="2.37"/>
<path d="M29.1,200.0 Q30.4,194.0 31.2,191.0 Q32.1,188.1 33.0,185.1 T33.9,182.2" stroke-width="4.28"/>
<path d="M41.0,200.0 Q42.0,193.9 42.6,190.9 Q43.2,187.9 44.0,184.9 T44.7,181.9" stroke-width="1.28"/>
<path d="M54.3,200.0 Q55.0,193.9 55.5,190.8 Q56.0,187.8 56.5,184.8 Q57.1,181.7 57.7,178.7 T58.4,175.7" stroke-width="0.49"/>
<path d="M66.1,200.0 Q66.7,193.9 67.0,190.8 Q67.4,187.7 67.8,184.7 T68.2,181.6" stroke-width="3.67"/>
<path d="M74.4,200.0 Q74.7,193.8 75.0,190.8 Q75.2,187.7 75.5,184.6 T75.8,181.6" stroke-width="4.33"/>
<path d="M89.0,200.0 Q89.2,193.8 89.3,190.8 Q89.5,187.7 89.7,184.6 Q90.0,181.5 90.2,178.5 Q90.5,175.4 90.8,172.3 T91.0,169.3" stroke-width="3.84"/>
<path d="M103.9,200.0 Q104.1,193.8 104.3,190.8 Q104.4,187.7 104.6,184.6 T104.8,181.5" stroke-width="1.82"/>
<path d="M113.9,200.0 L114.3,193.8" stroke-width="5.63"/>
<path d="M122.6,200.0 L123.1,193.9" stroke-width="0.37"/>
<path d="M138.8,200.0 Q139.2,193.9 139.6,190.8 Q139.9,187.7 140.3,184.7 T140.7,181.6" stroke-width="3.53"/>
<path d="M150.6,200.0 Q151.0,193.9 151.3,190.8 Q151.6,187.7 151.8,184.6 T152.0,181.6" stroke-width="4.70"/>
<path d="M163.7,200.0 Q164.2,193.9 164.5,190.8 Q164.7,187.7 164.9,184.6 Q165.0,181.6 165.1,178.5 Q165.2,175.4 165.3,172.3 T165.3,169.3" stroke-width="3.44"/>
<path d="M179.0,200.0 Q179.3,193.8 179.5,190.8 Q179.7,187.7 179.9,184.6 T180.2,181.6" stroke-width="0.75"/>
<path d="M190.0,200.0 Q190.3,193.8 190.5,190.8 Q190.6,187.7 190.7,184.6 Q190.8,181.5 190.7,178.5 T190.7,175.4" stroke-width="4.40"/>
<path d="M201.0,200.0 Q201.3,193.8 201.5,190.8 Q201.6,187.7 201.6,184.6 T201.7,181.5" stroke-width="4.47"/>
<path d="M213.0,200.0 Q213.1,193.8 213.1,190.8 Q213.0,187.7 212.9,184.6 T212.7,181.5" stroke-width="1.16"/>
<path d="M227.6,200.0 Q227.3,193.9 227.0,190.8 T226.7,187.7" stroke-width="11.20"/>
<path d="M240.4,200.0 Q239.6,193.9 239.0,190.9 Q238.5,187.8 237.9,184.8 T237.3,181.8" stroke-width="4.64"/>
<path d="M253.0,200.0 Q251.9,193.9 251.1,191.0 Q250.3,188.0 249.5,185.0 T248.6,182.1" stroke-width="1.45"/>
<path d="M266.4,200.0 Q264.9,194.0 264.0,191.1 Q263.0,188.2 261.9,185.3 Q260.9,182.4 259.7,179.5 T258.5,176.7" stroke-width="5.29"/>
<path d="M114.3,193.8 Q114.8,187.7 115.1,184.6 Q115.3,181.6 115.5,178.5 T115.7,175.4" stroke-width="1.44"/>
<path d="M114.3,193.8 L123.1,193.9" stroke-width="4.51"/>
<path d="M123.1,193.9 Q123.8,187.7 124.0,184.7 T124.2,181.6" stroke-width="3.10"/>
<path d="M226.7,187.7 L226.1,181.6" stroke-width="0.20"/>
<circle cx="23.7" cy="182.5" r="1.9"/>
<circle cx="33.9" cy="182.2" r="1.9"/>
<circle cx="44.7" cy="181.9" r="1.9"/>
<circle cx="68.2" cy="181.6" r="1.9"/>
<circle cx="75.8" cy="181.6" r="1.9"/>
<circle cx="104.8" cy="181.5" r="1.9"/>
<circle cx="124.2" cy="181.6" r="1.9"/>
<circle cx="140.7" cy="181.6" r="1.9"/>
<circle cx="152.0" cy="181.6" r="1.9"/>
<circle cx="180.2" cy="181.6" r="1.9"/>
<circle cx="201.7" cy="181.5" r="1.9"/>
<circle cx="212.7" cy="181.5" r="1.9"/>
<circle cx="237.3" cy="181.8" r="1.9"/>
<circle cx="248.6" cy="182.1" r="1.9"/>
<circle cx="58.4" cy="175.7" r="1.8"/>
<circle cx="115.7" cy="175.4" r="1.8"/>
<circle cx="190.7" cy="175.4" r="1.8"/>
<circle cx="258.5" cy="176.7" r="1.8"/>
<circle cx="91.0" cy="169.3" r="1.6"/>
<circle cx="165.3" cy="169.3" r="1.6"/>
</g>
<text x="4" y="196" font-family="monospace" font-size="8" fill="#5cc8e0">R4C2 neural-high low-bot med-top</text>
<text x="276" y="196" text-anchor="end" font-family="monospace" font-size="8" fill="#d4a04a">45el 4ms</text>
</g>
<g transform="translate(596,648)">
<clipPath id="clip14"><rect width="280" height="200"/></clipPath>
<g clip-path="url(#clip14)">
<rect class="panel" width="280" height="200"/>
<path d="M16.4,200.0 Q18.0,194.1 19.2,191.2 Q20.4,188.4 21.7,185.6 Q23.0,182.8 24.2,179.9 Q25.3,177.1 26.5,174.2 Q27.6,171.4 28.7,168.5 Q29.8,165.6 30.8,162.7 Q31.8,159.8 32.7,156.8 Q33.6,153.9 34.6,151.0 Q35.5,148.0 36.5,145.1 T37.5,142.2" stroke-width="12.41"/>
<path d="M26.1,200.0 Q27.6,194.0 28.8,191.2 Q30.0,188.3 31.2,185.5 Q32.4,182.7 33.5,179.8 Q34.7,177.0 35.8,174.1 T36.9,171.2" stroke-width="1.38"/>
<path d="M36.9,200.0 Q38.5,194.0 39.5,191.2 Q40.6,188.3 41.8,185.4 Q42.9,182.5 44.0,179.6 Q45.0,176.8 46.0,173.8 Q47.0,170.9 47.8,167.9 Q48.6,165.0 49.2,162.0 Q49.9,158.9 50.4,155.9 Q50.9,152.9 51.5,149.8 Q52.1,146.8 52.7,143.8 T53.3,140.8" stroke-width="3.79"/>
<path d="M52.2,200.0 Q53.4,194.0 54.4,191.0 Q55.3,188.1 56.3,185.2 T57.2,182.2" stroke-width="6.06"/>
<path d="M65.0,200.0 L66.1,193.9" stroke-width="3.90"/>
<path d="M71.4,200.0 L66.1,193.9" stroke-width="0.76"/>
<path d="M88.4,200.0 Q89.2,193.9 89.8,190.9 Q90.4,187.9 91.0,184.8 T91.6,181.8" stroke-width="6.87"/>
<path d="M102.9,200.0 Q103.4,193.9 103.8,190.8 Q104.2,187.8 104.5,184.7 T104.8,181.6" stroke-width="5.50"/>
<path d="M114.3,200.0 Q114.5,193.8 114.7,190.8 Q114.9,187.7 115.1,184.6 Q115.3,181.5 115.4,178.5 T115.5,175.4" stroke-width="0.56"/>
<path d="M127.9,200.0 L128.0,193.8" stroke-width="2.79"/>
<path d="M136.3,200.0 Q136.5,193.8 136.7,190.8 T136.9,187.7" stroke-width="2.49"/>
<path d="M148.0,200.0 Q147.9,193.8 147.9,190.8 Q148.0,187.7 148.0,184.6 Q148.1,181.5 148.1,178.4 Q148.2,175.4 148.2,172.3 T148.3,169.2" stroke-width="1.73"/>
<path d="M166.0,200.0 Q165.8,193.8 165.8,190.8 Q165.8,187.7 165.8,184.6 Q165.8,181.5 165.9,178.4 Q165.9,175.4 166.0,172.3 Q166.2,169.2 166.5,166.1 T166.8,163.1" stroke-width="1.49"/>
<path d="M180.9,200.0 Q180.5,193.9 180.3,190.8 Q180.1,187.7 179.9,184.6 Q179.8,181.6 179.7,178.5 Q179.6,175.4 179.6,172.3 T179.6,169.2" stroke-width="6.62"/>
<path d="M191.5,200.0 Q191.1,193.9 190.9,190.8 Q190.7,187.7 190.4,184.6 Q190.2,181.6 189.9,178.5 T189.7,175.4" stroke-width="3.66"/>
<path d="M207.2,200.0 L206.4,193.9" stroke-width="0.67"/>
<path d="M213.9,200.0 L206.4,193.9" stroke-width="1.29"/>
<path d="M227.5,200.0 Q226.3,194.0 225.6,191.0 Q224.8,188.0 224.0,185.0 T223.1,182.1" stroke-width="1.25"/>
<path d="M241.9,200.0 Q240.4,194.0 239.5,191.1 T238.5,188.2" stroke-width="7.76"/>
<path d="M253.6,200.0 Q252.2,194.0 251.2,191.1 T250.2,188.2" stroke-width="10.98"/>
<path d="M267.0,200.0 Q265.3,194.1 264.2,191.2 T263.1,188.3" stroke-width="5.28"/>
<path d="M66.1,193.9 Q67.8,188.0 68.6,185.0 Q69.4,182.1 70.2,179.1 Q71.0,176.1 71.6,173.1 Q72.2,170.1 72.7,167.0 T73.1,164.0" stroke-width="13.59"/>
<path d="M128.0,193.8 L128.2,187.7" stroke-width="3.80"/>
<path d="M206.4,193.9 L205.4,187.8" stroke-width="3.32"/>
<path d="M128.2,187.7 Q128.3,181.5 128.4,178.4 Q128.4,175.4 128.3,172.3 Q128.2,169.2 127.9,166.1 Q127.7,163.1 127.4,160.0 Q127.1,156.9 126.6,153.9 Q126.2,150.8 131.8,150.2 Q137.4,149.5 140.4,150.1 Q143.5,150.6 146.5,150.7 T149.6,150.8" stroke-width="0.24"/>
<path d="M136.9,187.7 L137.3,181.6" stroke-width="1.09"/>
<path d="M205.4,187.8 Q204.5,181.7 204.1,178.7 Q203.8,175.6 203.5,172.5 Q203.3,169.5 203.3,166.4 Q203.3,163.3 203.5,160.2 Q203.8,157.2 204.2,154.1 Q204.6,151.1 205.0,148.0 T205.4,145.0" stroke-width="1.77"/>
<path d="M238.5,188.2 Q236.5,182.3 235.6,179.4 Q234.7,176.4 233.9,173.5 Q233.2,170.5 232.6,167.5 Q232.0,164.4 231.7,161.4 T231.4,158.3" stroke-width="0.72"/>
<path d="M238.5,188.2 L250.2,188.2" stroke-width="1.33"/>
<path d="M250.2,188.2 Q248.1,182.4 247.1,179.5 Q246.0,176.6 245.1,173.6 Q244.2,170.7 243.4,167.7 Q242.6,164.8 241.9,161.7 Q241.3,158.7 240.8,155.7 T240.3,152.7" stroke-width="2.87"/>
<path d="M250.2,188.2 L263.1,188.3" stroke-width="0.30"/>
<path d="M263.1,188.3 L260.7,182.6" stroke-width="2.07"/>
<path d="M91.6,181.8 Q92.6,175.7 92.8,172.7 Q93.1,169.6 93.1,166.5 Q93.1,163.4 92.8,160.4 Q92.5,157.3 95.6,156.8 Q98.6,156.2 101.4,155.0 Q104.3,153.8 107.0,152.4 T109.7,151.0" stroke-width="4.11"/>
<path d="M91.6,181.8 L104.8,181.6" stroke-width="0.94"/>
<path d="M104.8,181.6 Q105.2,175.5 105.2,172.4 T105.1,169.3" stroke-width="1.65"/>
<path d="M137.3,181.6 Q137.5,175.4 137.4,172.3 Q137.3,169.2 137.1,166.2 Q136.9,163.1 136.7,160.0 T136.4,157.0" stroke-width="0.64"/>
<path d="M260.7,182.6 L258.7,176.8" stroke-width="0.34"/>
<path d="M148.3,169.2 L148.6,163.1" stroke-width="0.31"/>
<path d="M179.6,169.2 Q179.9,163.1 180.3,160.0 Q180.7,157.0 181.1,153.9 T181.5,150.9" stroke-width="1.23"/>
<path d="M179.6,169.2 L185.7,168.0" stroke-width="1.65"/>
<path d="M148.6,163.1 L149.1,156.9" stroke-width="0.20"/>
<path d="M166.8,163.1 L167.6,157.0" stroke-width="1.65"/>
<path d="M149.1,156.9 L149.6,150.8" stroke-width="0.22"/>
<path d="M167.6,157.0 L168.5,150.9" stroke-width="0.44"/>
<path d="M149.6,150.8 Q150.2,144.6 150.4,141.6 T150.7,138.5" stroke-width="0.20"/>
<circle cx="71.4" cy="200.0" r="2.4"/>
<circle cx="213.9" cy="200.0" r="2.4"/>
<circle cx="57.2" cy="182.2" r="2.2"/>
<circle cx="223.1" cy="182.1" r="2.2"/>
<circle cx="115.5" cy="175.4" r="2.1"/>
<circle cx="189.7" cy="175.4" r="2.1"/>
<circle cx="36.9" cy="171.2" r="2.0"/>
<circle cx="105.1" cy="169.3" r="2.0"/>
<circle cx="73.1" cy="164.0" r="1.9"/>
<circle cx="185.7" cy="168.0" r="1.9"/>
<circle cx="136.4" cy="157.0" r="1.8"/>
<circle cx="231.4" cy="158.3" r="1.8"/>
<circle cx="168.5" cy="150.9" r="1.8"/>
<circle cx="181.5" cy="150.9" r="1.8"/>
<circle cx="240.3" cy="152.7" r="1.8"/>
<circle cx="205.4" cy="145.0" r="1.7"/>
<circle cx="37.5" cy="142.2" r="1.6"/>
<circle cx="53.3" cy="140.8" r="1.6"/>
<circle cx="109.7" cy="151.0" r="1.6"/>
<circle cx="150.7" cy="138.5" r="1.6"/>
</g>
<text x="4" y="196" font-family="monospace" font-size="8" fill="#5cc8e0">R4C3 neural-high hi-bot lo-mid med-top</text>
<text x="276" y="196" text-anchor="end" font-family="monospace" font-size="8" fill="#d4a04a">65el 9ms</text>
</g>
<g transform="translate(888,648)">
<clipPath id="clip15"><rect width="280" height="200"/></clipPath>
<g clip-path="url(#clip15)">
<rect class="panel" width="280" height="200"/>
<path d="M16.4,0.0 Q18.0,6.0 19.1,8.8 T20.3,11.7" stroke-width="6.74"/>
<path d="M27.3,0.0 Q28.9,6.0 30.0,8.8 Q31.0,11.7 32.2,14.5 Q33.4,17.4 34.5,20.3 T35.6,23.2" stroke-width="3.87"/>
<path d="M41.5,0.0 Q42.9,6.0 43.9,8.9 Q44.8,11.8 45.9,14.7 T46.9,17.6" stroke-width="3.19"/>
<path d="M52.1,0.0 Q53.4,6.0 54.3,9.0 Q55.2,11.9 56.1,14.9 T57.0,17.8" stroke-width="4.99"/>
<path d="M65.9,0.0 Q67.0,6.1 67.7,9.1 Q68.4,12.1 69.1,15.1 Q69.8,18.1 70.4,21.1 Q71.0,24.1 71.4,27.2 Q71.9,30.2 72.0,33.3 T72.1,36.4" stroke-width="1.23"/>
<path d="M76.8,0.0 Q77.6,6.1 78.2,9.1 Q78.7,12.2 79.3,15.2 Q79.9,18.2 80.2,21.3 Q80.5,24.3 80.8,27.4 Q81.0,30.5 81.1,33.6 Q81.1,36.6 80.9,39.7 Q80.7,42.8 80.2,45.8 T79.8,48.9" stroke-width="2.50"/>
<path d="M92.3,0.0 Q92.8,6.1 93.2,9.2 Q93.6,12.2 94.0,15.3 T94.4,18.4" stroke-width="14.00"/>
<path d="M101.8,0.0 Q102.3,6.1 102.6,9.2 Q102.9,12.3 103.3,15.3 Q103.6,18.4 103.8,21.5 Q104.0,24.5 104.0,27.6 Q104.1,30.7 103.9,33.8 T103.6,36.8" stroke-width="3.71"/>
<path d="M115.1,0.0 L115.4,6.2" stroke-width="1.29"/>
<path d="M127.1,0.0 L127.4,6.2" stroke-width="7.61"/>
<path d="M139.8,0.0 L139.8,6.2" stroke-width="2.39"/>
<path d="M150.3,0.0 L150.3,6.2" stroke-width="11.33"/>
<path d="M163.7,0.0 Q163.8,6.2 164.0,9.2 Q164.1,12.3 164.5,15.4 Q164.9,18.4 165.3,21.5 Q165.8,24.5 166.2,27.6 Q166.7,30.6 167.3,33.6 Q167.9,36.7 168.7,39.6 Q169.5,42.6 170.5,45.5 Q171.4,48.5 172.5,51.4 T173.5,54.3" stroke-width="1.41"/>
<path d="M176.7,0.0 Q176.6,6.2 176.7,9.2 Q176.8,12.3 177.1,15.4 Q177.5,18.4 177.9,21.5 Q178.3,24.5 178.8,27.6 Q179.4,30.6 180.1,33.6 T180.8,36.6" stroke-width="5.98"/>
<path d="M193.1,0.0 L193.1,6.2" stroke-width="2.77"/>
<path d="M202.6,0.0 L202.3,6.2" stroke-width="1.78"/>
<path d="M215.2,0.0 Q214.6,6.1 214.2,9.2 Q213.9,12.3 213.7,15.3 Q213.5,18.4 213.4,21.5 T213.3,24.6" stroke-width="1.44"/>
<path d="M225.4,0.0 Q224.5,6.1 224.0,9.1 Q223.5,12.2 223.1,15.2 Q222.8,18.3 222.4,21.4 Q222.1,24.4 221.9,27.5 Q221.7,30.6 221.7,33.6 Q221.7,36.7 221.9,39.8 T222.1,42.9" stroke-width="0.20"/>
<path d="M237.5,0.0 Q236.3,6.1 235.6,9.0 Q234.9,12.0 234.2,15.0 Q233.5,18.1 232.9,21.1 T232.3,24.1" stroke-width="6.56"/>
<path d="M252.4,0.0 Q251.0,6.0 250.2,9.0 T249.4,11.9" stroke-width="6.59"/>
<path d="M264.2,0.0 Q262.7,6.0 261.7,8.9 T260.7,11.8" stroke-width="1.20"/>
<path d="M115.4,6.2 Q115.8,12.3 116.1,15.4 Q116.4,18.4 116.6,21.5 T116.8,24.6" stroke-width="1.51"/>
<path d="M115.4,6.2 L127.4,6.2" stroke-width="10.55"/>
<path d="M127.4,6.2 L127.9,12.3" stroke-width="1.40"/>
<path d="M139.8,6.2 Q139.9,12.3 140.1,15.4 T140.4,18.5" stroke-width="2.41"/>
<path d="M139.8,6.2 L150.3,6.2" stroke-width="0.58"/>
<path d="M150.3,6.2 Q150.4,12.3 150.6,15.4 Q150.9,18.5 151.1,21.5 T151.4,24.6" stroke-width="5.21"/>
<path d="M193.1,6.2 Q193.2,12.3 193.4,15.4 Q193.5,18.5 193.7,21.5 Q193.9,24.6 194.2,27.7 Q194.5,30.7 195.0,33.8 Q195.5,36.8 199.5,36.9 T203.5,36.9" stroke-width="3.71"/>
<path d="M193.1,6.2 L202.3,6.2" stroke-width="5.08"/>
<path d="M202.3,6.2 L202.1,12.3" stroke-width="0.51"/>
<path d="M20.3,11.7 L22.8,17.3" stroke-width="7.25"/>
<path d="M127.9,12.3 L128.5,18.4" stroke-width="3.90"/>
<path d="M202.1,12.3 Q202.2,18.5 202.3,21.5 Q202.4,24.6 202.6,27.7 Q202.8,30.8 203.2,33.8 T203.5,36.9" stroke-width="2.86"/>
<path d="M249.4,11.9 L247.7,17.9" stroke-width="2.59"/>
<path d="M260.7,11.8 L258.6,17.6" stroke-width="0.20"/>
<path d="M22.8,17.3 L25.3,22.9" stroke-width="0.32"/>
<path d="M128.5,18.4 L129.0,24.6" stroke-width="0.20"/>
<path d="M247.7,17.9 L246.2,23.8" stroke-width="2.26"/>
<path d="M129.0,24.6 Q129.4,30.7 129.3,33.8 Q129.2,36.9 129.0,39.9 Q128.7,43.0 128.2,46.0 T127.7,49.1" stroke-width="0.88"/>
<path d="M151.4,24.6 Q152.1,30.7 152.5,33.8 Q152.8,36.8 153.3,39.9 T153.7,42.9" stroke-width="1.67"/>
<path d="M151.4,24.6 Q145.6,26.5 142.8,27.8 Q140.0,29.2 141.6,31.9 Q143.1,34.6 144.5,37.3 Q145.9,40.1 149.8,41.5 T153.7,42.9" stroke-width="1.76"/>
<path d="M203.5,36.9 Q204.5,43.0 205.0,46.0 Q205.6,49.0 206.2,52.1 T206.7,55.1" stroke-width="1.31"/>
<path d="M153.7,42.9 L155.1,48.9" stroke-width="0.67"/>
<path d="M127.7,49.1 Q126.5,55.1 125.9,58.2 Q125.3,61.2 124.7,64.2 Q124.0,67.2 123.1,70.1 Q122.2,73.1 121.1,75.9 Q119.9,78.8 118.5,81.5 T117.1,84.3" stroke-width="0.20"/>
<path d="M127.7,49.1 Q133.9,49.5 136.9,50.2 T139.8,51.0" stroke-width="2.48"/>
<path d="M155.1,48.9 L156.8,54.9" stroke-width="0.35"/>
<path d="M156.8,54.9 L158.9,60.6" stroke-width="0.20"/>
<path d="M139.8,51.0 L145.7,52.8" stroke-width="0.20"/>
<path d="M139.8,51.0 Q138.7,57.0 138.2,60.1 T137.6,63.1" stroke-width="0.47"/>
<circle cx="46.9" cy="17.6" r="2.2"/>
<circle cx="57.0" cy="17.8" r="2.2"/>
<circle cx="94.4" cy="18.4" r="2.2"/>
<circle cx="140.4" cy="18.5" r="2.2"/>
<circle cx="25.3" cy="22.9" r="2.2"/>
<circle cx="35.6" cy="23.2" r="2.2"/>
<circle cx="116.8" cy="24.6" r="2.2"/>
<circle cx="213.3" cy="24.6" r="2.2"/>
<circle cx="232.3" cy="24.1" r="2.2"/>
<circle cx="246.2" cy="23.8" r="2.2"/>
<circle cx="72.1" cy="36.4" r="2.1"/>
<circle cx="103.6" cy="36.8" r="2.1"/>
<circle cx="180.8" cy="36.6" r="2.1"/>
<circle cx="222.1" cy="42.9" r="2.0"/>
<circle cx="79.8" cy="48.9" r="1.9"/>
<circle cx="173.5" cy="54.3" r="1.9"/>
<circle cx="206.7" cy="55.1" r="1.9"/>
<circle cx="145.7" cy="52.8" r="1.8"/>
<circle cx="137.6" cy="63.1" r="1.7"/>
<circle cx="117.1" cy="84.3" r="1.6"/>
</g>
<text x="4" y="196" font-family="monospace" font-size="8" fill="#5cc8e0">R4C4 neural-high hi-top lo-mid zero-bot</text>
<text x="276" y="196" text-anchor="end" font-family="monospace" font-size="8" fill="#d4a04a">69el 9ms</text>
</g>
<text x="12" y="880" font-family="monospace" font-size="11" fill="#5cc8e0">v26 loosened forward cone, branch self-seed, gamma neural - 753 elements in 0.09s</text>
</svg>