<?xml version='1.0' encoding='utf-8'?>
<svg xmlns="http://www.w3.org/2000/svg" width="720.46771" height="633.88562" viewBox="0 0 800.51968 704.31736">
  <defs id="defs76"><style type="text/css">
    .gr-navy{fill:#072852}
    .gr-teal{fill:#0d90a4}
    @media (prefers-color-scheme:dark){
      .gr-navy{fill:#5b8bd0}
      .gr-teal{fill:#3fb6cc}
    }
  </style></defs>
  <path d="m 274.49998,37.029116 2.39375,-0.131776 c 2.63392,-0.140147 5.26831,-0.259794 7.9033,-0.378158 1.89706,-0.09419 3.79411,-0.188751 5.69114,-0.283645 17.48172,-0.843096 34.97686,-1.322725 52.47402,-1.706868 50.75111,0.878637 61.73163,1.239884 123.071,1.682769 25.39583,23.413946 48.95367,49.988694 73.74503,73.807012 3.32911,3.66201 2.73721,7.97977 2.71509,12.62964 l 4.4e-4,2.42494 c -6.9e-4,2.6459 -0.008,5.29172 -0.0163,7.93761 -0.002,1.83417 -0.003,3.66834 -0.004,5.50252 -0.004,4.82838 -0.0137,9.65673 -0.0247,14.48509 -0.0102,4.92665 -0.0148,9.85331 -0.0198,14.77997 -0.0107,9.66733 -0.0278,19.33464 -0.0488,29.00195 l 2.57481,-0.007 c 7.99055,-0.02 15.9811,-0.0352 23.97167,-0.0451 4.10846,-0.005 8.2169,-0.0123 12.32534,-0.0236 3.96164,-0.0108 7.92327,-0.0168 11.88492,-0.0194 1.51474,-0.002 3.02948,-0.005 4.5442,-0.0109 2.11447,-0.007 4.22886,-0.008 6.34334,-0.008 l 3.65392,-0.007 c 2.7018,0.12025 2.7018,0.12025 3.7018,1.12025 v 28 h -70 v 122 c 22.66297,-0.0396 22.66297,-0.0396 45.32592,-0.0901 4.37537,-0.005 4.37537,-0.005 6.42128,-0.005 1.43413,-0.002 2.86825,-0.005 4.30237,-0.0101 2.16766,-0.007 4.33525,-0.008 6.50292,-0.008 l 3.70775,-0.007 c 2.73976,0.12025 2.73976,0.12025 3.73976,1.12025 0.0998,1.98757 0.1308,3.97868 0.13281,5.96875 l 0.004,3.66797 -0.0117,3.86328 0.0117,3.86328 -0.004,3.66797 -0.003,3.39258 c -0.12939,2.57617 -0.12939,2.57617 -1.12939,3.57617 -2.14744,0.0943 -4.29801,0.11743 -6.44751,0.11353 l -2.03983,4.4e-4 c -2.23472,-7e-4 -4.46936,-0.008 -6.70407,-0.0163 -1.54557,-0.002 -3.09114,-0.003 -4.6367,-0.004 -4.07546,-0.004 -8.15089,-0.0137 -12.22634,-0.0247 -4.15567,-0.0102 -8.31135,-0.0148 -12.46704,-0.0198 -8.15952,-0.0107 -16.31901,-0.0278 -24.47851,-0.0488 l 0.0269,2.98328 c 0.0813,9.29805 0.14113,18.59602 0.18034,27.89434 0.0208,4.77988 0.0491,9.55947 0.0945,14.33918 0.0436,4.61657 0.0674,9.23286 0.0778,13.84962 0.007,1.7574 0.0217,3.51479 0.0434,5.27207 0.0292,2.47018 0.033,4.93923 0.0312,7.40956 l 0.0436,2.17969 c -0.0512,6.36872 -2.24783,11.4513 -6.39221,16.27929 l -1.91797,1.60547 -1.89453,1.64453 c -6.5477,4.40604 -11.95385,4.97789 -19.67232,4.92392 l -3.12747,0.0142 c -3.45139,0.0119 -6.90238,0.002 -10.35378,-0.007 -2.47739,0.004 -4.95478,0.009 -7.43216,0.0159 -6.02701,0.0123 -12.05386,0.0105 -18.08086,0.002 -4.90107,-0.007 -9.80211,-0.008 -14.70319,-0.004 l -2.11615,10e-4 c -1.41881,9.6e-4 -2.83763,0.002 -4.25644,0.003 -13.29852,0.009 -26.59698,-10e-4 -39.89549,-0.0174 -11.39735,-0.0134 -22.79462,-0.0111 -34.19198,0.003 -13.24721,0.0161 -26.49438,0.0224 -39.7416,0.0132 -1.41443,-9.6e-4 -2.82885,-0.002 -4.24328,-0.003 l -2.10863,-10e-4 c -4.89058,-0.003 -9.78113,0.002 -14.67171,0.009 -6.59182,0.009 -13.1835,0.003 -19.77532,-0.0147 -2.41625,-0.004 -4.83252,-0.003 -7.24876,0.004 -3.30471,0.008 -6.60886,-0.002 -9.91353,-0.017 l -2.88032,0.0203 c -7.9868,-0.0697 -15.66726,-1.0568 -21.75498,-6.58873 -4.79888,-4.95562 -7.56741,-11.0074 -7.62268,-17.88476 l 0.0436,-2.17969 -0.002,-2.36804 c 0.003,-2.55422 0.0338,-5.10724 0.0653,-7.66126 0.007,-1.78218 0.0132,-3.56436 0.0171,-5.34655 0.0152,-4.66906 0.0544,-9.33762 0.0988,-14.00647 0.0483,-5.61344 0.0665,-11.22705 0.0898,-16.84064 0.0387,-8.50871 0.11535,-17.01632 0.18484,-25.52509 h -75 v -29 h 75 v -121 c -24.30848,0.0396 -24.30848,0.0396 -48.61694,0.0901 -4.69275,0.005 -4.69275,0.005 -6.88698,0.005 -1.53829,0.002 -3.07658,0.005 -4.61487,0.0101 -2.32492,0.007 -4.64978,0.008 -6.97471,0.008 l -3.97692,0.007 c -2.92958,-0.12026 -2.92958,-0.12026 -3.92958,-1.12026 -0.0999,-2.06055 -0.13081,-4.12452 -0.13282,-6.1875 l -0.004,-3.80468 0.006,-1.99122 c 0.005,-2.00821 5e-5,-4.0162 -0.006,-6.02441 l 0.004,-3.80469 0.003,-3.51953 c 0.1294,-2.66797 0.1294,-2.66797 1.1294,-3.66797 2.30054,-0.0944 4.60402,-0.11742 6.9065,-0.11352 l 2.1876,-4.5e-4 c 2.39705,7e-4 4.79402,0.008 7.19106,0.0163 1.65767,0.002 3.31534,0.003 4.97301,0.004 4.37138,0.004 8.74272,0.0137 13.11409,0.0247 4.45729,0.0102 8.91458,0.0148 13.37188,0.0198 8.75197,0.0107 17.50391,0.0278 26.25586,0.0488 l -0.0112,-2.1797 c -0.0884,-17.51934 -0.15457,-35.03863 -0.19607,-52.55815 -0.0206,-8.4724 -0.0487,-16.94464 -0.0945,-25.41694 -0.0399,-7.38628 -0.0657,-14.77246 -0.0746,-22.158857 -0.005,-3.909432 -0.0174,-7.818555 -0.0466,-11.727889 -0.0273,-3.683781 -0.0355,-7.367128 -0.0295,-11.051 -0.002,-1.988077 -0.0231,-3.976106 -0.0453,-5.96406 0.038,-8.284745 1.09307,-13.459484 6.17346,-20.150436 l 1.63672,-1.605469 1.61328,-1.644532 c 5.32944,-3.965213 10.6783,-5.017844 17.19402,-5.294481 z m -9.12019,22.751053 c -0.60095,3.094815 -0.60095,3.094815 -0.50616,6.615851 l -0.0185,2.020146 c -0.0157,2.244081 -0.003,4.487089 0.01,6.731175 -0.005,1.620942 -0.0124,3.241879 -0.021,4.862806 -0.0187,4.462233 -0.0123,8.924137 -0.002,13.386384 0.007,4.809234 -0.009,9.618399 -0.022,14.427609 -0.0217,9.42469 -0.0215,18.84925 -0.0134,28.27396 0.006,7.65815 0.005,15.31627 -0.001,22.97442 l -0.003,3.29918 c -0.002,2.21155 -0.004,4.4231 -0.006,6.63464 -0.0166,20.75315 -0.008,41.50623 0.009,62.25937 0.0147,18.99831 7e-5,37.99647 -0.0288,56.99477 -0.0294,19.49401 -0.0404,38.98795 -0.0308,58.48198 0.001,2.20385 0.002,4.4077 0.003,6.61155 l 0.001,3.2861 c 0.002,7.65059 -0.008,15.3011 -0.0222,22.95168 -0.0175,9.32129 -0.0174,18.64237 0.005,27.96366 0.0112,4.75812 0.0142,9.51588 -0.004,14.27399 -0.0167,4.35315 -0.0105,8.70564 0.0142,13.05874 0.005,1.57735 10e-4,3.15475 -0.0115,4.73205 -0.0161,2.14022 -0.002,4.27813 0.0207,6.41825 l 8.2e-4,3.60538 c 0.82005,4.11116 2.34338,5.59952 5.6256,8.13631 2.18581,0.72968 2.18581,0.72968 4.47158,0.62921 l 2.63678,0.0395 2.86757,-0.0338 3.06897,0.0236 c 3.39808,0.02 6.79505,0.004 10.19313,-0.0116 2.43433,0.007 4.86865,0.0157 7.30297,0.0265 5.92839,0.0204 11.85649,0.0174 17.78488,0.003 4.81869,-0.0113 9.6373,-0.0128 14.45601,-0.007 l 2.07842,0.002 c 1.39338,0.002 2.78675,0.003 4.18012,0.005 13.06619,0.0143 26.1322,-0.002 39.19836,-0.029 11.20882,-0.0223 22.41738,-0.0185 33.6262,0.005 13.01793,0.0268 26.0357,0.0373 39.05365,0.0219 1.38855,-0.002 2.7771,-0.003 4.16565,-0.005 l 2.07024,-0.002 c 4.81181,-0.004 9.62353,0.003 14.43532,0.0147 6.47861,0.0155 12.95685,0.004 19.43541,-0.0245 2.37922,-0.007 4.75849,-0.005 7.13769,0.006 3.24527,0.0136 6.48896,-0.003 9.73413,-0.0284 l 2.86081,0.0338 c 4.61895,-0.069 8.74653,-0.29474 12.21328,-3.76822 2.47516,-4.57223 1.81926,-10.09286 1.75035,-15.14374 0.003,-1.37788 0.008,-2.75576 0.0155,-4.13362 0.0134,-3.78581 -0.0106,-7.5706 -0.0407,-11.35628 -0.0259,-4.08243 -0.0171,-8.16481 -0.0126,-12.2473 0.003,-7.07295 -0.0157,-14.14558 -0.0494,-21.21845 -0.0488,-10.22615 -0.0644,-20.45213 -0.0719,-30.67838 -0.0131,-16.59105 -0.0531,-33.18192 -0.10982,-49.77287 -0.0551,-16.11718 -0.0975,-32.23431 -0.12304,-48.35157 l -0.005,-3.01017 c -0.008,-4.98334 -0.0154,-9.96668 -0.0229,-14.95002 -0.0622,-41.34616 -0.16789,-82.69212 -0.30194,-124.0381 l -1.97171,-0.011 c -6.78128,-0.0419 -13.56188,-0.11123 -20.34275,-0.19647 -2.52955,-0.0282 -5.05919,-0.0494 -7.58886,-0.0635 -3.63946,-0.0214 -7.27786,-0.0681 -10.917,-0.11963 l -3.41922,-0.004 c -6.22094,-0.11566 -10.04257,-0.41262 -14.76046,-4.60565 -4.24682,-4.59116 -5.09714,-7.92399 -5.20533,-14.04395 l -0.0604,-3.032531 -0.0506,-3.251648 -0.063,-3.345886 c -0.0654,-3.525267 -0.12432,-7.050608 -0.18312,-10.575989 -0.0432,-2.390633 -0.0868,-4.781258 -0.13086,-7.171875 -0.10705,-5.859297 -0.20884,-11.718667 -0.30664,-17.578125 -24.70381,-0.09337 -49.40758,-0.163945 -74.11153,-0.207249 -11.47004,-0.02064 -22.93998,-0.04879 -34.40996,-0.09451 -9.9953,-0.03982 -19.99052,-0.06566 -29.9859,-0.0746 -5.29426,-0.0052 -10.58829,-0.01753 -15.88247,-0.04657 -4.98056,-0.0271 -9.96081,-0.03554 -14.94144,-0.02951 -1.8302,-0.0011 -3.66042,-0.0091 -5.49055,-0.02439 -2.49507,-0.01984 -4.98891,-0.01514 -7.484,-0.0042 l -2.20494,-0.03531 c -4.69325,0.0558 -6.64965,0.789403 -9.48921,4.516325 z" id="path3" class="gr-navy" />
  <path d="m 624.71573,134.47939 c 0.71637,-0.004 1.43273,-0.009 2.17081,-0.013 1.51467,-0.006 3.02936,-0.006 4.54404,-0.002 2.30907,0.003 4.61686,-0.0203 6.92578,-0.0456 1.47395,-0.002 2.94791,-0.003 4.42187,-0.002 1.02993,-0.0138 1.02993,-0.0138 2.08066,-0.0279 5.30604,0.0508 8.21736,1.59786 12.30215,4.77791 2.13261,2.82297 1.73832,5.68248 1.64844,9.09765 -0.69202,4.05151 -2.45013,5.7489 -5.42969,8.51563 -0.98999,0.495 -0.98999,0.495 -2,1 -0.32999,97.02 -0.66,194.04 -1,294 6.27,0 12.54,0 19,0 5,5 5,5 5.5835,7.11231 -0.0297,1.01948 -0.0297,1.01948 -0.0601,2.05957 -0.0116,0.74636 -0.0232,1.49273 -0.0352,2.26171 -0.0374,0.76442 -0.0748,1.52883 -0.11328,2.31641 -0.0142,0.77988 -0.0284,1.55977 -0.043,2.36328 -0.14879,5.70348 -0.14879,5.70348 -1.33203,6.88672 -2.39809,0.10028 -4.7674,0.13619 -7.16602,0.1294 -0.74956,0.002 -1.49913,0.003 -2.27141,0.005 -2.48963,0.004 -4.97919,10e-4 -7.46882,-0.002 -1.72254,6.8e-4 -3.44507,0.002 -5.1676,0.003 -3.61488,0.001 -7.22973,-6.7e-4 -10.84461,-0.005 -4.64421,-0.006 -9.28836,-0.002 -13.93256,0.004 -3.55835,0.004 -7.11668,0.002 -10.67503,-1.2e-4 -1.7129,-6.7e-4 -3.4258,1.6e-4 -5.1387,0.002 -2.38978,0.003 -4.77946,-10e-4 -7.16924,-0.007 -0.71484,0.002 -1.42968,0.004 -2.16618,0.006 -4.88557,-0.0213 -4.88557,-0.0213 -5.99983,-1.13553 -0.18062,-2.95203 -0.27818,-5.85833 -0.3125,-8.8125 -0.029,-0.82049 -0.058,-1.64098 -0.0879,-2.48633 -0.008,-0.7947 -0.0168,-1.58941 -0.0254,-2.4082 -0.0146,-0.72679 -0.0292,-1.45358 -0.0442,-2.20239 0.71725,-3.19057 1.81784,-4.15292 4.46997,-6.09058 3.26214,-0.49781 6.45987,-0.37636 9.75,-0.25 0.88816,0.0181 1.77633,0.0361 2.69141,0.0547 2.1873,0.047 4.37239,0.11274 6.55859,0.19531 -0.0131,-37.38584 -0.0524,-74.77156 -0.12686,-112.15732 -0.009,-4.4111 -0.0173,-8.8222 -0.0257,-13.2333 -0.002,-0.8782 -0.003,-1.75639 -0.005,-2.66119 -0.0267,-14.23013 -0.0358,-28.46022 -0.0384,-42.69037 -0.003,-14.59531 -0.025,-29.19051 -0.0645,-43.78578 -0.0238,-9.01021 -0.0328,-18.02019 -0.023,-27.03043 0.005,-6.17393 -0.008,-12.34765 -0.0351,-18.52152 -0.0153,-3.56512 -0.0225,-7.12977 -0.008,-10.6949 0.0155,-3.86121 -0.007,-7.72164 -0.0342,-11.5828 0.0107,-1.13228 0.0213,-2.26457 0.0323,-3.43117 0.0809,-6.01463 0.0809,-6.01463 -3.1295,-10.82559 -0.83889,-0.45726 -1.67777,-0.91452 -2.54208,-1.38563 -2.52481,-3.48665 -2.43474,-6.79751 -2,-11 3.70708,-6.77477 6.8908,-8.31037 14.33594,-8.30055 z" id="path5" class="gr-navy" />
  <path d="m 140.03213,134.38173 c 0.73715,-0.003 1.4743,-0.006 2.23378,-0.009 1.55579,-0.002 3.11161,0.004 4.66735,0.016 2.37273,0.016 4.74376,1.5e-4 7.11645,-0.019 1.51498,0.002 3.02995,0.006 4.54492,0.0117 0.70536,-0.006 1.41071,-0.0121 2.13744,-0.0184 4.387,0.0622 7.16036,0.72749 10.64772,3.41683 2.8681,4.11095 3.47515,7.27568 2.65234,12.10157 -1.30147,3.78752 -4.15465,6.14959 -7.65234,7.89843 -0.33,97.02001 -0.66,194.04001 -1,294.00001 5.94,0 11.88,0 18,0 5,3 5,3 6,5 0.0981,2.86431 0.13903,5.69876 0.125,8.5625 0.004,0.79342 0.008,1.58683 0.0117,2.40429 -0.0101,5.90658 -0.0101,5.90658 -1.13672,7.03321 -2.39809,0.10028 -4.7674,0.13618 -7.16602,0.12939 -0.74956,0.002 -1.49913,0.004 -2.2714,0.005 -2.48964,0.004 -4.9792,0.001 -7.46883,-0.002 -1.72253,6.7e-4 -3.44507,0.002 -5.1676,0.003 -3.61488,10e-4 -7.22973,-6.8e-4 -10.84461,-0.005 -4.64421,-0.006 -9.28836,-0.002 -13.93256,0.004 -3.55834,0.004 -7.11668,0.002 -10.67502,-1.3e-4 -1.7129,-6.7e-4 -3.42581,1.6e-4 -5.13871,0.002 -2.38977,0.003 -4.77946,-10e-4 -7.16923,-0.007 -0.71484,0.002 -1.42968,0.004 -2.16618,0.006 -4.88557,-0.0213 -4.88557,-0.0213 -5.99984,-1.13553 -0.20739,-2.95389 -0.32461,-5.85546 -0.375,-8.8125 -0.0374,-0.82049 -0.0748,-1.64098 -0.11328,-2.48633 -0.0116,-0.79471 -0.0232,-1.58941 -0.0352,-2.4082 -0.0198,-0.72679 -0.0396,-1.45358 -0.0601,-2.2024 0.5835,-2.09057 0.5835,-2.09057 5.5835,-6.09057 6.27,0 12.54,0 19,0 0,-97.02 0,-194.04 0,-294.00001 -1.65,-0.66 -3.3,-1.32 -5,-2 -3.0364,-2.81951 -3.69369,-5.88796 -4.06641,-9.97265 0.13241,-4.04232 1.91182,-6.86706 4.70142,-9.67041 3.28284,-1.88328 6.33478,-1.78672 10.01733,-1.7551 z" id="path6" class="gr-navy" />
  <path d="m 442.6337,280.11611 c 2.67825,2.13531 5.22751,4.34386 7.7461,6.66406 0.62906,0.54914 1.25812,1.09828 1.90625,1.66406 14.63573,13.50479 24.1476,34.10137 24.99609,53.8125 0.0322,1.16274 0.0645,2.32547 0.0977,3.52344 0.0947,1.68223 0.0947,1.68223 0.19141,3.39844 0.32091,9.04771 -1.32655,17.08234 -3.6919,25.74218 -0.41876,1.55878 -0.79097,3.12995 -1.15185,4.70313 -4.57931,18.43693 -20.61205,35.02806 -36.34766,44.84375 -18.84046,11.2712 -42.58347,14.62089 -64.0625,10.25 -22.40683,-6.3977 -41.35503,-20.9845 -52.96045,-41.16015 -2.63394,-4.79139 -4.86987,-9.73639 -6.97705,-14.77735 -0.32871,-0.77344 -0.65742,-1.54688 -0.99609,-2.34375 -6.74937,-16.79269 -5.09578,-41.39256 1.69531,-57.87891 9.70415,-22.36568 26.14562,-39.78607 48.80078,-49.08984 27.45651,-10.53823 56.9665,-6.9461 80.7539,10.64844 z m -103.25391,22.66406 c -14.37316,17.24228 -18.25483,36.45132 -16.78515,58.17578 1.44043,11.96041 7.31811,24.43463 14.78515,33.82422 0.69481,0.88043 1.38961,1.76086 2.10547,2.66797 8.92836,10.55964 19.66497,17.33896 32.89454,21.33203 0.78375,0.29649 1.5675,0.59297 2.375,0.89844 14.90158,5.343 33.72898,1.97113 47.82812,-4.46875 17.16632,-8.77496 30.58292,-22.6839 36.73438,-41.11719 5.89487,-19.69702 5.40695,-38.68528 -3.9375,-57.3125 -10.42747,-18.66809 -25.80016,-30.04893 -45.90992,-36.62451 -5.34967,-1.51279 -10.49298,-1.67607 -16.02758,-1.62549 -0.84241,-0.008 -1.68481,-0.0155 -2.55274,-0.0234 -20.13227,0.062 -37.78217,10.03186 -51.50977,24.27344 z" id="path9" class="gr-teal" />
  <path d="m 465.76849,37.205336 c 3.75955,0.827595 5.79904,3.096205 8.39206,5.772095 l 1.68241,1.675324 c 1.83441,1.832794 3.65034,3.682806 5.46652,5.53366 1.27543,1.282228 2.55191,2.563423 3.82937,3.843628 3.36562,3.379039 6.71553,6.773249 10.06284,10.17041 2.7176,2.752829 5.44618,5.494632 8.17546,8.235878 3.27297,3.287861 6.54079,6.580825 9.80733,9.875084 l 1.86666,1.881546 c 11.79658,11.906776 11.79658,11.906776 17.02708,18.073819 2.38224,2.76991 5.05662,5.23585 7.70001,7.75167 5.46192,6.00811 3.331,10.71725 0.60156,7.76171 l -2,2 c -2.74371,0.26743 -2.74371,0.26743 -6.28223,0.29053 l -1.95195,0.0204 c -2.13556,0.019 -4.2708,0.0229 -6.40644,0.0251 -1.48493,0.006 -2.96985,0.0131 -4.45478,0.0202 -3.11715,0.012 -6.2342,0.0157 -9.35138,0.0145 -3.98593,-2e-4 -7.97115,0.0271 -11.95691,0.0615 -3.06961,0.0223 -6.13905,0.0263 -9.20873,0.0252 -1.46876,0.002 -2.93752,0.0112 -4.4062,0.0267 -2.06103,0.0197 -4.12052,0.0138 -6.18158,0.002 l -3.54815,0.009 c -5.05247,-0.76832 -8.86726,-3.55984 -12.06415,-7.49447 -10.56525,-14.489494 -3.1875,-51.332017 -3.1875,-57.000004 0.1202,-10.8546 0,-13.999991 0,-13.999991 4,-4 4,-4 6.3887,-4.574829 z" id="path15" class="gr-teal" />
  <path d="m 314.47757,218.27224 c 0.71522,-0.006 1.43044,-0.0125 2.16733,-0.0189 2.39699,-0.016 4.79297,-0.003 7.18997,0.009 1.71822,-0.005 3.43644,-0.0125 5.15465,-0.0212 4.66735,-0.0182 9.33435,-0.0112 14.00171,0.002 4.88153,0.0101 9.76302,7.4e-4 14.64455,-0.006 8.19809,-0.007 16.39604,0.002 24.59411,0.0214 9.4818,0.0218 18.96326,0.0147 28.44505,-0.007 8.13683,-0.0181 16.27356,-0.0207 24.41041,-0.0102 4.86156,0.006 9.72295,0.007 14.5845,-0.006 4.57031,-0.0115 9.14017,-0.004 13.71043,0.0196 1.6786,0.005 3.35724,0.004 5.03583,-0.005 2.28914,-0.0109 4.57685,0.003 6.8659,0.0227 1.28163,0.002 2.56326,0.003 3.88372,0.005 3.77812,0.5917 4.97263,1.45435 7.21406,4.50336 0.5,3.0625 0.5,3.0625 0,6 -2.3689,2.48092 -3.80001,2.97665 -7.23247,3.37753 -1.2903,10e-4 -2.5806,0.002 -3.91,0.003 -1.08001,0.007 -1.08001,0.007 -2.18184,0.0142 -2.413,0.012 -4.82543,0.002 -7.23843,-0.007 -1.7297,0.004 -3.45939,0.009 -5.18907,0.0159 -4.69823,0.0137 -9.39626,0.008 -14.09449,-0.001 -4.91268,-0.008 -9.82535,-5.6e-4 -14.73803,0.004 -8.24935,0.006 -16.49861,-0.002 -24.74794,-0.016 -9.54425,-0.0163 -19.08831,-0.011 -28.63256,0.006 -8.18861,0.0136 -16.37716,0.0155 -24.56578,0.008 -4.89336,-0.005 -9.78662,-0.005 -14.67997,0.005 -4.59897,0.009 -9.19768,0.003 -13.79661,-0.0147 -1.69031,-0.004 -3.38065,-0.003 -5.07095,0.004 -2.30241,0.008 -4.60401,-0.002 -6.90637,-0.017 -1.28992,-10e-4 -2.57985,-0.002 -3.90886,-0.003 -3.10663,-0.3777 -3.10663,-0.3777 -5.01775,-1.71791 -1.73959,-2.65167 -1.5294,-4.57611 -1.08888,-7.65979 3.20488,-4.37034 5.8433,-4.50175 11.09778,-4.50793 z" id="path19" class="gr-navy" />
  <path d="m 313.43997,177.39922 c 0.72324,-0.005 1.44647,-0.009 2.19162,-0.0142 2.42993,-0.012 4.85929,-0.002 7.28922,0.007 1.7394,-0.004 3.47879,-0.009 5.21818,-0.0159 4.72928,-0.0137 9.45836,-0.008 14.18764,0.001 4.94338,0.008 9.88675,5.6e-4 14.83014,-0.004 8.3024,-0.005 16.60472,0.002 24.9071,0.016 9.60615,0.0163 19.2121,0.011 28.81825,-0.005 8.23954,-0.0136 16.47903,-0.0155 24.71858,-0.008 4.92467,0.005 9.84925,0.005 14.77392,-0.005 4.62931,-0.009 9.25838,-0.003 13.88767,0.0147 1.7016,0.004 3.40322,0.003 5.10481,-0.004 2.31779,-0.008 4.63477,0.002 6.95251,0.017 1.94789,0.002 1.94789,0.002 3.93514,0.003 3.12504,0.37753 3.12504,0.37753 5.04286,1.71384 1.69962,2.61292 1.4609,4.6339 1.08218,7.66369 -1.08218,1.66369 -1.08218,1.66369 -3,3 -3.12504,0.37752 -3.12504,0.37752 -7.06018,0.38095 -0.72324,0.005 -1.44647,0.009 -2.19162,0.0142 -2.42993,0.012 -4.85929,0.003 -7.28922,-0.007 -1.73939,0.004 -3.47879,0.009 -5.21818,0.0159 -4.72928,0.0137 -9.45836,0.008 -14.18764,-0.001 -4.94338,-0.008 -9.88675,-5.6e-4 -14.83014,0.004 -8.3024,0.006 -16.60472,-0.002 -24.9071,-0.016 -9.60615,-0.0163 -19.2121,-0.011 -28.81824,0.005 -8.23955,0.0136 -16.47904,0.0155 -24.71859,0.008 -4.92467,-0.005 -9.84925,-0.005 -14.77392,0.005 -4.62931,0.009 -9.25838,0.003 -13.88767,-0.0147 -1.7016,-0.004 -3.40322,-0.003 -5.10481,0.004 -2.31778,0.008 -4.63477,-0.002 -6.95251,-0.0172 -1.29859,-0.001 -2.59719,-0.002 -3.93514,-0.003 -3.12504,-0.37752 -3.12504,-0.37752 -5.04286,-1.71383 -1.69962,-2.61295 -1.4609,-4.63393 -1.08218,-7.66372 2.52829,-3.88688 5.72649,-3.37718 10.06018,-3.38095 z" id="path20" class="gr-navy" />
  <path d="m 427.31729,315.09267 c 4.18596,0.9397 6.1831,2.53386 9.0625,5.6875 0.8125,2.8125 0.8125,2.8125 0,6 -2.05417,2.93543 -4.5147,5.42806 -7,8 -1.50554,1.66166 -3.00539,3.3285 -4.5,5 -0.76312,0.84562 -1.52625,1.69125 -2.3125,2.5625 -1.91304,2.13167 -3.80637,4.27769 -5.6875,6.4375 -3.39374,3.89651 -6.8543,7.73065 -10.3164,11.5664 -1.89208,2.10871 -3.76266,4.2328 -5.6211,6.3711 -5.99209,6.87205 -12.0749,13.65347 -18.5625,20.0625 -0.33,0.33 -0.66,0.66 -1,1 -5.64721,-0.26472 -8.18004,-1.44725 -12,-5.5625 -0.85594,-0.90879 -1.71187,-1.81758 -2.59375,-2.75391 -2.54949,-2.84334 -5.07755,-5.69789 -7.53515,-8.62109 -1.93276,-2.19311 -1.93276,-2.19311 -4.52344,-4.5 -8.01041,-7.37003 -8.01041,-7.37003 -8.22266,-11.9375 0.95873,-3.97186 1.39836,-5.48553 4.875,-7.625 2.98791,-0.67767 4.14883,-0.87882 7,0 3.68897,2.80611 6.7772,6.12099 9.9375,9.5 0.87463,0.90621 1.74926,1.81242 2.65039,2.74609 2.15398,2.23637 4.28995,4.48739 6.41211,6.75391 4.02977,-1.84359 6.5768,-4.4903 9.5,-7.75 0.51974,-0.57057 1.03947,-1.14115 1.57495,-1.72901 4.35597,-4.81231 8.56677,-9.7454 12.76368,-14.69629 3.05009,-3.5821 6.19354,-6.98002 9.57934,-10.25048 3.55849,-3.54092 6.96563,-7.35461 9.92188,-11.41407 2.04604,-2.77818 3.18384,-4.04868 6.59765,-4.84765 z" id="path23" class="gr-teal" />
  <path d="m 318.31119,134.26259 c 1.67132,-0.0105 1.67132,-0.0105 3.37641,-0.0212 3.68801,-0.0176 7.37526,-0.006 11.06329,0.008 2.56063,-0.003 5.12127,-0.007 7.6819,-0.0116 5.36924,-0.006 10.73821,0.002 16.10741,0.0214 6.20199,0.0218 12.40346,0.0147 18.60544,-0.007 5.97158,-0.0204 11.94299,-0.0182 17.91459,-0.006 2.53855,0.003 5.07711,-6.2e-4 7.61565,-0.01 3.54807,-0.0101 7.09513,0.005 10.64312,0.0276 1.05108,-0.008 2.10215,-0.0162 3.18508,-0.0245 4.43112,0.0516 7.15664,0.13523 11.06701,2.3479 1.8087,2.19422 1.8087,2.19422 1.8087,5.81922 -1,3.375 -1,3.375 -4,5.375 -2.18799,0.25726 -2.18799,0.25726 -4.78235,0.26742 -0.98424,0.009 -1.96848,0.0171 -2.98255,0.0259 -1.61781,-0.001 -1.61781,-0.001 -3.2683,-0.003 -1.70518,0.0101 -1.70518,0.0101 -3.44481,0.0204 -3.76779,0.019 -7.5354,0.0229 -11.30323,0.0251 -2.6117,0.006 -5.22339,0.0131 -7.83509,0.0202 -5.47767,0.0128 -10.95529,0.0158 -16.43298,0.0145 -6.33433,-0.001 -12.66832,0.0199 -19.00256,0.0515 -6.0917,0.0293 -12.18324,0.0365 -18.27501,0.0353 -2.59325,0.002 -5.1865,0.0113 -7.7797,0.0267 -3.62036,0.0195 -7.23984,0.0139 -10.86021,0.002 -1.07854,0.0112 -2.15708,0.0225 -3.2683,0.0341 -0.98424,-0.008 -1.96849,-0.0168 -2.98256,-0.0254 -1.2842,0.002 -1.2842,0.002 -2.59435,0.003 -2.18799,-0.49784 -2.18799,-0.49784 -3.95955,-2.3725 -1.54795,-2.67813 -1.76168,-4.07831 -1.22844,-7.12534 3.52201,-5.56525 9.03232,-4.56294 14.93139,-4.51759 z" id="path26" class="gr-navy" />
  <path d="m 650.37979,451.78017 c 3.06399,-0.13531 6.12197,-0.23424 9.1875,-0.3125 0.86432,-0.0419 1.72864,-0.0838 2.61914,-0.12696 4.30926,-0.0826 6.57771,0.0464 10.28321,2.41211 2.56935,4.07209 2.51534,7.07048 2.28515,11.77735 -0.0142,0.77988 -0.0284,1.55976 -0.043,2.36328 -0.14878,5.70347 -0.14878,5.70347 -1.33203,6.88672 -2.40348,0.095 -4.77811,0.12559 -7.18188,0.11352 -1.12676,2.2e-4 -1.12676,2.2e-4 -2.27628,4.5e-4 -2.49444,-7e-4 -4.98881,-0.009 -7.48324,-0.0163 -1.72493,-0.002 -3.44986,-0.003 -5.17479,-0.004 -4.54893,-0.004 -9.09783,-0.0137 -13.64675,-0.0247 -4.63826,-0.0102 -9.27652,-0.0148 -13.91479,-0.0198 -9.10744,-0.0107 -18.21485,-0.0278 -27.32227,-0.0488 0,-0.33 0,-0.66 0,-1 21.45,0 42.9,0 65,0 0,-0.66 0,-1.32 0,-2 2.97,-0.33 5.94,-0.66 9,-1 0.0541,-2.24974 0.0929,-4.49985 0.125,-6.75 0.0232,-1.25297 0.0464,-2.50594 0.0703,-3.79688 0.0204,-3.68171 0.0204,-3.68171 -2.19531,-7.45312 -5.94,0 -11.88,0 -18,0 0,-0.33 0,-0.66 0,-1 z" id="path33" class="gr-navy" />
  <path d="m 113.3798,452.78017 c 0.66,0.33 1.32,0.66 2,1 -0.66,3.96 -1.32,7.92 -2,12 -0.33,0 -0.66,0 -1,0 -0.33,2.64 -0.66,5.28 -1,8 -0.33,0 -0.66,0 -1,0 -0.0809,-2.93805 -0.14043,-5.87388 -0.1875,-8.8125 -0.0251,-0.83338 -0.0503,-1.66676 -0.0762,-2.52539 -0.01,-0.80244 -0.0193,-1.60489 -0.0293,-2.43164 -0.0157,-0.7384 -0.0314,-1.47679 -0.0476,-2.23755 0.42983,-2.51523 1.4152,-3.38734 3.34057,-4.99292 z" id="path45" class="gr-navy" />
  <path d="m 313.56729,136.09267 c 1.90846,0.17982 1.90846,0.17982 3.85547,0.36328 0.97582,0.10699 1.95164,0.21398 2.95703,0.32422 0,0.33 0,0.66 0,1 -5.94,0.495 -5.94,0.495 -12,1 -0.99,2.31 -1.98,4.62 -3,7 -2,-2 -2,-2 -2.3125,-4.4375 0.3125,-2.5625 0.3125,-2.5625 1.38281,-4.24219 3.01787,-2.06485 5.55575,-1.36722 9.11719,-1.00781 z" id="path46" class="gr-navy" />
  <path d="m 304.37979,181.78017 c 2.99333,0.99777 3.94767,1.7522 6,4 -0.66,1.32 -1.32,2.64 -2,4 -1.32,-0.66 -2.64,-1.32 -4,-2 0,-1.98 0,-3.96 0,-6 z" id="path55" class="gr-navy" />
  <path d="m 332.37979,289.78017 c 0.66,0.99 1.32,1.98 2,3 -1.6234,1.70884 -3.29319,3.37446 -5,5 -0.66,0 -1.32,0 -2,0 0.54227,-3.79589 2.20128,-5.47212 5,-8 z" id="path56" class="gr-teal" />
  <path d="m 326.37979,320.78017 c 1.25128,3.54667 0.72285,5.72253 -0.4375,9.25 -0.28746,0.89203 -0.57492,1.78406 -0.87109,2.70312 -0.22817,0.67547 -0.45633,1.35094 -0.69141,2.04688 -0.33,0 -0.66,0 -1,0 -0.34616,-5.65395 0.56575,-9.03007 3,-14 z" id="path59" class="gr-teal" />
  <path d="m 529.37979,467.78017 c 0.99,0.33 1.98,0.66 3,1 -1.93255,2.02457 -3.63158,3.42106 -6,5 -0.99,0 -1.98,0 -3,0 0,-0.66 0,-1.32 0,-2 0.99,0 1.98,0 3,0 0,-0.66 0,-1.32 0,-2 0.99,-0.66 1.98,-1.32 3,-2 z" id="path64" class="gr-navy" />
  <path d="m 308.37979,177.78017 c -0.66,2.97 -1.32,5.94 -2,9 -0.99,0 -1.98,0 -3,0 -0.36666,-5.5 -0.36666,-5.5 1.375,-7.875 1.625,-1.125 1.625,-1.125 3.625,-1.125 z" id="path65" class="gr-navy" />
  <path d="m 518.37979,89.780166 c 3.79522,1.490977 5.61043,3.757009 8,7 -3,0 -3,0 -5.6875,-2.375 -2.3125,-2.625 -2.3125,-2.625 -2.3125,-4.625 z" id="path66" class="gr-teal" />
  <path d="m 351.37979,346.78017 c 2.31,0 4.62,0 7,0 0,0.99 0,1.98 0,3 -0.94875,-0.0206 -1.8975,-0.0413 -2.875,-0.0625 -3.03166,-0.16302 -3.03166,-0.16302 -5.125,1.0625 0.33,-1.32 0.66,-2.64 1,-4 z" id="path69" class="gr-teal" />
  <path d="m 427.44229,315.71767 c 1.45406,0.0309 1.45406,0.0309 2.9375,0.0625 0,0.33 0,0.66 0,1 -1.65,0 -3.3,0 -5,0 0,0.99 0,1.98 0,3 -1.65,0.66 -3.3,1.32 -5,2 3.53284,-5.99047 3.53284,-5.99047 7.0625,-6.0625 z" id="path71" class="gr-teal" />
  <path d="m 306.37979,219.78017 c 0.99,0.33 1.98,0.66 3,1 -1.20381,2.49361 -2.45429,4.68143 -4,7 -0.625,-2.875 -0.625,-2.875 -1,-6 0.66,-0.66 1.32,-1.32 2,-2 z" id="path72" class="gr-navy" />
  <path d="m 135.3798,134.78017 c 0,0.66 0,1.32 0,2 -0.99,0 -1.98,0 -3,0 -0.66,1.32 -1.32,2.64 -2,4 -0.99,-0.66 -1.98,-1.32 -3,-2 4.625,-4 4.625,-4 8,-4 z" id="path73" class="gr-navy" />
  <path d="m 50.199538,667.23602 v -17.45959 h 35.259314 q 3.741342,0 3.741342,0 0,0 0,-3.74135 v -4.7617 h -32.87846 q -6.80244,0 -11.677522,-4.87509 -4.875082,-4.87508 -4.875082,-11.56414 v -32.87846 q 0,-6.68907 4.875082,-11.56415 4.875082,-4.87508 11.677522,-4.87508 h 33.785452 q 6.802441,0 11.564144,4.87508 4.87509,4.87508 4.87509,11.56415 v 58.8411 q 0,6.80244 -4.87509,11.56415 -4.761703,4.87508 -11.564144,4.87508 z m 10.657156,-43.30887 h 24.602158 q 3.741342,0 3.741342,0 0,0 0,-3.74134 v -23.58179 q 0,-3.74134 0,-3.74134 0,0 -3.741342,0 H 60.856694 q -3.741342,0 -3.741342,0 0,0 0,3.74134 v 23.58179 q 0,3.74134 0,3.74134 z m 54.759746,17.34623 v -49.31769 q 0,-6.68907 4.87508,-11.56415 4.87509,-4.87508 11.67753,-4.87508 h 36.27968 v 17.34622 h -31.74472 q -3.74135,0 -3.74135,0 0,0 0,3.74134 v 44.66936 z m 76.52769,0 q -6.68906,0 -11.56415,-4.87509 -4.87508,-4.87508 -4.87508,-11.56414 v -32.87846 q 0,-6.68907 4.87508,-11.56415 4.87509,-4.87508 11.56415,-4.87508 h 33.78545 q 6.80244,0 11.56415,4.87508 4.87509,4.87508 4.87509,11.56415 v 32.87846 q 0,6.68906 -4.87509,11.56414 -4.76171,4.87509 -11.56415,4.87509 z m 4.64834,-17.34623 h 24.48878 q 3.74134,0 3.74134,0 0,0 0,-3.74134 v -23.58179 q 0,-3.74134 0,-3.74134 0,0 -3.74134,0 h -24.48878 q -3.74135,0 -3.74135,0 0,0 0,3.74134 v 23.58179 q 0,3.74134 0,3.74134 z m 70.972,17.34623 q -6.80244,0 -11.67753,-4.87509 -4.7617,-4.87508 -4.7617,-11.56414 v -49.31769 h 17.34622 v 44.66935 q 0,3.74134 0,3.74134 0,0 3.74134,0 h 24.48878 q 3.74135,0 3.74135,0 0,0 0,-3.74134 v -44.66935 h 17.34622 v 49.31769 q 0,6.68906 -4.87508,11.56414 -4.76171,4.87509 -11.56415,4.87509 z m 62.46906,0 v -65.75692 h 50.22468 q 6.80244,0 11.56415,4.87508 4.87508,4.87508 4.87508,11.56415 v 49.31769 h -17.34622 v -44.66936 q 0,-3.74134 0,-3.74134 0,0 -3.74134,0 H 351.3211 q -3.74135,0 -3.74135,0 0,0 0,3.74134 v 44.66936 z m 91.83284,0 q -6.80244,0 -11.67752,-4.87509 -4.76171,-4.87508 -4.76171,-11.56414 v -32.87846 q 0,-6.68907 4.76171,-11.56415 4.87508,-4.87508 11.67752,-4.87508 h 32.99184 V 553.9754 h 17.34622 v 87.29798 z m 4.76171,-17.34623 h 24.48878 q 3.74135,0 3.74135,0 0,0 0,-3.74134 v -23.58179 q 0,-3.74134 0,-3.74134 0,0 -3.74135,0 h -24.48878 q -3.74134,0 -3.74134,0 0,0 0,3.74134 v 23.58179 q 0,3.74134 0,3.74134 z m 56.57357,17.34623 v -49.31769 q 0,-6.68907 4.87508,-11.56415 4.87508,-4.87508 11.67752,-4.87508 h 36.27968 v 17.34622 h -31.74472 q -3.74134,0 -3.74134,0 0,0 0,3.74134 v 44.66936 z m 78.34161,0 q -6.80244,0 -11.67753,-4.87509 -4.76171,-4.87508 -4.76171,-11.56414 v -25.16903 h 49.3177 v -3.0611 q 0,-3.74134 0,-3.74134 0,0 -3.74135,0 h -45.57635 v -17.34622 h 50.22469 q 6.80244,0 11.56415,4.87508 4.87508,4.87508 4.87508,11.56415 v 49.31769 z m 4.64833,-17.34623 h 28.23013 v -9.06992 h -31.97147 v 5.32858 q 0,3.74134 0,3.74134 z m 57.59401,17.34623 v -65.75692 h 17.34623 v 65.75692 z m 0,-69.83839 V 553.9754 h 17.34623 v 17.45959 z m 45.80319,69.83839 q -6.68907,0 -11.56415,-4.87509 -4.87508,-4.87508 -4.87508,-11.56414 v -70.97213 h 17.45959 v 66.32379 q 0,3.74134 0,3.74134 0,0 3.74135,0 h 9.52341 v 17.34623 z m 37.75353,0 q -6.68906,0 -11.56415,-4.87509 -4.87508,-4.87508 -4.87508,-11.56414 v -3.28785 h 17.34622 v 0.56687 q 0,1.81398 0,1.81398 0,0 1.81399,0 h 28.3435 q 1.81398,0 1.81398,0 0,0 0,-1.81398 v -3.17447 q 0,-1.81399 0,-1.81399 0,0 -1.81398,0 h -31.06448 q -6.68906,0 -11.56415,-4.87508 -4.87508,-4.87508 -4.87508,-11.56415 v -8.72979 q 0,-6.68907 4.87508,-11.56415 4.87509,-4.87508 11.56415,-4.87508 h 33.78545 q 6.80244,0 11.67753,4.87508 4.87508,4.87508 4.87508,11.56415 v 3.28784 h -17.4596 v -0.56687 q 0,-1.81398 0,-1.81398 0,0 -1.81398,0 h -28.3435 q -1.81399,0 -1.81399,0 0,0 0,1.81398 v 3.17447 q 0,1.81399 0,1.81399 0,0 1.81399,0 h 31.06447 q 6.80244,0 11.67753,4.87508 4.87508,4.87508 4.87508,11.56415 v 8.7298 q 0,6.68906 -4.87508,11.56414 -4.87509,4.87509 -11.67753,4.87509 z" id="text76" style="font-size:113.374px;font-family:Orbitron;-inkscape-font-specification:'Orbitron, @wght=900';font-variation-settings:'wght' 900;stroke:#1278d1;stroke-width:2.35661;stroke-opacity:0;paint-order:fill markers stroke" aria-label="groundrails" class="gr-navy" />
</svg>