<?xml version='1.0' encoding='utf-8'?>
<svg xmlns="http://www.w3.org/2000/svg" width="1402.4878" height="306.42279" viewBox="0 0 1753.1097 383.02848">
  <defs id="defs188" />
  <path d="m 209.1,33.262159 1.66454,-0.0916 c 1.83154,-0.0975 3.6634,-0.18066 5.49568,-0.26297 1.31915,-0.0655 2.6383,-0.13124 3.95742,-0.19723 12.1562,-0.58626 24.32173,-0.91978 36.48865,-1.1869 35.2906,0.61098 42.92608,0.86218 85.57939,1.17014 17.65939,16.28127 34.04071,34.76044 51.27978,51.32288 2.31495,2.54644 1.90337,5.54887 1.88798,8.78223 l 3.1e-4,1.68622 c -4.8e-4,1.83987 -0.005,3.67968 -0.0114,5.519541 -0.002,1.27542 -0.002,2.55084 -0.003,3.82626 -0.003,3.3575 -0.01,6.71497 -0.0172,10.07244 -0.007,3.42583 -0.0103,6.85166 -0.0138,10.27749 -0.008,6.72233 -0.0193,13.44465 -0.0339,20.16697 l 1.79044,-0.005 c 5.55636,-0.0139 11.11271,-0.0245 16.66908,-0.0314 2.85689,-0.004 5.71376,-0.009 8.57062,-0.0164 2.75479,-0.008 5.50958,-0.0117 8.26437,-0.0135 1.0533,-0.002 2.1066,-0.004 3.15988,-0.008 1.47033,-0.005 2.94061,-0.005 4.41095,-0.005 l 2.54081,-0.005 c 1.87874,0.0836 1.87874,0.0836 2.5741,0.77899 v 19.47025 h -48.67562 v 84.83464 c 15.75907,-0.0275 15.75907,-0.0275 31.51811,-0.0627 3.04249,-0.004 3.04249,-0.004 4.46514,-0.004 0.99724,-0.002 1.99448,-0.004 2.99172,-0.007 1.50732,-0.005 3.01458,-0.005 4.52191,-0.005 l 2.57824,-0.005 c 1.90514,0.0836 1.90514,0.0836 2.60051,0.77898 0.0694,1.3821 0.091,2.76664 0.0923,4.15047 l 0.003,2.55058 -0.008,2.68639 0.008,2.6864 -0.003,2.55058 -0.002,2.35909 c -0.09,1.79137 -0.09,1.79137 -0.78534,2.48674 -1.49325,0.0656 -2.98869,0.0817 -4.48338,0.079 l -1.41843,3.1e-4 c -1.55395,-4.9e-4 -3.10784,-0.005 -4.66178,-0.0114 -1.07474,-0.002 -2.14947,-0.002 -3.22421,-0.003 -2.83393,-0.003 -5.66785,-0.01 -8.50177,-0.0172 -2.88972,-0.007 -5.77944,-0.0103 -8.66916,-0.0138 -5.67385,-0.008 -11.34769,-0.0193 -17.02152,-0.0339 l 0.0187,2.07447 c 0.0566,6.46555 0.0981,12.93105 0.12541,19.39677 0.0144,3.32378 0.0341,6.64734 0.0657,9.97099 0.0303,3.2102 0.0469,6.42021 0.0541,9.63055 0.005,1.22203 0.0151,2.44406 0.0302,3.66602 0.0203,1.71768 0.0229,3.43457 0.0217,5.15235 l 0.0303,1.51568 c -0.0356,4.4286 -1.56306,7.96285 -4.44492,11.32007 l -1.33369,1.11639 -1.31739,1.14355 c -4.55305,3.06381 -8.31231,3.46145 -13.67947,3.42392 l -2.17473,0.01 c -2.39998,0.008 -4.79968,0.002 -7.19967,-0.005 -1.72269,0.003 -3.44539,0.006 -5.16807,0.0111 -4.19098,0.009 -8.38184,0.007 -12.57281,0.002 -3.40804,-0.005 -6.81606,-0.005 -10.2241,-0.003 l -1.4715,7e-4 c -0.9866,6.6e-4 -1.97319,0.002 -2.95978,0.002 -9.24734,0.006 -18.49464,-6.9e-4 -27.74197,-0.0121 -7.92533,-0.009 -15.8506,-0.008 -23.77594,0.002 -9.21166,0.0112 -18.42329,0.0156 -27.63496,0.009 -0.98354,-6.7e-4 -1.96708,-0.002 -2.95063,-0.002 l -1.46627,-7e-4 c -3.40074,-0.002 -6.80146,0.002 -10.2022,0.006 -4.58373,0.006 -9.16736,0.002 -13.75109,-0.0102 -1.68018,-0.003 -3.36037,-0.002 -5.04054,0.003 -2.29799,0.005 -4.59558,-0.002 -6.89353,-0.0118 l -2.00288,0.0141 c -5.55374,-0.0484 -10.89448,-0.73486 -15.12767,-4.58158 -3.33698,-3.44596 -5.26212,-7.65417 -5.30056,-12.43645 l 0.0303,-1.51568 -0.002,-1.64666 c 0.002,-1.77611 0.0235,-3.55139 0.0454,-5.32737 0.005,-1.23927 0.009,-2.47854 0.0119,-3.71781 0.0106,-3.24671 0.0378,-6.49306 0.0687,-9.73962 0.0336,-3.9034 0.0462,-7.80691 0.0624,-11.71042 0.0269,-5.91666 0.0802,-11.83256 0.12854,-17.74927 h -52.15245 v -20.16562 h 52.15245 v -84.13928 c -16.90329,0.0275 -16.90329,0.0275 -33.80657,0.0627 -3.26318,0.004 -3.26318,0.004 -4.78897,0.004 -1.06968,0.002 -2.13935,0.004 -3.20902,0.007 -1.61668,0.005 -3.2333,0.005 -4.84998,0.005 l -2.76542,0.005 c -2.03713,-0.0836 -2.03713,-0.0836 -2.73249,-0.77898 -0.0695,-1.43284 -0.091,-2.86806 -0.0924,-4.30258 l -0.003,-2.64564 0.004,-1.38463 c 0.004,-1.39644 4e-5,-2.79273 -0.004,-4.18917 l 0.003,-2.64565 0.002,-2.44737 c 0.09,-1.85521 0.09,-1.85521 0.78534,-2.55058 1.59972,-0.0657 3.20148,-0.0817 4.80255,-0.0789 l 1.52118,-3e-4 c 1.66683,4.8e-4 3.3336,0.005 5.00042,0.0114 1.15269,0.002 2.30537,0.002 3.45807,0.003 3.0397,0.003 6.07938,0.01 9.11909,0.0172 3.09944,0.007 6.19889,0.0103 9.29835,0.0138 6.08582,0.008 12.17162,0.0193 18.25742,0.0339 l -0.008,-1.51569 c -0.0615,-12.18236 -0.10748,-24.36467 -0.13634,-36.54715 -0.0143,-5.89142 -0.0338,-11.782731 -0.0658,-17.674071 -0.0277,-5.13618 -0.0457,-10.27227 -0.0518,-15.40853 -0.004,-2.71848 -0.0121,-5.43675 -0.0324,-8.15517 -0.019,-2.56157 -0.0247,-5.12285 -0.0205,-7.68449 -0.002,-1.38243 -0.0161,-2.76484 -0.0315,-4.1472 0.0264,-5.76093 0.76008,-9.35926 4.29281,-14.01193 l 1.13812,-1.11638 1.12182,-1.14356 c 3.70591,-2.75727 7.42533,-3.48923 11.95614,-3.6816 z m -6.34187,15.82031 c -0.41787,2.15204 -0.41787,2.15204 -0.35196,4.60044 l -0.0129,1.40474 c -0.0109,1.56046 -0.002,3.12017 0.007,4.68064 -0.004,1.12714 -0.009,2.25429 -0.0146,3.38142 -0.013,3.10289 -0.009,6.20555 -0.002,9.30844 0.005,3.34418 -0.006,6.68831 -0.0153,10.03247 -0.0151,6.55361 -0.0149,13.10712 -0.009,19.660751 0.004,5.32522 0.003,10.65041 -7e-4,15.97563 l -0.002,2.29413 c -0.002,1.53784 -0.003,3.07568 -0.004,4.61351 -0.0115,14.43103 -0.005,28.86201 0.006,43.29304 0.0102,13.21078 5e-5,26.42145 -0.02,39.63222 -0.0205,13.55548 -0.0281,27.1109 -0.0214,40.66638 6.9e-4,1.53249 0.002,3.06496 0.002,4.59745 l 6.9e-4,2.28504 c 0.002,5.31996 -0.005,10.63987 -0.0155,15.95982 -0.0122,6.48171 -0.0121,12.96327 0.003,19.44497 0.008,3.30864 0.01,6.61703 -0.003,9.92566 -0.0116,3.02702 -0.007,6.0536 0.01,9.08059 0.004,1.09684 6.9e-4,2.19371 -0.008,3.29051 -0.0112,1.48824 -0.002,2.97487 0.0144,4.46303 l 5.7e-4,2.50706 c 0.57024,2.85877 1.62951,3.89372 3.91186,5.65771 1.51993,0.50741 1.51993,0.50741 3.10938,0.43754 l 1.83352,0.0274 1.99401,-0.0235 2.13406,0.0164 c 2.36291,0.0139 4.72505,0.003 7.08796,-0.008 1.69275,0.005 3.38549,0.0109 5.07824,0.0185 4.1224,0.0142 8.2446,0.0121 12.367,0.002 3.35075,-0.008 6.70145,-0.009 10.05221,-0.005 l 1.44526,0.002 c 0.96892,0.002 1.93782,0.002 2.90672,0.004 9.08578,0.01 18.17144,-0.002 27.25721,-0.0202 7.79422,-0.0155 15.58828,-0.0128 23.38251,0.004 9.05222,0.0186 18.10434,0.026 27.15657,0.0152 0.96556,-0.002 1.93111,-0.002 2.89666,-0.004 l 1.43957,-0.002 c 3.34597,-0.003 6.69188,0.002 10.03783,0.0102 4.50501,0.0108 9.00975,0.003 13.51472,-0.0171 1.65443,-0.005 3.3089,-0.004 4.96331,0.004 2.25665,0.009 4.5122,-0.002 6.76879,-0.0198 l 1.98931,0.0235 c 3.21185,-0.048 6.08203,-0.20494 8.49269,-2.62029 1.72114,-3.17937 1.26505,-7.01823 1.21713,-10.53044 0.002,-0.95813 0.005,-1.91626 0.0107,-2.87438 0.009,-2.63252 -0.008,-5.26434 -0.0283,-7.89677 -0.018,-2.83878 -0.0119,-5.67753 -0.009,-8.51635 0.002,-4.91829 -0.0109,-9.83636 -0.0344,-14.75459 -0.0339,-7.11092 -0.0448,-14.22171 -0.05,-21.3327 -0.009,-11.53685 -0.0369,-23.07358 -0.0763,-34.61036 -0.0383,-11.20734 -0.0678,-22.41464 -0.0856,-33.62203 l -0.004,-2.09318 c -0.005,-3.46524 -0.0107,-6.93049 -0.0159,-10.39574 -0.0433,-28.7507 -0.11674,-57.50127 -0.20996,-86.251871 l -1.37106,-0.008 c -4.71547,-0.0291 -9.43047,-0.0773 -14.14565,-0.13662 -1.75897,-0.0196 -3.51799,-0.0344 -5.27704,-0.0442 -2.53075,-0.0149 -5.06077,-0.0474 -7.59131,-0.0832 l -2.3776,-0.003 c -4.32584,-0.0804 -6.98327,-0.28692 -10.26393,-3.20261 -2.95309,-3.19254 -3.54437,-5.51007 -3.6196,-9.76569 l -0.042,-2.10871 -0.0352,-2.26109 -0.0438,-2.32661 c -0.0455,-2.45135 -0.0865,-4.90276 -0.12733,-7.35419 -0.0301,-1.66236 -0.0603,-3.32473 -0.091,-4.98708 -0.0744,-4.07435 -0.14522,-8.14876 -0.21323,-12.22322 -17.17818,-0.0649 -34.35634,-0.11401 -51.53463,-0.14412 -7.97588,-0.0144 -15.95168,-0.0339 -23.92751,-0.0658 -6.9504,-0.0277 -13.90073,-0.0457 -20.85118,-0.0519 -3.68145,-0.004 -7.36273,-0.0122 -11.04413,-0.0324 -3.46331,-0.0189 -6.92641,-0.0247 -10.38977,-0.0206 -1.27266,-7.7e-4 -2.54533,-0.006 -3.81794,-0.017 -1.73499,-0.0138 -3.46912,-0.0105 -5.20412,-0.003 l -1.53324,-0.0246 c -3.26353,0.0388 -4.62394,0.54892 -6.59847,3.1405 z" id="path3" style="stroke-width:0.695366" class="gr-navy" />
  <path d="m 452.62812,101.02577 c 0.49813,-0.003 0.99626,-0.006 1.5095,-0.009 1.05325,-0.004 2.10652,-0.004 3.15977,-0.002 1.60565,0.002 3.21041,-0.0141 4.81595,-0.0317 1.02494,-0.002 2.04988,-0.002 3.07482,-0.002 0.71618,-0.01 0.71618,-0.01 1.44682,-0.0194 3.68964,0.0353 5.71407,1.11109 8.5545,3.3224 1.48295,1.96299 1.20876,3.9514 1.14627,6.32619 -0.48121,2.81728 -1.70374,3.99759 -3.77563,5.92148 -0.6884,0.34421 -0.6884,0.34421 -1.39073,0.69537 -0.22946,67.4644 -0.45894,134.92881 -0.69536,204.43759 4.35994,0 8.71989,0 13.21195,0 3.47683,3.47683 3.47683,3.47683 3.88258,4.94566 -0.0206,0.70891 -0.0206,0.70891 -0.0418,1.43215 -0.008,0.519 -0.0162,1.03799 -0.0245,1.57271 -0.026,0.53156 -0.052,1.0631 -0.0788,1.61076 -0.01,0.5423 -0.0198,1.08461 -0.0299,1.64334 -0.10346,3.96601 -0.10346,3.96601 -0.92625,4.78879 -1.66755,0.0697 -3.31508,0.0947 -4.983,0.09 -0.52122,0.002 -1.04244,0.002 -1.57947,0.004 -1.7312,0.003 -3.46235,6.9e-4 -5.19355,-0.002 -1.1978,4.7e-4 -2.39559,0.002 -3.59338,0.002 -2.51367,6.9e-4 -5.02731,-4.6e-4 -7.54097,-0.004 -3.22943,-0.004 -6.45881,-0.002 -9.68823,0.003 -2.47435,0.003 -4.9487,0.002 -7.42305,-9e-5 -1.19109,-4.6e-4 -2.38218,1.2e-4 -3.57328,0.002 -1.66177,0.002 -3.32348,-7e-4 -4.98525,-0.005 -0.49707,0.002 -0.99414,0.003 -1.50628,0.004 -3.39726,-0.0148 -3.39726,-0.0148 -4.17208,-0.7896 -0.1256,-2.05274 -0.19344,-4.07368 -0.2173,-6.12791 -0.0202,-0.57054 -0.0403,-1.14109 -0.0611,-1.72891 -0.005,-0.55261 -0.0117,-1.10523 -0.0177,-1.67458 -0.0101,-0.50539 -0.0203,-1.01077 -0.0308,-1.53147 0.49875,-2.21861 1.26407,-2.8878 3.10826,-4.23518 2.26838,-0.34616 4.49198,-0.26171 6.77982,-0.17384 0.6176,0.0126 1.2352,0.0251 1.87151,0.038 1.52098,0.0327 3.04041,0.0784 4.56062,0.13581 -0.009,-25.99684 -0.0365,-51.9936 -0.0882,-77.99038 -0.006,-3.06733 -0.0121,-6.13466 -0.0178,-9.20199 -0.002,-0.61067 -0.002,-1.22133 -0.004,-1.8505 -0.0185,-9.89515 -0.0249,-19.79027 -0.0267,-29.68543 -0.002,-10.14908 -0.0174,-20.29809 -0.0449,-30.44714 -0.0165,-6.26539 -0.0228,-12.53063 -0.016,-18.79604 0.004,-4.29314 -0.005,-8.58614 -0.0244,-12.87923 -0.0107,-2.47907 -0.0156,-4.95781 -0.005,-7.43687 0.0108,-2.68496 -0.005,-5.36937 -0.0238,-8.05429 0.008,-0.78735 0.0148,-1.57471 0.0225,-2.38592 0.0562,-4.18236 0.0562,-4.18236 -2.17615,-7.52775 -0.58333,-0.31796 -1.16666,-0.63592 -1.76767,-0.96351 -1.75567,-2.4245 -1.69304,-4.72676 -1.39074,-7.64903 2.57778,-4.71095 4.79163,-5.77875 9.96872,-5.77192 z" id="path5-0" style="stroke-width:0.695366" class="gr-navy" />
  <path d="m 115.59564,100.95786 c 0.51258,-0.002 1.02518,-0.004 1.55329,-0.006 1.08184,-0.002 2.16371,0.003 3.24551,0.0111 1.64992,0.0111 3.29866,1e-4 4.94854,-0.0132 1.05347,0.002 2.10692,0.004 3.16039,0.008 0.49048,-0.004 0.98096,-0.008 1.4863,-0.0128 3.05057,0.0433 4.97908,0.50587 7.40406,2.37594 1.99438,2.85862 2.41651,5.05927 1.84435,8.41503 -0.905,2.63371 -2.889,4.27621 -5.32118,5.49229 -0.22947,67.46442 -0.45894,134.92882 -0.69536,204.4376 4.13047,0 8.26095,0 12.51658,0 3.47683,2.0861 3.47683,2.0861 4.1722,3.47683 0.0682,1.99175 0.0967,3.96273 0.0869,5.95407 0.003,0.55172 0.005,1.10343 0.008,1.67186 -0.007,4.10725 -0.007,4.10725 -0.79043,4.89066 -1.66755,0.0697 -3.31509,0.0947 -4.98301,0.09 -0.52122,0.002 -1.04244,0.003 -1.57946,0.004 -1.7312,0.003 -3.46236,6.9e-4 -5.19356,-0.002 -1.19779,4.7e-4 -2.39558,0.002 -3.59337,0.002 -2.51367,6.9e-4 -5.02732,-4.7e-4 -7.54098,-0.004 -3.22943,-0.004 -6.45881,-0.002 -9.68823,0.003 -2.47435,0.003 -4.9487,0.002 -7.42304,-9e-5 -1.19109,-4.7e-4 -2.38219,1.1e-4 -3.57329,0.002 -1.66177,0.002 -3.32348,-7e-4 -4.98524,-0.005 -0.49708,0.002 -0.994154,0.003 -1.506284,0.004 -3.39726,-0.0148 -3.39726,-0.0148 -4.17209,-0.78961 -0.14421,-2.05403 -0.22573,-4.07168 -0.26076,-6.12791 -0.026,-0.57054 -0.052,-1.14108 -0.0788,-1.72891 -0.008,-0.55262 -0.0161,-1.10522 -0.0245,-1.67458 -0.0138,-0.50539 -0.0275,-1.01077 -0.0418,-1.53148 0.40574,-1.4537 0.40574,-1.4537 3.88257,-4.23517 4.359954,0 8.719894,0 13.211954,0 0,-67.4644 0,-134.92881 0,-204.4376 -1.14735,-0.45894 -2.2947,-0.91788 -3.47683,-1.39073 -2.1114,-1.96059 -2.56846,-4.09428 -2.82764,-6.93464 0.0921,-2.81089 1.32942,-4.77512 3.26921,-6.72447 2.28278,-1.30958 4.40499,-1.24243 6.96571,-1.22044 z" id="path6" style="stroke-width:0.695366" class="gr-navy" />
  <path d="m 326.01447,202.29659 c 1.86237,1.48482 3.63503,3.02057 5.38637,4.63396 0.43743,0.38185 0.87486,0.76371 1.32554,1.15713 10.17719,9.39077 16.79142,23.71293 17.38144,37.41938 0.0224,0.80853 0.0448,1.61705 0.0679,2.45008 0.0658,1.16976 0.0658,1.16976 0.1331,2.36316 0.22315,6.29147 -0.92244,11.87847 -2.56723,17.90023 -0.29119,1.08392 -0.55001,2.17647 -0.80095,3.2704 -3.1843,12.82042 -14.33292,24.35732 -25.27492,31.18282 -13.10102,7.8376 -29.6111,10.16686 -44.54688,7.1275 -15.58095,-4.44875 -28.75689,-14.59191 -36.8269,-28.62137 -1.83155,-3.33177 -3.38634,-6.77035 -4.8516,-10.27567 -0.22858,-0.53782 -0.45715,-1.07564 -0.69266,-1.62976 -4.69327,-11.67706 -3.54343,-28.78298 1.17887,-40.24702 6.74794,-15.55233 18.18077,-27.66588 33.9344,-34.13541 19.09232,-7.32792 39.61257,-4.83008 56.15352,7.40457 z m -71.79926,15.75981 c -9.9946,11.98969 -12.69379,25.34701 -11.67181,40.45346 1.00162,8.31686 5.08876,16.99101 10.28108,23.52021 0.48315,0.61222 0.96629,1.22445 1.46407,1.85522 6.20848,7.34281 13.67436,12.05692 22.87375,14.83356 0.54499,0.20617 1.08998,0.41234 1.65149,0.62475 10.36205,3.71534 23.45399,1.37066 33.25805,-3.10742 11.93688,-6.10181 21.26632,-15.77361 25.54384,-28.59149 4.09909,-13.69664 3.7598,-26.90043 -2.73801,-39.85317 -7.2509,-12.98115 -17.94055,-20.89499 -31.92419,-25.46743 -3.71998,-1.05195 -7.29646,-1.16548 -11.14504,-1.13031 -0.58578,-0.005 -1.17156,-0.0108 -1.77509,-0.0163 -13.99929,0.0431 -26.27243,6.97582 -35.81814,16.87893 z" id="path9" style="stroke-width:0.695366" class="gr-teal" />
  <path d="m 342.10161,33.384699 c 2.61427,0.57549 4.03246,2.153 5.83556,4.01372 l 1.16988,1.16497 c 1.27559,1.27446 2.53833,2.56089 3.80124,3.84791 0.88689,0.89162 1.77451,1.78252 2.66282,2.67273 2.34033,2.34967 4.66974,4.70989 6.99735,7.07216 1.88973,1.91422 3.78709,3.82078 5.68493,5.72695 2.27592,2.28626 4.54825,4.57608 6.81969,6.86679 l 1.29801,1.30837 c 8.20294,8.27956 8.20294,8.27956 11.84005,12.56792 1.65653,1.9261 3.51621,3.64083 5.35433,5.39024 3.79804,4.17784 2.31626,7.45242 0.4183,5.39723 l -1.39073,1.39073 c -1.90788,0.18597 -1.90788,0.18597 -4.36845,0.20203 l -1.35732,0.0142 c -1.485,0.0132 -2.96977,0.0159 -4.45482,0.0175 -1.03256,0.004 -2.06513,0.009 -3.0977,0.0141 -2.16756,0.008 -4.33505,0.0109 -6.50263,0.0101 -2.77168,-1.4e-4 -5.54287,0.0188 -8.31443,0.0427 -2.1345,0.0155 -4.26889,0.0183 -6.40344,0.0175 -1.02132,0.002 -2.04265,0.008 -3.06392,0.0185 -1.43317,0.0137 -2.86527,0.01 -4.29846,0.002 l -2.46726,0.006 c -3.51332,-0.53427 -6.16599,-2.4754 -8.389,-5.2114 -7.34671,-10.07551 -2.21648,-35.69454 -2.21648,-39.63587 0.0836,-7.54792 0,-9.73511 0,-9.73511 2.78146,-2.78147 2.78146,-2.78147 4.44248,-3.18118 z" id="path15-9" style="stroke-width:0.695366" class="gr-teal" />
  <path d="m 236.89906,159.29247 c 0.49734,-0.004 0.99468,-0.009 1.50709,-0.0131 1.66678,-0.0111 3.33286,-0.002 4.99965,0.006 1.1948,-0.004 2.38959,-0.009 3.58438,-0.0148 3.24551,-0.0127 6.49078,-0.008 9.73631,0.002 3.39444,0.007 6.78887,5.1e-4 10.18332,-0.004 5.70067,-0.005 11.40125,0.002 17.10191,0.0149 6.59332,0.0152 13.18641,0.0102 19.77972,-0.005 5.65807,-0.0126 11.31607,-0.0144 16.97417,-0.007 3.38056,0.004 6.761,0.005 10.14156,-0.004 3.17803,-0.008 6.35576,-0.003 9.53376,0.0136 1.16724,0.004 2.33452,0.003 3.50175,-0.004 1.59179,-0.008 3.18258,0.002 4.77431,0.0158 0.89121,0.002 1.7824,0.002 2.70061,0.004 2.62717,0.41145 3.45779,1.0113 5.01641,3.13148 0.34768,2.12956 0.34768,2.12956 0,4.17219 -1.64725,1.72515 -2.6424,2.06986 -5.02921,2.34863 -0.89723,6.9e-4 -1.79446,0.002 -2.71888,0.002 -0.75101,0.005 -0.75101,0.005 -1.51718,0.01 -1.67792,0.008 -3.35544,0.002 -5.03336,-0.005 -1.20278,0.003 -2.40554,0.006 -3.6083,0.0111 -3.26699,0.01 -6.53384,0.005 -9.80083,-7e-4 -3.41611,-0.005 -6.83221,-3.9e-4 -10.24833,0.003 -5.73631,0.004 -11.47256,-0.002 -17.20887,-0.0111 -6.63675,-0.0114 -13.27336,-0.008 -19.91011,0.004 -5.69407,0.009 -11.38812,0.0108 -17.08221,0.005 -3.40267,-0.004 -6.80528,-0.004 -10.20794,0.004 -3.19797,0.006 -6.39576,0.002 -9.5937,-0.0102 -1.17538,-0.003 -2.35079,-0.002 -3.52617,0.003 -1.60101,0.005 -3.20146,-0.002 -4.80245,-0.0118 -0.89697,-6.9e-4 -1.79394,-0.002 -2.71809,-0.002 -2.16024,-0.26264 -2.16024,-0.26264 -3.48917,-1.19457 -1.20965,-1.84389 -1.06349,-3.18208 -0.75717,-5.32636 2.22856,-3.03899 4.06323,-3.13037 7.71702,-3.13466 z" id="path19-4" style="stroke-width:0.695366" class="gr-navy" />
  <path d="m 236.17754,130.87076 c 0.50292,-0.004 1.00584,-0.006 1.52398,-0.01 1.6897,-0.008 3.37899,-0.002 5.06868,0.005 1.20952,-0.003 2.41903,-0.006 3.62854,-0.011 3.28858,-0.01 6.57703,-0.005 9.86561,6.9e-4 3.43746,0.005 6.87491,3.9e-4 10.31237,-0.003 5.77321,-0.004 11.54636,0.002 17.31955,0.0111 6.67979,0.0114 13.35944,0.008 20.03923,-0.003 5.72949,-0.009 11.45896,-0.0108 17.18846,-0.005 3.42445,0.004 6.84884,0.004 10.27328,-0.004 3.21907,-0.006 6.43796,-0.002 9.65701,0.0102 1.18324,0.003 2.36649,0.002 3.54972,-0.003 1.61171,-0.005 3.22285,0.002 4.83453,0.0118 1.3545,0.002 1.3545,0.002 2.73637,0.002 2.17304,0.26252 2.17304,0.26252 3.50663,1.19175 1.18186,1.81693 1.01586,3.22225 0.75251,5.32907 -0.75251,1.15687 -0.75251,1.15687 -2.0861,2.0861 -2.17304,0.26251 -2.17304,0.26251 -4.90941,0.2649 -0.50291,0.004 -1.00582,0.006 -1.52397,0.01 -1.6897,0.008 -3.37899,0.002 -5.06868,-0.005 -1.20951,0.003 -2.41903,0.006 -3.62854,0.0111 -3.28858,0.01 -6.57702,0.005 -9.8656,-7e-4 -3.43747,-0.005 -6.87492,-3.8e-4 -10.31238,0.003 -5.77321,0.004 -11.54636,-0.002 -17.31955,-0.0111 -6.67979,-0.0114 -13.35944,-0.008 -20.03923,0.004 -5.72949,0.009 -11.45895,0.0108 -17.18846,0.005 -3.42445,-0.004 -6.84883,-0.004 -10.27328,0.004 -3.21906,0.006 -6.43796,0.002 -9.65701,-0.0102 -1.18324,-0.003 -2.36649,-0.002 -3.54972,0.003 -1.6117,0.005 -3.22285,-0.002 -4.83454,-0.012 -0.90299,-7e-4 -1.80599,-0.002 -2.73635,-0.002 -2.17305,-0.26252 -2.17305,-0.26252 -3.50664,-1.19174 -1.18186,-1.81695 -1.01586,-3.22227 -0.75251,-5.32909 1.75809,-2.70281 3.98201,-2.34838 6.9955,-2.351 z" id="path20-8" style="stroke-width:0.695366" class="gr-navy" />
  <path d="m 315.36396,226.61809 c 2.91078,0.65344 4.29952,1.76197 6.30175,3.9549 0.56499,1.95571 0.56499,1.95571 0,4.17219 -1.4284,2.0412 -3.13937,3.7745 -4.86756,5.56293 -1.0469,1.15547 -2.08984,2.31453 -3.12915,3.47683 -0.53065,0.58802 -1.06129,1.17604 -1.60803,1.78188 -1.33027,1.48229 -2.64682,2.97456 -3.95489,4.47641 -2.3599,2.70951 -4.76625,5.37564 -7.17368,8.04289 -1.31568,1.46632 -2.61642,2.94334 -3.90872,4.43024 -4.16669,4.7786 -8.39647,9.49417 -12.90773,13.95078 -0.22947,0.22947 -0.45894,0.45894 -0.69537,0.69537 -3.92687,-0.18408 -5.68811,-1.00637 -8.34439,-3.86798 -0.59518,-0.63194 -1.19037,-1.26388 -1.8036,-1.91497 -1.77283,-1.97716 -3.53076,-3.96212 -5.23969,-5.99481 -1.34397,-1.52502 -1.34397,-1.52502 -3.14544,-3.12915 -5.57017,-5.12486 -5.57017,-5.12486 -5.71776,-8.30093 0.66667,-2.76189 0.97237,-3.81445 3.38991,-5.30217 2.07769,-0.47122 2.88495,-0.6111 4.86756,0 2.56518,1.95128 4.71263,4.25633 6.9102,6.60598 0.60819,0.63015 1.21638,1.2603 1.84299,1.90954 1.4978,1.5551 2.98309,3.12038 4.45876,4.69644 2.80216,-1.28197 4.57328,-3.12241 6.60598,-5.38909 0.36141,-0.39675 0.72281,-0.79351 1.09517,-1.2023 3.02899,-3.34631 5.95704,-6.77661 8.87542,-10.21929 2.12093,-2.49087 4.30678,-4.85367 6.66115,-7.12784 2.47446,-2.46223 4.84366,-5.11414 6.89934,-7.93695 1.42274,-1.93185 2.21393,-2.81531 4.58778,-3.3709 z" id="path23-8" style="stroke-width:0.695366" class="gr-teal" />
  <path d="m 239.56483,100.87501 c 1.16218,-0.007 1.16218,-0.007 2.34784,-0.0147 2.56452,-0.0122 5.1285,-0.004 7.69303,0.005 1.78058,-0.002 3.56116,-0.005 5.34173,-0.008 3.73359,-0.004 7.46699,0.002 11.20055,0.0149 4.31265,0.0152 8.62494,0.0102 12.93759,-0.005 4.15243,-0.0142 8.30475,-0.0127 12.4572,-0.004 1.76522,0.002 3.53045,-4.3e-4 5.29566,-0.007 2.46721,-0.007 4.93371,0.004 7.40086,0.0192 0.73089,-0.005 1.46177,-0.0113 2.2148,-0.0171 3.08125,0.0359 4.97648,0.094 7.69562,1.63265 1.25771,1.52578 1.25771,1.52578 1.25771,4.04648 -0.69537,2.34686 -0.69537,2.34686 -2.78147,3.7376 -1.52145,0.17888 -1.52145,0.17888 -3.32547,0.18595 -0.68441,0.006 -1.36883,0.0119 -2.07397,0.018 -1.12497,-6.9e-4 -1.12497,-6.9e-4 -2.27267,-0.002 -1.18572,0.007 -1.18572,0.007 -2.3954,0.0142 -2.61999,0.0132 -5.23986,0.0159 -7.85989,0.0175 -1.81607,0.004 -3.63216,0.009 -5.44825,0.0141 -3.80898,0.009 -7.61793,0.011 -11.42693,0.0101 -4.40468,-7e-4 -8.80912,0.0138 -13.21373,0.0358 -4.23596,0.0204 -8.47182,0.0253 -12.70782,0.0246 -1.80326,0.002 -3.60652,0.008 -5.40974,0.0185 -2.51748,0.0136 -5.03434,0.01 -7.55182,0.002 -0.74999,0.008 -1.49996,0.0156 -2.27267,0.0237 -0.68441,-0.005 -1.36882,-0.0117 -2.07397,-0.0177 -0.89298,0.002 -0.89298,0.002 -1.80402,0.002 -1.52145,-0.34618 -1.52145,-0.34618 -2.75333,-1.64976 -1.0764,-1.86228 -1.22502,-2.83591 -0.85422,-4.95472 2.44908,-3.86988 6.28077,-3.17291 10.38278,-3.14138 z" id="path26-2" style="stroke-width:0.695366" class="gr-navy" />
  <path d="m 470.47403,321.66593 c 2.13059,-0.0941 4.257,-0.16288 6.38867,-0.2173 0.60102,-0.0291 1.20204,-0.0583 1.82127,-0.0883 2.99651,-0.0574 4.57391,0.0323 7.15059,1.6773 1.78664,2.83159 1.74908,4.91657 1.58901,8.18956 -0.01,0.54231 -0.0198,1.08461 -0.0299,1.64335 -0.10345,3.966 -0.10345,3.966 -0.92625,4.78879 -1.6713,0.0661 -3.32253,0.0873 -4.99403,0.0789 -0.78351,1.5e-4 -0.78351,1.5e-4 -1.58285,3.1e-4 -1.73455,-4.8e-4 -3.46905,-0.006 -5.20359,-0.0114 -1.19945,-0.002 -2.39891,-0.002 -3.59837,-0.003 -3.16317,-0.003 -6.32632,-0.01 -9.48949,-0.0171 -3.22529,-0.007 -6.45057,-0.0103 -9.67587,-0.0138 -6.333,-0.008 -12.66599,-0.0193 -18.99898,-0.0339 0,-0.22947 0,-0.45894 0,-0.69537 14.9156,0 29.8312,0 45.19879,0 0,-0.45894 0,-0.91788 0,-1.39073 2.06524,-0.22947 4.13047,-0.45894 6.25829,-0.69536 0.0376,-1.5644 0.0646,-3.12905 0.0869,-4.69372 0.0162,-0.87128 0.0323,-1.74255 0.0489,-2.64023 0.0142,-2.56014 0.0142,-2.56014 -1.52654,-5.18264 -4.13048,0 -8.26094,0 -12.51658,0 0,-0.22947 0,-0.45894 0,-0.69537 z" id="path33-4" style="stroke-width:0.695366" class="gr-navy" />
  <path d="m 97.062506,322.36129 c 0.45894,0.22948 0.91789,0.45895 1.39073,0.69537 -0.45894,2.75365 -0.91788,5.5073 -1.39073,8.34439 -0.22947,0 -0.45894,0 -0.69536,0 -0.22947,1.83577 -0.45894,3.67153 -0.69537,5.56293 -0.22947,0 -0.45894,0 -0.69537,0 -0.0562,-2.04302 -0.0977,-4.0845 -0.13038,-6.12791 -0.0175,-0.57951 -0.035,-1.15901 -0.053,-1.75607 -0.007,-0.55799 -0.0134,-1.11599 -0.0204,-1.69088 -0.0109,-0.51346 -0.0219,-1.02691 -0.0331,-1.55592 0.29889,-1.749 0.98408,-2.35544 2.32291,-3.47191 z" id="path45-5" style="stroke-width:0.695366" class="gr-navy" />
  <path d="m 236.26608,102.14759 c 1.32708,0.12504 1.32708,0.12504 2.68096,0.25261 0.67855,0.0744 1.35711,0.1488 2.05622,0.22545 0,0.22947 0,0.45894 0,0.69537 -4.13047,0.3442 -4.13047,0.3442 -8.34439,0.69536 -0.68841,1.6063 -1.37683,3.21259 -2.0861,4.86757 -1.39073,-1.39074 -1.39073,-1.39074 -1.60803,-3.08569 0.2173,-1.78188 0.2173,-1.78188 0.96156,-2.94987 2.09852,-1.43583 3.86328,-0.95072 6.33978,-0.7008 z" id="path46-5" style="stroke-width:0.695366" class="gr-navy" />
  <path d="m 229.87741,133.91712 c 2.08146,0.69382 2.74507,1.21842 4.17219,2.78146 -0.45894,0.91789 -0.91788,1.83577 -1.39073,2.78147 -0.91788,-0.45894 -1.83577,-0.91789 -2.78146,-1.39073 0,-1.37683 0,-2.75365 0,-4.1722 z" id="path55-1" style="stroke-width:0.695366" class="gr-navy" />
  <path d="m 249.34765,209.01664 c 0.45894,0.68842 0.91789,1.37683 1.39073,2.0861 -1.12885,1.18827 -2.28997,2.34649 -3.47683,3.47683 -0.45894,0 -0.91788,0 -1.39073,0 0.37708,-2.63953 1.5307,-3.80513 3.47683,-5.56293 z" id="path56-7" style="stroke-width:0.695366" class="gr-teal" />
  <path d="m 245.17546,230.57299 c 0.87009,2.46624 0.50265,3.97925 -0.30423,6.43213 -0.19988,0.62029 -0.39978,1.24058 -0.60572,1.87966 -0.15866,0.4697 -0.31732,0.9394 -0.48079,1.42333 -0.22947,0 -0.45894,0 -0.69536,0 -0.24071,-3.93156 0.39341,-6.2792 2.0861,-9.73512 z" id="path59-1" style="stroke-width:0.695366" class="gr-teal" />
  <path d="m 386.33475,332.79178 c 0.68841,0.22947 1.37682,0.45895 2.08609,0.69537 -1.34382,1.40782 -2.52527,2.37889 -4.17219,3.47683 -0.68841,0 -1.37683,0 -2.0861,0 0,-0.45894 0,-0.91788 0,-1.39073 0.68841,0 1.37682,0 2.0861,0 0,-0.45894 0,-0.91789 0,-1.39073 0.68841,-0.45895 1.37682,-0.91789 2.0861,-1.39074 z" id="path64-1" style="stroke-width:0.695366" class="gr-navy" />
  <path d="m 232.65887,131.13566 c -0.45894,2.06523 -0.91788,4.13047 -1.39073,6.25829 -0.68841,0 -1.37683,0 -2.0861,0 -0.25496,-3.82451 -0.25496,-3.82451 0.95613,-5.47601 1.12997,-0.78228 1.12997,-0.78228 2.5207,-0.78228 z" id="path65-5" style="stroke-width:0.695366" class="gr-navy" />
  <path d="m 378.68572,69.943449 c 2.63907,1.03678 3.9013,2.6125 5.56293,4.86756 -2.0861,0 -2.0861,0 -3.9549,-1.65149 -1.60803,-1.82534 -1.60803,-1.82534 -1.60803,-3.21607 z" id="path66-2" style="stroke-width:0.695366" class="gr-teal" />
  <path d="m 262.55961,248.6525 c 1.60629,0 3.21259,0 4.86756,0 0,0.68842 0,1.37683 0,2.0861 -0.65973,-0.0143 -1.31946,-0.0287 -1.99918,-0.0434 -2.10811,-0.11336 -2.10811,-0.11336 -3.56375,0.73883 0.22947,-0.91789 0.45894,-1.83577 0.69537,-2.78147 z" id="path69-7" style="stroke-width:0.695366" class="gr-teal" />
  <path d="m 315.45088,227.0527 c 1.01111,0.0215 1.01111,0.0215 2.04264,0.0434 0,0.22947 0,0.45894 0,0.69537 -1.14736,0 -2.29471,0 -3.47683,0 0,0.68841 0,1.37682 0,2.08609 -1.14736,0.45895 -2.29471,0.91789 -3.47683,1.39074 2.45662,-4.16557 2.45662,-4.16557 4.91102,-4.21566 z" id="path71-6" style="stroke-width:0.695366" class="gr-teal" />
  <path d="m 231.26814,160.34103 c 0.68841,0.22947 1.37682,0.45894 2.0861,0.69536 -0.83709,1.73397 -1.70663,3.25531 -2.78147,4.86756 -0.4346,-1.99917 -0.4346,-1.99917 -0.69536,-4.17219 0.45894,-0.45894 0.91788,-0.91788 1.39073,-1.39073 z" id="path72-1" style="stroke-width:0.695366" class="gr-navy" />
  <path d="m 112.36056,101.23492 c 0,0.45894 0,0.91788 0,1.39073 -0.68841,0 -1.37682,0 -2.08609,0 -0.45895,0.91789 -0.91789,1.83577 -1.39074,2.78147 -0.68841,-0.45895 -1.37682,-0.91789 -2.08609,-1.39074 3.21606,-2.78146 3.21606,-2.78146 5.56292,-2.78146 z" id="path73-4" style="stroke-width:0.695366" class="gr-navy" />
  <path d="m 613.78269,205.2052 v -23.32346 h 47.10127 q 4.99788,0 4.99788,0 0,0 0,-4.99788 v -6.36094 h -43.92079 q -9.08706,0 -15.59946,-6.51239 -6.51239,-6.5124 -6.51239,-15.44801 v -43.92079 q 0,-8.935607 6.51239,-15.448 6.5124,-6.512394 15.59946,-6.512394 h 45.1324 q 9.08706,0 15.448,6.512394 6.51239,6.512393 6.51239,15.448 v 78.60307 q 0,9.08706 -6.51239,15.44801 -6.36094,6.51239 -15.448,6.51239 z m 14.2364,-57.85428 h 32.86487 q 4.99788,0 4.99788,0 0,0 0,-4.99789 v -31.50181 q 0,-4.99788 0,-4.99788 0,0 -4.99788,0 h -32.86487 q -4.99789,0 -4.99789,0 0,0 0,4.99788 v 31.50181 q 0,4.99789 0,4.99789 z m 73.15098,23.172 v -65.88119 q 0,-8.935607 6.51239,-15.448 6.5124,-6.512394 15.59946,-6.512394 h 48.46432 v 23.172004 h -42.40628 q -4.99789,0 -4.99789,0 0,0 0,4.99788 v 59.6717 z m 102.22974,0 q -8.93561,0 -15.44801,-6.51239 -6.51239,-6.5124 -6.51239,-15.44801 v -43.92079 q 0,-8.935607 6.51239,-15.448 6.5124,-6.512394 15.44801,-6.512394 h 45.13239 q 9.08706,0 15.44801,6.512394 6.51239,6.512393 6.51239,15.448 v 43.92079 q 0,8.93561 -6.51239,15.44801 -6.36095,6.51239 -15.44801,6.51239 z m 6.20949,-23.172 h 32.71341 q 4.99789,0 4.99789,0 0,0 0,-4.99789 v -31.50181 q 0,-4.99788 0,-4.99788 0,0 -4.99789,0 H 809.6093 q -4.99789,0 -4.99789,0 0,0 0,4.99788 v 31.50181 q 0,4.99789 0,4.99789 z m 94.80817,23.172 q -9.08706,0 -15.59945,-6.51239 -6.36094,-6.5124 -6.36094,-15.44801 V 82.681336 h 23.172 v 59.671694 q 0,4.99789 0,4.99789 0,0 4.99789,0 h 32.71341 q 4.99789,0 4.99789,0 0,0 0,-4.99789 V 82.681336 h 23.172 v 65.881184 q 0,8.93561 -6.51239,15.44801 -6.36095,6.51239 -15.44801,6.51239 z m 83.44945,0 V 82.681336 h 67.09278 q 9.0871,0 15.448,6.512394 6.5124,6.512393 6.5124,15.448 v 65.88119 h -23.172 v -59.6717 q 0,-4.99788 0,-4.99788 0,0 -4.9979,0 h -32.7134 q -4.9979,0 -4.9979,0 0,0 0,4.99788 v 59.6717 z m 122.67518,0 q -9.0871,0 -15.5995,-6.51239 -6.3609,-6.5124 -6.3609,-15.44801 v -43.92079 q 0,-8.935607 6.3609,-15.448 6.5124,-6.512394 15.5995,-6.512394 h 44.0722 v -28.77569 h 23.172 V 170.52292 Z m 6.3609,-23.172 h 32.7135 q 4.9978,0 4.9978,0 0,0 0,-4.99789 v -31.50181 q 0,-4.99788 0,-4.99788 0,0 -4.9978,0 h -32.7135 q -4.9978,0 -4.9978,0 0,0 0,4.99788 v 31.50181 q 0,4.99789 0,4.99789 z m 75.5741,23.172 v -65.88119 q 0,-8.935607 6.5124,-15.448 6.5124,-6.512394 15.5994,-6.512394 h 48.4643 v 23.172004 h -42.4062 q -4.9979,0 -4.9979,0 0,0 0,4.99788 v 59.6717 z m 104.6528,0 q -9.087,0 -15.5994,-6.51239 -6.361,-6.5124 -6.361,-15.44801 V 114.9404 h 65.8812 v -4.08918 q 0,-4.99788 0,-4.99788 0,0 -4.9979,0 h -60.8833 V 82.681336 h 67.0928 q 9.0871,0 15.448,6.512394 6.5124,6.512393 6.5124,15.448 v 65.88119 z m 6.2095,-23.172 h 37.7113 v -12.11609 h -42.7092 v 7.1182 q 0,4.99789 0,4.99789 z m 76.9371,23.172 V 82.681336 h 23.172 v 87.841584 z m 0,-93.29382 V 53.905646 h 23.172 V 77.2291 Z m 61.1864,93.29382 q -8.9356,0 -15.448,-6.51239 -6.5124,-6.5124 -6.5124,-15.44801 V 53.754195 h 23.3234 v 88.598835 q 0,4.99789 0,4.99789 0,0 4.9979,0 h 12.7219 v 23.172 z m 50.4332,0 q -8.9356,0 -15.448,-6.51239 -6.5124,-6.5124 -6.5124,-15.44801 v -4.39208 h 23.172 v 0.75726 q 0,2.42322 0,2.42322 0,0 2.4232,0 h 37.8627 q 2.4233,0 2.4233,0 0,0 0,-2.42322 v -4.24063 q 0,-2.42322 0,-2.42322 0,0 -2.4233,0 h -41.4975 q -8.9356,0 -15.448,-6.51239 -6.5124,-6.51239 -6.5124,-15.448 v -11.66173 q 0,-8.935607 6.5124,-15.448 6.5124,-6.512394 15.448,-6.512394 h 45.1324 q 9.087,0 15.5994,6.512394 6.5124,6.512393 6.5124,15.448 v 4.39208 h -23.3234 v -0.75725 q 0,-2.42322 0,-2.42322 0,0 -2.4233,0 h -37.8627 q -2.4232,0 -2.4232,0 0,0 0,2.42322 v 4.24062 q 0,2.42322 0,2.42322 0,0 2.4232,0 h 41.4976 q 9.087,0 15.5994,6.51239 6.5124,6.5124 6.5124,15.44801 v 11.66172 q 0,8.93561 -6.5124,15.44801 -6.5124,6.51239 -15.5994,6.51239 z" id="text76" style="font-size:151.451px;font-family:Orbitron;-inkscape-font-specification:'Orbitron, @wght=900';font-variation-settings:'wght' 900;stroke:#1278d1;stroke-width:3.14809;stroke-opacity:0;paint-order:fill markers stroke" transform="scale(0.94768037,1.0552081)" aria-label="groundrails" class="gr-navy" />
  <path d="M 569.88495,305.16022 V 264.6834 h 32.10037 q 3.42928,0 5.90287,2.47358 2.47358,2.41737 2.47358,5.84666 v 23.83634 q 0,3.42929 -2.47358,5.90287 -2.47359,2.41737 -5.90287,2.41737 z m 10.56895,-8.76998 h 19.22649 q 1.85518,0 1.85518,0 0,0 0,-1.85519 v -19.22648 q 0,-1.85519 0,-1.85519 0,0 -1.85518,0 H 580.4539 q -1.85519,0 -1.85519,0 0,0 0,1.85519 v 19.22648 q 0,1.85519 0,1.85519 z m 43.62498,8.76998 q -3.31685,0 -5.73422,-2.41737 -2.41736,-2.41736 -2.41736,-5.73421 v -16.30317 q 0,-3.31685 2.41736,-5.73421 2.41737,-2.41737 5.73422,-2.41737 h 16.7529 q 3.37307,0 5.73422,2.41737 2.41736,2.41736 2.41736,5.73421 v 12.48036 h -24.45474 v 1.51788 q 0,1.85518 0,1.85518 0,0 1.85519,0 h 22.59955 v 8.60133 z m 0.44974,-19.50758 h 15.85342 v -2.64224 q 0,-1.85518 0,-1.85518 0,0 -1.85519,0 h -12.14304 q -1.85519,0 -1.85519,0 0,0 0,1.85518 z m 38.6216,19.50758 q -3.37307,0 -5.79044,-2.41737 -2.41736,-2.41736 -2.41736,-5.73421 v -34.12421 h 8.60132 v 9.66946 h 12.08683 v 8.60133 h -12.08683 v 13.54849 q 0,1.85518 0,1.85518 0,0 1.85519,0 h 10.23164 v 8.60133 z m 25.18558,0 q -3.31685,0 -5.73421,-2.41737 -2.41737,-2.41736 -2.41737,-5.73421 v -16.30317 q 0,-3.31685 2.41737,-5.73421 2.41736,-2.41737 5.73421,-2.41737 h 16.75291 q 3.37307,0 5.73421,2.41737 2.41737,2.41736 2.41737,5.73421 v 12.48036 h -24.45474 v 1.51788 q 0,1.85518 0,1.85518 0,0 1.85518,0 h 22.59956 v 8.60133 z m 0.44975,-19.50758 h 15.85342 v -2.64224 q 0,-1.85518 0,-1.85518 0,0 -1.85519,0 h -12.14305 q -1.85518,0 -1.85518,0 0,0 0,1.85518 z m 29.96405,19.50758 v -24.45475 q 0,-3.31685 2.41737,-5.73421 2.41737,-2.41737 5.79043,-2.41737 h 17.9897 v 8.60133 h -15.74098 q -1.85519,0 -1.85519,0 0,0 0,1.85518 v 22.14982 z m 29.68306,0 v -32.60633 h 39.24002 q 3.37307,0 5.73422,2.41737 2.41736,2.41736 2.41736,5.73421 v 24.45475 h -8.5451 V 283.0104 q 0,-1.85518 0,-1.85518 0,0 -1.85519,0 h -7.08344 q -1.85519,0 -1.85519,0 0,0 0,1.85518 v 22.14982 H 767.8278 V 283.0104 q 0,-1.85518 0,-1.85518 0,0 -1.85519,0 h -7.08344 q -1.85519,0 -1.85519,0 0,0 0,1.85518 v 22.14982 z m 54.86861,0 v -32.60633 h 8.60132 v 32.60633 z m 0,-34.63017 v -8.65754 h 8.60132 v 8.65754 z m 15.23507,34.63017 v -32.60633 h 24.90449 q 3.37306,0 5.73421,2.41737 2.41737,2.41736 2.41737,5.73421 v 24.45475 h -8.60133 V 283.0104 q 0,-1.85518 0,-1.85518 0,0 -1.85518,0 h -12.14305 q -1.85519,0 -1.85519,0 0,0 0,1.85518 v 22.14982 z m 39.0151,0 v -32.60633 h 8.60132 v 32.60633 z m 0,-34.63017 v -8.65754 h 8.60132 v 8.65754 z m 23.04936,34.63017 q -3.31685,0 -5.73422,-2.41737 -2.41736,-2.41736 -2.41736,-5.73421 v -1.63032 h 8.60132 v 0.28109 q 0,0.89948 0,0.89948 0,0 0.89949,0 h 14.05445 q 0.89948,0 0.89948,0 0,0 0,-0.89948 v -1.5741 q 0,-0.89948 0,-0.89948 0,0 -0.89948,0 H 880.6008 q -3.31685,0 -5.73422,-2.41737 -2.41736,-2.41736 -2.41736,-5.73422 v -4.32877 q 0,-3.31685 2.41736,-5.73421 2.41737,-2.41737 5.73422,-2.41737 h 16.7529 q 3.37307,0 5.79044,2.41737 2.41736,2.41736 2.41736,5.73421 v 1.63032 h -8.65754 v -0.28109 q 0,-0.89948 0,-0.89948 0,0 -0.89948,0 h -14.05445 q -0.89949,0 -0.89949,0 0,0 0,0.89948 v 1.5741 q 0,0.89948 0,0.89948 0,0 0.89949,0 h 15.40367 q 3.37307,0 5.79044,2.41737 2.41736,2.41737 2.41736,5.73422 v 4.32877 q 0,3.31685 -2.41736,5.73421 -2.41737,2.41737 -5.79044,2.41737 z m 38.90277,0 q -3.37307,0 -5.79044,-2.41737 -2.41736,-2.41736 -2.41736,-5.73421 v -34.12421 h 8.60132 v 9.66946 h 12.08683 v 8.60133 h -12.08683 v 13.54849 q 0,1.85518 0,1.85518 0,0 1.85519,0 h 10.23164 v 8.60133 z m 17.09023,0 v -32.60633 h 8.60132 v 32.60633 z m 0,-34.63017 v -8.65754 h 8.60132 v 8.65754 z m 21.53143,34.63017 q -3.31685,0 -5.73422,-2.41737 -2.41737,-2.41736 -2.41737,-5.73421 v -16.30317 q 0,-3.31685 2.41737,-5.73421 2.41737,-2.41737 5.73422,-2.41737 h 24.84826 v 8.60133 h -22.54333 q -1.85519,0 -1.85519,0 0,0 0,1.85518 v 11.69331 q 0,1.85518 0,1.85518 0,0 1.85519,0 h 22.59955 v 8.60133 z m 57.17347,0 q -3.3168,0 -5.7342,-2.41737 -2.4173,-2.41736 -2.4173,-5.73421 v -16.30317 q 0,-3.31685 2.4173,-5.73421 2.4174,-2.41737 5.7342,-2.41737 h 24.8483 v 8.60133 h -22.5433 q -1.8552,0 -1.8552,0 0,0 0,1.85518 v 11.69331 q 0,1.85518 0,1.85518 0,0 1.8552,0 h 22.5995 v 8.60133 z m 39.1276,0 q -3.3168,0 -5.7342,-2.41737 -2.4174,-2.41736 -2.4174,-5.73421 v -35.19235 h 8.6576 v 32.88742 q 0,1.85518 0,1.85518 0,0 1.8552,0 h 4.7223 v 8.60133 z m 19.5638,0 q -3.3731,0 -5.7904,-2.41737 -2.3612,-2.41736 -2.3612,-5.73421 v -12.48036 h 24.4548 v -1.51788 q 0,-1.85518 0,-1.85518 0,0 -1.8552,0 h -22.5996 v -8.60133 h 24.9045 q 3.3731,0 5.7342,2.41737 2.4174,2.41736 2.4174,5.73421 v 24.45475 z m 2.3049,-8.60133 h 13.9983 v -4.49742 h -15.8535 v 2.64224 q 0,1.85518 0,1.85518 z m 28.5587,8.60133 v -32.60633 h 8.6013 v 32.60633 z m 0,-34.63017 v -8.65754 h 8.6013 v 8.65754 z m 12.9863,34.63017 v -32.60633 h 39.24 q 3.3731,0 5.7342,2.41737 2.4174,2.41736 2.4174,5.73421 v 24.45475 h -8.5451 V 283.0104 q 0,-1.85518 0,-1.85518 0,0 -1.8552,0 h -7.0835 q -1.8552,0 -1.8552,0 0,0 0,1.85518 v 22.14982 h -8.6575 V 283.0104 q 0,-1.85518 0,-1.85518 0,0 -1.8552,0 h -7.0834 q -1.8552,0 -1.8552,0 0,0 0,1.85518 v 22.14982 z m 77.5244,12.87387 v -8.65754 h 17.4838 q 1.8551,0 1.8551,0 0,0 0,-1.85519 v -2.36114 h -16.3031 q -3.3731,0 -5.7905,-2.41737 -2.4173,-2.41736 -2.4173,-5.73421 v -16.30317 q 0,-3.31685 2.4173,-5.73421 2.4174,-2.41737 5.7905,-2.41737 h 16.7529 q 3.3731,0 5.7342,2.41737 2.4174,2.41736 2.4174,5.73421 v 29.17704 q 0,3.37307 -2.4174,5.73422 -2.3611,2.41736 -5.7342,2.41736 z m 5.2845,-21.4752 h 12.1993 q 1.8551,0 1.8551,0 0,0 0,-1.85518 V 283.0104 q 0,-1.85518 0,-1.85518 0,0 -1.8551,0 h -12.1993 q -1.8552,0 -1.8552,0 0,0 0,1.85518 v 11.69331 q 0,1.85518 0,1.85518 z m 27.1532,8.60133 v -24.45475 q 0,-3.31685 2.4174,-5.73421 2.4173,-2.41737 5.7904,-2.41737 h 17.9897 v 8.60133 h -15.741 q -1.8552,0 -1.8552,0 0,0 0,1.85518 v 22.14982 z m 37.9472,0 q -3.3169,0 -5.7342,-2.41737 -2.4174,-2.41736 -2.4174,-5.73421 v -16.30317 q 0,-3.31685 2.4174,-5.73421 2.4173,-2.41737 5.7342,-2.41737 h 16.7529 q 3.3731,0 5.7342,2.41737 2.4174,2.41736 2.4174,5.73421 v 16.30317 q 0,3.31685 -2.4174,5.73421 -2.3611,2.41737 -5.7342,2.41737 z m 2.3049,-8.60133 h 12.1431 q 1.8551,0 1.8551,0 0,0 0,-1.85518 V 283.0104 q 0,-1.85518 0,-1.85518 0,0 -1.8551,0 h -12.1431 q -1.8552,0 -1.8552,0 0,0 0,1.85518 v 11.69331 q 0,1.85518 0,1.85518 z m 35.1923,8.60133 q -3.3731,0 -5.7905,-2.41737 -2.3611,-2.41736 -2.3611,-5.73421 v -24.45475 h 8.6013 v 22.14982 q 0,1.85518 0,1.85518 0,0 1.8552,0 h 12.1431 q 1.8551,0 1.8551,0 0,0 0,-1.85518 v -22.14982 h 8.6014 v 24.45475 q 0,3.31685 -2.4174,5.73421 -2.3611,2.41737 -5.7342,2.41737 z m 30.976,0 v -32.60633 h 24.9045 q 3.373,0 5.7342,2.41737 2.4173,2.41736 2.4173,5.73421 v 24.45475 h -8.6013 V 283.0104 q 0,-1.85518 0,-1.85518 0,0 -1.8552,0 h -12.143 q -1.8552,0 -1.8552,0 0,0 0,1.85518 v 22.14982 z m 45.5364,0 q -3.3731,0 -5.7905,-2.41737 -2.3611,-2.41736 -2.3611,-5.73421 v -16.30317 q 0,-3.31685 2.3611,-5.73421 2.4174,-2.41737 5.7905,-2.41737 h 16.3593 v -10.68138 h 8.6014 v 43.28771 z m 2.3611,-8.60133 h 12.1431 q 1.8551,0 1.8551,0 0,0 0,-1.85518 V 283.0104 q 0,-1.85518 0,-1.85518 0,0 -1.8551,0 H 1382.12 q -1.8552,0 -1.8552,0 0,0 0,1.85518 v 11.69331 q 0,1.85518 0,1.85518 z m 28.6148,8.60133 v -32.60633 h 8.6014 v 32.60633 z m 0,-34.63017 v -8.65754 h 8.6014 v 8.65754 z m 15.2351,34.63017 v -32.60633 h 24.9045 q 3.3731,0 5.7342,2.41737 2.4174,2.41736 2.4174,5.73421 v 24.45475 h -8.6014 V 283.0104 q 0,-1.85518 0,-1.85518 0,0 -1.8551,0 h -12.1431 q -1.8552,0 -1.8552,0 0,0 0,1.85518 v 22.14982 z m 43.0066,12.87387 v -8.65754 h 17.4837 q 1.8552,0 1.8552,0 0,0 0,-1.85519 v -2.36114 h -16.3032 q -3.373,0 -5.7904,-2.41737 -2.4174,-2.41736 -2.4174,-5.73421 v -16.30317 q 0,-3.31685 2.4174,-5.73421 2.4174,-2.41737 5.7904,-2.41737 h 16.7529 q 3.3731,0 5.7343,2.41737 2.4173,2.41736 2.4173,5.73421 v 29.17704 q 0,3.37307 -2.4173,5.73422 -2.3612,2.41736 -5.7343,2.41736 z m 5.2845,-21.4752 h 12.1992 q 1.8552,0 1.8552,0 0,0 0,-1.85518 V 283.0104 q 0,-1.85518 0,-1.85518 0,0 -1.8552,0 h -12.1992 q -1.8552,0 -1.8552,0 0,0 0,1.85518 v 11.69331 q 0,1.85518 0,1.85518 z" id="text188" style="font-size:56.2178px;font-family:Orbitron;-inkscape-font-specification:'Orbitron, @wght=900';font-variation-settings:'wght' 900;stroke:#1278d1;stroke-width:0.283137;stroke-opacity:0;paint-order:fill markers stroke" aria-label="Deterministic claim grounding" class="gr-teal" />
<style><style type="text/css">
    .gr-navy{fill:#072852}
    .gr-teal{fill:#0d90a4}
    @media (prefers-color-scheme:dark){
      .gr-navy{fill:#5b8bd0}
      .gr-teal{fill:#3fb6cc}
    }
  </style></style></svg>